<svg width="494" height="327" viewBox="0 0 494 327" fill="none" xmlns="http://www.w3.org/2000/svg">
<path d="M494 286.573H0V286.792H494V286.573Z" fill="#EBEBEB"/>
<path d="M444.501 300.657H411.779V300.876H444.501V300.657Z" fill="#EBEBEB"/>
<path d="M327.245 303.038H318.66V303.257H327.245V303.038Z" fill="#EBEBEB"/>
<path d="M410.791 292.534H391.831V292.753H410.791V292.534Z" fill="#EBEBEB"/>
<path d="M94.5022 294.005H51.8305V294.224H94.5022V294.005Z" fill="#EBEBEB"/>
<path d="M109.559 294.005H103.305V294.224H109.559V294.005Z" fill="#EBEBEB"/>
<path d="M222.448 297.699H129.892V297.917H222.448V297.699Z" fill="#EBEBEB"/>
<path d="M234.156 247.535H43.3831C41.8886 247.533 40.4562 247.005 39.4003 246.068C38.3445 245.131 37.7515 243.861 37.7515 242.537V4.9542C37.7645 3.63777 38.3632 2.37905 39.4177 1.45144C40.4721 0.523831 41.8971 0.00225511 43.3831 0H234.156C235.652 0 237.087 0.52657 238.145 1.46387C239.203 2.40117 239.797 3.67242 239.797 4.99797V242.537C239.797 243.863 239.203 245.134 238.145 246.071C237.087 247.009 235.652 247.535 234.156 247.535V247.535ZM43.3831 0.175061C41.9541 0.177379 40.5845 0.681916 39.575 1.57793C38.5655 2.47394 37.9985 3.68821 37.9985 4.9542V242.537C37.9985 243.803 38.5655 245.017 39.575 245.913C40.5845 246.809 41.9541 247.314 43.3831 247.316H234.156C235.586 247.314 236.956 246.81 237.968 245.914C238.979 245.018 239.548 243.804 239.55 242.537V4.9542C239.548 3.68741 238.979 2.47316 237.968 1.57739C236.956 0.681632 235.586 0.177375 234.156 0.175061H43.3831Z" fill="#EBEBEB"/>
<path d="M447.87 247.535H257.087C255.592 247.533 254.159 247.005 253.101 246.069C252.044 245.132 251.449 243.862 251.446 242.537V4.9542C251.462 3.63697 252.063 2.37826 253.119 1.45089C254.175 0.523525 255.601 0.00223052 257.087 0H447.87C449.355 0.0045555 450.777 0.527149 451.829 1.45451C452.882 2.38187 453.479 3.63928 453.492 4.9542V242.537C453.492 243.86 452.9 245.128 451.847 246.065C450.793 247.002 449.363 247.53 447.87 247.535V247.535ZM257.087 0.175061C255.658 0.177375 254.287 0.681632 253.276 1.57739C252.265 2.47316 251.696 3.68741 251.693 4.9542V242.537C251.696 243.804 252.265 245.018 253.276 245.914C254.287 246.81 255.658 247.314 257.087 247.316H447.87C449.3 247.314 450.671 246.81 451.682 245.914C452.693 245.018 453.262 243.804 453.265 242.537V4.9542C453.262 3.68741 452.693 2.47316 451.682 1.57739C450.671 0.681632 449.3 0.177375 447.87 0.175061H257.087Z" fill="#EBEBEB"/>
<path d="M75.8191 149.396L295.501 149.396V25.1912L75.8191 25.1912L75.8191 149.396Z" fill="#E6E6E6"/>
<path d="M70.4444 149.396L292.991 149.396V25.1912L70.4444 25.1912L70.4444 149.396Z" fill="#F0F0F0"/>
<path d="M75.8191 158.246L295.501 158.246V149.396L75.8191 149.396V158.246Z" fill="#E6E6E6"/>
<path d="M66.4825 149.396H279.041C279.694 149.391 280.341 149.5 280.946 149.717C281.552 149.934 282.102 150.256 282.566 150.663C283.03 151.07 283.398 151.554 283.65 152.088C283.901 152.622 284.03 153.194 284.03 153.773C284.032 154.354 283.903 154.93 283.653 155.467C283.403 156.004 283.036 156.493 282.572 156.904C282.109 157.316 281.558 157.642 280.952 157.865C280.347 158.087 279.697 158.202 279.041 158.202H66.4825C65.1566 158.202 63.885 157.735 62.9475 156.905C62.01 156.074 61.4832 154.948 61.4832 153.773V153.773C61.4988 152.607 62.0324 151.494 62.9683 150.675C63.9042 149.856 65.1668 149.396 66.4825 149.396V149.396Z" fill="#F0F0F0"/>
<path d="M285.473 142.727V31.8609L77.9828 31.8609V142.727H285.473Z" fill="#FAFAFA"/>
<path d="M271.068 142.727L226.894 31.861H206.038L250.211 142.727H271.068Z" fill="white"/>
<path d="M281.985 105.115C281.841 105.115 281.703 105.064 281.601 104.974C281.499 104.884 281.442 104.761 281.442 104.633V36.2024C281.431 36.1344 281.437 36.0651 281.46 35.9993C281.482 35.9335 281.52 35.8727 281.571 35.821C281.622 35.7693 281.685 35.7278 281.755 35.6994C281.826 35.671 281.903 35.6563 281.98 35.6563C282.058 35.6563 282.134 35.671 282.205 35.6994C282.275 35.7278 282.338 35.7693 282.389 35.821C282.44 35.8727 282.478 35.9335 282.501 35.9993C282.523 36.0651 282.529 36.1344 282.519 36.2024V104.633C282.519 104.76 282.463 104.881 282.363 104.971C282.263 105.061 282.127 105.113 281.985 105.115V105.115Z" fill="#F0F0F0"/>
<path d="M245.735 142.727L201.562 31.861H193.431L237.604 142.727H245.735Z" fill="white"/>
<path d="M201.018 142.727L156.845 31.861H135.998L180.162 142.727H201.018Z" fill="white"/>
<path d="M145.592 142.727L101.418 31.861H93.287L137.46 142.727H145.592Z" fill="white"/>
<path d="M78.9214 142.727L78.9214 31.861H77.9631L77.9631 142.727H78.9214Z" fill="#E6E6E6"/>
<path opacity="0.4" d="M68.666 42.8985H288.348L289.039 34.4518H69.3576L68.666 42.8985Z" fill="#E6E6E6"/>
<path opacity="0.4" d="M68.666 49.0869H288.348L289.039 40.6315H69.3576L68.666 49.0869Z" fill="#E6E6E6"/>
<path opacity="0.4" d="M68.666 56.5007H288.348L289.039 48.054H69.3576L68.666 56.5007Z" fill="#E6E6E6"/>
<path opacity="0.4" d="M68.666 64.7548H288.348L289.039 56.3081H69.3576L68.666 64.7548Z" fill="#E6E6E6"/>
<path opacity="0.4" d="M68.666 74.6544H288.348L289.039 66.199H69.3576L68.666 74.6544Z" fill="#E6E6E6"/>
<path opacity="0.4" d="M68.666 85.7795H288.348L289.039 77.3328H69.3576L68.666 85.7795Z" fill="#E6E6E6"/>
<path d="M90.5175 286.216C108.802 283.674 121.299 268.48 118.429 252.281C115.559 236.082 98.4096 225.011 80.1248 227.554C61.8399 230.096 49.3436 245.289 52.2135 261.489C55.0833 277.688 72.2326 288.759 90.5175 286.216Z" fill="#F5F5F5"/>
<g style="mix-blend-mode:multiply" opacity="0.7">
<path d="M83.4465 234.038C80.5714 233.933 78.299 232.839 78.3583 231.587C78.4176 230.335 80.7888 229.425 83.6638 229.53C86.5389 229.635 88.8113 230.738 88.752 231.981C88.6928 233.224 86.3216 234.143 83.4465 234.038Z" fill="#E6E6E6"/>
</g>
<g style="mix-blend-mode:multiply" opacity="0.7">
<path d="M69.0316 238.519C66.6208 239.894 64.0422 240.156 63.2814 239.115C62.5206 238.073 63.8643 236.095 66.2454 234.738C68.6265 233.381 71.1854 233.093 71.9956 234.143C72.8057 235.193 71.4522 237.136 69.0316 238.519Z" fill="#E6E6E6"/>
</g>
<g style="mix-blend-mode:multiply" opacity="0.7">
<path d="M79.1783 244.27C76.5502 245.321 73.8431 245.014 73.1219 243.587C72.4006 242.161 73.932 240.156 76.5502 239.115C79.1684 238.073 81.8756 238.371 82.6067 239.797C83.3378 241.224 81.7965 243.22 79.1783 244.27Z" fill="#E6E6E6"/>
</g>
<path d="M126.79 286.573H168.414V188.312H126.79L126.79 286.573Z" fill="#E6E6E6"/>
<path d="M134.694 286.573H126.78V260.603H142.983L134.694 286.573Z" fill="#F0F0F0"/>
<path d="M364.285 286.573H405.91V188.312H364.285V286.573Z" fill="#E6E6E6"/>
<path d="M126.79 279.484H371.192V188.312L126.79 188.312V279.484Z" fill="#F0F0F0"/>
<path d="M363.278 286.573H371.182V260.603H354.988L363.278 286.573Z" fill="#F0F0F0"/>
<path d="M363.821 268.507H289.84V198.361H363.821V268.507ZM291.371 267.151H362.29V199.752H291.371V267.151Z" fill="#E6E6E6"/>
<path d="M285.977 268.507H211.995V198.361H285.977V268.507ZM213.527 267.151H284.445V199.752H213.527V267.151Z" fill="#E6E6E6"/>
<path d="M208.122 268.507H134.141V198.361H208.122V268.507ZM135.672 267.151H206.591V199.752H135.672V267.151Z" fill="#E6E6E6"/>
<path d="M247 326.102C352.798 326.102 438.563 321.666 438.563 316.194C438.563 310.721 352.798 306.285 247 306.285C141.202 306.285 55.4367 310.721 55.4367 316.194C55.4367 321.666 141.202 326.102 247 326.102Z" fill="#F5F5F5"/>
<path d="M255.191 52.9119C240.371 47.8614 225.343 60.492 226.539 83.9413C227.438 101.447 208.537 99.5392 218.417 115.128C228.297 130.717 220.976 141.265 210.513 138.429C218.417 147.252 241.764 140.442 241.833 126.052C241.902 111.662 281.867 132.661 281.867 132.661C281.867 132.661 273.755 145.3 296.4 142.368C319.045 139.435 338.696 99.0928 338.775 81.1754C338.835 69.2976 324.509 63.8094 317.267 64.9736C317 49.8046 248.275 21.6024 255.191 52.9119Z" fill="#263238"/>
<path d="M215.473 137.729C213.394 137.73 211.34 137.327 209.456 136.547L209.901 135.768C209.901 135.768 214.445 137.781 218.793 136.389C221.421 135.514 223.466 133.623 224.879 130.674L225.788 131.015C224.266 134.201 222.023 136.267 219.119 137.212C217.947 137.571 216.713 137.746 215.473 137.729V137.729Z" fill="#263238"/>
<path d="M219.721 103.653L218.951 103.11C224.414 97.0796 223.822 91.5827 223.13 85.2193C222.507 79.4248 221.796 72.8513 225.798 64.8335C230.293 55.8354 236.369 50.4873 243.374 49.367C249.223 48.4216 255.428 50.6099 260.852 55.4941L260.15 56.1068C254.963 51.4152 249.065 49.3144 243.552 50.1985C236.883 51.2664 231.054 56.4481 226.756 65.1661C222.804 72.9738 223.555 79.416 224.167 85.1055C224.79 91.4164 225.432 97.351 219.721 103.653Z" fill="#263238"/>
<path d="M138.607 200.068L134.941 190.054C133.973 187.404 132.165 185.055 129.734 183.288L125.486 180.189C124.067 179.594 122.476 179.395 120.927 179.62C119.377 179.845 117.941 180.484 116.811 181.45L110.103 187.157C108.696 188.353 107.851 189.975 107.733 191.7C107.616 193.424 108.236 195.124 109.47 196.461L112.345 199.569C112.345 199.569 121 211.438 132.046 215.201L134.259 213.039C136.031 211.302 137.341 209.235 138.093 206.99C138.845 204.745 139.021 202.38 138.607 200.068V200.068Z" fill="#FF8B7B"/>
<path d="M241.27 193.17L240.716 194.614L240.212 195.892L239.224 198.387C238.543 200.041 237.802 201.643 237.071 203.245C235.598 206.457 233.998 209.591 232.338 212.707C230.678 215.823 228.92 218.895 227.072 221.941C225.224 224.987 223.337 227.998 221.272 230.957C217.188 236.942 212.704 242.706 207.846 248.218C202.894 253.873 197.443 259.171 191.544 264.061C190.793 264.673 190.052 265.295 189.281 265.899L186.939 267.693L186.357 268.14L186.06 268.367L185.339 268.901C184.01 269.849 182.557 270.652 181.011 271.291C179.285 272.001 177.451 272.484 175.568 272.726C173.793 272.954 171.992 272.969 170.213 272.77C167.546 272.466 164.965 271.733 162.595 270.608C160.976 269.837 159.45 268.922 158.04 267.877C155.955 266.337 154.046 264.619 152.34 262.748C149.614 259.751 147.162 256.567 145.009 253.225C142.983 250.1 141.195 247.001 139.506 243.911C136.186 237.705 133.321 231.508 130.762 225.241C128.203 218.974 125.911 212.716 123.984 206.16C123.518 204.445 123.754 202.64 124.651 201.066C125.547 199.492 127.046 198.251 128.879 197.564C130.712 196.878 132.761 196.79 134.661 197.318C136.56 197.845 138.186 198.953 139.249 200.444L139.348 200.593C146.748 211.411 154.079 222.545 161.874 232.611C163.801 235.132 165.777 237.574 167.802 239.824C169.593 241.922 171.555 243.903 173.671 245.749C174.338 246.34 175.089 246.852 175.904 247.272C176.121 247.369 176.21 247.272 175.904 247.159C175.16 246.771 174.331 246.529 173.473 246.45C172.601 246.345 171.717 246.345 170.845 246.45C169.863 246.569 168.905 246.81 168 247.167C167.275 247.454 166.592 247.815 165.964 248.244L165.786 248.375L165.707 248.428L165.757 248.384L165.964 248.192L166.389 247.815L168.059 246.31L169.679 244.752C174.048 240.457 178.094 235.913 181.792 231.149C185.517 226.291 189.103 221.276 192.364 216.024C195.624 210.772 198.716 205.416 201.601 199.954C203.044 197.214 204.407 194.457 205.741 191.7L207.717 187.568L208.636 185.529L209.426 183.699L209.683 183.104C211.19 179.39 214.3 176.358 218.33 174.675C222.36 172.993 226.98 172.798 231.172 174.132C235.365 175.467 238.787 178.223 240.686 181.793C242.585 185.363 242.806 189.456 241.299 193.17H241.27Z" fill="#FF8B7B"/>
<path d="M205.356 196.759C205.781 205.389 190.407 225.337 209.387 236.9C211.62 254.327 214.416 271.483 219.662 300.062H318.699C314.629 275.343 315.518 247.176 328.579 191.525C329.298 188.481 329.286 185.337 328.544 182.298C327.802 179.259 326.347 176.392 324.273 173.883C322.199 171.374 319.552 169.28 316.505 167.737C313.458 166.194 310.079 165.235 306.586 164.924C302.634 164.574 298.445 164.276 294.157 164.049C277.5 163.34 263.836 162.867 249.183 164.049C244.332 164.443 239.303 164.985 234.522 165.581C226.156 166.637 218.534 170.415 213.142 176.18C207.75 181.944 204.974 189.28 205.356 196.759V196.759Z" fill="#263238"/>
<path opacity="0.2" d="M239.404 180.518C234.76 176.308 227.893 174.767 224.584 176.142C221.274 177.516 225.315 178.829 228.97 178.969C232.626 179.109 226.856 180.378 220.701 179.844C214.546 179.31 215.109 183.153 221.689 184.089C228.269 185.026 221.61 185.56 216.116 185.262C210.623 184.965 210.06 188.439 216.689 189.639C223.319 190.838 204.517 190.12 210.831 195.853C217.144 201.586 220.256 188.028 220.335 192.956C220.414 197.884 225.275 198.269 226.075 194.33C226.876 190.391 229.109 185.814 228.901 190.68C228.694 195.547 233.752 196.807 234.404 192.352C235.056 187.897 238.08 184.124 237.447 186.724C236.815 189.324 237.685 192.51 240.273 190.453C242.862 188.396 244.037 184.728 239.404 180.518Z" fill="white"/>
<path opacity="0.2" d="M233.858 207.134C229.215 202.924 222.348 201.383 219.038 202.757C215.728 204.131 219.779 205.453 223.425 205.584C227.071 205.716 221.32 206.994 215.155 206.46C208.99 205.926 209.573 209.768 216.143 210.714C222.714 211.659 216.064 212.175 210.571 211.878C205.078 211.58 204.524 215.064 211.144 216.254C217.764 217.445 198.972 216.727 205.295 222.46C211.618 228.193 214.711 214.644 214.8 219.563C214.889 224.482 219.74 224.876 220.54 220.946C221.34 217.016 223.573 212.421 223.356 217.287C223.138 222.154 228.207 223.414 228.869 218.959C229.531 214.504 232.534 210.74 231.902 213.34C231.27 215.939 232.139 219.117 234.728 217.06C237.316 215.003 238.502 211.326 233.858 207.134Z" fill="white"/>
<path opacity="0.2" d="M273.745 193.126C278.329 197.38 285.186 198.982 288.565 197.66C291.944 196.339 287.864 194.956 284.218 194.789C280.572 194.623 286.342 193.398 292.488 193.993C298.633 194.588 298.119 190.737 291.5 189.73C284.88 188.724 291.588 188.268 297.082 188.619C302.575 188.969 303.168 185.494 296.558 184.242C289.948 182.99 308.74 183.874 302.486 178.115C296.232 172.355 292.982 185.844 292.952 180.916C292.922 175.988 288.101 175.559 287.231 179.489C286.362 183.419 284.09 187.98 284.356 183.113C284.623 178.246 279.584 176.942 278.873 181.362C278.162 185.783 275.099 189.555 275.771 186.956C276.442 184.356 275.603 181.179 272.984 183.209C270.366 185.24 269.151 188.872 273.745 193.126Z" fill="white"/>
<path opacity="0.2" d="M316.119 198.492C311.485 194.282 304.609 192.741 301.25 194.115C297.89 195.49 301.991 196.803 305.636 196.943C309.282 197.083 303.532 198.352 297.367 197.818C291.202 197.284 291.785 201.127 298.355 202.072C304.925 203.017 298.276 203.534 292.792 203.236C287.309 202.939 286.736 206.413 293.365 207.613C299.995 208.812 281.193 208.085 287.507 213.819C293.82 219.552 296.922 205.993 297.011 210.921C297.1 215.849 301.951 216.234 302.751 212.295C303.552 208.357 305.785 203.779 305.577 208.645C305.37 213.512 310.418 214.773 311.08 210.317C311.742 205.862 314.756 202.098 314.113 204.698C313.471 207.297 314.36 210.475 316.939 208.418C319.518 206.361 320.763 202.702 316.119 198.492Z" fill="white"/>
<path opacity="0.2" d="M250.2 220.482C254.794 224.727 261.641 226.337 265.02 225.007C268.399 223.676 264.308 222.311 260.663 222.145C257.017 221.978 262.787 220.753 268.942 221.348C275.097 221.943 274.564 218.092 267.954 217.085C261.344 216.079 268.053 215.615 273.536 215.965C279.02 216.315 279.632 212.849 273.013 211.589C266.393 210.328 285.195 211.23 278.941 205.461C272.687 199.693 269.426 213.199 269.397 208.271C269.367 203.343 264.555 202.914 263.676 206.836C262.797 210.757 260.544 215.326 260.811 210.468C261.078 205.61 256.039 204.289 255.318 208.718C254.596 213.147 251.553 216.902 252.215 214.311C252.877 211.72 252.047 208.525 249.439 210.564C246.831 212.604 245.615 216.228 250.2 220.482Z" fill="white"/>
<path opacity="0.2" d="M250.913 250.459C255.498 254.713 262.354 256.314 265.733 254.993C269.112 253.671 265.022 252.288 261.376 252.122C257.73 251.955 263.5 250.73 269.656 251.325C275.811 251.92 275.277 248.069 268.668 247.062C262.058 246.056 268.766 245.601 274.25 245.951C279.733 246.301 280.346 242.826 273.726 241.574C267.107 240.323 285.908 241.207 279.654 235.447C273.4 229.688 270.14 243.176 270.11 238.248C270.08 233.32 265.269 232.891 264.39 236.821C263.51 240.751 261.248 245.312 261.524 240.445C261.801 235.578 256.752 234.274 256.031 238.695C255.31 243.115 252.267 246.887 252.929 244.288C253.591 241.688 252.761 238.511 250.152 240.541C247.544 242.572 246.319 246.205 250.913 250.459Z" fill="white"/>
<path opacity="0.2" d="M215.913 250.459C220.498 254.713 227.354 256.314 230.733 254.993C234.112 253.671 230.022 252.288 226.376 252.122C222.73 251.955 228.5 250.73 234.656 251.325C240.811 251.92 240.277 248.069 233.668 247.062C227.058 246.056 233.766 245.601 239.25 245.951C244.733 246.301 245.346 242.826 238.726 241.574C232.107 240.323 250.908 241.207 244.654 235.447C238.4 229.688 235.14 243.176 235.11 238.248C235.08 233.32 230.269 232.891 229.39 236.821C228.51 240.751 226.248 245.312 226.524 240.445C226.801 235.578 221.752 234.274 221.031 238.695C220.31 243.115 217.267 246.887 217.929 244.288C218.591 241.688 217.761 238.511 215.152 240.541C212.544 242.572 211.319 246.205 215.913 250.459Z" fill="white"/>
<path opacity="0.2" d="M232.368 278.083C236.962 282.328 243.809 283.939 247.188 282.608C250.567 281.278 246.486 279.912 242.831 279.746C239.175 279.58 244.955 278.354 251.11 278.95C257.265 279.545 256.732 275.694 250.122 274.687C243.512 273.68 250.211 273.216 255.704 273.567C261.198 273.917 261.79 270.45 255.181 269.19C248.571 267.93 267.353 268.831 261.109 263.063C254.864 257.295 251.594 270.801 251.565 265.873C251.535 260.945 246.723 260.516 245.844 264.437C244.965 268.358 242.712 272.928 242.979 268.07C243.246 263.212 238.207 261.89 237.495 266.319C236.784 270.748 233.721 274.503 234.393 271.912C235.065 269.321 234.215 266.126 231.607 268.166C228.999 270.205 227.783 273.829 232.368 278.083Z" fill="white"/>
<path opacity="0.2" d="M298.455 256.892C293.821 252.682 286.945 251.141 283.586 252.516C280.226 253.89 284.327 255.211 287.972 255.343C291.618 255.474 285.868 256.752 279.703 256.218C273.538 255.684 274.121 259.527 280.691 260.472C287.261 261.417 280.622 261.934 275.128 261.636C269.635 261.339 269.072 264.814 275.701 266.013C282.331 267.212 263.529 266.485 269.843 272.219C276.156 277.952 279.258 264.393 279.347 269.321C279.436 274.249 284.287 274.634 285.087 270.704C285.888 266.774 288.121 262.179 287.913 267.046C287.706 271.912 292.754 273.173 293.416 268.717C294.078 264.262 297.092 260.498 296.449 263.098C295.807 265.698 296.696 268.875 299.285 266.818C301.874 264.761 303.099 261.102 298.455 256.892Z" fill="white"/>
<path opacity="0.2" d="M284.919 284.517C280.276 280.306 273.409 278.766 270.05 280.14C266.691 281.514 270.781 282.827 274.437 282.967C278.092 283.107 272.322 284.377 266.167 283.843C260.012 283.309 260.585 287.151 267.155 288.088C273.725 289.024 267.076 289.558 261.583 289.261C256.09 288.963 255.526 292.438 262.156 293.637C268.785 294.836 249.984 294.119 256.297 299.843C262.61 305.568 265.723 292.027 265.812 296.955C265.9 301.883 270.752 302.268 271.542 298.329C272.332 294.39 274.575 289.812 274.368 294.67C274.16 299.528 279.219 300.797 279.871 296.351C280.523 291.904 283.546 288.123 282.914 290.722C282.281 293.322 283.151 296.508 285.739 294.451C288.328 292.394 289.553 288.718 284.919 284.517Z" fill="white"/>
<path opacity="0.2" d="M215.838 305.813C220.423 310.067 227.28 311.668 230.658 310.338C234.037 309.007 229.957 307.642 226.311 307.476C222.666 307.309 228.435 306.084 234.591 306.679C240.746 307.274 240.212 303.423 233.603 302.416C226.993 301.41 233.692 300.955 239.185 301.305C244.678 301.655 245.271 298.18 238.661 296.928C232.052 295.677 250.843 296.569 244.589 290.801C238.335 285.033 235.085 298.53 235.055 293.602C235.025 288.674 230.204 288.245 229.335 292.167C228.465 296.088 226.193 300.666 226.459 295.799C226.726 290.933 221.687 289.628 220.976 294.049C220.265 298.469 217.202 302.233 217.874 299.642C218.546 297.051 217.706 293.865 215.088 295.895C212.469 297.926 211.244 301.559 215.838 305.813Z" fill="white"/>
<path opacity="0.2" d="M301.261 287.099C305.845 291.353 312.702 292.954 316.081 291.633C319.46 290.311 315.379 288.928 311.734 288.762C308.088 288.595 313.858 287.37 320.013 287.965C326.168 288.56 325.635 284.709 319.025 283.703C312.415 282.696 319.114 282.241 324.607 282.591C330.101 282.941 330.693 279.466 324.084 278.214C317.474 276.963 336.266 277.847 330.012 272.087C323.758 266.328 320.507 279.816 320.478 274.888C320.448 269.96 315.626 269.531 314.757 273.462C313.888 277.392 311.615 281.952 311.882 277.085C312.149 272.219 307.11 270.958 306.399 275.335C305.687 279.711 302.624 283.597 303.316 280.972C304.008 278.346 303.148 275.195 300.53 277.225C297.912 279.256 296.667 282.871 301.261 287.099Z" fill="white"/>
<path opacity="0.2" d="M312.583 226.108C307.94 221.898 301.073 220.357 297.714 221.731C294.355 223.105 298.445 224.418 302.101 224.55C305.756 224.681 299.986 225.959 293.831 225.425C287.676 224.891 288.239 228.734 294.819 229.679C301.399 230.624 294.75 231.149 289.257 230.843C283.763 230.537 283.2 234.029 289.83 235.22C296.459 236.41 277.658 235.692 283.971 241.425C290.284 247.159 293.397 233.609 293.476 238.528C293.555 243.447 298.416 243.841 299.216 239.911C300.016 235.981 302.249 231.395 302.041 236.252C301.834 241.11 306.883 242.38 307.545 237.933C308.207 233.486 311.22 229.705 310.588 232.305C309.955 234.904 310.825 238.091 313.413 236.025C316.002 233.959 317.217 230.318 312.583 226.108Z" fill="white"/>
<path opacity="0.2" d="M306.003 187.209C304.235 200.173 310.469 223.324 319.075 240.646C320.576 229.819 322.819 217.547 325.931 203.332L306.003 187.209Z" fill="black"/>
<path d="M298.771 164.364C297.269 164.276 295.738 164.198 294.197 164.128C277.539 163.41 263.875 162.946 249.223 164.128L245.39 164.469C242.057 169.162 240.207 174.562 240.033 180.105C239.859 185.647 241.368 191.13 244.402 195.98L246.378 199.254L249.193 196.496C269.329 176.811 294.552 166.307 294.809 166.176L298.761 164.364H298.771Z" fill="white"/>
<path d="M289.741 119.268C286.905 132.083 284.08 155.576 294.197 164.128C294.197 164.128 267.827 174.334 247 194.719C236.824 177.992 249.223 164.128 249.223 164.128C265.367 160.714 264.942 150.123 262.136 140.144L289.741 119.268Z" fill="#FF8B7B"/>
<path opacity="0.2" d="M278.488 127.794L262.146 140.136C262.845 142.452 263.311 144.819 263.539 147.208C269.704 146.42 278.171 140.425 278.823 134.709C279.184 132.405 279.07 130.062 278.488 127.794Z" fill="black"/>
<path d="M305.005 95.7492C299.364 116.599 297.467 125.509 283.516 134.499C262.541 147.987 235.45 137.343 234.116 115.435C232.891 95.7142 242.327 64.9298 266.839 60.1244C290.956 55.389 310.657 74.8995 305.005 95.7492Z" fill="#FF8B7B"/>
<path d="M307.051 69.5339C283.556 87.3375 260.664 57.9274 247 72.4136C239.096 66.1815 261.366 50.1372 274.763 49.5508C288.16 48.9643 317.197 57.1396 307.051 69.5339Z" fill="#263238"/>
<path d="M251.051 69.4376C251.051 69.4376 248.541 63.2667 249.964 59.4067C246.229 60.7809 244.935 71.9147 247 72.4136C249.885 73.1139 251.051 69.4376 251.051 69.4376Z" fill="#1573FF"/>
<path d="M303.425 67.8358C278.833 75.8098 289.731 117.728 310.884 115.181C332.037 112.634 328.569 71.7222 303.425 67.8358Z" fill="#263238"/>
<path d="M270.119 95.9767C269.783 97.7273 268.479 98.9265 267.214 98.7252C265.95 98.5239 265.238 96.9746 265.535 95.224C265.831 93.4734 267.185 92.2742 268.449 92.4755C269.714 92.6769 270.465 94.2612 270.119 95.9767Z" fill="#263238"/>
<path d="M246.239 92.5456C245.903 94.2962 244.599 95.4866 243.335 95.2852C242.07 95.0839 241.359 93.5346 241.655 91.784C241.951 90.0334 243.305 88.843 244.57 89.0356C245.834 89.2282 246.585 90.83 246.239 92.5456Z" fill="#263238"/>
<path d="M245.113 89.2807L240.697 87.3638C240.697 87.3638 242.445 90.935 245.113 89.2807Z" fill="#263238"/>
<path d="M252.325 96.3969C252.325 96.3969 247.553 103.268 243.226 106.27C245.36 108.782 249.905 108.494 249.905 108.494L252.325 96.3969Z" fill="#FF5652"/>
<path d="M259.775 116.59C258.669 116.585 257.565 116.497 256.475 116.327C256.4 116.316 256.329 116.291 256.265 116.255C256.201 116.219 256.145 116.171 256.102 116.116C256.059 116.061 256.029 115.998 256.013 115.932C255.997 115.866 255.996 115.798 256.011 115.732C256.022 115.666 256.049 115.603 256.089 115.546C256.129 115.49 256.182 115.441 256.243 115.402C256.305 115.364 256.375 115.337 256.449 115.323C256.522 115.309 256.598 115.308 256.673 115.321C259.074 115.745 261.553 115.662 263.912 115.08C266.27 114.498 268.441 113.432 270.248 111.968C270.357 111.873 270.504 111.819 270.658 111.819C270.811 111.819 270.959 111.873 271.068 111.968C271.176 112.065 271.236 112.196 271.236 112.332C271.236 112.468 271.176 112.598 271.068 112.695C268.017 115.243 263.967 116.64 259.775 116.59V116.59Z" fill="#263238"/>
<path d="M306.646 116.021C305.103 117.511 303.222 118.693 301.125 119.49C299.028 120.287 296.764 120.68 294.483 120.643C288.713 120.371 288.051 114.463 291.519 109.71C294.631 105.43 301.399 100.415 306.28 103.014C311.161 105.614 310.825 112.152 306.646 116.021Z" fill="#FF8B7B"/>
<path d="M271.562 115.05C271.397 113.297 271.651 111.534 272.308 109.875C272.965 108.215 274.01 106.698 275.375 105.421C274.448 105.512 273.587 105.89 272.945 106.489C271.754 107.588 270.84 108.898 270.263 110.333C269.685 111.768 269.458 113.295 269.596 114.813C269.813 117.912 272.214 120.713 275.168 121.343C274.114 120.568 273.25 119.609 272.63 118.527C272.01 117.444 271.646 116.261 271.562 115.05V115.05Z" fill="#FF8B7B"/>
<path opacity="0.2" d="M271.562 115.05C271.397 113.297 271.651 111.534 272.308 109.875C272.965 108.215 274.01 106.698 275.375 105.421C274.448 105.512 273.587 105.89 272.945 106.489C271.754 107.588 270.84 108.898 270.263 110.333C269.685 111.768 269.458 113.295 269.596 114.813C269.813 117.912 272.214 120.713 275.168 121.343C274.114 120.568 273.25 119.609 272.63 118.527C272.01 117.444 271.646 116.261 271.562 115.05V115.05Z" fill="black"/>
<path d="M278.023 89.0531C277.875 89.0073 277.738 88.9357 277.621 88.8425C277.504 88.7493 277.409 88.6364 277.341 88.5104C276.779 87.3274 275.908 86.2793 274.801 85.4517C273.693 84.6241 272.38 84.0405 270.969 83.7488C270.818 83.7287 270.674 83.6825 270.543 83.6129C270.413 83.5433 270.299 83.4516 270.209 83.3431C270.119 83.2346 270.053 83.1114 270.017 82.9805C269.98 82.8496 269.973 82.7136 269.996 82.5803C270.018 82.4469 270.071 82.3189 270.149 82.2034C270.228 82.0879 270.331 81.9872 270.454 81.9072C270.576 81.8271 270.715 81.7692 270.863 81.7368C271.011 81.7043 271.164 81.698 271.315 81.7181C273.108 82.0606 274.782 82.7791 276.197 83.8132C277.611 84.8473 278.726 86.167 279.446 87.6614C279.538 87.8431 279.569 88.0448 279.534 88.2417C279.499 88.4387 279.4 88.6223 279.249 88.7701C279.098 88.9178 278.902 89.0233 278.684 89.0736C278.466 89.1239 278.236 89.1168 278.023 89.0531V89.0531Z" fill="#263238"/>
<path d="M238.424 83.0048C238.127 83.0209 237.834 82.9364 237.604 82.7684C237.488 82.6825 237.393 82.5771 237.323 82.4583C237.253 82.3395 237.211 82.2096 237.198 82.0762C237.185 81.9428 237.202 81.8084 237.248 81.6809C237.294 81.5533 237.368 81.4351 237.466 81.3329C238.604 80.0589 240.072 79.0462 241.745 78.3804C243.418 77.7147 245.248 77.4154 247.079 77.5079C247.377 77.545 247.647 77.6837 247.832 77.8946C248.017 78.1055 248.101 78.3719 248.067 78.637C248.023 78.902 247.864 79.1414 247.625 79.3047C247.385 79.468 247.083 79.5424 246.783 79.5123C245.333 79.4586 243.889 79.7116 242.571 80.2505C241.253 80.7893 240.099 81.5984 239.205 82.6109C239.112 82.7205 238.995 82.812 238.861 82.8797C238.726 82.9475 238.578 82.9901 238.424 83.0048V83.0048Z" fill="#263238"/>
<path d="M268.993 92.6944L264.577 90.7775C264.577 90.7775 266.325 94.3662 268.993 92.6944Z" fill="#263238"/>
<path d="M289.682 296.893C289.067 294.617 287.884 292.492 286.221 290.675C284.557 288.857 282.455 287.393 280.068 286.39L269.141 281.847C267.549 281.182 265.798 280.869 264.039 280.936C262.28 281.003 260.566 281.448 259.044 282.232L254.104 284.77C252.748 285.473 251.665 286.524 250.998 287.783C250.332 289.043 250.112 290.453 250.369 291.825L251.891 299.957C252.213 301.659 253.247 303.192 254.786 304.251C256.326 305.31 258.258 305.817 260.2 305.673L264.715 305.331C264.715 305.331 280.651 305.716 290.403 299.773L289.682 296.893Z" fill="#FF8B7B"/>
<path d="M324.924 174.911L325.912 176.111L326.811 177.187L328.53 179.297C329.666 180.697 330.723 182.115 331.79 183.533C333.914 186.36 335.9 189.24 337.837 192.164C339.773 195.087 341.601 198.037 343.36 201.048C345.118 204.059 346.818 207.096 348.389 210.203C354.988 222.804 359.641 236.135 362.221 249.837C362.477 251.588 362.813 253.338 362.991 255.15L363.297 257.829L363.347 258.328L363.396 259.203C363.435 259.786 363.435 260.37 363.396 260.953C363.396 261.531 363.317 262.126 363.238 262.704C363.159 263.282 363.031 263.798 362.912 264.341C362.437 266.246 361.683 268.088 360.669 269.82C359.851 271.205 358.892 272.52 357.804 273.75C356.061 275.679 354.094 277.439 351.935 279.002C348.474 281.472 344.751 283.641 340.82 285.479C337.185 287.177 333.598 288.613 330.022 289.935C326.445 291.256 322.869 292.368 319.302 293.436C315.735 294.504 312.149 295.44 308.572 296.316C304.996 297.191 301.389 297.97 297.783 298.705C295.975 299.055 294.167 299.379 292.349 299.703C290.531 300.027 288.733 300.272 286.797 300.578C284.8 300.901 282.738 300.571 280.995 299.65C279.251 298.729 277.944 297.279 277.316 295.569C276.687 293.858 276.78 292.005 277.577 290.35C278.374 288.696 279.821 287.354 281.649 286.573L281.965 286.442C294.365 280.98 307.159 275.466 318.423 269.356C321.238 267.842 323.936 266.266 326.376 264.656C328.607 263.276 330.682 261.708 332.571 259.973C333.13 259.474 333.594 258.897 333.944 258.266C334.151 257.925 333.746 258.03 333.391 259.142C333.337 259.293 333.298 259.448 333.272 259.605C333.272 259.781 333.203 259.973 333.193 260.157C333.183 260.341 333.193 260.542 333.193 260.743C333.193 260.945 333.193 260.945 333.193 261.041V261.12V260.988L332.768 258.966C332.511 257.619 332.116 256.262 331.78 254.914C328.626 243.804 324.059 233.048 318.166 222.852C315.261 217.6 312.01 212.453 308.641 207.376C306.942 204.838 305.173 202.343 303.405 199.866L300.698 196.216L299.354 194.466L298.129 192.899L297.714 192.374C296.417 190.793 295.483 189.002 294.967 187.102C294.451 185.201 294.363 183.23 294.707 181.3C295.402 177.401 297.816 173.907 301.419 171.585C305.022 169.264 309.518 168.305 313.919 168.921C316.098 169.226 318.188 169.908 320.069 170.928C321.95 171.948 323.587 173.287 324.884 174.868L324.924 174.911Z" fill="#FF8B7B"/>
<path d="M134.684 150.307C134.408 150.299 134.14 150.386 133.934 150.549C133.728 150.712 133.6 150.938 133.578 151.182L133.044 162.088C133.036 162.256 132.982 162.42 132.888 162.566C132.793 162.712 132.66 162.836 132.5 162.926C132.341 163.017 132.159 163.073 131.969 163.089C131.78 163.104 131.59 163.079 131.414 163.016L129.438 162.29C129.214 162.206 129.024 162.064 128.894 161.883C128.763 161.702 128.698 161.489 128.707 161.274L129.25 150.079C129.269 149.949 129.258 149.817 129.217 149.692C129.176 149.566 129.105 149.449 129.011 149.349C128.916 149.249 128.799 149.167 128.666 149.109C128.534 149.051 128.389 149.018 128.242 149.011C128.094 149.005 127.947 149.027 127.809 149.074C127.671 149.121 127.546 149.192 127.441 149.284C127.336 149.377 127.254 149.487 127.2 149.609C127.145 149.73 127.12 149.861 127.126 149.992L126.583 161.195C126.571 161.411 126.486 161.618 126.337 161.788C126.189 161.959 125.985 162.085 125.753 162.149L123.707 162.718C123.526 162.769 123.334 162.78 123.147 162.751C122.96 162.722 122.783 162.654 122.632 162.552C122.481 162.45 122.36 162.317 122.279 162.165C122.198 162.012 122.159 161.845 122.166 161.677L122.7 150.771C122.706 150.646 122.684 150.523 122.635 150.406C122.587 150.289 122.514 150.182 122.419 150.091C122.324 149.999 122.209 149.925 122.082 149.873C121.955 149.821 121.817 149.791 121.677 149.786C121.537 149.781 121.397 149.8 121.265 149.843C121.134 149.885 121.013 149.951 120.91 150.035C120.806 150.119 120.723 150.22 120.664 150.333C120.605 150.446 120.571 150.568 120.566 150.692L119.963 163.086C119.906 164.321 120.233 165.545 120.909 166.626C121.585 167.707 122.584 168.602 123.796 169.213C124.403 169.522 124.896 169.979 125.215 170.531C125.535 171.082 125.666 171.704 125.595 172.32C124.804 179.235 122.897 195.779 121.396 206.947C119.42 221.364 121.929 223.963 124.587 224.068C127.245 224.173 129.981 221.766 129.438 207.254C129.023 196.015 128.727 179.384 128.608 172.434C128.597 171.814 128.788 171.205 129.16 170.68C129.532 170.155 130.068 169.737 130.703 169.476C131.97 168.96 133.053 168.144 133.832 167.119C134.611 166.094 135.056 164.898 135.119 163.664L135.722 151.27C135.724 151.021 135.617 150.781 135.424 150.601C135.23 150.422 134.965 150.316 134.684 150.307Z" fill="#263238"/>
<path d="M116.999 138C113.343 148.118 130.317 162.666 144.258 154.569C133.963 147.226 116.999 138 116.999 138Z" fill="#1573FF"/>
<path opacity="0.5" d="M120.161 139.751C118.185 147.436 130.525 157.825 140.997 152.329C133.775 147.497 124.824 142.368 120.161 139.751Z" fill="white"/>
<path d="M438.563 297.83H55.4367V308.92H438.563V297.83Z" fill="#1573FF"/>
<path opacity="0.2" d="M438.563 302.749H55.4367V304.001H438.563V302.749Z" fill="black"/>
<path d="M423.19 313.253H70.81L60.93 308.92H433.07L423.19 313.253Z" fill="#1573FF"/>
<path opacity="0.5" d="M423.19 313.253H70.81L60.93 308.92H433.07L423.19 313.253Z" fill="white"/>
<path d="M122.848 267.273C119.429 264.463 109.253 269.024 109.866 263.299C110.478 257.575 103.621 261.724 102.673 256.122C101.724 250.52 110.923 252.148 107.03 247.806C103.137 243.465 106.24 237.793 112.207 237.732C118.175 237.67 116.485 244.463 121.623 241.382C127.274 237.994 131.938 240.988 131.957 245.504C131.977 250.021 136.69 247.474 138.597 252.209C141.106 258.441 129.596 259.115 131.878 262.818C134.161 266.52 128.489 271.895 122.848 267.273Z" fill="#1573FF"/>
<path opacity="0.4" d="M122.848 267.273C119.429 264.463 109.253 269.024 109.866 263.299C110.478 257.575 103.621 261.724 102.673 256.122C101.724 250.52 110.923 252.148 107.03 247.806C103.137 243.465 106.24 237.793 112.207 237.732C118.175 237.67 116.485 244.463 121.623 241.382C127.274 237.994 131.938 240.988 131.957 245.504C131.977 250.021 136.69 247.474 138.597 252.209C141.106 258.441 129.596 259.115 131.878 262.818C134.161 266.52 128.489 271.895 122.848 267.273Z" fill="white"/>
<path d="M122.235 265.006C118.412 260.691 110.873 267.081 111.367 262.24C111.861 257.4 104.451 260.314 105.113 255.553C105.775 250.791 113.857 250.607 109.391 248.052C104.926 245.496 107.514 239.535 112.583 239.482C117.651 239.43 116.821 245.671 121.178 243.062C125.96 240.191 129.912 242.73 129.932 246.564C129.952 250.397 134.368 248.314 136.739 252.06C140.849 258.485 127.017 257.461 130.584 261.855C132.965 264.744 127.165 270.564 122.235 265.006Z" fill="#1573FF"/>
<path opacity="0.4" d="M121.87 263.693C118.748 259.921 112.118 265.181 112.721 261.067C113.324 256.953 106.902 259.255 107.603 255.211C108.305 251.168 115.201 251.211 111.486 248.927C107.771 246.642 110.152 241.618 114.45 241.697C118.748 241.776 117.859 247.08 121.662 244.962C125.832 242.633 129.122 244.9 129.013 248.157C128.904 251.413 132.738 249.793 134.645 253.006C137.945 258.59 126.187 257.382 129.092 261.207C131.029 263.737 125.901 268.56 121.87 263.693Z" fill="white"/>
<path d="M104.323 259.632C104.797 267.509 113.067 283.029 133.637 277.645C132.471 266.888 122.097 259.833 104.323 259.632Z" fill="#1573FF"/>
<path opacity="0.3" d="M104.323 259.632C104.797 267.509 113.067 283.029 133.637 277.645C132.471 266.888 122.097 259.833 104.323 259.632Z" fill="black"/>
<path d="M107.119 261.654C109.338 263.416 111.721 265.009 114.242 266.415C116.752 267.877 119.321 269.278 121.88 270.669C124.439 272.061 127.067 273.391 129.655 274.739L137.391 278.845C137.478 278.887 137.544 278.956 137.576 279.039C137.608 279.122 137.604 279.212 137.564 279.293C137.524 279.373 137.452 279.437 137.362 279.472C137.271 279.508 137.169 279.512 137.075 279.484C134.153 278.669 131.335 277.587 128.667 276.254C126 274.958 123.411 273.549 120.842 272.114C118.273 270.678 115.774 269.138 113.333 267.527C112.108 266.722 110.903 265.899 109.747 264.997C108.554 264.124 107.462 263.148 106.487 262.083C106.425 262.009 106.398 261.916 106.411 261.825C106.424 261.734 106.476 261.651 106.556 261.592C106.63 261.539 106.722 261.51 106.818 261.51C106.913 261.51 107.005 261.539 107.079 261.592L107.119 261.654Z" fill="#1573FF"/>
<path d="M113.768 267.317H113.709C113.658 267.31 113.609 267.295 113.565 267.272C113.521 267.248 113.483 267.217 113.452 267.181C113.422 267.144 113.4 267.102 113.388 267.058C113.376 267.014 113.374 266.968 113.383 266.923C113.72 265.438 113.544 263.898 112.879 262.503C112.83 262.421 112.819 262.326 112.848 262.238C112.878 262.149 112.946 262.074 113.037 262.03C113.082 262.007 113.132 261.993 113.184 261.987C113.235 261.982 113.288 261.986 113.338 261.999C113.387 262.012 113.434 262.034 113.474 262.064C113.514 262.093 113.547 262.129 113.571 262.17C114.336 263.695 114.544 265.394 114.163 267.028C114.145 267.109 114.096 267.182 114.024 267.235C113.952 267.287 113.862 267.316 113.768 267.317V267.317Z" fill="#1573FF"/>
<path d="M113.096 273.391C112.992 273.391 112.891 273.355 112.817 273.289C112.743 273.223 112.701 273.134 112.701 273.041C112.701 272.948 112.743 272.859 112.817 272.794C112.891 272.728 112.992 272.691 113.096 272.691C113.096 272.691 117.859 272.306 119.222 270.188C119.246 270.144 119.279 270.106 119.32 270.074C119.362 270.043 119.41 270.019 119.462 270.005C119.514 269.99 119.569 269.986 119.623 269.991C119.677 269.997 119.729 270.012 119.776 270.036C119.824 270.061 119.865 270.093 119.897 270.132C119.929 270.171 119.952 270.215 119.964 270.263C119.976 270.31 119.977 270.358 119.966 270.406C119.956 270.453 119.935 270.498 119.904 270.538C118.333 272.971 113.373 273.374 113.166 273.391H113.096Z" fill="#1573FF"/>
<path d="M124.804 273.593C124.74 273.589 124.678 273.571 124.624 273.541C124.57 273.511 124.525 273.469 124.493 273.419C124.462 273.37 124.445 273.314 124.444 273.257C124.443 273.2 124.458 273.144 124.488 273.094C126.098 270.424 123.5 266.8 123.5 266.757C123.471 266.718 123.451 266.675 123.441 266.63C123.432 266.585 123.432 266.539 123.443 266.494C123.454 266.449 123.476 266.406 123.506 266.369C123.536 266.331 123.574 266.299 123.619 266.275C123.706 266.226 123.813 266.209 123.915 266.229C124.016 266.248 124.105 266.303 124.162 266.38C124.281 266.547 127.047 270.389 125.219 273.383C125.188 273.455 125.13 273.515 125.054 273.554C124.979 273.592 124.89 273.606 124.804 273.593V273.593Z" fill="#1573FF"/>
<path d="M125.555 277.243C125.454 277.243 125.356 277.208 125.282 277.147C125.209 277.085 125.165 277 125.16 276.91C125.157 276.818 125.194 276.728 125.264 276.66C125.334 276.591 125.431 276.549 125.535 276.543C126.802 276.391 128.001 275.947 129.013 275.256C129.055 275.229 129.103 275.209 129.154 275.199C129.204 275.188 129.257 275.186 129.308 275.194C129.359 275.201 129.409 275.217 129.453 275.241C129.497 275.266 129.536 275.297 129.566 275.335C129.597 275.372 129.619 275.414 129.631 275.459C129.643 275.504 129.645 275.551 129.636 275.596C129.628 275.642 129.61 275.685 129.583 275.724C129.555 275.764 129.52 275.798 129.477 275.825C128.327 276.603 126.962 277.092 125.525 277.243H125.555Z" fill="#1573FF"/>
<path d="M163.633 246.651C151.46 247.167 127.393 257.111 135.573 282.118C152.211 280.761 163.198 268.218 163.633 246.651Z" fill="#1573FF"/>
<path opacity="0.3" d="M163.633 246.651C151.46 247.167 127.393 257.111 135.573 282.118C152.211 280.761 163.198 268.218 163.633 246.651Z" fill="black"/>
<path d="M160.491 250.03C157.757 252.705 155.297 255.59 153.14 258.651C150.858 261.689 148.654 264.779 146.491 267.895C144.327 271.011 142.252 274.162 140.148 277.304L133.746 286.652C133.708 286.707 133.659 286.754 133.601 286.791C133.543 286.828 133.477 286.855 133.407 286.87C133.337 286.884 133.265 286.887 133.194 286.876C133.123 286.866 133.056 286.843 132.995 286.81C132.893 286.756 132.814 286.673 132.771 286.575C132.728 286.476 132.723 286.368 132.758 286.267C134.036 282.726 135.731 279.314 137.816 276.087C139.792 272.858 142.025 269.724 144.258 266.617C146.491 263.509 148.882 260.49 151.391 257.522C152.646 256.043 153.94 254.59 155.343 253.198C156.707 251.758 158.226 250.439 159.878 249.259C159.934 249.221 159.998 249.193 160.065 249.177C160.133 249.161 160.204 249.157 160.274 249.165C160.344 249.173 160.411 249.193 160.472 249.224C160.533 249.256 160.586 249.297 160.629 249.347C160.715 249.434 160.762 249.546 160.762 249.662C160.762 249.778 160.715 249.89 160.629 249.977L160.491 250.03Z" fill="#1573FF"/>
<path d="M154.741 258.739C153.866 258.736 152.994 258.668 152.132 258.538C152.063 258.527 151.996 258.505 151.937 258.472C151.877 258.439 151.825 258.396 151.785 258.345C151.744 258.294 151.715 258.237 151.699 258.176C151.683 258.115 151.681 258.052 151.693 257.991C151.704 257.929 151.729 257.87 151.767 257.817C151.804 257.764 151.853 257.719 151.91 257.682C151.968 257.646 152.032 257.621 152.101 257.607C152.17 257.593 152.241 257.591 152.31 257.601C154.603 258.024 156.988 257.82 159.147 257.015C159.212 256.985 159.283 256.966 159.356 256.961C159.428 256.955 159.502 256.962 159.572 256.982C159.641 257.001 159.706 257.033 159.762 257.075C159.818 257.116 159.864 257.167 159.898 257.225C159.932 257.282 159.952 257.345 159.959 257.409C159.965 257.474 159.957 257.539 159.935 257.601C159.913 257.663 159.877 257.72 159.83 257.769C159.783 257.819 159.726 257.86 159.661 257.89C158.115 258.5 156.432 258.79 154.741 258.739V258.739Z" fill="#1573FF"/>
<path d="M146.935 265.505C146.841 265.503 146.749 265.479 146.669 265.435C142.914 263.527 142.321 257.496 142.292 257.242C142.281 257.116 142.327 256.991 142.419 256.894C142.511 256.797 142.643 256.737 142.786 256.726C142.928 256.716 143.07 256.757 143.179 256.838C143.288 256.92 143.356 257.037 143.369 257.163C143.369 257.225 143.942 262.949 147.202 264.612C147.263 264.643 147.317 264.684 147.36 264.734C147.403 264.783 147.435 264.839 147.453 264.9C147.472 264.96 147.476 265.023 147.467 265.084C147.458 265.146 147.435 265.206 147.4 265.26C147.355 265.334 147.288 265.396 147.206 265.44C147.124 265.483 147.031 265.505 146.935 265.505V265.505Z" fill="#1573FF"/>
<path d="M145.819 272.604C144.553 272.621 143.303 272.356 142.183 271.833C142.119 271.805 142.063 271.765 142.017 271.717C141.971 271.668 141.937 271.612 141.916 271.551C141.896 271.491 141.89 271.427 141.898 271.364C141.907 271.301 141.93 271.24 141.966 271.186C141.999 271.13 142.044 271.081 142.099 271.041C142.154 271.001 142.217 270.971 142.286 270.953C142.354 270.935 142.425 270.93 142.496 270.936C142.566 270.943 142.635 270.963 142.697 270.993C146.817 272.963 152.439 269.829 152.488 269.794C152.548 269.76 152.615 269.737 152.686 269.726C152.756 269.715 152.828 269.717 152.898 269.73C152.968 269.744 153.034 269.77 153.092 269.807C153.151 269.843 153.201 269.889 153.239 269.943C153.277 269.996 153.303 270.054 153.315 270.116C153.327 270.178 153.325 270.241 153.31 270.302C153.294 270.363 153.265 270.421 153.224 270.472C153.183 270.523 153.131 270.566 153.071 270.599C150.883 271.799 148.388 272.488 145.819 272.604Z" fill="#1573FF"/>
<path d="M138.863 277.278C138.778 277.278 138.694 277.26 138.618 277.225C138.542 277.19 138.477 277.139 138.429 277.076C137.241 275.695 136.49 274.057 136.255 272.332C136.25 272.206 136.301 272.083 136.397 271.99C136.493 271.896 136.626 271.84 136.769 271.833C136.839 271.829 136.91 271.837 136.977 271.857C137.044 271.877 137.105 271.909 137.158 271.95C137.21 271.992 137.253 272.043 137.283 272.099C137.313 272.156 137.33 272.217 137.332 272.28C137.565 273.82 138.246 275.28 139.308 276.516C139.35 276.567 139.38 276.624 139.397 276.685C139.414 276.746 139.417 276.809 139.406 276.871C139.395 276.933 139.37 276.992 139.333 277.045C139.296 277.099 139.247 277.145 139.189 277.182C139.095 277.243 138.981 277.277 138.863 277.278V277.278Z" fill="#1573FF"/>
<path d="M122.512 261.242C132.392 269.558 157.507 261.417 155.116 244.804C141.511 250.476 122.512 261.242 122.512 261.242Z" fill="#1573FF"/>
<path opacity="0.2" d="M126.069 259.255C133.973 264.857 152.014 258.835 150.868 246.651C141.738 250.782 131.404 256.332 126.069 259.255Z" fill="white"/>
<path d="M148.417 292.552C139.12 301.305 113.482 294.46 114.825 277.75C128.746 282.722 148.417 292.552 148.417 292.552Z" fill="#1573FF"/>
<path opacity="0.2" d="M144.722 290.74C137.213 296.727 118.787 291.615 119.163 279.361C128.549 283.055 139.219 288.088 144.722 290.74Z" fill="white"/>
<path d="M173.572 258.266C170.667 260.253 174.066 267.063 168.79 266.258C163.514 265.452 166.814 270.127 161.479 270.319C156.144 270.512 158.465 264.778 154.128 266.967C149.791 269.155 144.712 266.748 145.147 262.94C145.582 259.133 151.796 260.7 149.346 257.207C146.659 253.356 149.84 250.607 154.049 250.914C158.258 251.22 156.292 248.043 160.866 247.176C166.893 246.021 166.567 253.408 170.213 252.227C173.858 251.045 178.364 255.01 173.572 258.266Z" fill="#1573FF"/>
<path opacity="0.4" d="M173.572 258.266C170.667 260.253 174.066 267.063 168.79 266.258C163.514 265.452 166.814 270.127 161.479 270.319C156.144 270.512 158.465 264.778 154.128 266.967C149.791 269.155 144.712 266.748 145.147 262.94C145.582 259.133 151.796 260.7 149.346 257.207C146.659 253.356 149.84 250.607 154.049 250.914C158.258 251.22 156.292 248.043 160.866 247.176C166.893 246.021 166.567 253.408 170.213 252.227C173.858 251.045 178.364 255.01 173.572 258.266Z" fill="white"/>
<path d="M171.408 258.503C167.061 260.621 172.396 265.89 167.92 265.207C163.445 264.525 165.549 269.461 161.153 268.709C156.756 267.956 157.26 262.783 154.513 265.444C151.767 268.105 146.402 266.021 146.767 262.818C147.133 259.614 152.903 260.568 150.828 257.566C148.556 254.301 151.253 251.973 154.78 252.235C158.307 252.498 156.815 249.54 160.481 248.297C166.824 246.143 164.719 254.879 169.116 252.927C172.06 251.64 177.01 255.754 171.408 258.503Z" fill="#1573FF"/>
<path opacity="0.4" d="M170.153 258.634C166.369 260.385 170.726 264.954 166.932 264.28C163.139 263.606 164.759 267.851 161.004 267.116C157.25 266.38 157.902 261.978 155.452 264.183C153.002 266.389 148.536 264.507 148.951 261.759C149.366 259.01 154.266 260.008 152.606 257.382C150.779 254.555 153.17 252.629 156.203 252.927C159.236 253.225 158.031 250.677 161.202 249.688C166.685 247.99 164.571 255.395 168.395 253.82C170.924 252.804 175.024 256.463 170.153 258.634Z" fill="white"/>
<path d="M136.66 283.072C140.316 280.569 137.332 272.612 143.349 273.313C149.366 274.013 146.214 268.595 152.409 268.061C158.604 267.527 155.136 274.521 160.53 271.72C165.925 268.919 171.398 271.51 170.41 276.096C169.422 280.683 162.378 279.098 164.729 283.151C167.308 287.606 163.227 291.029 158.376 290.889C153.525 290.749 155.412 294.39 149.939 295.694C142.776 297.366 144.199 288.543 139.802 290.136C135.405 291.729 130.643 287.204 136.66 283.072Z" fill="#1573FF"/>
<path opacity="0.4" d="M136.66 283.072C140.316 280.569 137.332 272.612 143.349 273.313C149.366 274.013 146.214 268.595 152.409 268.061C158.604 267.527 155.136 274.521 160.53 271.72C165.925 268.919 171.398 271.51 170.41 276.096C169.422 280.683 162.378 279.098 164.729 283.151C167.308 287.606 163.227 291.029 158.376 290.889C153.525 290.749 155.412 294.39 149.939 295.694C142.776 297.366 144.199 288.543 139.802 290.136C135.405 291.729 130.643 287.204 136.66 283.072Z" fill="white"/>
<path d="M139.219 282.722C144.564 279.965 139.11 273.969 144.208 274.547C149.307 275.125 147.558 269.356 152.557 270.03C157.556 270.704 156.242 276.901 159.819 273.593C163.395 270.284 169.314 272.499 168.434 276.367C167.555 280.236 160.985 279.361 162.971 282.792C165.164 286.565 161.696 289.48 157.596 289.348C153.496 289.217 154.849 292.666 150.423 294.329C142.746 297.217 146.471 286.687 141.047 289.243C137.49 290.906 132.323 286.223 139.219 282.722Z" fill="#1573FF"/>
<path opacity="0.4" d="M140.691 282.468C145.335 280.236 140.918 274.958 145.226 275.58C149.534 276.201 148.249 271.203 152.468 271.895C156.687 272.586 155.343 277.864 158.495 275.107C161.647 272.35 166.587 274.381 165.697 277.68C164.808 280.98 159.275 280.079 160.846 283.064C162.566 286.346 159.522 288.762 156.045 288.56C152.567 288.359 153.595 291.335 149.781 292.666C143.171 294.968 146.669 286.031 142.005 288.097C138.933 289.462 134.714 285.348 140.691 282.468Z" fill="white"/>
<path opacity="0.3" d="M102.604 257.68V263.886C102.632 272.88 106.678 281.5 113.858 287.86C121.037 294.22 130.766 297.804 140.918 297.83V297.83C151.071 297.804 160.8 294.22 167.979 287.86C175.158 281.5 179.204 272.88 179.233 263.886V257.68H102.604Z" fill="#1573FF"/>
<path opacity="0.5" d="M180.172 257.68H101.665C101.079 257.678 100.518 257.47 100.103 257.103C99.6887 256.736 99.4547 256.238 99.4521 255.719V255.719C99.4547 255.2 99.6887 254.702 100.103 254.335C100.518 253.968 101.079 253.761 101.665 253.758H180.172C180.758 253.761 181.319 253.968 181.734 254.335C182.148 254.702 182.382 255.2 182.385 255.719V255.719C182.382 256.238 182.148 256.736 181.734 257.103C181.319 257.47 180.758 257.678 180.172 257.68V257.68Z" fill="#1573FF"/>
<path opacity="0.3" d="M141.984 290.902C146.177 286.625 142.435 277.663 133.627 270.887C124.818 264.11 114.278 262.084 110.085 266.362C105.892 270.64 109.634 279.602 118.443 286.378C127.251 293.155 137.791 295.18 141.984 290.902Z" fill="white"/>
<path opacity="0.3" d="M151.352 279.221C148.388 280.368 144.683 278.643 143.062 275.361C141.442 272.079 142.519 268.499 145.483 267.352C148.447 266.205 152.152 267.93 153.772 271.203C155.393 274.477 154.306 278.031 151.352 279.221Z" fill="white"/>
<path opacity="0.3" d="M415.286 262.468H378.621L382.356 295.782C382.417 296.343 382.713 296.863 383.184 297.242C383.655 297.621 384.269 297.83 384.905 297.83H409.032C409.668 297.83 410.282 297.621 410.753 297.242C411.224 296.863 411.52 296.343 411.581 295.782L415.286 262.468Z" fill="#1573FF"/>
<path opacity="0.3" d="M385.725 290.512L382.988 266.004C382.988 266.004 390.23 269.768 397.245 267.938C401.703 266.814 406.297 266.164 410.929 266.004L408.182 290.512C408.065 291.559 407.512 292.529 406.632 293.234C405.752 293.939 404.607 294.33 403.42 294.329H390.487C389.301 294.328 388.158 293.937 387.278 293.232C386.398 292.527 385.845 291.558 385.725 290.512V290.512Z" fill="#1573FF"/>
<path opacity="0.5" d="M396.662 267.903C392.207 266.779 387.617 266.129 382.988 265.969C382.988 265.969 390.033 269.619 396.959 267.965L396.662 267.903Z" fill="#1573FF"/>
<path opacity="0.3" d="M415.721 263.343H378.177C377.813 263.341 377.464 263.218 377.2 262.997C376.936 262.776 376.777 262.474 376.754 262.153L375.835 247.334C375.824 247.163 375.853 246.992 375.919 246.832C375.985 246.671 376.087 246.524 376.219 246.4C376.352 246.276 376.511 246.176 376.688 246.108C376.865 246.04 377.055 246.004 377.248 246.003H416.64C416.833 246.004 417.024 246.04 417.201 246.108C417.379 246.176 417.538 246.275 417.671 246.4C417.804 246.524 417.907 246.671 417.975 246.831C418.042 246.992 418.072 247.163 418.062 247.334L417.134 262.153C417.113 262.473 416.956 262.775 416.694 262.996C416.431 263.217 416.083 263.341 415.721 263.343V263.343Z" fill="#1573FF"/>
</svg>
