<svg width="3202" height="2162" viewBox="0 0 3202 2162" fill="none" xmlns="http://www.w3.org/2000/svg">
    <path
        d="M196.36 2141.97C196.36 2141.97 -197.043 1652.14 129.83 1121.81C419.85 651.267 757.989 683.431 1006.07 874.381C1111.74 955.707 1416.38 884.404 1675.67 405.612C2029.27 -247.339 3254.94 148.679 3031.45 1153.25C2923.3 1639.4 3360.61 1657.06 3137.79 2143L196.36 2141.97Z"
        fill="#CEE8FF" />
    <path
        d="M1832.57 775.403C1832.43 777.751 1832.35 778.981 1832.35 778.981C1832.35 778.981 1831.96 777.793 1831.21 775.5C1825.08 756.601 1795.13 663.307 1767.87 559.418C1730.16 415.686 1697.62 251.715 1740.44 236.546C1821.56 207.811 1836.52 437.459 1836.75 606.914C1836.88 690.399 1833.42 759.253 1832.57 775.403Z"
        fill="#A8D29F" />
    <path
        d="M1911.94 588.773C1882.63 653.808 1857.2 708.52 1842.6 741.277C1836.25 755.569 1831.95 765.674 1830.28 770.65C1831.72 762.553 1835.54 740.829 1840.99 709.926C1840.99 709.911 1840.99 709.911 1840.99 709.896C1849.2 663.588 1861.09 596.7 1874.15 524.064C1905.84 347.518 1944.42 137.166 1953.41 107.098C1969.31 54.0539 2042.54 -58.8789 2091.83 39.3753C2123.84 103.235 2000.28 392.79 1911.94 588.773Z"
        fill="#A8D29F" />
    <path
        d="M1917.84 681.564C1887.55 713.541 1862.07 739.46 1847.86 753.8C1840.08 761.652 1835.66 766.023 1835.66 766.023C1835.66 766.023 1843.42 749.49 1856.63 723.065C1869.11 698.112 1886.46 664.357 1906.75 627.426C1973.19 506.358 2070.99 351.182 2131.66 360.154C2200.88 370.368 2027.65 565.65 1917.84 681.564Z"
        fill="#A8D29F" />
    <path
        d="M1832.56 775.413C1832.13 775.427 1831.68 775.467 1831.21 775.507C1825.08 756.6 1795.13 663.307 1767.87 559.413C1780.59 578.467 1803.57 604 1836.75 606.92C1836.88 690.4 1833.43 759.253 1832.56 775.413Z"
        fill="#82B378" />
    <path
        d="M1911.93 588.784C1882.62 653.81 1857.19 708.514 1842.58 741.284C1841.48 732.142 1840.99 721.535 1840.99 709.938C1840.99 709.911 1840.99 709.911 1840.99 709.897C1849.18 663.59 1861.09 596.706 1874.14 524.07C1879.24 549.422 1889.86 577.513 1911.93 588.784Z"
        fill="#82B378" />
    <path
        d="M1917.84 681.554C1887.56 713.529 1862.08 739.464 1847.86 753.785C1849.23 745.557 1852.43 734.867 1856.64 723.062C1869.13 698.106 1886.47 664.35 1906.75 627.425C1907.22 642.902 1909.41 665.968 1917.84 681.554Z"
        fill="#82B378" />
    <path
        d="M1830.27 770.693C1829.87 772.96 1829.65 774.147 1829.65 774.147C1829.36 773.987 1829.56 772.813 1830.27 770.693Z"
        fill="#A8D29F" />
    <path
        d="M1870.94 1004.13C1820.1 1148.11 1756.84 1305.1 1756.84 1305.1L1613.87 1262.26C1613.87 1262.26 1630.61 1155.62 1655.17 1036.96C1683.83 898.601 1700.19 759.009 1758.98 722.7C1775.15 712.699 1792.63 708.065 1809.72 706.807C1818.33 706.156 1826.92 706.447 1835.29 707.554C1837.3 707.816 1839.26 708.121 1841.24 708.466C1846.2 709.352 1851.09 710.514 1855.85 711.924C1857.7 712.45 1859.54 713.045 1861.36 713.681C1867.7 715.839 1873.81 718.425 1879.64 721.372C1904.4 733.973 1924.33 752.909 1932.14 773.366C1955.62 834.905 1909.35 895.351 1870.94 1004.13Z"
        fill="#ED7D2B" />
    <path
        d="M1801.09 1180.51C1763.53 1294.44 1752.37 1419.47 1767.79 1552.87C1770.38 1575.11 1782.76 1594.44 1800.66 1606.28C1808.69 1611.59 1817.82 1615.4 1827.65 1617.32C1849.72 1617.2 1893.24 1577.09 1918.14 1525.91C1924.98 1511.83 1930.44 1496.92 1933.62 1481.76C1958.59 1363.36 2004.79 1220.79 2062.14 1147.92C2120.76 1073.4 2199.73 984.332 2308.32 923.074C2308.32 923.074 2308.34 923.058 2308.35 923.052C2318.84 917.05 2565.2 737.637 2565.2 737.637C2589.73 711.721 2560.68 682.691 2560.68 682.691C2560.68 682.691 2537.29 703.206 2465.9 744.313C2394.54 785.404 2269.19 737.242 2269.13 737.236C2234.01 721.355 2192.33 722.97 2157.82 743.919C2104.56 776.241 2033.66 827.219 1966.4 900.612C1890.75 983.191 1835.12 1077.36 1801.09 1180.51Z"
        fill="#FFB93E" />
    <path
        d="M1933.61 1481.76C1958.58 1363.36 2004.79 1220.79 2062.12 1147.92C2120.74 1073.41 2199.73 984.336 2308.32 923.077C2308.32 923.077 2308.32 923.06 2308.35 923.056C2310.24 921.68 2383.7 867.509 2302.28 818.457C2222.6 770.456 1897.37 1128.07 1918.14 1525.91C1924.97 1511.83 1930.44 1496.92 1933.61 1481.76Z"
        fill="#FFA412" />
    <path
        d="M1635.41 1018.69C1625.12 1034.87 1612.49 1050.52 1597.59 1065.19C1541.12 1120.81 1452.48 1162.07 1338.37 1161C1338.37 1161 1290.47 1115.33 1267.24 1057.23L1267.27 1057.2C1251.16 1016.89 1239.4 957.547 1267.24 913.493C1285.19 885.107 1308.27 871.68 1331.67 864.6C1371.41 852.507 1412.05 858.747 1429.81 841.04C1447.32 823.587 1472.24 808.52 1499.61 799.84C1504.08 798.413 1508.61 797.16 1513.21 796.12H1513.23C1515.13 795.667 1517.03 795.253 1518.95 794.88C1518.99 794.853 1519.03 794.853 1519.07 794.853C1561.25 786.613 1606.32 794.693 1637.67 832.307C1644.93 841.027 1651.53 851.56 1657.15 864.227C1677.23 909.36 1668.6 966.587 1635.41 1018.69Z"
        fill="#A8D29F" />
    <path
        d="M1303.53 906.96C1303.53 906.96 1265.88 936.52 1277.41 969.227C1288.96 1001.93 1318.72 986.827 1328.03 964.173C1337.33 941.52 1328.29 895.974 1303.53 906.96Z"
        fill="#D1F2C9" />
    <path
        d="M1637.67 832.293C1644.93 841.013 1651.53 851.56 1657.15 864.227C1677.23 909.36 1704.79 1029.05 1671.61 1081.17L1627.11 1121.88C1570.64 1177.51 1452.48 1162.07 1338.37 1160.99C1338.37 1160.99 1290.48 1115.32 1267.24 1057.21L1267.27 1057.2C1267.27 1057.2 1408.41 1113.04 1541.35 996.467C1601.73 943.493 1627.51 882.8 1637.67 832.293Z"
        fill="#95C38B" />
    <path
        d="M1422.39 772.773C1399.08 758.893 1375.51 778.387 1348.15 789.08C1320.76 799.8 1268.09 799.587 1268.09 799.587C1268.09 799.587 1289.76 768.4 1325.27 737.413C1360.77 706.44 1422.39 772.773 1422.39 772.773Z"
        fill="#A8D29F" />
    <path
        d="M1422.39 772.773C1400.49 754.787 1359.99 744.48 1340.23 752.573C1320.47 760.653 1268.09 799.587 1268.09 799.587C1268.09 799.587 1289.76 768.4 1325.27 737.413C1360.77 706.44 1422.39 772.773 1422.39 772.773Z"
        fill="#82B378" />
    <path
        d="M1429.81 841.04C1447.32 823.587 1472.24 808.52 1499.61 799.84C1453.08 817.294 1427.41 876.28 1409.75 869.44C1390.81 862.094 1333.84 864.494 1331.67 864.6C1371.41 852.507 1412.05 858.747 1429.81 841.04Z"
        fill="#95C38B" />
    <path
        d="M1518.95 794.88C1517.48 795.293 1515.59 795.707 1513.23 796.12C1515.13 795.667 1517.03 795.253 1518.95 794.88Z"
        fill="#95C38B" />
    <path
        d="M1413.04 868.253C1398.11 835.28 1406.19 794.373 1415.57 765.88C1423.05 743.187 1437.4 712.56 1444.44 698C1445.92 694.92 1450.39 695.24 1451.47 698.48L1454.31 707.08C1457.15 715.68 1456.11 725.107 1451.41 732.853C1436.99 756.707 1408.01 812.44 1421.07 858.32C1422.53 863.493 1415.68 874.16 1413.04 868.253Z"
        fill="#82B378" />
    <path
        d="M1720.23 1016.89L1715.59 1015.03C1736.13 984.44 1768.03 963.467 1793.13 953.773C1815.12 945.28 1832.72 942.48 1839 941.667C1840.53 941.467 1842.05 942.053 1843.05 943.227L1846.95 947.76C1848.88 950.013 1847.55 953.6 1844.61 954.013C1822.15 957.227 1751.28 970.693 1720.23 1016.89Z"
        fill="#2B478B" />
    <path
        d="M1632.8 1025.63C1656.36 966.747 1689.53 980.027 1730.47 996.413C1771.39 1012.79 1804.56 1026.07 1780.99 1084.95C1764.09 1127.15 1717.23 1148.08 1676.31 1131.69C1635.39 1115.32 1615.91 1067.83 1632.8 1025.63Z"
        fill="#699DEE" />
    <path
        d="M1657.61 1013.45C1659.09 1002.91 1676.08 991.8 1686.64 993.267C1697.19 994.747 1702.09 1006.53 1700.63 1017.09C1699.15 1027.64 1684.61 1036.72 1674.05 1035.24C1663.51 1033.76 1656.15 1024.01 1657.61 1013.45Z"
        fill="#92BEFF" />
    <path
        d="M2200.9 1040.46L2327.3 1940.79C2342.97 2052.45 2256.27 2152.19 2143.51 2152.19H1953.08C1856.91 2152.19 1782.06 2068.68 1792.52 1973.09L1899.47 1135.59L2200.9 1040.46Z"
        fill="#FCECDB" />
    <path d="M1537.14 1040.46C1537.14 1040.46 1843.49 1144.91 2200.9 1040.46L2095.6 2155.03H1428.63L1537.14 1040.46Z"
        fill="#FCECDB" />
    <path
        d="M1537.15 1040.45L1663.53 1943.09C1679.21 2055.04 1592.51 2155.03 1479.75 2155.03H1289.32C1193.16 2155.03 1118.31 2071.32 1128.76 1975.48L1219.29 1040.45C1219.29 1040.45 1263.89 1049.16 1372.4 1049.16C1479.85 1049.16 1537.15 1040.45 1537.15 1040.45Z"
        fill="#EFCBAB" />
    <path
        d="M2104 1140.83C2104 1127.72 2093.38 1117.1 2080.27 1117.1C2067.17 1117.1 2056.54 1127.72 2056.54 1140.83C2056.54 1149.59 2061.31 1157.23 2068.38 1161.33C2078.44 1241.21 2062.56 1306.49 2022.96 1346.49C1986.94 1382.84 1932.33 1396.32 1865.03 1385.45C1805.84 1375.91 1766.9 1310.41 1744.65 1257.16C1728.62 1218.85 1718.75 1181.13 1713.67 1158.73C1718.68 1154.39 1721.85 1147.99 1721.85 1140.83C1721.85 1127.72 1711.24 1117.1 1698.14 1117.1C1685.03 1117.1 1674.39 1127.72 1674.39 1140.83C1674.39 1149.67 1679.23 1157.36 1686.4 1161.44C1699.15 1219.99 1746.4 1393.79 1860.7 1412.24C1877.35 1414.92 1893.33 1416.25 1908.6 1416.25C1963.42 1416.25 2009.06 1399.08 2042.23 1365.57C2087.64 1319.72 2106.23 1246.93 2095.43 1159.09C2100.66 1154.73 2104 1148.17 2104 1140.83Z"
        fill="#ED7D2B" />
    <path
        d="M2507.33 1380.25C2523.38 1385.57 2540.74 1389.24 2559.11 1390.97C2628.75 1397.56 2712.4 1376.37 2789.86 1312.03C2789.86 1312.03 2797.17 1254.09 2780.69 1201.39H2780.65C2769.19 1164.83 2744.18 1117.67 2700.57 1103.05C2672.47 1093.64 2649.18 1097.31 2629.24 1105.51C2595.31 1119.39 2570.98 1146.31 2548.97 1144.09C2527.26 1141.92 2501.8 1145.51 2478.25 1154.83C2474.39 1156.33 2470.58 1158 2466.85 1159.85L2466.83 1159.87C2465.28 1160.61 2463.76 1161.39 2462.24 1162.2C2462.2 1162.21 2462.18 1162.24 2462.14 1162.25C2428.69 1180.13 2402.36 1210.79 2401.89 1253.99C2401.76 1264 2403.12 1274.89 2406.35 1286.68C2417.77 1328.75 2455.57 1363.09 2507.33 1380.25Z"
        fill="#ED7D2B" />
    <path
        d="M2672.08 1118.82C2672.08 1118.82 2714.33 1118.05 2724.66 1146.86C2735 1175.67 2706.22 1181.92 2687.21 1171.61C2668.23 1161.3 2649.04 1125.1 2672.08 1118.82Z"
        fill="#FFB583" />
    <path
        d="M2401.89 1253.97C2401.76 1263.99 2403.14 1274.89 2406.35 1286.69C2417.77 1328.76 2465.64 1426.01 2517.38 1443.17C2517.38 1443.17 2620.01 1490.32 2678.7 1468.39C2744.22 1443.89 2784.54 1392.12 2789.86 1312.03C2789.86 1312.03 2797.17 1254.09 2780.69 1201.39H2780.65C2780.65 1201.39 2715.21 1318.27 2559.28 1312.61C2488.45 1310.03 2436.97 1282.87 2401.89 1253.97Z"
        fill="#EA6C2D" />
    <path
        d="M2515.98 1093.25C2524.19 1070.77 2551.19 1070.97 2575.86 1063.03C2600.57 1055.1 2636.48 1025.6 2636.48 1025.6C2636.48 1025.6 2604.28 1016.34 2562.71 1014.93C2521.17 1013.53 2515.98 1093.25 2515.98 1093.25Z"
        fill="#A8D29F" />
    <path
        d="M2515.98 1093.25C2520.95 1068.75 2542.9 1039.12 2560.93 1033.64C2578.96 1028.16 2636.48 1025.6 2636.48 1025.6C2636.48 1025.6 2604.28 1016.34 2562.71 1014.93C2521.17 1013.53 2515.98 1093.25 2515.98 1093.25Z"
        fill="#82B378" />
    <path
        d="M2548.96 1144.09C2527.26 1141.92 2501.8 1145.51 2478.25 1154.83C2519.8 1140.83 2570.24 1166.87 2578.51 1152.35C2587.36 1136.76 2627.7 1106.65 2629.24 1105.51C2595.31 1119.39 2570.98 1146.31 2548.96 1144.09Z"
        fill="#EA6C2D" />
    <path
        d="M2462.25 1162.19C2463.49 1161.66 2465.02 1160.89 2466.85 1159.86C2465.29 1160.61 2463.78 1161.38 2462.25 1162.19Z"
        fill="#95C38B" />
    <path
        d="M2575.6 1153.37C2567.43 1122.49 2539.11 1099.01 2516.81 1084.74C2499.02 1073.39 2472.15 1060.43 2459.21 1054.39C2456.48 1053.12 2453.6 1055.82 2454.68 1058.64L2457.52 1066.1C2460.38 1073.57 2466.33 1079.43 2473.88 1082.13C2497.04 1090.4 2547.91 1112.39 2564.57 1151.05C2566.44 1155.4 2577.08 1158.89 2575.6 1153.37Z"
        fill="#82B378" />
    <path
        d="M2398.91 2074.11C2398.91 2074.11 2367.86 2097.37 2320.29 2085.08C2320.29 2085.08 2281.93 2076.33 2273.51 2095.47C2273.51 2095.47 2332.34 2125.35 2347.24 2133.52C2358.45 2139.68 2370.16 2149.41 2378.44 2156.92C2384.98 2162.87 2395.18 2162.07 2400.77 2155.2C2403.36 2152.01 2406.32 2148.23 2409.58 2143.83C2418.63 2131.55 2439.77 2091.84 2439.77 2091.84L2398.91 2074.11Z"
        fill="#233862" />
    <path
        d="M2380.68 2062.29C2380.68 2062.29 2399.59 2105.88 2443.23 2097.87C2443.23 2097.87 2532.26 2024.33 2593.35 1947.95C2613.18 1923.13 2630.07 1898.01 2639.99 1875.04C2680.51 1781.27 2789.83 1641.4 2859.33 1570.51L2685.43 1507.6C2685.43 1507.6 2629.72 1619.64 2555.63 1757.28C2502.21 1856.44 2439.25 1968.89 2380.68 2062.29Z"
        fill="#2B478B" />
    <path
        d="M2555.63 1757.28L2593.35 1947.95C2613.18 1923.13 2630.07 1898.01 2639.99 1875.04C2680.51 1781.27 2789.83 1641.4 2859.33 1570.51L2685.43 1507.6C2685.43 1507.6 2629.72 1619.64 2555.63 1757.28Z"
        fill="#233862" />
    <path
        d="M2697.76 2099.4C2697.76 2099.4 2699.65 2134.19 2657.49 2138.83C2657.49 2138.83 2633.39 2138.96 2633.33 2161.09L2755.88 2161.48C2755.88 2161.48 2759.43 2152.55 2760.29 2133.43C2760.97 2118.73 2746.06 2080.35 2746.06 2080.35L2697.76 2099.4Z"
        fill="#233862" />
    <path
        d="M2742.47 1507.6C2742.47 1507.6 2665.01 1592.72 2615.82 1746.08C2589.07 1829.53 2664.87 2039.32 2679.64 2112.21C2679.64 2112.21 2730.5 2116.52 2765.25 2103.08C2765.25 2103.08 2767.91 1952.53 2747.57 1836.49C2736.19 1771.56 2849.58 1697.61 2899.11 1580.27C2932.81 1500.44 2891.81 1501.8 2841.43 1499.88L2742.47 1507.6Z"
        fill="#2B478B" />
    <path
        d="M2831.91 1127.81C2875 1152.14 2963.26 1129.7 2963.26 1129.7C2963.26 1129.7 2927.42 1088.73 2943.71 1022.75L2909.86 1039.94L2873.52 1058.4C2873.52 1058.4 2871.16 1070.05 2869.54 1090.98C2869.12 1096.37 2868.73 1102.39 2868.47 1108.97C2846.34 1115.68 2831.91 1127.81 2831.91 1127.81Z"
        fill="#FFB07B" />
    <path
        d="M2673.86 1503.2C2673.86 1510.77 2682.59 1514.4 2684.45 1514.77C2701.83 1517.94 2750.37 1536.82 2794.1 1541.16C2830.92 1545.01 2865.09 1541.36 2902.66 1533.81C2907.63 1532.81 2919.29 1529.66 2920.14 1524.91C2921.17 1519.69 3064.99 1231.69 2953.2 1107.98C2950.58 1105.08 2928.49 1110.31 2908.31 1115.1C2889.67 1119.52 2872.57 1117.06 2857.29 1110.93L2838.39 1120.89C2815.13 1133.84 2771.15 1179.86 2766.01 1215.97C2763.39 1234.33 2752.89 1247.93 2749.85 1264.08C2748.72 1270.06 2747.56 1275.89 2746.38 1281.58C2744.09 1292.74 2741.74 1303.36 2739.31 1313.45C2732.74 1340.76 2725.79 1364.28 2718.98 1384.58C2711.73 1406.14 2704.61 1424.09 2698.26 1439.09C2690 1458.54 2683.05 1473.09 2678.69 1484.22C2675.62 1492.06 2673.86 1498.21 2673.86 1503.2Z"
        fill="#2A4E96" />
    <path
        d="M2678.7 1484.23C2881.72 1388.57 2952.02 1204.9 2952.02 1204.9C2952.02 1204.9 2787.08 1265.75 2746.39 1281.59C2744.1 1292.75 2741.72 1303.36 2739.31 1313.45C2732.73 1340.76 2725.79 1364.28 2718.97 1384.59C2711.73 1406.15 2704.61 1424.09 2698.24 1439.09C2690.01 1458.55 2683.05 1473.09 2678.7 1484.23Z"
        fill="#1E3D70" />
    <path
        d="M2541.01 1433.68C2541.01 1433.68 2512.79 1422.1 2506.3 1423.02C2499.82 1423.96 2481.87 1419.46 2482.88 1425.34C2483.59 1429.4 2506.76 1433.68 2506.76 1433.68C2506.76 1433.68 2480.88 1427.85 2482.88 1433.9C2484.27 1438.06 2489.76 1454.64 2498.31 1460.05C2508.55 1466.53 2527.08 1463.4 2548.8 1460.26C2588.66 1454.49 2541.01 1433.68 2541.01 1433.68Z"
        fill="#FFB07B" />
    <path
        d="M2545.48 1453.6C2538.98 1436.68 2536.01 1429.01 2536.01 1429.01C2536.01 1429.01 2668.6 1320.96 2682.1 1311.69C2691.3 1305.37 2782.93 1236.88 2827.62 1183.49C2849.78 1157.01 2884.72 1144.9 2918.52 1152L2946.34 1157.82C2979.96 1164.88 2990.86 1207.41 2964.81 1229.76C2891.38 1292.69 2767.55 1365.69 2744.46 1380.88C2687.16 1418.57 2560.39 1471.38 2560.39 1471.38C2560.39 1471.38 2550.56 1466.89 2545.48 1453.6Z"
        fill="#2A4E96" />
    <path
        d="M2869.51 1090.99C2911.91 1093.37 2939.46 1058.37 2939.46 1058.37C2939.46 1058.37 2920.31 1047.75 2909.84 1039.94L2873.5 1058.41C2873.5 1058.41 2871.14 1070.06 2869.51 1090.99Z"
        fill="#EA8E50" />
    <path
        d="M2851.45 1047.47C2851.45 1047.47 2915.67 1093.56 2943.76 1053.12C2971.86 1012.68 2999.05 991.397 2959.24 960.264C2919.44 929.128 2900.66 938.964 2887.99 950.181C2875.33 961.397 2835.49 1034.44 2851.45 1047.47Z"
        fill="#FFB07B" />
    <path
        d="M2881.21 913.659C2883.51 898.116 2888.71 887.178 2888.71 887.178C2888.71 887.178 2892.72 903.871 2923.25 901.569C2953.75 899.266 3002.12 904.571 3018.22 939.338C3019.25 941.55 3020.17 943.828 3020.99 946.159C3023.89 938.449 3024.61 926.899 3024.61 926.899C3030.38 941.867 3024.61 960.589 3024.61 960.589H3024.59C3024.69 961.136 3024.75 961.684 3024.84 962.228C3031.57 967.923 3037.22 985.619 3037.22 985.619C3035.19 980.686 3030.24 977.463 3025.82 975.477C3025.96 1002.53 3014.97 1028.98 2995.73 1036.85C2967.57 1048.37 2967.79 1039.58 2939.47 1058.37C2939.47 1058.37 2931.87 1048.94 2937.05 1042.61C2942.23 1036.28 2961.8 1027.07 2950.87 1017.86C2939.94 1008.64 2935.9 1019.01 2931.87 1012.68C2927.84 1006.34 2948 987.921 2922.09 970.651C2896.18 953.38 2878.9 929.202 2881.21 913.659Z"
        fill="#233862" />
    <path
        d="M986.726 152.995C986.614 149.946 984.255 117.112 934.239 115.401C934.239 115.401 958.834 118.335 963.085 129.15C963.085 129.15 946.337 115.789 932.699 120.089C919.06 124.375 911.05 148.278 910.97 156.131C910.89 163.997 918.468 189.324 927.121 191.481C930.401 192.301 934.179 192.085 937.606 191.496C935.303 195.091 933.047 199.061 930.89 203.49C910.93 244.45 931.512 284.49 948.41 280.075C959.245 277.241 962.311 295.722 962.311 295.722L1067.59 210.494C1067.59 210.494 1028.92 130.487 986.726 152.995Z"
        fill="#2C3A64" />
    <path
        d="M1023.38 1359.96L1001.02 1368.29C1001.02 1368.29 903.889 1233.57 891.931 1115.05C889.795 1093.89 890.507 1073.39 895.127 1054.47C895.127 1054.47 894.176 1049.04 892.516 1039.45C891.749 1034.99 890.8 1029.6 889.723 1023.43C886.564 1005.33 882.219 980.573 877.252 952.387C865.824 887.52 851.017 804.6 839.516 743.64L845.54 741.707L910.736 720.667L924.209 677.88L972.753 665.093C972.753 665.093 983.599 686.307 993.293 786.52C995.083 799.667 996.707 814.16 997.931 829.88C1001.71 877.867 1001.98 937.373 993.311 1005.43C991.084 1022.84 988.272 1040.83 984.785 1059.29C982.229 1072.84 981.845 1091.31 982.923 1112.49C987.816 1209.39 1023.38 1359.96 1023.38 1359.96Z"
        fill="#2B478B" />
    <path
        d="M997.931 829.88L892.516 1039.45C891.749 1034.99 890.8 1029.6 889.723 1023.43C886.564 1005.33 882.219 980.573 877.252 952.387C865.824 887.52 851.017 804.6 839.516 743.64L845.54 741.707L910.736 720.667L924.209 677.88L972.753 665.093C972.753 665.093 983.599 686.307 993.293 786.52C995.083 799.667 996.707 814.16 997.931 829.88Z"
        fill="#233862" />
    <path
        d="M951.556 691.987L949.115 671.067C908.232 681.92 798.996 640.72 798.996 640.72C798.996 640.72 759.389 675.533 764.589 758.987C767.128 799.72 771.764 972.813 776.607 1024.03C778.356 1042.6 779.889 1055.81 780.516 1061.08C780.528 1061.11 780.528 1061.12 780.528 1061.13C780.72 1062.75 780.157 1064.27 779.34 1065.67C772.211 1077.77 766.308 1090.36 761.467 1103.25C713.939 1229.91 768.787 1385.88 768.787 1385.88L783.02 1380.15C783.02 1380.15 814.232 1206.56 839.592 1129.88C843.897 1116.88 848.024 1106.65 851.807 1100.55C862.832 1082.75 873.065 1053.68 882.355 1019.09C899.908 953.693 914.039 868.64 923.443 802.987C924.739 803.04 951.556 691.987 951.556 691.987Z"
        fill="#2B478B" />
    <path
        d="M1273.65 665.253C1264.85 673.04 1241.49 646.307 1238.28 642.747C1238.11 642.413 1237.95 642.24 1237.95 642.24L1245.05 622.44C1245.05 622.44 1275.68 621.253 1280.76 626.333C1285.83 631.413 1283.29 656.973 1273.65 665.253Z"
        fill="#FFB27D" />
    <path
        d="M1245.05 622.44L1242 642.92C1242 642.92 1240.65 642.92 1238.28 642.747C1230.83 642.24 1212.72 641.227 1192.25 639.027C1161.45 635.987 1124.89 630.56 1110.35 621.6C1088.17 608.067 1051.79 566.6 1028.1 525.133C1027.42 524.12 1026.91 523.107 1026.4 522.093C1014.05 500.093 1005.42 478.253 1004.74 460.827C1004.23 450.173 1005.42 441.027 1007.62 433.08C1010.5 422.587 1015.23 414.293 1020.14 408.027C1020.82 407.013 1021.5 406 1022.51 405.147C1030.63 395.507 1038.59 391.44 1038.59 391.44C1042.65 389.747 1047.05 391.787 1051.61 396.693V396.867C1055.35 400.76 1059.4 406.68 1063.29 414.12C1063.47 414.294 1063.64 414.467 1063.64 414.627C1064.48 416.16 1065.33 417.84 1066.35 419.707C1066.68 420.04 1066.85 420.56 1067.01 420.893C1068.88 424.787 1070.75 428.84 1072.6 433.08C1093.41 478.427 1115.59 547.133 1134.04 567.613C1141.99 576.413 1178.37 593.68 1207.31 606.533C1228.12 615.68 1245.05 622.44 1245.05 622.44Z"
        fill="#FFB27D" />
    <path
        d="M1029.65 438.177C1016.82 444.124 1001.32 448.178 982.569 449.205C912.282 453.059 896.324 391.437 893.423 350.55C903.554 346.87 912.428 347.217 917.54 347.497C922.523 347.763 927.727 348.283 932.017 348.804C940.615 344.323 956.06 322.506 964.989 286.007L968.019 287.408L1018.74 311.251C1018.74 311.251 1013.35 327.76 1009.37 343.549C1006.27 355.911 1004.04 367.846 1005.9 371.193C1009.9 372.82 1012.29 373.834 1012.29 373.834C1012.29 373.834 1012.29 373.861 1012.31 373.901C1012.82 375.194 1023.85 403.292 1029.65 438.177Z"
        fill="#FFB27D" />
    <path
        d="M1047.24 484.28C1046.71 485.693 1046.13 487.053 1045.49 488.467C1027.69 526.8 994.735 685.613 994.735 685.613C999.427 714.173 780.145 680.013 779.579 654.013C771.856 626.453 806.983 582.16 826.791 559.947C829.273 557.147 831.501 554.147 833.436 551C838.329 543.067 841.433 534.12 842.419 524.773C846.308 487.92 844.829 453.387 845.156 432.387L845.157 432.373C849.028 429.507 852.771 426.867 856.257 424.347C861.588 420.453 866.299 416.827 869.768 413.133C873.584 409.12 875.975 405.013 876.249 400.373C876.449 396.867 876.34 393.28 875.975 389.68C875.809 387.973 875.591 386.28 875.335 384.587C872.597 366.747 865.148 350.573 865.148 350.573C884.008 342.947 917.545 347.48 917.545 347.48C917.545 347.48 917.509 349.347 917.491 352.4C917.381 364.64 917.491 396.107 921.416 402.053C926.327 409.467 1016.17 441.947 1020.92 431.88C1025.59 421.987 1012.79 375.64 1012.32 373.88C1012.3 373.853 1012.3 373.827 1012.3 373.827C1042.39 385.64 1053.13 395.56 1053.13 395.56C1035.01 407.307 1061.27 447.093 1047.24 484.28Z"
        fill="#F99746" />
    <path
        d="M1018.74 311.253C1018.74 311.253 1013.35 327.747 1009.38 343.547C979.733 335.28 970.731 304.12 968.023 287.413L1018.74 311.253Z"
        fill="#ED985F" />
    <path
        d="M1024.99 328.707C1024.99 328.707 954.066 312.294 964.966 268.286C975.869 224.265 974.057 192.51 1019.8 201.134C1065.55 209.744 1070.15 228.715 1070.08 244.293C1070.02 259.871 1043.72 331.85 1024.99 328.707Z"
        fill="#FFB27D" />
    <path
        d="M1074.06 219.316C1066.44 203.36 1057.46 204.215 1051.85 207.044C1018.53 176.211 985.84 201.399 985.84 201.399C973.259 231.798 945.992 244.21 945.992 244.21C945.992 244.21 956.887 255.375 988.466 255.123C998.112 255.053 1007.81 250.626 1016.63 244.518C999.614 261.665 979.654 272.102 979.654 272.102C1019.19 264.537 1045.69 218.77 1048.41 213.909C1051.76 218.854 1058.17 229.375 1058.7 238.27C1059.43 250.346 1055.28 273.811 1062.19 274.708C1062.19 274.708 1085.5 243.244 1074.06 219.316Z"
        fill="#2C3A64" />
    <path
        d="M1053.15 395.547C1053.15 395.547 1070.23 425.333 1072.77 433C1072.77 433 1050.63 432.147 1041.69 449.187C1041.69 449.187 1039.55 399.56 1053.15 395.547Z"
        fill="#F99746" />
    <path
        d="M935.693 632.253C892.443 631.8 855.819 586.88 833.436 551C838.329 543.067 841.433 534.12 842.419 524.773C846.308 487.92 844.829 453.387 845.156 432.387L845.157 432.373C849.028 429.507 852.771 426.867 856.257 424.347C861.588 420.453 866.299 416.827 869.768 413.133C905.185 473 994.333 632.88 935.693 632.253Z"
        fill="#ED7D2B" />
    <path
        d="M851.535 1397.51H738.907C738.907 1397.51 736.207 1380.33 742.089 1367.32C747.727 1354.83 756.556 1349.15 754.441 1334.03C761.599 1341.39 773.263 1349.64 789.545 1347.45C791.54 1350.69 802.424 1368 809.088 1372.79C816.448 1378.08 849.268 1376.19 851.535 1397.51Z"
        fill="#233862" />
    <path
        d="M1093.36 1397.51H980.734C980.734 1397.51 976.524 1379.55 983.917 1367.32C990.463 1356.51 987.954 1350.35 983.106 1341.39C988.209 1343.48 994.809 1345.39 1002.08 1344.96C1007.69 1344.64 1013.62 1342.09 1018.83 1339.08C1023.67 1344.6 1044.43 1368.12 1050.92 1372.79C1058.28 1378.08 1091.09 1376.19 1093.36 1397.51Z"
        fill="#233862" />
    <path
        d="M1205.95 593.227L1200.43 591.867C1218.73 554.24 1251.29 525.64 1278 510.773C1301.39 497.76 1320.73 491.867 1327.68 489.96C1329.37 489.493 1331.16 489.907 1332.48 491.067L1337.57 495.56C1340.09 497.773 1339.16 502.027 1335.92 502.947C1311.17 510.093 1233.59 536.4 1205.95 593.227Z"
        fill="#2B478B" />
    <path
        d="M1108.99 616.8C1126.23 546.88 1165.63 556.6 1214.23 568.587C1262.83 580.573 1302.21 590.293 1284.97 660.213C1272.61 710.32 1223.2 741.227 1174.6 729.24C1126 717.253 1096.63 666.92 1108.99 616.8Z"
        fill="#F46C0F" />
    <path
        d="M1134.99 599.213C1134.99 587.107 1152.35 571.947 1164.45 571.947C1176.55 571.947 1183.92 584.44 1183.92 596.534C1183.92 608.64 1169 621.12 1156.91 621.12C1144.8 621.12 1134.99 611.32 1134.99 599.213Z"
        fill="#FF9045" />
    <path
        d="M1099.17 655.787L1093.25 677.44C1093.25 677.44 1085.8 676.093 1073.96 673.893C1070.4 673.213 1068.37 672.707 1068.37 672.707C1058.89 670.84 1047.56 668.307 1035.2 665.6H1035.04C1013.88 660.52 990.189 654.427 970.22 647.653C956.173 642.747 943.989 637.507 935.696 632.253C934.851 631.747 934.175 631.24 933.328 630.56C913.528 616.187 890.004 573.88 871.728 528.52C869.191 522.267 866.82 516 864.451 509.907C855.989 487.227 849.221 464.893 845.16 445.6C842.62 434.093 840.929 423.6 840.589 414.973C840.42 411.92 840.251 409.053 840.42 406.333C840.759 357.267 865.128 350.493 865.128 350.493C865.636 350.32 866.144 350.16 866.82 349.987C871.051 349.307 875.451 352.187 880.021 357.773C885.775 364.707 891.867 376.04 898.128 389.747C907.773 411.587 917.928 439.84 927.405 467.947C932.651 483.333 937.727 498.733 942.804 512.947C945.681 521.587 948.559 529.707 951.265 537.147C956.512 551.373 961.251 562.88 965.481 570.147C968.189 574.893 975.973 581.493 986.296 588.933C1004.23 601.973 1030.47 617.707 1053.31 630.56C1062.79 635.987 1071.76 640.893 1079.2 644.947C1091.21 651.547 1099.17 655.787 1099.17 655.787Z"
        fill="#FFB27D" />
    <path
        d="M898.068 389.827C865.489 380.84 840.359 406.28 840.359 406.28C840.768 357.28 865.157 350.573 865.157 350.573C874.969 346.507 886.34 363.507 898.068 389.827Z"
        fill="#F99746" />
    <path
        d="M1099.17 655.787C1099.17 655.787 1109.8 656.013 1115.81 652.347C1121.83 648.667 1138.85 643.667 1146.53 644.493C1146.53 644.493 1149.37 645.667 1148.36 648.333C1147.36 651.013 1134.84 653.173 1134.84 658.187C1134.84 658.187 1150.53 657.68 1155.21 655.68C1159.88 653.68 1177.91 658.28 1181.41 660.36C1184.93 662.427 1158.55 678.32 1146.87 684.733C1135.17 691.147 1093.25 677.44 1093.25 677.44L1099.17 655.787Z"
        fill="#FFB27D" />
    <path
        d="M1091.23 2156.2C1087.39 2156.2 1084.11 2153.07 1083.44 2148.8L1045.33 1898.23L990.517 1537.84L975.188 1437.07L1014.23 1435.77L1021.01 1494.28L1068.57 1905.39L1096.77 2149.07C1097.2 2152.84 1094.6 2156.2 1091.23 2156.2Z"
        fill="#FCECDB" />
    <path
        d="M691.687 1437.07L674.311 1551.28V1551.29L626.324 1866.77L583.419 2148.8C582.773 2153.07 579.492 2156.2 575.655 2156.2C572.273 2156.2 569.659 2152.84 570.104 2149.07L607.101 1829.35L646.668 1487.37L652.643 1435.77L691.687 1437.07Z"
        fill="#FCECDB" />
    <path
        d="M674.311 1551.28C676.592 1502.2 646.668 1487.37 646.668 1487.37L652.643 1435.77L691.687 1437.07L674.311 1551.28Z"
        fill="#EFCBAB" />
    <path
        d="M1021.01 1494.28C995.711 1507.23 990.517 1537.84 990.517 1537.84L975.188 1437.07L1014.23 1435.77L1021.01 1494.28Z"
        fill="#EFCBAB" />
    <path
        d="M1130.72 1437.07H536.145C527.069 1437.07 519.643 1429.64 519.643 1420.57V1414.01C519.643 1404.93 527.069 1397.51 536.145 1397.51H1130.72C1139.8 1397.51 1147.23 1404.93 1147.23 1414.01V1420.57C1147.23 1429.64 1139.8 1437.07 1130.72 1437.07Z"
        fill="#FCECDB" />
    <path
        d="M3065.44 2155.41H2921.14C2913.41 2148.85 2926.5 2133.96 2940.16 2132.96C2946.11 2132.52 2953.6 2133.76 2962.18 2135.57C2964.18 2109.2 2975.52 1990.63 3018.25 1995.4C3066.29 2000.73 3018.25 2047.61 3004.66 2075.36C2994.61 2095.92 2983.99 2125.4 2979.13 2139.32C2983.04 2140.16 2987.07 2140.99 2991.2 2141.75C2997.56 2122.19 3021.28 2056.41 3051.4 2060.24C3086.79 2064.73 3072.56 2091.11 3047.49 2106.76C3029.09 2118.28 3006.49 2134.64 2995.77 2142.55C3004.87 2144.03 3014.36 2145.03 3023.98 2144.8C3048.7 2144.21 3060.77 2151.51 3065.44 2155.41Z"
        fill="#82B378" />
    <path
        d="M286.069 2155.41H430.367C438.1 2148.85 425.017 2133.96 411.345 2132.96C405.409 2132.52 397.9 2133.76 389.321 2135.57C387.337 2109.2 375.997 1990.63 333.26 1995.4C285.207 2000.73 333.26 2047.61 346.844 2075.36C356.907 2095.92 367.523 2125.4 372.372 2139.32C368.472 2140.16 364.432 2140.99 360.307 2141.75C353.937 2122.19 330.239 2056.41 300.103 2060.24C264.719 2064.73 278.941 2091.11 304.021 2106.76C322.42 2118.28 345.015 2134.64 355.751 2142.55C346.653 2144.03 337.161 2145.03 327.529 2144.8C302.812 2144.21 290.748 2151.51 286.069 2155.41Z"
        fill="#82B378" />
    <path
        d="M1617.11 1935.92C1623.31 1966.96 1630.88 1993.82 1639.7 2017.05C1708.03 2197.08 1850.45 2158.27 1989.48 2158.27C2146.43 2158.27 2146.13 2053.13 2146.13 1911.01C2146.13 1768.9 2059.18 1655.97 1902.24 1655.97C1745.28 1655.97 1589.37 1796.54 1617.11 1935.92Z"
        fill="#FFB93E" />
    <path
        d="M2241.64 1957.21C2242.63 1813.24 2137.94 1697.56 1998.15 1659.17C1855.52 1619.99 1737.06 1715.83 1737.28 1855.47C1737.51 1995.73 1858.42 2134.67 2003.09 2153.33C2143.02 2171.4 2240.69 2097.25 2241.64 1957.21Z"
        fill="#FFA412" />
    <path
        d="M2229.09 1953.73C2230.02 1816.93 2130.54 1707.02 1997.72 1670.54C1862.2 1633.32 1749.65 1724.37 1749.85 1857.05C1750.07 1990.35 1864.96 2122.36 2002.42 2140.09C2135.38 2157.25 2228.17 2086.8 2229.09 1953.73Z"
        fill="#FFDA9F" />
    <path
        d="M1987.21 1873.61L2026.07 1727.32C2028.97 1716.44 2020.48 1703.6 2008.69 1701.04C1994.29 1697.9 1974.47 1694.56 1953.41 1693.84C1929.05 1693.01 1908.57 1695.06 1894.42 1697.25C1883.45 1698.94 1879.06 1711.25 1885.53 1722.16L1975.22 1873.36C1978.42 1878.77 1985.79 1878.93 1987.21 1873.61Z"
        fill="#FFB93E" />
    <path
        d="M2020.87 1918.52L2166.61 2009.61C2177.45 2016.39 2189.84 2012.2 2191.97 2001C2194.59 1987.35 2197.23 1968.21 2197.23 1946.89C2197.23 1922.21 2194.51 1900.51 2191.9 1885.24C2189.84 1873.4 2177.55 1864.6 2166.99 1867.4L2020.7 1906.32C2015.48 1907.72 2015.55 1915.21 2020.87 1918.52Z"
        fill="#FFB93E" />
    <path
        d="M2011.87 1891.44L2156.02 1853.09C2166.73 1850.24 2170.12 1837.28 2162.93 1826.52C2154.14 1813.4 2141.31 1795.8 2125.45 1778.45C2107.11 1758.39 2089.55 1742.83 2076.81 1732.42C2066.95 1724.39 2053.97 1726.7 2050.52 1737.13L2002.72 1881.64C2001.01 1886.81 2006.65 1892.84 2011.87 1891.44Z"
        fill="#FFB93E" />
    <path
        d="M1998 1932.06L2042.58 2093.03C2045.91 2105 2058.88 2112.85 2069.19 2109.11C2081.76 2104.52 2098.58 2097.31 2115.03 2086.91C2134.04 2074.87 2148.63 2062.1 2158.31 2052.56C2165.82 2045.15 2162.92 2031.03 2152.45 2023.96L2007.29 1925.98C2002.08 1922.48 1996.4 1926.21 1998 1932.06Z"
        fill="#FFB93E" />
    <path
        d="M1962.61 1878.01L1865.24 1733.8C1857.99 1723.07 1843.96 1720.13 1836.47 1727.83C1827.36 1737.2 1815.57 1750.84 1805.27 1767.52C1793.37 1786.83 1785.53 1805.15 1780.72 1818.41C1776.98 1828.69 1784.67 1841.73 1796.26 1844.83L1956.87 1887.63C1962.63 1889.16 1966.16 1883.25 1962.61 1878.01Z"
        fill="#FFB93E" />
    <path
        d="M1956.84 1900.81L1798.19 1873.23C1786.38 1871.17 1777.84 1880.65 1780.71 1892.67C1784.2 1907.32 1789.94 1927.4 1798.76 1948.53C1808.99 1972.99 1820.23 1993.32 1828.73 2007.31C1835.33 2018.16 1849.17 2021.6 1856.77 2014.28L1962.01 1912.84C1965.79 1909.2 1962.61 1901.81 1956.84 1900.81Z"
        fill="#FFB93E" />
    <path
        d="M1971.1 1925.41L1885.55 2042.44C1879.18 2051.15 1883.68 2065.31 1894.79 2071.47C1908.35 2078.96 1927.29 2088.44 1948.34 2095.99C1972.69 2104.73 1994.03 2109.64 2009.01 2112.33C2020.64 2114.44 2028.97 2104.96 2025.87 2093.16L1983.12 1929.58C1981.59 1923.72 1974.21 1921.17 1971.1 1925.41Z"
        fill="#FFB93E" />
    <path
        d="M1621.52 1192.92C1622.16 1190.32 1564.79 1218.87 1561.87 1222.09C1534.96 1251.95 1542.63 1290.89 1558.03 1291.28C1567.91 1291.51 1566 1307.93 1566 1307.93L1676.03 1261.39C1676.03 1261.39 1662.77 1184.13 1621.52 1192.92Z"
        fill="#2C3A64" />
    <path
        d="M1635.07 1198.95C1635.07 1198.95 1639 1156.09 1591.11 1156.09C1591.11 1156.09 1605.61 1160.03 1613.12 1167.89C1613.12 1167.89 1582.57 1149.97 1549.33 1177.52C1516.09 1205.08 1536.75 1274.17 1526.64 1287.31C1516.53 1300.43 1477.17 1303.05 1481.99 1345.47C1486.8 1387.89 1606.91 1441.03 1599.2 1476.13C1599.2 1476.13 1646.27 1406.93 1612.61 1375.36C1612.61 1375.36 1629.01 1390.81 1630.69 1409.19C1630.69 1409.19 1635.15 1373.32 1612.32 1361.84C1592.12 1351.69 1575.59 1314.57 1577.33 1307.93C1579.08 1301.29 1635.07 1198.95 1635.07 1198.95Z"
        fill="#2C3A64" />
    <path
        d="M1591.57 1400.6C1584.2 1365.04 1538.08 1354.01 1516.27 1383.05C1512.35 1388.28 1509.59 1394.45 1508.68 1401.73C1503.71 1442.11 1568.24 1606.52 1577.49 1621.4C1594.32 1648.51 1693.4 1741.41 1693.4 1741.41L1711.67 1730.35C1711.67 1730.35 1641.37 1611.36 1630.49 1600.23C1617.92 1587.35 1605.6 1468.12 1591.57 1400.6Z"
        fill="#ED985F" />
    <path
        d="M1686.45 1730.39C1686.45 1730.39 1713.11 1712.89 1723.2 1714.03C1733.28 1715.15 1762.48 1723.55 1762.84 1727.84C1763.2 1732.13 1730.31 1734.81 1728.09 1737.16C1725.89 1739.51 1703.56 1754.41 1695.45 1749.75C1687.36 1745.07 1686.45 1730.39 1686.45 1730.39Z"
        fill="#ED985F" />
    <path
        d="M1500.55 2125.73L1476.73 2122.24C1476.73 2122.24 1396.68 2058.63 1384.76 1939.91C1383.55 1927.83 1383.29 1915.56 1384.19 1903.2C1384.29 1901.77 1384.13 1900.36 1383.36 1899.16C1383.36 1899.15 1383.35 1899.13 1383.33 1899.12C1380.77 1895.19 1374.39 1885.35 1365.76 1871.36C1357.24 1857.57 1342.68 1831.51 1326.65 1802.25C1297.79 1749.57 1264.19 1686.57 1252.65 1666.51C1215.92 1602.56 1233.63 1559.56 1233.63 1559.56C1233.63 1559.56 1336.09 1549.43 1364.17 1524.87L1374.28 1540.45C1374.28 1540.45 1396.49 1638.73 1395.44 1639.19C1396.53 1642.53 1397.64 1645.93 1398.77 1649.4C1416.29 1703.48 1436.44 1771.07 1447.43 1826.12C1453.61 1857.09 1456.88 1884.08 1455.12 1902.47C1454.52 1908.77 1455.25 1918.47 1456.93 1930.43C1466.85 2000.97 1500.55 2125.73 1500.55 2125.73Z"
        fill="#F99746" />
    <path
        d="M1550.49 2155.87H1451.16C1451.16 2155.87 1448.77 2140.72 1453.96 2129.24C1458.93 2118.21 1466.03 2117.87 1454.87 2100.59C1461.17 2107.09 1481.47 2109.77 1495.83 2107.84C1497.59 2110.69 1507.17 2129.84 1513.05 2134.07C1519.55 2138.72 1548.49 2137.07 1550.49 2155.87Z"
        fill="#233862" />
    <path
        d="M1398.77 1649.4C1390.09 1697.25 1369.6 1776.91 1326.65 1802.25C1297.79 1749.57 1264.19 1686.57 1252.65 1666.51C1215.92 1602.56 1233.63 1559.56 1233.63 1559.56C1233.63 1559.56 1336.09 1549.43 1364.17 1524.87L1374.28 1540.45C1374.28 1540.45 1396.49 1638.73 1395.44 1639.19C1396.53 1642.53 1397.64 1645.93 1398.77 1649.4Z"
        fill="#ED7D2B" />
    <path
        d="M1580.95 1378.53C1580.95 1378.53 1595 1393.15 1601.41 1410.64C1601.41 1410.64 1579 1474.97 1526.64 1483.05C1526.64 1483.05 1568.07 1378.51 1580.95 1378.53Z"
        fill="#2A4E96" />
    <path
        d="M1329.11 1566.95L1329.44 1548.37C1292.43 1553.04 1201.8 1504.13 1201.8 1504.13C1201.8 1504.13 1163.08 1529.89 1157.77 1603.44C1155.19 1639.35 1138.83 1791.19 1137.01 1836.52C1136.35 1852.96 1136.13 1864.68 1136.05 1869.37C1136.07 1869.39 1136.07 1869.4 1136.07 1869.41C1136.04 1870.84 1135.37 1872.11 1134.49 1873.24C1126.83 1882.97 1120.19 1893.29 1114.43 1903.99C1057.95 2009.08 1087.48 2151.87 1087.48 2151.87L1100.6 2148.53C1100.6 2148.53 1148.36 2000.51 1179.57 1936.48C1184.88 1925.61 1189.69 1917.17 1193.72 1912.28C1205.45 1898.03 1217.83 1873.81 1230.03 1844.68C1253.08 1789.6 1275.47 1716.92 1291.44 1660.64C1292.56 1660.84 1329.11 1566.95 1329.11 1566.95Z"
        fill="#F99746" />
    <path
        d="M1545.72 1442.95C1485.2 1429.05 1523.87 1344.03 1527.37 1345.52C1535.76 1343.81 1554.17 1329.09 1570.64 1300.35L1572.87 1302.27L1610.04 1334.85C1610.04 1334.85 1601.44 1347.53 1594.21 1359.95C1588.57 1369.67 1583.77 1379.24 1584.53 1382.52C1587.52 1384.88 1561.85 1446.65 1545.72 1442.95Z"
        fill="#FFB27D" />
    <path
        d="M1610.04 1334.87C1610.04 1334.87 1601.44 1347.52 1594.21 1359.95C1571.11 1345.71 1571.08 1317.11 1572.87 1302.28L1610.04 1334.87Z"
        fill="#ED985F" />
    <path
        d="M1611.07 1351.19C1611.07 1351.19 1554.96 1319.96 1574.93 1285.32C1594.92 1250.68 1601.13 1223.32 1637.8 1241.79C1674.47 1260.27 1673.75 1277.45 1669.88 1290.64C1666.03 1303.83 1626.17 1358.41 1611.07 1351.19Z"
        fill="#FFB27D" />
    <path
        d="M1679.36 1270.44C1676.8 1255.05 1668.99 1253.59 1663.53 1254.61C1642.81 1220.35 1608.96 1233.72 1608.96 1233.72C1590.88 1256.41 1564.73 1260.28 1564.73 1260.28C1564.73 1260.28 1571.25 1272.4 1598.08 1279.89C1606.27 1282.19 1615.57 1280.8 1624.53 1277.79C1605.93 1288.16 1586.47 1292.13 1586.47 1292.13C1621.81 1295.37 1655.45 1263.05 1658.93 1259.6C1660.57 1264.6 1663.43 1275.09 1661.72 1282.76C1659.39 1293.17 1650.15 1312.04 1655.79 1314.48C1655.79 1314.48 1683.21 1293.51 1679.36 1270.44Z"
        fill="#2C3A64" />
    <path
        d="M1166.48 2155.87H1067.15C1067.15 2155.87 1064.76 2140.72 1069.95 2129.24C1074.92 2118.21 1082.71 2113.21 1080.84 2099.88C1087.16 2106.37 1097.44 2113.65 1111.8 2111.72C1113.56 2114.57 1123.16 2129.84 1129.04 2134.07C1135.53 2138.72 1164.48 2137.07 1166.48 2155.87Z"
        fill="#233862" />
    <path
        d="M1552.84 1510.36C1540.05 1514.83 1522.12 1517.27 1503.76 1519.25C1477.64 1522.11 1450.68 1524.05 1436.55 1529.69C1431.4 1531.75 1427.95 1534.28 1426.88 1537.53C1420.75 1555.95 1393.76 1584.36 1393.76 1584.36C1220.8 1576.48 1201.8 1504.13 1201.8 1504.13C1318.19 1368.81 1515.23 1329.64 1515.23 1329.64C1515.23 1329.64 1529.29 1323.67 1564.75 1351.84C1588.4 1370.64 1585.28 1377.87 1585.28 1377.87C1585.28 1377.87 1590.45 1497.24 1552.84 1510.36Z"
        fill="#2A4E96" />
    <path
        d="M1503.76 1519.25C1477.64 1522.11 1450.68 1524.05 1436.55 1529.69C1430.77 1443.43 1471.49 1378.53 1471.49 1378.53C1471.49 1378.53 1498.04 1486.61 1503.76 1519.25Z"
        fill="#1E3D70" />
    <path
        d="M1530.65 1361.84C1530.65 1361.84 1465.19 1368.32 1459.93 1410.85C1454.69 1453.39 1522.69 1626.64 1532.44 1642.33C1550.17 1670.89 1654.59 1768.79 1654.59 1768.79L1673.83 1757.13C1673.83 1757.13 1599.77 1631.75 1588.29 1620.01C1570.29 1601.6 1552.81 1376.59 1530.65 1361.84Z"
        fill="#FFB27D" />
    <path
        d="M1461.83 1436.44C1462 1437.41 1522.24 1456.12 1561.01 1436.44C1561.01 1436.44 1569.31 1346.99 1523.03 1351.84C1476.73 1356.69 1449.33 1371.28 1448.16 1393.44C1447 1415.6 1461.83 1436.44 1461.83 1436.44Z"
        fill="#2A4E96" />
    <path
        d="M1648.64 1756.36C1648.64 1756.36 1672.12 1734.79 1682.25 1734.28C1692.4 1733.76 1722.57 1737.35 1723.61 1741.53C1724.65 1745.71 1692.63 1753.65 1690.83 1756.33C1689.03 1759 1669.39 1777.32 1660.64 1774C1651.89 1770.69 1648.64 1756.36 1648.64 1756.36Z"
        fill="#FFB27D" />
    <path
        d="M3198.38 2143H3.62869C1.63343 2143 0 2145.5 0 2148.55V2150.45C0 2153.51 1.63343 2156 3.62869 2156H3198.38C3200.37 2156 3202 2153.51 3202 2150.45V2148.55C3202 2145.5 3200.37 2143 3198.38 2143Z"
        fill="#2E3552" />
</svg>