<svg width="398" height="302" viewBox="0 0 398 302" fill="none"
	xmlns="http://www.w3.org/2000/svg">
	<path d="M397.501 275.657H364.779V275.876H397.501V275.657Z"
		fill="#EBEBEB" />
	<path d="M280.245 278.038H271.66V278.257H280.245V278.038Z" fill="#EBEBEB" />
	<path d="M363.791 267.534H344.831V267.753H363.791V267.534Z"
		fill="#EBEBEB" />
	<path d="M47.5022 269.005H4.83047V269.224H47.5022V269.005Z"
		fill="#EBEBEB" />
	<path d="M62.5593 269.005H56.3053V269.224H62.5593V269.005Z"
		fill="#EBEBEB" />
	<path d="M175.448 272.699H82.8923V272.917H175.448V272.699Z"
		fill="#EBEBEB" />
	<path
		d="M28.8191 124.396L248.501 124.396L248.501 0.191177L28.8191 0.191177L28.8191 124.396Z"
		fill="#E6E6E6" />
	<path
		d="M23.4444 124.396L245.991 124.396L245.991 0.191177L23.4444 0.191177L23.4444 124.396Z"
		fill="#F0F0F0" />
	<path d="M28.8191 133.246L248.501 133.246V124.396L28.8191 124.396V133.246Z"
		fill="#E6E6E6" />
	<path
		d="M19.4825 124.396H232.041C232.694 124.391 233.341 124.5 233.946 124.717C234.552 124.934 235.102 125.256 235.566 125.663C236.03 126.07 236.398 126.554 236.65 127.088C236.901 127.622 237.03 128.194 237.03 128.773C237.032 129.354 236.903 129.93 236.653 130.467C236.403 131.004 236.036 131.493 235.572 131.904C235.109 132.316 234.558 132.642 233.952 132.865C233.347 133.087 232.697 133.202 232.041 133.202H19.4825C18.1566 133.202 16.885 132.735 15.9475 131.905C15.01 131.074 14.4832 129.948 14.4832 128.773C14.4988 127.607 15.0324 126.494 15.9683 125.675C16.9042 124.856 18.1668 124.396 19.4825 124.396Z"
		fill="#F0F0F0" />
	<path d="M238.473 117.727V6.86093L30.9828 6.86093V117.727L238.473 117.727Z"
		fill="#FAFAFA" />
	<path d="M224.068 117.727L179.894 6.86096H159.038L203.211 117.727H224.068Z"
		fill="white" />
	<path
		d="M234.985 80.1149C234.841 80.1149 234.703 80.0642 234.601 79.9739C234.499 79.8836 234.442 79.7611 234.442 79.6335V11.2024C234.431 11.1344 234.437 11.0651 234.46 10.9993C234.482 10.9335 234.52 10.8727 234.571 10.821C234.622 10.7693 234.685 10.7278 234.755 10.6994C234.826 10.671 234.903 10.6563 234.98 10.6563C235.058 10.6563 235.134 10.671 235.205 10.6994C235.275 10.7278 235.338 10.7693 235.389 10.821C235.44 10.8727 235.478 10.9335 235.501 10.9993C235.523 11.0651 235.529 11.1344 235.519 11.2024V79.6335C235.519 79.7596 235.463 79.8808 235.363 79.9708C235.263 80.0609 235.127 80.1126 234.985 80.1149Z"
		fill="#F0F0F0" />
	<path d="M198.735 117.727L154.562 6.86096H146.431L190.604 117.727H198.735Z"
		fill="white" />
	<path d="M154.018 117.727L109.845 6.86096H88.9982L133.162 117.727H154.018Z"
		fill="white" />
	<path d="M98.5917 117.727L54.4182 6.86096H46.287L90.4604 117.727H98.5917Z"
		fill="white" />
	<path d="M31.9214 117.727L31.9214 6.86096H30.9631L30.9631 117.727H31.9214Z"
		fill="#E6E6E6" />
	<path opacity="0.4"
		d="M21.666 17.8985H241.348L242.039 9.45184H22.3576L21.666 17.8985Z"
		fill="#E6E6E6" />
	<path opacity="0.4"
		d="M21.666 24.0869H241.348L242.039 15.6315H22.3576L21.666 24.0869Z"
		fill="#E6E6E6" />
	<path opacity="0.4"
		d="M21.666 31.5007H241.348L242.039 23.054H22.3576L21.666 31.5007Z"
		fill="#E6E6E6" />
	<path opacity="0.4"
		d="M21.666 39.7548H241.348L242.039 31.3081H22.3576L21.666 39.7548Z"
		fill="#E6E6E6" />
	<path opacity="0.4"
		d="M21.666 49.6544H241.348L242.039 41.199H22.3576L21.666 49.6544Z"
		fill="#E6E6E6" />
	<path opacity="0.4"
		d="M21.666 60.7795H241.348L242.039 52.3328H22.3576L21.666 60.7795Z"
		fill="#E6E6E6" />
	<path
		d="M43.5175 261.216C61.8023 258.674 74.2986 243.48 71.4288 227.281C68.5589 211.082 51.4096 200.011 33.1248 202.554C14.8399 205.096 2.3436 220.289 5.21347 236.489C8.08334 252.688 25.2326 263.759 43.5175 261.216Z"
		fill="#F5F5F5" />
	<g style="mix-blend-mode:multiply" opacity="0.7">
		<path
			d="M36.4465 209.038C33.5714 208.933 31.299 207.839 31.3583 206.587C31.4176 205.335 33.7888 204.425 36.6638 204.53C39.5389 204.635 41.8113 205.738 41.752 206.981C41.6928 208.224 39.3216 209.143 36.4465 209.038Z"
			fill="#E6E6E6" />
	</g>
	<g style="mix-blend-mode:multiply" opacity="0.7">
		<path
			d="M22.0316 213.519C19.6208 214.894 17.0422 215.156 16.2814 214.115C15.5206 213.073 16.8643 211.095 19.2454 209.738C21.6265 208.381 24.1854 208.093 24.9956 209.143C25.8057 210.193 24.4522 212.136 22.0316 213.519Z"
			fill="#E6E6E6" />
	</g>
	<g style="mix-blend-mode:multiply" opacity="0.7">
		<path
			d="M32.1783 219.27C29.5502 220.321 26.8431 220.014 26.1219 218.587C25.4006 217.161 26.932 215.156 29.5502 214.115C32.1684 213.073 34.8756 213.371 35.6067 214.797C36.3378 216.224 34.7965 218.22 32.1783 219.27Z"
			fill="#E6E6E6" />
	</g>
	<path d="M79.79 261.574H121.414L121.414 163.312H79.79L79.79 261.574Z"
		fill="#E6E6E6" />
	<path d="M87.694 261.573H79.7802V235.603H95.9834L87.694 261.573Z"
		fill="#F0F0F0" />
	<path d="M317.285 261.574H358.91V163.312H317.285V261.574Z" fill="#E6E6E6" />
	<path d="M79.7901 254.484L324.192 254.484V163.312L79.7901 163.312V254.484Z"
		fill="#F0F0F0" />
	<path d="M316.278 261.573H324.182V235.603H307.988L316.278 261.573Z"
		fill="#F0F0F0" />
	<path
		d="M316.821 243.507H242.84V173.361H316.821V243.507ZM244.371 242.151H315.29V174.752H244.371V242.151Z"
		fill="#E6E6E6" />
	<path
		d="M238.977 243.507H164.995V173.361H238.977V243.507ZM166.527 242.151H237.445V174.752H166.527V242.151Z"
		fill="#E6E6E6" />
	<path
		d="M161.122 243.507H87.1408V173.361H161.122V243.507ZM88.6722 242.151H159.591V174.752H88.6722V242.151Z"
		fill="#E6E6E6" />
	<path
		d="M200 301.102C305.798 301.102 391.563 296.666 391.563 291.194C391.563 285.721 305.798 281.285 200 281.285C94.2025 281.285 8.43668 285.721 8.43668 291.194C8.43668 296.666 94.2025 301.102 200 301.102Z"
		fill="#F5F5F5" />
	<path
		d="M208.191 27.9119C193.371 22.8614 178.343 35.492 179.539 58.9413C180.438 76.4474 161.537 74.5392 171.417 90.1283C181.297 105.717 173.976 116.265 163.513 113.429C171.417 122.252 194.764 115.442 194.833 101.052C194.902 86.6621 234.867 107.661 234.867 107.661C234.867 107.661 226.755 120.3 249.4 117.368C272.045 114.435 291.696 74.0928 291.775 56.1754C291.835 44.2976 277.509 38.8094 270.267 39.9736C270 24.8046 201.275 -3.39758 208.191 27.9119Z"
		fill="#263238" />
	<path
		d="M168.473 112.729C166.394 112.73 164.34 112.327 162.456 111.547L162.901 110.768C162.901 110.768 167.445 112.781 171.793 111.389C174.421 110.514 176.466 108.623 177.879 105.674L178.788 106.015C177.266 109.201 175.023 111.267 172.119 112.212C170.947 112.571 169.713 112.746 168.473 112.729Z"
		fill="#263238" />
	<path
		d="M172.721 78.6531L171.951 78.1104C177.414 72.0796 176.822 66.5827 176.13 60.2193C175.507 54.4248 174.796 47.8513 178.798 39.8335C183.293 30.8354 189.369 25.4873 196.374 24.367C202.223 23.4216 208.428 25.6099 213.852 30.4941L213.15 31.1068C207.963 26.4152 202.065 24.3144 196.552 25.1985C189.883 26.2664 184.054 31.4481 179.756 40.1661C175.804 47.9738 176.555 54.416 177.167 60.1055C177.79 66.4164 178.432 72.351 172.721 78.6531Z"
		fill="#263238" />
	<path
		d="M91.6065 175.068L87.941 165.054C86.9726 162.404 85.1654 160.055 82.7343 158.288L78.4859 155.189C77.0667 154.594 75.4763 154.395 73.9265 154.62C72.3767 154.845 70.9412 155.484 69.8112 156.45L63.1027 162.157C61.6965 163.353 60.8505 164.975 60.7334 166.7C60.6162 168.424 61.2364 170.124 62.4704 171.461L65.3455 174.569C65.3455 174.569 74.0004 186.438 85.0462 190.201L87.2593 188.039C89.0309 186.302 90.3408 184.235 91.0931 181.99C91.8453 179.745 92.0207 177.38 91.6065 175.068Z"
		fill="#FF8B7B" />
	<path
		d="M194.27 168.17L193.716 169.614L193.212 170.892L192.224 173.387C191.543 175.041 190.802 176.643 190.071 178.245C188.598 181.457 186.998 184.591 185.338 187.707C183.678 190.823 181.92 193.895 180.072 196.941C178.224 199.987 176.337 202.998 174.272 205.957C170.188 211.942 165.704 217.706 160.846 223.218C155.894 228.873 150.443 234.171 144.544 239.061C143.793 239.673 143.052 240.295 142.281 240.899L139.939 242.693L139.357 243.14L139.06 243.367L138.339 243.901C137.01 244.849 135.557 245.652 134.011 246.291C132.285 247.001 130.451 247.484 128.568 247.726C126.793 247.954 124.992 247.969 123.213 247.77C120.546 247.466 117.965 246.733 115.595 245.608C113.976 244.837 112.45 243.922 111.04 242.877C108.955 241.337 107.046 239.619 105.34 237.748C102.614 234.751 100.162 231.567 98.0088 228.225C95.9834 225.1 94.1951 222.001 92.5056 218.911C89.1859 212.705 86.3207 206.508 83.7618 200.241C81.2029 193.974 78.9107 187.716 76.9841 181.16C76.518 179.445 76.7543 177.64 77.6508 176.066C78.5473 174.492 80.0459 173.251 81.8792 172.564C83.7125 171.878 85.7614 171.79 87.6606 172.318C89.5598 172.845 91.1858 173.953 92.2487 175.444L92.3475 175.593C99.7476 186.411 107.079 197.545 114.874 207.611C116.801 210.132 118.777 212.574 120.802 214.824C122.593 216.922 124.555 218.903 126.671 220.749C127.338 221.34 128.089 221.852 128.904 222.272C129.121 222.369 129.21 222.272 128.904 222.159C128.16 221.771 127.331 221.529 126.473 221.45C125.601 221.345 124.717 221.345 123.845 221.45C122.863 221.569 121.905 221.81 121 222.167C120.275 222.454 119.592 222.815 118.964 223.244L118.786 223.375L118.707 223.428L118.757 223.384L118.964 223.192L119.389 222.815L121.059 221.31L122.679 219.752C127.048 215.457 131.094 210.913 134.792 206.149C138.517 201.291 142.103 196.276 145.364 191.024C148.624 185.772 151.716 180.416 154.601 174.954C156.044 172.214 157.407 169.457 158.741 166.7L160.717 162.568L161.636 160.529L162.426 158.699L162.683 158.104C164.19 154.39 167.3 151.358 171.33 149.675C175.36 147.993 179.98 147.798 184.172 149.132C188.365 150.467 191.787 153.223 193.686 156.793C195.585 160.363 195.806 164.456 194.299 168.17H194.27Z"
		fill="#FF8B7B" />
	<path
		d="M158.356 171.759C158.781 180.389 143.407 200.337 162.387 211.9C164.62 229.327 167.416 246.483 172.662 275.062H271.699C267.629 250.343 268.518 222.176 281.579 166.525C282.298 163.481 282.286 160.337 281.544 157.298C280.802 154.259 279.347 151.392 277.273 148.883C275.199 146.374 272.552 144.28 269.505 142.737C266.458 141.194 263.079 140.235 259.586 139.924C255.634 139.574 251.445 139.276 247.157 139.049C230.5 138.34 216.836 137.867 202.183 139.049C197.332 139.443 192.303 139.985 187.522 140.581C179.156 141.637 171.534 145.415 166.142 151.18C160.75 156.944 157.974 164.28 158.356 171.759Z"
		fill="#263238" />
	<path opacity="0.2"
		d="M192.404 155.518C187.76 151.308 180.893 149.767 177.584 151.142C174.274 152.516 178.315 153.829 181.97 153.969C185.626 154.109 179.856 155.378 173.701 154.844C167.546 154.31 168.109 158.153 174.689 159.089C181.269 160.026 174.61 160.56 169.116 160.262C163.623 159.965 163.06 163.439 169.689 164.639C176.319 165.838 157.517 165.12 163.831 170.853C170.144 176.586 173.256 163.028 173.335 167.956C173.414 172.884 178.275 173.269 179.075 169.33C179.876 165.391 182.109 160.814 181.901 165.68C181.694 170.547 186.752 171.807 187.404 167.352C188.056 162.897 191.08 159.124 190.447 161.724C189.815 164.324 190.685 167.51 193.273 165.453C195.862 163.396 197.037 159.728 192.404 155.518Z"
		fill="white" />
	<path opacity="0.2"
		d="M186.858 182.134C182.215 177.924 175.348 176.383 172.038 177.757C168.728 179.131 172.779 180.453 176.425 180.584C180.071 180.716 174.32 181.994 168.155 181.46C161.99 180.926 162.573 184.768 169.143 185.714C175.714 186.659 169.064 187.175 163.571 186.878C158.078 186.58 157.524 190.064 164.144 191.254C170.764 192.445 151.972 191.727 158.295 197.46C164.618 203.193 167.711 189.644 167.8 194.563C167.889 199.482 172.74 199.876 173.54 195.946C174.34 192.016 176.573 187.421 176.356 192.287C176.138 197.154 181.207 198.414 181.869 193.959C182.531 189.504 185.534 185.74 184.902 188.34C184.27 190.939 185.139 194.117 187.728 192.06C190.316 190.003 191.502 186.326 186.858 182.134Z"
		fill="white" />
	<path opacity="0.2"
		d="M226.745 168.126C231.329 172.38 238.186 173.982 241.565 172.66C244.944 171.339 240.864 169.956 237.218 169.789C233.572 169.623 239.342 168.398 245.488 168.993C251.633 169.588 251.119 165.737 244.5 164.73C237.88 163.724 244.588 163.268 250.082 163.619C255.575 163.969 256.168 160.494 249.558 159.242C242.948 157.99 261.74 158.874 255.486 153.115C249.232 147.355 245.982 160.844 245.952 155.916C245.922 150.988 241.101 150.559 240.231 154.489C239.362 158.419 237.09 162.98 237.356 158.113C237.623 153.246 232.584 151.942 231.873 156.362C231.162 160.783 228.099 164.555 228.771 161.956C229.442 159.356 228.603 156.179 225.984 158.209C223.366 160.24 222.151 163.872 226.745 168.126Z"
		fill="white" />
	<path opacity="0.2"
		d="M269.119 173.492C264.485 169.282 257.609 167.741 254.25 169.115C250.89 170.49 254.991 171.803 258.636 171.943C262.282 172.083 256.532 173.352 250.367 172.818C244.202 172.284 244.785 176.127 251.355 177.072C257.925 178.017 251.276 178.534 245.792 178.236C240.309 177.939 239.736 181.413 246.365 182.613C252.995 183.812 234.193 183.085 240.507 188.819C246.82 194.552 249.922 180.993 250.011 185.921C250.1 190.849 254.951 191.234 255.751 187.295C256.552 183.357 258.785 178.779 258.577 183.645C258.37 188.512 263.418 189.773 264.08 185.317C264.742 180.862 267.756 177.098 267.113 179.698C266.471 182.297 267.36 185.475 269.939 183.418C272.518 181.361 273.763 177.702 269.119 173.492Z"
		fill="white" />
	<path opacity="0.2"
		d="M203.2 195.482C207.794 199.727 214.641 201.337 218.02 200.007C221.399 198.676 217.308 197.311 213.663 197.145C210.017 196.978 215.787 195.753 221.942 196.348C228.097 196.943 227.564 193.092 220.954 192.085C214.344 191.079 221.053 190.615 226.536 190.965C232.02 191.315 232.632 187.849 226.013 186.589C219.393 185.328 238.195 186.23 231.941 180.461C225.687 174.693 222.426 188.199 222.397 183.271C222.367 178.343 217.555 177.914 216.676 181.836C215.797 185.757 213.544 190.326 213.811 185.468C214.078 180.61 209.039 179.289 208.318 183.718C207.596 188.147 204.553 191.902 205.215 189.311C205.877 186.72 205.047 183.525 202.439 185.564C199.831 187.604 198.615 191.228 203.2 195.482Z"
		fill="white" />
	<path opacity="0.2"
		d="M203.913 225.459C208.498 229.713 215.354 231.314 218.733 229.993C222.112 228.671 218.022 227.288 214.376 227.122C210.73 226.955 216.5 225.73 222.656 226.325C228.811 226.92 228.277 223.069 221.668 222.062C215.058 221.056 221.766 220.601 227.25 220.951C232.733 221.301 233.346 217.826 226.726 216.574C220.107 215.323 238.908 216.207 232.654 210.447C226.4 204.688 223.14 218.176 223.11 213.248C223.08 208.32 218.269 207.891 217.39 211.821C216.51 215.751 214.248 220.312 214.524 215.445C214.801 210.578 209.752 209.274 209.031 213.695C208.31 218.115 205.267 221.887 205.929 219.288C206.591 216.688 205.761 213.511 203.152 215.541C200.544 217.572 199.319 221.205 203.913 225.459Z"
		fill="white" />
	<path opacity="0.2"
		d="M168.913 225.459C173.498 229.713 180.354 231.314 183.733 229.993C187.112 228.671 183.022 227.288 179.376 227.122C175.73 226.955 181.5 225.73 187.656 226.325C193.811 226.92 193.277 223.069 186.668 222.062C180.058 221.056 186.766 220.601 192.25 220.951C197.733 221.301 198.346 217.826 191.726 216.574C185.107 215.323 203.908 216.207 197.654 210.447C191.4 204.688 188.14 218.176 188.11 213.248C188.08 208.32 183.269 207.891 182.39 211.821C181.51 215.751 179.248 220.312 179.524 215.445C179.801 210.578 174.752 209.274 174.031 213.695C173.31 218.115 170.267 221.887 170.929 219.288C171.591 216.688 170.761 213.511 168.152 215.541C165.544 217.572 164.319 221.205 168.913 225.459Z"
		fill="white" />
	<path opacity="0.2"
		d="M185.368 253.083C189.962 257.328 196.809 258.939 200.188 257.608C203.567 256.278 199.486 254.912 195.831 254.746C192.175 254.58 197.955 253.354 204.11 253.95C210.265 254.545 209.732 250.694 203.122 249.687C196.512 248.68 203.211 248.216 208.704 248.567C214.198 248.917 214.79 245.45 208.181 244.19C201.571 242.93 220.353 243.831 214.109 238.063C207.864 232.295 204.594 245.801 204.565 240.873C204.535 235.945 199.723 235.516 198.844 239.437C197.965 243.358 195.712 247.928 195.979 243.07C196.246 238.212 191.207 236.89 190.495 241.319C189.784 245.748 186.721 249.503 187.393 246.912C188.065 244.321 187.215 241.126 184.607 243.166C181.999 245.205 180.783 248.829 185.368 253.083Z"
		fill="white" />
	<path opacity="0.2"
		d="M251.455 231.892C246.821 227.682 239.945 226.141 236.586 227.516C233.226 228.89 237.327 230.211 240.972 230.343C244.618 230.474 238.868 231.752 232.703 231.218C226.538 230.684 227.121 234.527 233.691 235.472C240.261 236.417 233.622 236.934 228.128 236.636C222.635 236.339 222.072 239.814 228.701 241.013C235.331 242.212 216.529 241.485 222.843 247.219C229.156 252.952 232.258 239.393 232.347 244.321C232.436 249.249 237.287 249.634 238.087 245.704C238.888 241.774 241.121 237.179 240.913 242.046C240.706 246.912 245.754 248.173 246.416 243.717C247.078 239.262 250.092 235.498 249.449 238.098C248.807 240.698 249.696 243.875 252.285 241.818C254.874 239.761 256.099 236.102 251.455 231.892Z"
		fill="white" />
	<path opacity="0.2"
		d="M237.919 259.517C233.276 255.306 226.409 253.766 223.05 255.14C219.691 256.514 223.781 257.827 227.437 257.967C231.092 258.107 225.322 259.377 219.167 258.843C213.012 258.309 213.585 262.151 220.155 263.088C226.725 264.024 220.076 264.558 214.583 264.261C209.09 263.963 208.526 267.438 215.156 268.637C221.785 269.836 202.984 269.119 209.297 274.843C215.61 280.568 218.723 267.027 218.812 271.955C218.9 276.883 223.752 277.268 224.542 273.329C225.332 269.39 227.575 264.812 227.368 269.67C227.16 274.528 232.219 275.797 232.871 271.351C233.523 266.904 236.546 263.123 235.914 265.722C235.281 268.322 236.151 271.508 238.739 269.451C241.328 267.394 242.553 263.718 237.919 259.517Z"
		fill="white" />
	<path opacity="0.2"
		d="M168.838 280.813C173.423 285.067 180.28 286.668 183.658 285.338C187.037 284.007 182.957 282.642 179.311 282.476C175.666 282.309 181.435 281.084 187.591 281.679C193.746 282.274 193.212 278.423 186.603 277.416C179.993 276.41 186.692 275.955 192.185 276.305C197.678 276.655 198.271 273.18 191.661 271.928C185.052 270.677 203.843 271.569 197.589 265.801C191.335 260.033 188.085 273.53 188.055 268.602C188.025 263.674 183.204 263.245 182.335 267.167C181.465 271.088 179.193 275.666 179.459 270.799C179.726 265.933 174.687 264.628 173.976 269.049C173.265 273.469 170.202 277.233 170.874 274.642C171.546 272.051 170.706 268.865 168.088 270.895C165.469 272.926 164.244 276.559 168.838 280.813Z"
		fill="white" />
	<path opacity="0.2"
		d="M254.261 262.099C258.845 266.353 265.702 267.954 269.081 266.633C272.46 265.311 268.379 263.928 264.734 263.762C261.088 263.595 266.858 262.37 273.013 262.965C279.168 263.56 278.635 259.709 272.025 258.703C265.415 257.696 272.114 257.241 277.607 257.591C283.101 257.941 283.693 254.466 277.084 253.214C270.474 251.963 289.266 252.847 283.012 247.087C276.758 241.328 273.507 254.816 273.478 249.888C273.448 244.96 268.626 244.531 267.757 248.462C266.888 252.392 264.615 256.952 264.882 252.085C265.149 247.219 260.11 245.958 259.399 250.335C258.687 254.711 255.624 258.597 256.316 255.972C257.008 253.346 256.148 250.195 253.53 252.225C250.912 254.256 249.667 257.871 254.261 262.099Z"
		fill="white" />
	<path opacity="0.2"
		d="M265.583 201.108C260.94 196.898 254.073 195.357 250.714 196.731C247.355 198.105 251.445 199.418 255.101 199.55C258.756 199.681 252.986 200.959 246.831 200.425C240.676 199.891 241.239 203.734 247.819 204.679C254.399 205.624 247.75 206.149 242.257 205.843C236.763 205.537 236.2 209.029 242.83 210.22C249.459 211.41 230.658 210.692 236.971 216.425C243.284 222.159 246.397 208.609 246.476 213.528C246.555 218.447 251.416 218.841 252.216 214.911C253.016 210.981 255.249 206.395 255.041 211.252C254.834 216.11 259.883 217.38 260.545 212.933C261.207 208.486 264.22 204.705 263.588 207.305C262.955 209.904 263.825 213.091 266.413 211.025C269.002 208.959 270.217 205.318 265.583 201.108Z"
		fill="white" />
	<path opacity="0.2"
		d="M259.003 162.209C257.235 175.173 263.469 198.324 272.075 215.646C273.576 204.819 275.819 192.547 278.931 178.332L259.003 162.209Z"
		fill="black" />
	<path
		d="M251.771 139.364C250.269 139.276 248.738 139.198 247.197 139.128C230.539 138.41 216.875 137.946 202.223 139.128L198.39 139.469C195.057 144.162 193.207 149.562 193.033 155.105C192.859 160.647 194.368 166.13 197.402 170.98L199.378 174.254L202.193 171.496C222.329 151.811 247.552 141.307 247.809 141.176L251.761 139.364H251.771Z"
		fill="white" />
	<path
		d="M242.741 94.2685C239.905 107.083 237.08 130.576 247.197 139.128C247.197 139.128 220.827 149.334 200 169.719C189.824 152.992 202.223 139.128 202.223 139.128C218.367 135.714 217.942 125.123 215.136 115.144L242.741 94.2685Z"
		fill="#FF8B7B" />
	<path opacity="0.2"
		d="M231.488 102.794L215.146 115.136C215.845 117.452 216.311 119.819 216.539 122.208C222.704 121.42 231.171 115.425 231.823 109.709C232.184 107.405 232.07 105.062 231.488 102.794Z"
		fill="black" />
	<path
		d="M258.005 70.7492C252.364 91.5988 250.467 100.509 236.516 109.499C215.541 122.987 188.45 112.343 187.116 90.4347C185.891 70.7142 195.327 39.9298 219.839 35.1244C243.956 30.389 263.657 49.8995 258.005 70.7492Z"
		fill="#FF8B7B" />
	<path
		d="M260.051 44.5339C236.556 62.3375 213.664 32.9274 200 47.4136C192.096 41.1815 214.366 25.1372 227.763 24.5508C241.16 23.9643 270.197 32.1396 260.051 44.5339Z"
		fill="#263238" />
	<path
		d="M256.425 42.8358C231.833 50.8098 242.731 92.728 263.884 90.1808C285.037 87.6337 281.569 46.7222 256.425 42.8358Z"
		fill="#263238" />
	<path
		d="M223.119 70.9767C222.783 72.7273 221.479 73.9265 220.214 73.7252C218.95 73.5239 218.238 71.9746 218.535 70.224C218.831 68.4734 220.185 67.2742 221.449 67.4755C222.714 67.6769 223.465 69.2612 223.119 70.9767Z"
		fill="#263238" />
	<path
		d="M199.239 67.5456C198.903 69.2962 197.599 70.4866 196.335 70.2852C195.07 70.0839 194.359 68.5346 194.655 66.784C194.951 65.0334 196.305 63.843 197.57 64.0356C198.834 64.2282 199.585 65.83 199.239 67.5456Z"
		fill="#263238" />
	<path
		d="M198.113 64.2807L193.697 62.3638C193.697 62.3638 195.445 65.935 198.113 64.2807Z"
		fill="#263238" />
	<path
		d="M205.325 71.3969C205.325 71.3969 200.553 78.268 196.226 81.2703C198.36 83.7824 202.905 83.4935 202.905 83.4935L205.325 71.3969Z"
		fill="#FF5652" />
	<path
		d="M212.775 91.5901C211.669 91.5845 210.565 91.4967 209.475 91.3275C209.4 91.3159 209.329 91.2912 209.265 91.2549C209.201 91.2186 209.145 91.1714 209.102 91.116C209.059 91.0606 209.029 90.9982 209.013 90.9323C208.997 90.8664 208.996 90.7984 209.011 90.7323C209.022 90.6663 209.049 90.6031 209.089 90.5465C209.129 90.4898 209.182 90.4408 209.243 90.4025C209.305 90.3641 209.375 90.3371 209.449 90.3231C209.522 90.3091 209.598 90.3083 209.673 90.3209C212.074 90.745 214.553 90.6625 216.912 90.0801C219.27 89.4977 221.441 88.4318 223.248 86.9685C223.357 86.8728 223.504 86.8191 223.658 86.8191C223.811 86.8191 223.959 86.8728 224.068 86.9685C224.176 87.0652 224.236 87.1957 224.236 87.3317C224.236 87.4678 224.176 87.5983 224.068 87.695C221.017 90.2433 216.967 91.6401 212.775 91.5901Z"
		fill="#263238" />
	<path
		d="M259.646 91.0211C258.103 92.5107 256.222 93.6931 254.125 94.4898C252.028 95.2866 249.764 95.6796 247.483 95.6427C241.713 95.3714 241.051 89.4631 244.519 84.7102C247.631 80.43 254.399 75.4145 259.28 78.0142C264.161 80.6138 263.825 87.1523 259.646 91.0211Z"
		fill="#FF8B7B" />
	<path
		d="M224.562 90.0495C224.397 88.2973 224.651 86.5338 225.308 84.8746C225.965 83.2155 227.01 81.6979 228.375 80.4212C227.448 80.512 226.587 80.8902 225.945 81.4891C224.754 82.588 223.84 83.8981 223.263 85.333C222.685 86.7678 222.458 88.2948 222.596 89.8132C222.813 92.9118 225.214 95.7127 228.168 96.343C227.114 95.5675 226.25 94.6091 225.63 93.5268C225.01 92.4444 224.646 91.2611 224.562 90.0495Z"
		fill="#FF8B7B" />
	<path opacity="0.2"
		d="M224.562 90.0495C224.397 88.2973 224.651 86.5338 225.308 84.8746C225.965 83.2155 227.01 81.6979 228.375 80.4212C227.448 80.512 226.587 80.8902 225.945 81.4891C224.754 82.588 223.84 83.8981 223.263 85.333C222.685 86.7678 222.458 88.2948 222.596 89.8132C222.813 92.9118 225.214 95.7127 228.168 96.343C227.114 95.5675 226.25 94.6091 225.63 93.5268C225.01 92.4444 224.646 91.2611 224.562 90.0495Z"
		fill="black" />
	<path
		d="M231.023 64.0531C230.875 64.0073 230.738 63.9357 230.621 63.8425C230.504 63.7493 230.409 63.6364 230.341 63.5104C229.779 62.3274 228.908 61.2793 227.801 60.4517C226.693 59.6241 225.38 59.0405 223.969 58.7488C223.818 58.7287 223.674 58.6825 223.543 58.6129C223.413 58.5433 223.299 58.4516 223.209 58.3431C223.119 58.2346 223.053 58.1114 223.017 57.9805C222.98 57.8496 222.973 57.7136 222.996 57.5803C223.018 57.4469 223.071 57.3189 223.149 57.2034C223.228 57.0879 223.331 56.9872 223.454 56.9072C223.576 56.8271 223.715 56.7692 223.863 56.7368C224.011 56.7043 224.164 56.698 224.315 56.7181C226.108 57.0606 227.782 57.7791 229.197 58.8132C230.611 59.8473 231.726 61.167 232.446 62.6614C232.538 62.8431 232.569 63.0448 232.534 63.2417C232.499 63.4387 232.4 63.6223 232.249 63.7701C232.098 63.9178 231.902 64.0233 231.684 64.0736C231.466 64.1239 231.236 64.1168 231.023 64.0531Z"
		fill="#263238" />
	<path
		d="M191.424 58.0048C191.127 58.0209 190.834 57.9364 190.604 57.7684C190.488 57.6825 190.393 57.5771 190.323 57.4583C190.253 57.3395 190.211 57.2096 190.198 57.0762C190.185 56.9428 190.202 56.8084 190.248 56.6809C190.294 56.5533 190.368 56.4351 190.466 56.3329C191.604 55.0589 193.072 54.0462 194.745 53.3804C196.418 52.7147 198.248 52.4154 200.079 52.5079C200.377 52.545 200.647 52.6837 200.832 52.8946C201.017 53.1055 201.101 53.3719 201.067 53.637C201.023 53.902 200.864 54.1414 200.625 54.3047C200.385 54.468 200.083 54.5424 199.783 54.5123C198.333 54.4586 196.889 54.7116 195.571 55.2505C194.253 55.7893 193.099 56.5984 192.205 57.6109C192.112 57.7205 191.995 57.812 191.861 57.8797C191.726 57.9475 191.578 57.9901 191.424 58.0048Z"
		fill="#263238" />
	<path
		d="M221.993 67.6944L217.577 65.7775C217.577 65.7775 219.325 69.3662 221.993 67.6944Z"
		fill="#263238" />
	<path
		d="M242.682 271.893C242.067 269.617 240.884 267.492 239.221 265.675C237.557 263.857 235.455 262.393 233.068 261.39L222.141 256.847C220.549 256.182 218.798 255.869 217.039 255.936C215.28 256.003 213.566 256.448 212.044 257.232L207.104 259.77C205.748 260.473 204.665 261.524 203.998 262.783C203.332 264.043 203.112 265.453 203.369 266.825L204.891 274.957C205.213 276.659 206.247 278.192 207.786 279.251C209.326 280.31 211.258 280.817 213.2 280.673L217.715 280.331C217.715 280.331 233.651 280.716 243.403 274.773L242.682 271.893Z"
		fill="#FF8B7B" />
	<path
		d="M277.924 149.911L278.912 151.111L279.811 152.187L281.53 154.297C282.666 155.697 283.723 157.115 284.79 158.533C286.914 161.36 288.9 164.24 290.837 167.164C292.773 170.087 294.601 173.037 296.36 176.048C298.118 179.059 299.818 182.096 301.389 185.203C307.988 197.804 312.641 211.135 315.221 224.837C315.477 226.588 315.813 228.338 315.991 230.15L316.297 232.829L316.347 233.328L316.396 234.203C316.435 234.786 316.435 235.37 316.396 235.953C316.396 236.531 316.317 237.126 316.238 237.704C316.159 238.282 316.031 238.798 315.912 239.341C315.437 241.246 314.683 243.088 313.669 244.82C312.851 246.205 311.892 247.52 310.804 248.75C309.061 250.679 307.094 252.439 304.935 254.002C301.474 256.472 297.751 258.641 293.82 260.479C290.185 262.177 286.598 263.613 283.022 264.935C279.445 266.256 275.868 267.368 272.302 268.436C268.735 269.504 265.149 270.44 261.572 271.316C257.996 272.191 254.389 272.97 250.783 273.705C248.975 274.055 247.167 274.379 245.349 274.703C243.531 275.027 241.733 275.272 239.797 275.578C237.8 275.901 235.738 275.571 233.995 274.65C232.251 273.729 230.944 272.279 230.316 270.569C229.687 268.858 229.78 267.005 230.577 265.35C231.374 263.696 232.821 262.354 234.649 261.573L234.965 261.442C247.365 255.98 260.159 250.466 271.423 244.356C274.238 242.842 276.936 241.266 279.376 239.656C281.607 238.276 283.682 236.708 285.571 234.973C286.13 234.474 286.594 233.897 286.944 233.266C287.151 232.925 286.746 233.03 286.391 234.142C286.337 234.293 286.298 234.448 286.272 234.605C286.272 234.781 286.203 234.973 286.193 235.157C286.183 235.341 286.193 235.542 286.193 235.743C286.193 235.945 286.193 235.945 286.193 236.041V236.12V235.988L285.768 233.966C285.511 232.619 285.116 231.262 284.78 229.914C281.626 218.804 277.059 208.048 271.166 197.852C268.261 192.6 265.01 187.453 261.641 182.376C259.942 179.838 258.173 177.343 256.405 174.866L253.698 171.216L252.354 169.466L251.129 167.899L250.714 167.374C249.417 165.793 248.483 164.002 247.967 162.102C247.451 160.201 247.363 158.23 247.707 156.3C248.402 152.401 250.816 148.907 254.419 146.585C258.022 144.264 262.518 143.305 266.919 143.921C269.098 144.226 271.188 144.908 273.069 145.928C274.95 146.948 276.587 148.287 277.884 149.868L277.924 149.911Z"
		fill="#FF8B7B" />
	<path
		d="M87.6842 125.307C87.4082 125.299 87.1396 125.386 86.9336 125.549C86.7277 125.712 86.6003 125.938 86.5776 126.182L86.0441 137.088C86.0359 137.256 85.9822 137.42 85.8876 137.566C85.7929 137.712 85.6602 137.836 85.5004 137.926C85.3406 138.017 85.1585 138.073 84.9695 138.089C84.7804 138.104 84.5898 138.079 84.4139 138.016L82.4379 137.29C82.214 137.206 82.0242 137.064 81.8936 136.883C81.763 136.702 81.6978 136.489 81.7068 136.274L82.2502 125.079C82.2694 124.949 82.2581 124.817 82.2168 124.692C82.1756 124.566 82.1054 124.449 82.0106 124.349C81.9158 124.249 81.7985 124.167 81.6662 124.109C81.5339 124.051 81.3893 124.018 81.2418 124.011C81.0943 124.005 80.9469 124.027 80.8091 124.074C80.6712 124.121 80.5459 124.192 80.441 124.284C80.3361 124.377 80.2539 124.487 80.1997 124.609C80.1455 124.73 80.1204 124.861 80.1259 124.992L79.5825 136.195C79.5714 136.411 79.4858 136.618 79.3373 136.788C79.1888 136.959 78.9847 137.085 78.7526 137.149L76.7075 137.718C76.5262 137.769 76.3339 137.78 76.1467 137.751C75.9595 137.722 75.783 137.654 75.6319 137.552C75.4808 137.45 75.3596 137.317 75.2786 137.165C75.1975 137.012 75.159 136.845 75.1662 136.677L75.6997 125.771C75.7056 125.646 75.6837 125.523 75.6355 125.406C75.5873 125.289 75.5136 125.182 75.4186 125.091C75.3237 124.999 75.2093 124.925 75.0821 124.873C74.9549 124.821 74.8173 124.791 74.6771 124.786C74.537 124.781 74.3971 124.8 74.2654 124.843C74.1337 124.885 74.0128 124.951 73.9096 125.035C73.8064 125.119 73.7229 125.22 73.6639 125.333C73.6049 125.446 73.5715 125.568 73.5656 125.692L72.963 138.086C72.9056 139.321 73.2329 140.545 73.9091 141.626C74.5852 142.707 75.5842 143.602 76.7964 144.213C77.4033 144.522 77.8962 144.979 78.2153 145.531C78.5345 146.082 78.6662 146.704 78.5946 147.32C77.8042 154.235 75.8973 170.779 74.3956 181.947C72.4196 196.364 74.9291 198.963 77.5868 199.068C80.2445 199.173 82.9813 196.766 82.4379 182.254C82.0229 171.015 81.7265 154.384 81.6079 147.434C81.5966 146.814 81.7884 146.205 82.1602 145.68C82.532 145.155 83.0677 144.736 83.7025 144.476C84.9699 143.96 86.0525 143.144 86.8315 142.119C87.6105 141.094 88.0559 139.898 88.1189 138.664L88.7215 126.27C88.7243 126.021 88.6174 125.781 88.4237 125.601C88.2299 125.422 87.9646 125.316 87.6842 125.307Z"
		fill="#263238" />
	<path
		d="M69.999 113C66.3434 123.118 83.3172 137.666 97.2579 129.569C86.9629 122.226 69.999 113 69.999 113Z"
		fill="#1573FF" />
	<path opacity="0.5"
		d="M73.1606 114.751C71.1846 122.436 83.5247 132.825 93.9975 127.329C86.7752 122.497 77.8239 117.368 73.1606 114.751Z"
		fill="white" />
	<path d="M391.563 272.83H8.43668V283.92H391.563V272.83Z" fill="#1573FF" />
	<path opacity="0.2" d="M391.563 277.749H8.43668V279.001H391.563V277.749Z"
		fill="black" />
	<path d="M376.19 288.253H23.81L13.93 283.92H386.07L376.19 288.253Z"
		fill="#1573FF" />
	<path opacity="0.5"
		d="M376.19 288.253H23.81L13.93 283.92H386.07L376.19 288.253Z"
		fill="white" />
	<path
		d="M75.8479 242.273C72.4294 239.463 62.253 244.024 62.8656 238.299C63.4782 232.575 56.6214 236.724 55.673 231.122C54.7245 225.52 63.9228 227.148 60.03 222.806C56.1373 218.465 59.2396 212.793 65.2072 212.732C71.1747 212.67 69.4852 219.463 74.6228 216.382C80.2742 212.994 84.9375 215.988 84.9573 220.504C84.977 225.021 89.6898 222.474 91.5966 227.209C94.1062 233.441 82.596 234.115 84.8782 237.818C87.1605 241.52 81.4894 246.895 75.8479 242.273Z"
		fill="#1573FF" />
	<path opacity="0.4"
		d="M75.8479 242.273C72.4294 239.463 62.253 244.024 62.8656 238.299C63.4782 232.575 56.6214 236.724 55.673 231.122C54.7245 225.52 63.9228 227.148 60.03 222.806C56.1373 218.465 59.2396 212.793 65.2072 212.732C71.1747 212.67 69.4852 219.463 74.6228 216.382C80.2742 212.994 84.9375 215.988 84.9573 220.504C84.977 225.021 89.6898 222.474 91.5966 227.209C94.1062 233.441 82.596 234.115 84.8782 237.818C87.1605 241.52 81.4894 246.895 75.8479 242.273Z"
		fill="white" />
	<path
		d="M75.2354 240.006C71.4118 235.691 63.8734 242.081 64.3674 237.24C64.8614 232.4 57.4514 235.314 58.1133 230.553C58.7753 225.791 66.8571 225.607 62.3914 223.052C57.9256 220.496 60.5142 214.535 65.5826 214.482C70.651 214.43 69.8211 220.671 74.1782 218.062C78.9601 215.191 82.9121 217.73 82.9319 221.564C82.9516 225.397 87.368 223.314 89.7392 227.06C93.8493 233.485 80.0173 232.461 83.584 236.855C85.965 239.744 80.1655 245.564 75.2354 240.006Z"
		fill="#1573FF" />
	<path opacity="0.4"
		d="M74.8698 238.693C71.7477 234.921 65.1182 240.181 65.7209 236.067C66.3236 231.953 59.9016 234.255 60.6031 230.211C61.3046 226.168 68.2008 226.211 64.4859 223.927C60.771 221.642 63.1521 216.618 67.4499 216.697C71.7477 216.776 70.8585 222.08 74.6623 219.962C78.8317 217.633 82.1217 219.9 82.013 223.157C81.9044 226.413 85.7378 224.793 87.6446 228.006C90.9446 233.59 79.1874 232.382 82.0921 236.207C84.0286 238.737 78.9008 243.56 74.8698 238.693Z"
		fill="white" />
	<path
		d="M57.3229 234.632C57.7971 242.509 66.0667 258.029 86.6369 252.645C85.471 241.888 75.097 234.833 57.3229 234.632Z"
		fill="#1573FF" />
	<path opacity="0.3"
		d="M57.3229 234.632C57.7971 242.509 66.0667 258.029 86.6369 252.645C85.471 241.888 75.097 234.833 57.3229 234.632Z"
		fill="black" />
	<path
		d="M60.119 236.654C62.338 238.416 64.7209 240.009 67.2424 241.415C69.752 242.877 72.3208 244.278 74.8797 245.669C77.4386 247.061 80.0667 248.391 82.6552 249.739L90.3913 253.845C90.4782 253.887 90.5441 253.956 90.5761 254.039C90.6081 254.122 90.6039 254.212 90.5641 254.293C90.5244 254.373 90.4521 254.437 90.3616 254.472C90.271 254.508 90.1688 254.512 90.0751 254.484C87.1532 253.669 84.3352 252.587 81.6672 251.254C78.9996 249.958 76.4111 248.549 73.8423 247.114C71.2735 245.678 68.7738 244.138 66.3335 242.527C65.1084 241.722 63.903 240.899 62.747 239.997C61.5538 239.124 60.4616 238.148 59.4866 237.083C59.4251 237.009 59.398 236.916 59.4109 236.825C59.4237 236.734 59.4756 236.651 59.5558 236.592C59.6298 236.539 59.7222 236.51 59.8176 236.51C59.913 236.51 60.0054 236.539 60.0794 236.592L60.119 236.654Z"
		fill="#1573FF" />
	<path
		d="M66.7682 242.317H66.7089C66.6581 242.31 66.6091 242.295 66.5651 242.272C66.521 242.248 66.4826 242.217 66.4523 242.181C66.4219 242.144 66.4001 242.102 66.3882 242.058C66.3763 242.014 66.3745 241.968 66.3829 241.923C66.7201 240.438 66.5445 238.898 65.879 237.503C65.8297 237.421 65.8186 237.326 65.8482 237.238C65.8778 237.149 65.9457 237.074 66.0371 237.03C66.0822 237.007 66.1321 236.993 66.1838 236.987C66.2354 236.982 66.2877 236.986 66.3376 236.999C66.3874 237.012 66.4338 237.034 66.4738 237.064C66.5138 237.093 66.5468 237.129 66.5706 237.17C67.3365 238.695 67.5438 240.394 67.1634 242.028C67.1452 242.109 67.0959 242.182 67.0239 242.235C66.9519 242.287 66.8616 242.316 66.7682 242.317Z"
		fill="#1573FF" />
	<path
		d="M66.0964 248.391C65.9915 248.391 65.891 248.355 65.8169 248.289C65.7428 248.223 65.7012 248.134 65.7012 248.041C65.7012 247.948 65.7428 247.859 65.8169 247.794C65.891 247.728 65.9915 247.691 66.0964 247.691C66.0964 247.691 70.8585 247.306 72.222 245.188C72.2455 245.144 72.279 245.106 72.3203 245.074C72.3616 245.043 72.4098 245.019 72.4618 245.005C72.5139 244.99 72.5688 244.986 72.6229 244.991C72.6771 244.997 72.7293 245.012 72.7765 245.036C72.8236 245.061 72.8646 245.093 72.8969 245.132C72.9291 245.171 72.9519 245.215 72.9639 245.263C72.9758 245.31 72.9766 245.358 72.9663 245.406C72.9559 245.453 72.9346 245.498 72.9037 245.538C71.3328 247.971 66.373 248.374 66.1655 248.391H66.0964Z"
		fill="#1573FF" />
	<path
		d="M77.8042 248.593C77.7401 248.589 77.6782 248.571 77.6239 248.541C77.5697 248.511 77.5248 248.469 77.4934 248.419C77.462 248.37 77.4451 248.314 77.4441 248.257C77.4432 248.2 77.4583 248.144 77.488 248.094C79.0984 245.424 76.5 241.8 76.5 241.757C76.471 241.718 76.4511 241.675 76.4414 241.63C76.4316 241.585 76.4323 241.539 76.4434 241.494C76.4545 241.449 76.4757 241.406 76.5058 241.369C76.5359 241.331 76.5743 241.299 76.6186 241.275C76.7065 241.226 76.8129 241.209 76.9146 241.229C77.0164 241.248 77.1053 241.303 77.162 241.38C77.2805 241.547 80.0469 245.389 78.2191 248.383C78.1883 248.455 78.13 248.515 78.0542 248.554C77.9785 248.592 77.8901 248.606 77.8042 248.593Z"
		fill="#1573FF" />
	<path
		d="M78.555 252.243C78.4536 252.243 78.3559 252.208 78.2824 252.147C78.2088 252.085 78.1649 252 78.1598 251.91C78.157 251.818 78.1945 251.728 78.2644 251.66C78.3343 251.591 78.4313 251.549 78.5353 251.543C79.8018 251.391 81.0011 250.947 82.013 250.256C82.0552 250.229 82.103 250.209 82.1536 250.199C82.2042 250.188 82.2567 250.186 82.3081 250.194C82.3595 250.201 82.4087 250.217 82.453 250.241C82.4973 250.266 82.5358 250.297 82.5663 250.335C82.5968 250.372 82.6187 250.414 82.6307 250.459C82.6428 250.504 82.6447 250.551 82.6365 250.596C82.6282 250.642 82.6099 250.685 82.5826 250.724C82.5553 250.764 82.5196 250.798 82.4774 250.825C81.3273 251.603 79.9624 252.092 78.5254 252.243H78.555Z"
		fill="#1573FF" />
	<path
		d="M116.633 221.651C104.46 222.167 80.3927 232.111 88.5734 257.118C105.211 255.761 116.198 243.218 116.633 221.651Z"
		fill="#1573FF" />
	<path opacity="0.3"
		d="M116.633 221.651C104.46 222.167 80.3927 232.111 88.5734 257.118C105.211 255.761 116.198 243.218 116.633 221.651Z"
		fill="black" />
	<path
		d="M113.491 225.03C110.757 227.705 108.297 230.59 106.14 233.651C103.858 236.689 101.655 239.779 99.4908 242.895C97.3271 246.011 95.2523 249.162 93.1478 252.304L86.7456 261.652C86.7082 261.707 86.659 261.754 86.6009 261.791C86.5428 261.828 86.477 261.855 86.4072 261.87C86.3374 261.884 86.265 261.887 86.1942 261.876C86.1234 261.866 86.0556 261.843 85.9947 261.81C85.8925 261.756 85.8137 261.673 85.7707 261.575C85.7277 261.476 85.7231 261.368 85.7576 261.267C87.0357 257.726 88.7312 254.314 90.8161 251.087C92.7921 247.858 95.025 244.724 97.2579 241.617C99.4908 238.509 101.882 235.49 104.391 232.522C105.646 231.043 106.94 229.59 108.343 228.198C109.707 226.758 111.226 225.439 112.878 224.259C112.934 224.221 112.998 224.193 113.065 224.177C113.133 224.161 113.204 224.157 113.274 224.165C113.344 224.173 113.411 224.193 113.472 224.224C113.533 224.256 113.586 224.297 113.629 224.347C113.715 224.434 113.762 224.546 113.762 224.662C113.762 224.778 113.715 224.89 113.629 224.977L113.491 225.03Z"
		fill="#1573FF" />
	<path
		d="M107.741 233.739C106.866 233.736 105.994 233.668 105.132 233.538C105.063 233.527 104.996 233.505 104.937 233.472C104.877 233.439 104.825 233.396 104.785 233.345C104.744 233.294 104.715 233.237 104.699 233.176C104.683 233.115 104.681 233.052 104.693 232.991C104.704 232.929 104.729 232.87 104.767 232.817C104.804 232.764 104.853 232.719 104.91 232.682C104.968 232.646 105.032 232.621 105.101 232.607C105.17 232.593 105.241 232.591 105.31 232.601C107.603 233.024 109.988 232.82 112.147 232.015C112.212 231.985 112.283 231.966 112.356 231.961C112.428 231.955 112.502 231.962 112.572 231.982C112.641 232.001 112.706 232.033 112.762 232.075C112.818 232.116 112.864 232.167 112.898 232.225C112.932 232.282 112.952 232.345 112.959 232.409C112.965 232.474 112.957 232.539 112.935 232.601C112.913 232.663 112.877 232.72 112.83 232.769C112.783 232.819 112.726 232.86 112.661 232.89C111.115 233.5 109.432 233.79 107.741 233.739Z"
		fill="#1573FF" />
	<path
		d="M99.9354 240.505C99.8409 240.503 99.7488 240.479 99.6686 240.435C95.9142 238.527 95.3214 232.496 95.2918 232.242C95.2808 232.116 95.3265 231.991 95.419 231.894C95.5115 231.797 95.6433 231.737 95.7858 231.726C95.9284 231.716 96.0696 231.757 96.1787 231.838C96.2878 231.92 96.3561 232.037 96.3687 232.163C96.3687 232.225 96.9417 237.949 100.202 239.612C100.263 239.643 100.317 239.684 100.36 239.734C100.403 239.783 100.435 239.839 100.453 239.9C100.472 239.96 100.476 240.023 100.467 240.084C100.458 240.146 100.435 240.206 100.4 240.26C100.355 240.334 100.288 240.396 100.206 240.44C100.124 240.483 100.031 240.505 99.9354 240.505Z"
		fill="#1573FF" />
	<path
		d="M98.8189 247.604C97.5532 247.621 96.3029 247.356 95.1831 246.833C95.1192 246.805 95.0627 246.765 95.0168 246.717C94.9709 246.668 94.9368 246.612 94.9164 246.551C94.896 246.491 94.8899 246.427 94.8984 246.364C94.9069 246.301 94.9298 246.24 94.9657 246.186C94.9989 246.13 95.0442 246.081 95.0991 246.041C95.1541 246.001 95.2175 245.971 95.2856 245.953C95.3537 245.935 95.4251 245.93 95.4957 245.936C95.5664 245.943 95.6347 245.963 95.6968 245.993C99.8168 247.963 105.439 244.829 105.488 244.794C105.548 244.76 105.615 244.737 105.686 244.726C105.756 244.715 105.828 244.717 105.898 244.73C105.968 244.744 106.034 244.77 106.092 244.807C106.151 244.843 106.201 244.889 106.239 244.943C106.277 244.996 106.303 245.054 106.315 245.116C106.327 245.178 106.325 245.241 106.31 245.302C106.294 245.363 106.265 245.421 106.224 245.472C106.183 245.523 106.131 245.566 106.071 245.599C103.883 246.799 101.388 247.488 98.8189 247.604Z"
		fill="#1573FF" />
	<path
		d="M91.8634 252.278C91.7779 252.278 91.6936 252.26 91.6178 252.225C91.542 252.19 91.4771 252.139 91.4287 252.076C90.2405 250.695 89.4902 249.057 89.2551 247.332C89.2497 247.206 89.3005 247.083 89.3966 246.99C89.4928 246.896 89.6264 246.84 89.7688 246.833C89.8392 246.829 89.91 246.837 89.9768 246.857C90.0437 246.877 90.1052 246.909 90.1579 246.95C90.2105 246.992 90.253 247.043 90.2829 247.099C90.3128 247.156 90.3295 247.217 90.332 247.28C90.5651 248.82 91.246 250.28 92.308 251.516C92.35 251.567 92.3803 251.624 92.3971 251.685C92.414 251.746 92.4169 251.809 92.4059 251.871C92.3949 251.933 92.3701 251.992 92.3329 252.045C92.2957 252.099 92.247 252.145 92.1895 252.182C92.0951 252.243 91.9809 252.277 91.8634 252.278Z"
		fill="#1573FF" />
	<path
		d="M75.512 236.242C85.392 244.558 110.507 236.417 108.116 219.804C94.5112 225.476 75.512 236.242 75.512 236.242Z"
		fill="#1573FF" />
	<path opacity="0.2"
		d="M79.0688 234.255C86.9728 239.857 105.014 233.835 103.868 221.651C94.7385 225.782 84.404 231.332 79.0688 234.255Z"
		fill="white" />
	<path
		d="M101.417 267.552C92.1203 276.305 66.4817 269.46 67.8254 252.75C81.7463 257.722 101.417 267.552 101.417 267.552Z"
		fill="#1573FF" />
	<path opacity="0.2"
		d="M97.7222 265.74C90.2134 271.727 71.7872 266.615 72.1627 254.361C81.5487 258.055 92.2191 263.088 97.7222 265.74Z"
		fill="white" />
	<path
		d="M126.572 233.266C123.667 235.253 127.066 242.063 121.79 241.258C116.514 240.452 119.814 245.127 114.479 245.319C109.144 245.512 111.465 239.778 107.128 241.967C102.791 244.155 97.7124 241.748 98.1471 237.94C98.5818 234.133 104.796 235.7 102.346 232.207C99.6587 228.356 102.84 225.607 107.049 225.914C111.258 226.22 109.292 223.043 113.866 222.176C119.893 221.021 119.567 228.408 123.213 227.227C126.858 226.045 131.364 230.01 126.572 233.266Z"
		fill="#1573FF" />
	<path opacity="0.4"
		d="M126.572 233.266C123.667 235.253 127.066 242.063 121.79 241.258C116.514 240.452 119.814 245.127 114.479 245.319C109.144 245.512 111.465 239.778 107.128 241.967C102.791 244.155 97.7124 241.748 98.1471 237.94C98.5818 234.133 104.796 235.7 102.346 232.207C99.6587 228.356 102.84 225.607 107.049 225.914C111.258 226.22 109.292 223.043 113.866 222.176C119.893 221.021 119.567 228.408 123.213 227.227C126.858 226.045 131.364 230.01 126.572 233.266Z"
		fill="white" />
	<path
		d="M124.408 233.503C120.061 235.621 125.396 240.89 120.92 240.207C116.445 239.525 118.549 244.461 114.153 243.709C109.756 242.956 110.26 237.783 107.513 240.444C104.767 243.105 99.4018 241.021 99.7674 237.818C100.133 234.614 105.903 235.568 103.828 232.566C101.556 229.301 104.253 226.973 107.78 227.235C111.307 227.498 109.815 224.54 113.481 223.297C119.824 221.143 117.719 229.879 122.116 227.927C125.06 226.64 130.01 230.754 124.408 233.503Z"
		fill="#1573FF" />
	<path opacity="0.4"
		d="M123.153 233.634C119.369 235.385 123.726 239.954 119.932 239.28C116.139 238.606 117.759 242.851 114.004 242.116C110.25 241.38 110.902 236.978 108.452 239.183C106.002 241.389 101.536 239.507 101.951 236.759C102.366 234.01 107.266 235.008 105.606 232.382C103.779 229.555 106.17 227.629 109.203 227.927C112.236 228.225 111.031 225.677 114.202 224.688C119.685 222.99 117.571 230.395 121.395 228.82C123.924 227.804 128.024 231.463 123.153 233.634Z"
		fill="white" />
	<path
		d="M89.6602 258.072C93.3158 255.569 90.332 247.612 96.3489 248.313C102.366 249.013 99.2141 243.595 105.409 243.061C111.604 242.527 108.136 249.521 113.53 246.72C118.925 243.919 124.398 246.51 123.41 251.096C122.422 255.683 115.378 254.098 117.729 258.151C120.308 262.606 116.227 266.029 111.376 265.889C106.525 265.749 108.412 269.39 102.939 270.694C95.7759 272.366 97.1986 263.543 92.802 265.136C88.4054 266.729 83.6432 262.204 89.6602 258.072Z"
		fill="#1573FF" />
	<path opacity="0.4"
		d="M89.6602 258.072C93.3158 255.569 90.332 247.612 96.3489 248.313C102.366 249.013 99.2141 243.595 105.409 243.061C111.604 242.527 108.136 249.521 113.53 246.72C118.925 243.919 124.398 246.51 123.41 251.096C122.422 255.683 115.378 254.098 117.729 258.151C120.308 262.606 116.227 266.029 111.376 265.889C106.525 265.749 108.412 269.39 102.939 270.694C95.7759 272.366 97.1986 263.543 92.802 265.136C88.4054 266.729 83.6432 262.204 89.6602 258.072Z"
		fill="white" />
	<path
		d="M92.2191 257.722C97.5642 254.965 92.1104 248.969 97.2085 249.547C102.307 250.125 100.558 244.356 105.557 245.03C110.556 245.704 109.242 251.901 112.819 248.593C116.395 245.284 122.314 247.499 121.434 251.367C120.555 255.236 113.985 254.361 115.971 257.792C118.164 261.565 114.696 264.48 110.596 264.348C106.496 264.217 107.849 267.666 103.423 269.329C95.7462 272.217 99.471 261.687 94.0469 264.243C90.4901 265.906 85.3228 261.223 92.2191 257.722Z"
		fill="#1573FF" />
	<path opacity="0.4"
		d="M93.6912 257.468C98.3348 255.236 93.9185 249.958 98.2261 250.58C102.534 251.201 101.249 246.203 105.468 246.895C109.687 247.586 108.343 252.864 111.495 250.107C114.647 247.35 119.587 249.381 118.698 252.68C117.808 255.98 112.275 255.079 113.846 258.064C115.566 261.346 112.522 263.762 109.045 263.56C105.567 263.359 106.595 266.335 102.781 267.666C96.1711 269.968 99.6686 261.031 95.0053 263.097C91.9326 264.462 87.7138 260.348 93.6912 257.468Z"
		fill="white" />
	<path opacity="0.3"
		d="M55.6038 232.68V238.886C55.6325 247.88 59.6784 256.5 66.8576 262.86C74.0368 269.22 83.7656 272.804 93.9184 272.83C104.071 272.804 113.8 269.22 120.979 262.86C128.158 256.5 132.204 247.88 132.233 238.886V232.68H55.6038Z"
		fill="#1573FF" />
	<path opacity="0.5"
		d="M133.172 232.68H54.6652C54.0791 232.678 53.5176 232.47 53.1032 232.103C52.6887 231.736 52.4547 231.238 52.4521 230.719C52.4547 230.2 52.6887 229.702 53.1032 229.335C53.5176 228.968 54.0791 228.761 54.6652 228.758H133.172C133.758 228.761 134.319 228.968 134.734 229.335C135.148 229.702 135.382 230.2 135.385 230.719C135.382 231.238 135.148 231.736 134.734 232.103C134.319 232.47 133.758 232.678 133.172 232.68Z"
		fill="#1573FF" />
	<path opacity="0.3"
		d="M94.984 265.902C99.1771 261.625 95.4354 252.663 86.6269 245.887C77.8183 239.11 67.2784 237.084 63.0854 241.362C58.8924 245.64 62.634 254.602 71.4425 261.378C80.2511 268.155 90.791 270.18 94.984 265.902Z"
		fill="white" />
	<path opacity="0.3"
		d="M104.352 254.221C101.388 255.368 97.6827 253.643 96.0624 250.361C94.4421 247.079 95.519 243.499 98.483 242.352C101.447 241.205 105.152 242.93 106.772 246.203C108.393 249.477 107.306 253.031 104.352 254.221Z"
		fill="white" />
	<path opacity="0.3"
		d="M368.286 237.468H331.621L335.356 270.782C335.417 271.343 335.713 271.863 336.184 272.242C336.655 272.621 337.269 272.83 337.905 272.83H362.032C362.668 272.83 363.282 272.621 363.753 272.242C364.224 271.863 364.52 271.343 364.581 270.782L368.286 237.468Z"
		fill="#1573FF" />
	<path opacity="0.3"
		d="M338.725 265.512L335.988 241.004C335.988 241.004 343.23 244.768 350.245 242.938C354.703 241.814 359.297 241.164 363.929 241.004L361.182 265.512C361.065 266.559 360.512 267.529 359.632 268.234C358.752 268.939 357.607 269.33 356.42 269.329H343.487C342.301 269.328 341.158 268.937 340.278 268.232C339.398 267.527 338.845 266.558 338.725 265.512Z"
		fill="#1573FF" />
	<path opacity="0.5"
		d="M349.662 242.903C345.207 241.779 340.617 241.129 335.988 240.969C335.988 240.969 343.033 244.619 349.959 242.965L349.662 242.903Z"
		fill="#1573FF" />
	<path opacity="0.3"
		d="M368.721 238.343H331.177C330.813 238.341 330.464 238.218 330.2 237.997C329.936 237.776 329.777 237.474 329.754 237.153L328.835 222.334C328.824 222.163 328.853 221.992 328.919 221.832C328.985 221.671 329.087 221.524 329.219 221.4C329.352 221.276 329.511 221.176 329.688 221.108C329.865 221.04 330.055 221.004 330.248 221.003H369.64C369.833 221.004 370.024 221.04 370.201 221.108C370.379 221.176 370.538 221.275 370.671 221.4C370.804 221.524 370.907 221.671 370.975 221.831C371.042 221.992 371.072 222.163 371.062 222.334L370.134 237.153C370.113 237.473 369.956 237.775 369.694 237.996C369.431 238.217 369.083 238.341 368.721 238.343Z"
		fill="#1573FF" />
</svg>