<svg width="420" height="495" viewBox="0 0 420 495" fill="none"
	xmlns="http://www.w3.org/2000/svg">
	<style>
		.error-text {
			animation: zoom 4s ease-in-out infinite;
			transform-origin: center;
			transform-box: fill-box;
		}

		@keyframes zoom {
			50% {
				transform: scale(150%);
			}
		}
	</style>
	<path
		d="M45.24 226.732V200.962C45.24 182.722 60.4 167.882 79.03 167.882C97.66 167.882 112.82 182.722 112.82 200.962V226.732H126.29V200.962C126.29 175.452 105.09 154.692 79.03 154.692C52.97 154.692 31.77 175.452 31.77 200.962V226.732H45.24Z"
		stroke="#263238" stroke-width="1.16634" stroke-linecap="round"
		stroke-linejoin="round" />
	<path d="M129.95 226.912H26.77V312.262H129.95V226.912Z" stroke="#263238"
		stroke-width="1.16634" stroke-linecap="round" stroke-linejoin="round" />
	<path
		d="M89.09 262.362C89.0028 259.441 87.7809 256.668 85.6835 254.632C83.586 252.596 80.778 251.457 77.855 251.457C74.932 251.457 72.124 252.596 70.0265 254.632C67.9291 256.668 66.7072 259.441 66.62 262.362C66.632 264.359 67.1876 266.315 68.227 268.021C69.2664 269.726 70.7505 271.116 72.52 272.042L70.63 291.422H85.08L83.19 272.042C84.9595 271.116 86.4436 269.726 87.483 268.021C88.5224 266.315 89.0779 264.359 89.09 262.362V262.362Z"
		stroke="#263238" stroke-width="1.16634" stroke-linecap="round"
		stroke-linejoin="round" />
	<path
		d="M194.27 315.032L168.58 313.342V312.922L165.42 313.132L162.27 312.922V313.342L136.58 315.032L117.63 470.832H136.58L164.79 346.612H166.06L194.27 470.832H213.22L194.27 315.032Z"
		fill="#263238" stroke="#263238" stroke-width="1.16634"
		stroke-linecap="round" stroke-linejoin="round" />
	<path
		d="M117.63 470.822L113 477.982L98.68 484.302C97.9256 484.719 97.295 485.328 96.8524 486.067C96.4098 486.807 96.1709 487.65 96.16 488.512V493.982H137C137.241 491.04 137.241 488.084 137 485.142C136.58 480.932 136.58 470.822 136.58 470.822H117.63Z"
		fill="#4C4C4C" stroke="#263238" stroke-width="1.16634"
		stroke-linecap="round" stroke-linejoin="round" />
	<path
		d="M96.16 489.352V493.982H137C137 493.982 137.19 491.982 137.19 489.352H96.16Z"
		fill="#263238" stroke="#263238" stroke-width="1.16634"
		stroke-linecap="round" stroke-linejoin="round" />
	<path
		d="M213.14 470.822L217.77 477.982L232.09 484.302C232.844 484.719 233.475 485.328 233.918 486.067C234.36 486.807 234.599 487.65 234.61 488.512V493.982H193.77C193.529 491.04 193.529 488.084 193.77 485.142C194.19 480.932 194.19 470.822 194.19 470.822H213.14Z"
		fill="#4C4C4C" stroke="#263238" stroke-width="1.16634"
		stroke-linecap="round" stroke-linejoin="round" />
	<path
		d="M234.63 489.352V493.982H193.77C193.77 493.982 193.59 491.982 193.58 489.352H234.63Z"
		fill="#263238" stroke="#263238" stroke-width="1.16634"
		stroke-linecap="round" stroke-linejoin="round" />
	<path
		d="M125.7 242.552C125.7 242.552 95.7 284.712 95.7 287.802C95.7 290.892 100.47 314.752 108.05 316.992C115.63 319.232 119.84 315.312 121.24 307.452C122.64 299.592 117.87 288.362 117.87 288.362L131.87 275.732L125.7 242.552Z"
		fill="#1573FF" stroke="#263238" stroke-width="1.16634"
		stroke-linecap="round" stroke-linejoin="round" />
	<path
		d="M119.88 306.332C119.88 306.332 128.58 304.922 130.83 305.482C133.08 306.042 134.76 311.382 134.76 311.382C134.76 311.382 135.6 319.242 134.19 320.922C132.78 322.602 126.05 324.572 123.25 325.132C120.45 325.692 114.54 319.242 112.25 315.312C109.96 311.382 113.98 304.642 119.88 306.332Z"
		fill="#CCCCCC" stroke="#263238" stroke-width="1.16634"
		stroke-linecap="round" stroke-linejoin="round" />
	<path
		d="M132.01 240.642L125.7 242.552L135.64 308.902H194.72L203.71 242.932L195.68 239.872L166.04 233.372L132.01 240.642Z"
		fill="#1573FF" stroke="#263238" stroke-width="1.16634"
		stroke-linecap="round" stroke-linejoin="round" />
	<path
		d="M197.97 262.822L196.64 272.382L186.31 274.862L175.79 270.662L176.56 262.052L197.97 262.822Z"
		fill="#263238" stroke="#263238" stroke-width="1.16634"
		stroke-linecap="round" stroke-linejoin="round" />
	<path
		d="M186.98 272.382C187.985 272.382 188.8 271.567 188.8 270.562C188.8 269.557 187.985 268.742 186.98 268.742C185.975 268.742 185.16 269.557 185.16 270.562C185.16 271.567 185.975 272.382 186.98 272.382Z"
		fill="#4C4C4C" stroke="#263238" stroke-width="1.16634"
		stroke-linecap="round" stroke-linejoin="round" />
	<path
		d="M159.73 245.612L165.28 252.112L158.2 297.232L165.66 309.092L174.46 296.662L167 252.302L173.31 246.182L166.62 237.582L159.73 245.612Z"
		fill="#263238" stroke="#263238" stroke-width="1.16634"
		stroke-linecap="round" stroke-linejoin="round" />
	<path
		d="M154.38 234.332L128.95 240.642L129.72 243.702L154.57 236.812L154.38 234.332Z"
		fill="#263238" stroke="#263238" stroke-width="1.16634"
		stroke-linecap="round" stroke-linejoin="round" />
	<path
		d="M175.22 233.562L200.65 239.872L199.89 242.932L175.03 236.052L175.22 233.562Z"
		fill="#263238" stroke="#263238" stroke-width="1.16634"
		stroke-linecap="round" stroke-linejoin="round" />
	<path
		d="M200.63 239.872C200.63 239.872 210.25 242.042 216.14 245.412C222.03 248.782 223.44 256.362 220.07 264.782C216.7 273.202 206.32 272.082 201.55 269.782C196.78 267.482 195.37 259.122 196.21 255.472"
		fill="#1573FF" />
	<path
		d="M200.63 239.872C200.63 239.872 210.25 242.042 216.14 245.412C222.03 248.782 223.44 256.362 220.07 264.782C216.7 273.202 206.32 272.082 201.55 269.782C196.78 267.482 195.37 259.122 196.21 255.472"
		stroke="#263238" stroke-width="1.16634" stroke-linecap="round"
		stroke-linejoin="round" />
	<path
		d="M155.53 231.082L152.66 232.992L153.42 252.302L165.85 243.512L178.85 252.492L180 233.372L176.56 230.502L155.53 231.082Z"
		fill="#1573FF" stroke="#263238" stroke-width="1.16634"
		stroke-linecap="round" stroke-linejoin="round" />
	<path
		d="M180.63 208.112C180.63 208.112 187.69 206.392 189.02 199.332C190.35 192.272 177.63 183.682 168.81 182.162C159.99 180.642 147.06 189.792 144.96 196.092C142.86 202.392 151.06 208.682 159.84 210.022C168.62 211.362 180.63 208.112 180.63 208.112Z"
		fill="#263238" stroke="#263238" stroke-width="1.16634"
		stroke-linecap="round" stroke-linejoin="round" />
	<path
		d="M154.31 209.262C154.31 209.262 150.49 203.342 149.54 208.492C148.59 213.642 152.59 215.932 154.31 215.742C156.03 215.552 154.31 209.262 154.31 209.262Z"
		fill="#CCCCCC" stroke="#263238" stroke-width="1.16634"
		stroke-linecap="round" stroke-linejoin="round" />
	<path
		d="M179.12 209.262C179.12 209.262 182.94 203.342 183.89 208.492C184.84 213.642 180.89 215.932 179.12 215.742C177.35 215.552 179.12 209.262 179.12 209.262Z"
		fill="#CCCCCC" stroke="#263238" stroke-width="1.16634"
		stroke-linecap="round" stroke-linejoin="round" />
	<path
		d="M155.15 220.942V233.562L165.85 243.512L177.9 233.182V221.332L155.15 220.942Z"
		fill="#CCCCCC" stroke="#263238" stroke-width="1.16634"
		stroke-linecap="round" stroke-linejoin="round" />
	<path
		d="M153.55 205.442C153.55 205.442 152.97 217.272 153.93 221.092C154.89 224.912 161.18 232.922 166.14 234.642C171.1 236.362 177.97 226.052 179.5 222.642C181.03 219.232 180.45 204.702 180.45 204.702C180.45 204.702 178.36 199.702 174.16 198.222C169.96 196.742 156.98 194.042 153.55 205.442Z"
		fill="#CCCCCC" stroke="#263238" stroke-width="1.16634"
		stroke-linecap="round" stroke-linejoin="round" />
	<path
		d="M161.48 211.722C161.48 212.622 161.07 213.352 160.56 213.352C160.05 213.352 159.64 212.622 159.64 211.722C159.64 210.822 160.05 210.092 160.56 210.092C161.07 210.092 161.48 210.822 161.48 211.722Z"
		fill="#263238" />
	<path
		d="M173.19 211.722C173.19 212.622 172.78 213.352 172.27 213.352C171.76 213.352 171.35 212.622 171.35 211.722C171.35 210.822 171.76 210.092 172.27 210.092C172.78 210.092 173.19 210.822 173.19 211.722Z"
		fill="#263238" />
	<path
		d="M163.47 216.282C163.282 216.237 163.086 216.236 162.897 216.277C162.708 216.319 162.531 216.403 162.38 216.523C162.228 216.642 162.105 216.795 162.021 216.969C161.937 217.143 161.893 217.334 161.893 217.527C161.893 217.721 161.937 217.911 162.021 218.085C162.105 218.259 162.228 218.412 162.38 218.532C162.531 218.652 162.708 218.736 162.897 218.777C163.086 218.819 163.282 218.817 163.47 218.772C163.872 218.781 164.264 218.65 164.58 218.402C164.876 218.75 165.242 219.03 165.654 219.225C166.067 219.42 166.516 219.524 166.972 219.532C167.428 219.54 167.88 219.45 168.299 219.269C168.718 219.088 169.093 218.82 169.4 218.482C169.697 218.675 170.045 218.776 170.4 218.772C170.588 218.817 170.784 218.819 170.973 218.777C171.162 218.736 171.339 218.652 171.49 218.532C171.642 218.412 171.765 218.259 171.849 218.085C171.933 217.911 171.977 217.721 171.977 217.527C171.977 217.334 171.933 217.143 171.849 216.969C171.765 216.795 171.642 216.642 171.49 216.523C171.339 216.403 171.162 216.319 170.973 216.277C170.784 216.236 170.588 216.237 170.4 216.282"
		fill="#CCCCCC" />
	<path
		d="M163.47 216.282C163.282 216.237 163.086 216.236 162.897 216.277C162.708 216.319 162.531 216.403 162.38 216.523C162.228 216.642 162.105 216.795 162.021 216.969C161.937 217.143 161.893 217.334 161.893 217.527C161.893 217.721 161.937 217.911 162.021 218.085C162.105 218.259 162.228 218.412 162.38 218.532C162.531 218.652 162.708 218.736 162.897 218.777C163.086 218.819 163.282 218.817 163.47 218.772C163.872 218.781 164.264 218.65 164.58 218.402C164.876 218.75 165.242 219.03 165.654 219.225C166.067 219.42 166.516 219.524 166.972 219.532C167.428 219.54 167.88 219.45 168.299 219.269C168.718 219.088 169.093 218.82 169.4 218.482C169.697 218.675 170.045 218.776 170.4 218.772C170.588 218.817 170.784 218.819 170.973 218.777C171.162 218.736 171.339 218.652 171.49 218.532C171.642 218.412 171.765 218.259 171.849 218.085C171.933 217.911 171.977 217.721 171.977 217.527C171.977 217.334 171.933 217.143 171.849 216.969C171.765 216.795 171.642 216.642 171.49 216.523C171.339 216.403 171.162 216.319 170.973 216.277C170.784 216.236 170.588 216.237 170.4 216.282"
		stroke="#263238" stroke-width="1.16634" stroke-linecap="round"
		stroke-linejoin="round" />
	<path d="M164.99 224.112H168.98" stroke="#263238" stroke-width="1.16634"
		stroke-linecap="round" stroke-linejoin="round" />
	<path
		d="M153.11 208.312C153.11 208.312 153.25 212.152 154.53 211.152C155.81 210.152 156.23 203.632 155.1 202.782C153.97 201.932 153.11 206.332 153.11 208.312Z"
		fill="#263238" stroke="#263238" stroke-width="1.16634"
		stroke-linecap="round" stroke-linejoin="round" />
	<path
		d="M177.74 208.312C177.74 208.312 177.89 212.152 179.16 211.152C180.43 210.152 180.87 203.632 179.73 202.782C178.59 201.932 177.74 206.332 177.74 208.312Z"
		fill="#263238" stroke="#263238" stroke-width="1.16634"
		stroke-linecap="round" stroke-linejoin="round" />
	<path
		d="M153.11 205.192C153.11 205.192 153.54 205.542 153.53 205.712C155.38 206.712 159.63 208.552 166.53 208.922C171.424 209.091 176.269 207.904 180.53 205.492C180.53 204.982 180.53 204.682 180.53 204.672C180.36 200.202 177.04 197.222 172.93 196.082C168.89 194.97 164.599 195.184 160.69 196.692C158.707 197.44 156.958 198.699 155.62 200.342C155.11 200.902 152.41 204.632 153.11 205.192Z"
		fill="#4C4C4C" stroke="#263238" stroke-width="1.16634"
		stroke-linecap="round" stroke-linejoin="round" />
	<path
		d="M153.55 205.442C157.815 206.385 162.194 206.705 166.55 206.392C174.76 206.012 180.47 205.442 180.47 205.442C176.697 208.979 171.827 211.118 166.67 211.502C164.151 211.666 161.632 211.197 159.34 210.139C157.049 209.08 155.058 207.466 153.55 205.442Z"
		fill="#4C4C4C" stroke="#263238" stroke-width="1.16634"
		stroke-linecap="round" stroke-linejoin="round" />
	<path
		d="M132.59 262.822L133.92 272.382L144.25 274.862L154.76 270.662L154 262.052L132.59 262.822Z"
		fill="#263238" stroke="#263238" stroke-width="1.16634"
		stroke-linecap="round" stroke-linejoin="round" />
	<path
		d="M143.58 272.382C144.585 272.382 145.4 271.567 145.4 270.562C145.4 269.557 144.585 268.742 143.58 268.742C142.575 268.742 141.76 269.557 141.76 270.562C141.76 271.567 142.575 272.382 143.58 272.382Z"
		fill="#4C4C4C" stroke="#263238" stroke-width="1.16634"
		stroke-linecap="round" stroke-linejoin="round" />
	<path d="M195.39 308.292H134.76V317.832H195.39V308.292Z" fill="#4C4C4C"
		stroke="#263238" stroke-width="1.16634" stroke-linecap="round"
		stroke-linejoin="round" />
	<path
		d="M146.41 308.852H133.22C131.745 308.852 130.55 310.048 130.55 311.522V317.972C130.55 319.447 131.745 320.642 133.22 320.642H146.41C147.885 320.642 149.08 319.447 149.08 317.972V311.522C149.08 310.048 147.885 308.852 146.41 308.852Z"
		fill="#4C4C4C" stroke="#263238" stroke-width="1.16634"
		stroke-linecap="round" stroke-linejoin="round" />
	<path
		d="M194.69 308.852H181.5C180.025 308.852 178.83 310.048 178.83 311.522V317.972C178.83 319.447 180.025 320.642 181.5 320.642H194.69C196.165 320.642 197.36 319.447 197.36 317.972V311.522C197.36 310.048 196.165 308.852 194.69 308.852Z"
		fill="#4C4C4C" stroke="#263238" stroke-width="1.16634"
		stroke-linecap="round" stroke-linejoin="round" />
	<path d="M172.65 308.852H159.46V317.272H172.65V308.852Z" fill="white"
		stroke="#263238" stroke-width="1.16634" stroke-linecap="round"
		stroke-linejoin="round" />
	<path d="M117.91 288.362C117.91 288.362 109.49 287.802 106.4 282.462"
		stroke="#263238" stroke-width="1.16634" stroke-linecap="round"
		stroke-linejoin="round" />
	<path
		d="M211.53 263.662C219.207 263.662 225.43 257.126 225.43 249.062C225.43 240.999 219.207 234.462 211.53 234.462C203.853 234.462 197.63 240.999 197.63 249.062C197.63 257.126 203.853 263.662 211.53 263.662Z"
		fill="#1573FF" stroke="#263238" stroke-width="1.16634"
		stroke-linecap="round" stroke-linejoin="round" />
	<path
		d="M211.53 251.422C217.539 251.422 222.41 247.057 222.41 241.672C222.41 236.287 217.539 231.922 211.53 231.922C205.521 231.922 200.65 236.287 200.65 241.672C200.65 247.057 205.521 251.422 211.53 251.422Z"
		fill="#1573FF" stroke="#263238" stroke-width="1.16634"
		stroke-linecap="round" stroke-linejoin="round" />
	<path
		d="M211.53 244.252C217.539 244.252 222.41 239.887 222.41 234.502C222.41 229.117 217.539 224.752 211.53 224.752C205.521 224.752 200.65 229.117 200.65 234.502C200.65 239.887 205.521 244.252 211.53 244.252Z"
		fill="#CCCCCC" stroke="#263238" stroke-width="1.16634"
		stroke-linecap="round" stroke-linejoin="round" />
	<path
		d="M194.05 213.482C194.05 213.482 194.24 227.862 194.97 232.102C195.7 236.342 198.66 241.872 202.72 241.872C205.425 241.805 208.101 241.309 210.65 240.402C210.65 240.402 215.44 242.982 220.05 242.242C224.66 241.502 223.92 235.052 223.92 232.242C223.92 229.432 223.37 208.642 223.37 208.642C223.37 208.642 223.74 206.642 221.89 206.252C220.983 206.048 220.059 205.924 219.13 205.882V201.452C218.79 200.945 218.318 200.54 217.764 200.281C217.211 200.022 216.598 199.919 215.99 199.982C213.6 199.982 213.41 200.532 213.41 200.532V196.472C213.41 196.472 211.41 193.242 208.8 194.812C208.274 195.114 207.831 195.542 207.51 196.056C207.189 196.571 207 197.157 206.96 197.762L206.77 201.642C206.77 201.642 202.35 199.982 201.98 202.562C201.61 205.142 200.87 221.042 200.87 221.042C200.608 218.542 200.116 216.072 199.4 213.662C198.48 211.262 194.05 211.262 194.05 213.482Z"
		fill="#CCCCCC" stroke="#263238" stroke-width="1.16634"
		stroke-linecap="round" stroke-linejoin="round" />
	<path d="M206.77 201.682L207.14 218.642" stroke="#263238"
		stroke-width="1.16634" stroke-linecap="round" stroke-linejoin="round" />
	<path d="M213.41 200.572L213.6 218.822" stroke="#263238"
		stroke-width="1.16634" stroke-linecap="round" stroke-linejoin="round" />
	<path d="M219.13 205.922L218.76 218.642" stroke="#263238"
		stroke-width="1.16634" stroke-linecap="round" stroke-linejoin="round" />
	<path d="M204.38 218.462L221.16 219.192" stroke="#263238"
		stroke-width="1.16634" stroke-linecap="round" stroke-linejoin="round" />
	<path
		d="M200.87 221.042C200.875 221.738 201.041 222.423 201.355 223.045C201.669 223.666 202.123 224.206 202.68 224.622C204.5 225.762 208.6 228.722 209.05 233.502"
		stroke="#263238" stroke-width="1.16634" stroke-linecap="round"
		stroke-linejoin="round" />
	<path d="M48.5 493.542H34.24L53.25 361.032H67.51L48.5 493.542Z"
		fill="#263238" stroke="#263238" stroke-width="1.16634"
		stroke-miterlimit="10" />
	<path d="M77.02 493.542H91.27L72.26 361.032H58.01L77.02 493.542Z"
		fill="white" stroke="#263238" stroke-width="1.16634"
		stroke-miterlimit="10" />
	<path d="M250.81 493.542H236.56L255.56 361.032H269.82L250.81 493.542Z"
		fill="#263238" stroke="#263238" stroke-width="1.16634"
		stroke-miterlimit="10" />
	<path d="M279.33 493.542H293.58L274.57 361.032H260.32L279.33 493.542Z"
		fill="white" stroke="#263238" stroke-width="1.16634"
		stroke-miterlimit="10" />
	<path d="M289.29 340.252H17.36V366.612H289.29V340.252Z" fill="#1573FF"
		stroke="#263238" stroke-width="1.16634" stroke-miterlimit="10" />
	<path d="M295.92 340.252H23.99V366.612H295.92V340.252Z" fill="#1573FF"
		stroke="#263238" stroke-width="1.16634" stroke-miterlimit="10" />
	<path d="M28.44 366.612H51.52L63.45 340.252H40.37L28.44 366.612Z"
		fill="#263238" />
	<path d="M119.8 340.252H96.72L84.79 366.612H107.87L119.8 340.252Z"
		fill="#263238" />
	<path d="M288.84 340.252H265.76L253.84 366.612H276.92L288.84 340.252Z"
		fill="#263238" />
	<path d="M232.5 340.252H209.41L197.49 366.612H220.57L232.5 340.252Z"
		fill="#263238" />
	<path d="M176.15 340.252H153.07L141.14 366.612H164.22L176.15 340.252Z"
		fill="#263238" />
	<path d="M294.43 351.942H249.43" stroke="#263238" stroke-width="1.16634"
		stroke-miterlimit="10" />
	<path d="M293.64 356.352H286.54" stroke="#263238" stroke-width="1.16634"
		stroke-miterlimit="10" />
	<path d="M22.84 355.252H67.84" stroke="#263238" stroke-width="1.16634"
		stroke-miterlimit="10" />
	<path d="M23.63 350.292H80.47" stroke="#263238" stroke-width="1.16634"
		stroke-miterlimit="10" />
	<path d="M370.14 487.762H293V493.552H370.14V487.762Z" fill="#263238"
		stroke="#263238" stroke-width="1.16634" stroke-linecap="round"
		stroke-linejoin="round" />
	<path d="M357.12 487.602H306.02L326.05 378.642H337.09L357.12 487.602Z"
		fill="#1573FF" stroke="#263238" stroke-width="1.16634"
		stroke-linecap="round" stroke-linejoin="round" />
	<path d="M318.61 419.142H344.54L342.05 405.642H321.09L318.61 419.142Z"
		fill="white" stroke="#263238" stroke-width="1.16634"
		stroke-linecap="round" stroke-linejoin="round" />
	<path d="M349.44 469.412L350.72 476.862" stroke="#263238"
		stroke-width="1.16634" stroke-linecap="round" stroke-linejoin="round" />
	<path d="M334.85 384.662L347.83 460.042" stroke="#263238"
		stroke-width="1.16634" stroke-linecap="round" stroke-linejoin="round" />
	<path d="M411.64 493.542H418.55" stroke="#263238" stroke-width="1.16634"
		stroke-linecap="round" stroke-linejoin="round" />
	<path d="M1 493.542H401.99" stroke="#263238" stroke-width="1.16634"
		stroke-linecap="round" stroke-linejoin="round" />
	<path
		d="M123.784 74C122.584 74 121.456 73.712 120.4 73.136C119.392 72.56 118.888 71.696 118.888 70.544V24.824C118.888 23.672 119.392 22.808 120.4 22.232C121.456 21.656 122.584 21.368 123.784 21.368H149.416C150.616 21.368 151.48 21.896 152.008 22.952C152.536 23.96 152.8 25.04 152.8 26.192C152.8 27.536 152.512 28.712 151.936 29.72C151.36 30.68 150.52 31.16 149.416 31.16H130.12V43.328H140.92C142.024 43.328 142.864 43.784 143.44 44.696C144.016 45.56 144.304 46.568 144.304 47.72C144.304 48.68 144.04 49.64 143.512 50.6C142.984 51.512 142.12 51.968 140.92 51.968H130.12V64.208H149.416C150.52 64.208 151.36 64.712 151.936 65.72C152.512 66.68 152.8 67.832 152.8 69.176C152.8 70.328 152.536 71.432 152.008 72.488C151.48 73.496 150.616 74 149.416 74H123.784ZM187.149 74.432C186.429 74.432 185.733 74.288 185.061 74C184.437 73.664 183.933 73.112 183.549 72.344L173.685 53.192H168.933V70.544C168.933 71.696 168.333 72.56 167.133 73.136C165.981 73.712 164.709 74 163.316 74C161.925 74 160.629 73.712 159.429 73.136C158.277 72.56 157.701 71.696 157.701 70.544V24.752C157.701 23.84 158.013 23.048 158.637 22.376C159.261 21.704 160.101 21.368 161.157 21.368H176.061C179.373 21.368 182.349 21.848 184.989 22.808C187.677 23.72 189.813 25.304 191.397 27.56C192.981 29.768 193.773 32.84 193.773 36.776C193.773 40.808 192.957 44.024 191.325 46.424C189.693 48.776 187.605 50.432 185.061 51.392L193.845 67.304C193.989 67.496 194.085 67.712 194.133 67.952C194.181 68.192 194.205 68.408 194.205 68.6C194.205 69.512 193.845 70.424 193.125 71.336C192.405 72.248 191.493 72.992 190.389 73.568C189.333 74.144 188.253 74.432 187.149 74.432ZM168.933 44.552H176.061C178.077 44.552 179.661 44.072 180.813 43.112C181.965 42.104 182.541 40.352 182.541 37.856C182.541 35.312 181.965 33.56 180.813 32.6C179.661 31.64 178.077 31.16 176.061 31.16H168.933V44.552ZM229.195 74.432C228.475 74.432 227.779 74.288 227.107 74C226.483 73.664 225.979 73.112 225.595 72.344L215.731 53.192H210.979V70.544C210.979 71.696 210.379 72.56 209.179 73.136C208.027 73.712 206.755 74 205.363 74C203.971 74 202.675 73.712 201.475 73.136C200.323 72.56 199.747 71.696 199.747 70.544V24.752C199.747 23.84 200.059 23.048 200.683 22.376C201.307 21.704 202.147 21.368 203.203 21.368H218.107C221.419 21.368 224.395 21.848 227.035 22.808C229.723 23.72 231.859 25.304 233.443 27.56C235.027 29.768 235.819 32.84 235.819 36.776C235.819 40.808 235.003 44.024 233.371 46.424C231.739 48.776 229.651 50.432 227.107 51.392L235.891 67.304C236.035 67.496 236.131 67.712 236.179 67.952C236.227 68.192 236.251 68.408 236.251 68.6C236.251 69.512 235.891 70.424 235.171 71.336C234.451 72.248 233.539 72.992 232.435 73.568C231.379 74.144 230.299 74.432 229.195 74.432ZM210.979 44.552H218.107C220.123 44.552 221.707 44.072 222.859 43.112C224.011 42.104 224.587 40.352 224.587 37.856C224.587 35.312 224.011 33.56 222.859 32.6C221.707 31.64 220.123 31.16 218.107 31.16H210.979V44.552ZM258.858 74.432C255.546 74.432 252.546 73.88 249.858 72.776C247.218 71.672 245.106 69.872 243.522 67.376C241.986 64.88 241.218 61.568 241.218 57.44V38.36C241.218 34.232 241.986 30.92 243.522 28.424C245.106 25.928 247.218 24.128 249.858 23.024C252.546 21.92 255.546 21.368 258.858 21.368C262.17 21.368 265.17 21.92 267.858 23.024C270.546 24.128 272.658 25.928 274.194 28.424C275.778 30.92 276.57 34.232 276.57 38.36V57.44C276.57 61.568 275.778 64.88 274.194 67.376C272.658 69.872 270.546 71.672 267.858 72.776C265.17 73.88 262.17 74.432 258.858 74.432ZM258.858 64.64C260.874 64.64 262.458 64.064 263.61 62.912C264.762 61.76 265.338 59.936 265.338 57.44V38.36C265.338 35.864 264.762 34.04 263.61 32.888C262.458 31.736 260.874 31.16 258.858 31.16C256.842 31.16 255.258 31.736 254.106 32.888C253.002 34.04 252.45 35.864 252.45 38.36V57.44C252.45 59.936 253.002 61.76 254.106 62.912C255.258 64.064 256.842 64.64 258.858 64.64ZM313.219 74.432C312.499 74.432 311.803 74.288 311.131 74C310.507 73.664 310.003 73.112 309.619 72.344L299.755 53.192H295.003V70.544C295.003 71.696 294.403 72.56 293.203 73.136C292.051 73.712 290.779 74 289.387 74C287.995 74 286.699 73.712 285.499 73.136C284.347 72.56 283.771 71.696 283.771 70.544V24.752C283.771 23.84 284.083 23.048 284.707 22.376C285.331 21.704 286.171 21.368 287.227 21.368H302.131C305.443 21.368 308.419 21.848 311.059 22.808C313.747 23.72 315.883 25.304 317.467 27.56C319.051 29.768 319.843 32.84 319.843 36.776C319.843 40.808 319.027 44.024 317.395 46.424C315.763 48.776 313.675 50.432 311.131 51.392L319.915 67.304C320.059 67.496 320.155 67.712 320.203 67.952C320.251 68.192 320.275 68.408 320.275 68.6C320.275 69.512 319.915 70.424 319.195 71.336C318.475 72.248 317.563 72.992 316.459 73.568C315.403 74.144 314.323 74.432 313.219 74.432ZM295.003 44.552H302.131C304.147 44.552 305.731 44.072 306.883 43.112C308.035 42.104 308.611 40.352 308.611 37.856C308.611 35.312 308.035 33.56 306.883 32.6C305.731 31.64 304.147 31.16 302.131 31.16H295.003V44.552Z"
		fill="#263238" class="error-text" />
</svg>