<svg width="500" height="373" viewBox="0 0 500 373" fill="none" xmlns="http://www.w3.org/2000/svg">
<path d="M500 327.4H0V327.65H500V327.4Z" fill="#EBEBEB"/>
<path d="M237 282.8H43.91C42.3973 282.797 40.9475 282.195 39.8789 281.124C38.8102 280.054 38.21 278.603 38.21 277.09V5.66C38.2232 4.15603 38.8292 2.71798 39.8964 1.65822C40.9637 0.598458 42.406 0.00257639 43.91 0H237C238.514 0 239.967 0.601588 241.038 1.67242C242.108 2.74325 242.71 4.19561 242.71 5.71V277.09C242.71 278.604 242.108 280.057 241.038 281.128C239.967 282.198 238.514 282.8 237 282.8V282.8ZM43.91 0.200001C42.4636 0.20265 41.0774 0.779065 40.0557 1.80273C39.0339 2.82639 38.46 4.21365 38.46 5.66V277.09C38.46 278.536 39.0339 279.924 40.0557 280.947C41.0774 281.971 42.4636 282.547 43.91 282.55H237C238.447 282.547 239.835 281.971 240.858 280.948C241.881 279.924 242.457 278.537 242.46 277.09V5.66C242.457 4.21273 241.881 2.82549 240.858 1.80212C239.835 0.77874 238.447 0.202644 237 0.200001H43.91Z" fill="#EBEBEB"/>
<path d="M453.31 282.8H260.21C258.696 282.797 257.246 282.195 256.175 281.125C255.105 280.054 254.503 278.604 254.5 277.09V5.66C254.516 4.15511 255.124 2.71708 256.193 1.65759C257.262 0.598109 258.705 0.00254829 260.21 0H453.31C454.812 0.0052045 456.252 0.602249 457.317 1.66173C458.382 2.72121 458.987 4.15775 459 5.66V277.09C459 278.601 458.401 280.05 457.335 281.121C456.268 282.191 454.821 282.795 453.31 282.8V282.8ZM260.21 0.200001C258.763 0.202644 257.375 0.77874 256.352 1.80212C255.329 2.82549 254.753 4.21273 254.75 5.66V277.09C254.753 278.537 255.329 279.924 256.352 280.948C257.375 281.971 258.763 282.547 260.21 282.55H453.31C454.757 282.547 456.145 281.971 457.168 280.948C458.191 279.924 458.767 278.537 458.77 277.09V5.66C458.767 4.21273 458.191 2.82549 457.168 1.80212C456.145 0.77874 454.757 0.202644 453.31 0.200001H260.21Z" fill="#EBEBEB"/>
<path d="M77.28 336.92H51.28V337.17H77.28V336.92Z" fill="#EBEBEB"/>
<path d="M190.18 334.21H145.15V334.46H190.18V334.21Z" fill="#EBEBEB"/>
<path d="M139.07 346.21H78.28V346.46H139.07V346.21Z" fill="#EBEBEB"/>
<path d="M448.72 344.53H429.49V344.78H448.72V344.53Z" fill="#EBEBEB"/>
<path d="M420.58 344.53H365.29V344.78H420.58V344.53Z" fill="#EBEBEB"/>
<path d="M331.52 340.31H257.05V340.56H331.52V340.31Z" fill="#EBEBEB"/>
<path d="M190.83 160.44L178.18 327.44H300.18L312.83 160.44H190.83ZM267.54 278.44C266.95 285.106 263.91 291.317 259.009 295.873C254.107 300.429 247.691 303.007 241 303.11C237.832 303.159 234.689 302.54 231.776 301.293C228.864 300.045 226.247 298.198 224.096 295.871C221.946 293.544 220.31 290.79 219.296 287.788C218.282 284.786 217.912 281.604 218.21 278.45L222.66 219.75C223.25 213.086 226.288 206.876 231.188 202.32C236.087 197.764 242.5 195.185 249.19 195.08C252.36 195.029 255.506 195.648 258.421 196.895C261.336 198.142 263.955 199.99 266.107 202.318C268.26 204.646 269.897 207.402 270.913 210.406C271.928 213.409 272.298 216.593 272 219.75L267.54 278.44Z" fill="#E6E6E6"/>
<path d="M338.88 327.4H161L162.03 316.44H339.9L338.88 327.4Z" fill="#E6E6E6"/>
<path d="M407.22 265.41H423C423.211 265.41 423.421 265.367 423.615 265.284C423.809 265.201 423.984 265.078 424.129 264.925C424.274 264.771 424.387 264.589 424.459 264.391C424.531 264.192 424.562 263.981 424.55 263.77L424.49 262.65C424.465 262.212 424.274 261.8 423.957 261.498C423.639 261.195 423.219 261.024 422.78 261.02H407C406.789 261.018 406.579 261.06 406.385 261.142C406.19 261.224 406.014 261.346 405.868 261.498C405.722 261.651 405.609 261.832 405.535 262.03C405.461 262.228 405.429 262.439 405.44 262.65L405.5 263.77C405.525 264.21 405.717 264.625 406.036 264.929C406.356 265.234 406.779 265.406 407.22 265.41V265.41Z" fill="#E0E0E0"/>
<path d="M380.89 265.41H396.64C396.852 265.412 397.062 265.37 397.256 265.287C397.451 265.204 397.627 265.082 397.772 264.928C397.918 264.774 398.03 264.592 398.102 264.392C398.174 264.193 398.204 263.981 398.19 263.77L398.13 262.65C398.105 262.212 397.914 261.8 397.597 261.498C397.279 261.195 396.859 261.024 396.42 261.02H380.67C380.459 261.018 380.249 261.06 380.055 261.142C379.86 261.224 379.684 261.346 379.538 261.498C379.392 261.651 379.279 261.832 379.205 262.03C379.131 262.228 379.099 262.439 379.11 262.65L379.17 263.77C379.198 264.21 379.39 264.623 379.709 264.927C380.028 265.231 380.45 265.403 380.89 265.41V265.41Z" fill="#E0E0E0"/>
<path d="M435.23 264.17H67.6C65.5338 264.148 63.5528 263.343 62.0568 261.918C60.5609 260.493 59.6614 258.553 59.54 256.49L48.47 35.67C48.408 34.6788 48.5512 33.6854 48.8907 32.752C49.2301 31.8187 49.7584 30.9654 50.4426 30.2455C51.1268 29.5256 51.9522 28.9546 52.8672 28.5683C53.7821 28.1819 54.7669 27.9884 55.76 28H423.39C425.455 28.0192 427.436 28.8219 428.932 30.2457C430.429 31.6695 431.328 33.6082 431.45 35.67L442.52 256.49C442.582 257.482 442.439 258.475 442.099 259.409C441.76 260.343 441.232 261.197 440.548 261.918C439.864 262.639 439.038 263.21 438.124 263.598C437.209 263.985 436.224 264.18 435.23 264.17V264.17Z" fill="#E0E0E0"/>
<path d="M439.73 264.17H72.11C70.0366 264.156 68.0457 263.355 66.5402 261.93C65.0346 260.504 64.1267 258.56 64 256.49L53 35.67C52.9382 34.6804 53.0808 33.6888 53.419 32.7568C53.7572 31.8248 54.2838 30.9724 54.9658 30.2529C55.6479 29.5333 56.4708 28.9619 57.3834 28.5743C58.296 28.1867 59.2786 27.9912 60.27 28H427.89C429.963 28.0113 431.953 28.8099 433.459 30.234C434.965 31.6581 435.873 33.6013 436 35.67L447 256.49C447.062 257.48 446.919 258.472 446.581 259.405C446.243 260.337 445.717 261.19 445.035 261.911C444.353 262.631 443.53 263.203 442.617 263.592C441.705 263.981 440.722 264.177 439.73 264.17Z" fill="#E6E6E6"/>
<path d="M74.26 248.76L64 43.41C63.963 42.789 64.054 42.1669 64.2674 41.5825C64.4808 40.9981 64.8121 40.4638 65.2406 40.0128C65.6692 39.5617 66.1858 39.2036 66.7586 38.9605C67.3313 38.7175 67.9479 38.5948 68.57 38.6H420.69C421.985 38.6106 423.228 39.1136 424.166 40.0069C425.104 40.9002 425.666 42.1169 425.74 43.41L436 248.76C436.038 249.381 435.949 250.002 435.736 250.587C435.524 251.171 435.194 251.706 434.766 252.157C434.338 252.608 433.822 252.966 433.25 253.209C432.678 253.453 432.062 253.575 431.44 253.57H79.31C78.0155 253.557 76.7743 253.053 75.8369 252.16C74.8995 251.268 74.3359 250.052 74.26 248.76V248.76Z" fill="#F5F5F5"/>
<path d="M85.66 49.1C85.6956 49.6467 85.6185 50.195 85.4335 50.7107C85.2485 51.2264 84.9595 51.6986 84.5845 52.098C84.2094 52.4975 83.7563 52.8156 83.2533 53.0326C82.7502 53.2497 82.2079 53.3611 81.66 53.36C80.5143 53.3468 79.4162 52.9 78.5867 52.1096C77.7573 51.3191 77.2582 50.2437 77.19 49.1C77.1558 48.554 77.234 48.0069 77.4196 47.4924C77.6053 46.9778 77.8945 46.5068 78.2694 46.1085C78.6443 45.7102 79.0969 45.393 79.5992 45.1765C80.1016 44.9601 80.643 44.8489 81.19 44.85C82.3355 44.8582 83.4349 45.3021 84.2651 46.0914C85.0953 46.8807 85.594 47.9564 85.66 49.1V49.1Z" fill="white"/>
<path d="M104.93 49.1C104.966 49.6467 104.889 50.195 104.704 50.7107C104.519 51.2264 104.23 51.6986 103.854 52.098C103.479 52.4975 103.026 52.8156 102.523 53.0326C102.02 53.2497 101.478 53.3611 100.93 53.36C99.7843 53.3468 98.6862 52.9 97.8567 52.1096C97.0273 51.3191 96.5282 50.2437 96.46 49.1C96.4258 48.554 96.504 48.0069 96.6896 47.4924C96.8753 46.9778 97.1645 46.5068 97.5394 46.1085C97.9143 45.7102 98.3669 45.393 98.8692 45.1765C99.3716 44.9601 99.913 44.8489 100.46 44.85C101.605 44.8582 102.705 45.3021 103.535 46.0914C104.365 46.8807 104.864 47.9564 104.93 49.1V49.1Z" fill="white"/>
<path d="M124.21 49.1C124.246 49.6467 124.169 50.195 123.984 50.7107C123.799 51.2264 123.51 51.6986 123.134 52.098C122.759 52.4975 122.306 52.8156 121.803 53.0326C121.3 53.2497 120.758 53.3611 120.21 53.36C119.065 53.349 117.966 52.9027 117.138 52.1115C116.31 51.3204 115.813 50.2437 115.75 49.1C115.716 48.554 115.794 48.0069 115.98 47.4924C116.165 46.9778 116.454 46.5068 116.829 46.1085C117.204 45.7102 117.657 45.393 118.159 45.1765C118.662 44.9601 119.203 44.8489 119.75 44.85C120.893 44.8631 121.989 45.3089 122.816 46.0975C123.644 46.886 124.142 47.9589 124.21 49.1V49.1Z" fill="white"/>
<g opacity="0.6">
<path opacity="0.6" d="M110.88 253.57H161.63L208.03 38.6H157.28L110.88 253.57Z" fill="white"/>
<path opacity="0.6" d="M329.28 253.57H342.13L388.53 38.6H375.68L329.28 253.57Z" fill="white"/>
<path opacity="0.6" d="M172.91 253.57H244.91L291.31 38.6H219.31L172.91 253.57Z" fill="white"/>
</g>
<path d="M250 372.56C357.082 372.56 443.89 367.492 443.89 361.24C443.89 354.988 357.082 349.92 250 349.92C142.918 349.92 56.11 354.988 56.11 361.24C56.11 367.492 142.918 372.56 250 372.56Z" fill="#F5F5F5"/>
<path d="M360.6 208.05H360.24C333.6 205.87 315.24 183.05 314.5 182.13C313.818 181.197 313.524 180.037 313.678 178.892C313.833 177.747 314.426 176.707 315.331 175.989C316.236 175.271 317.384 174.931 318.535 175.042C319.685 175.152 320.747 175.703 321.5 176.58C321.71 176.85 337.4 196.19 359.13 198.95C366.13 191.95 372.13 173.47 371.46 167.88C371.46 167.82 371.46 167.77 371.46 167.72C371.32 165.92 370.98 159.72 372.75 156.07C373.333 155.132 374.243 154.442 375.304 154.135C376.366 153.828 377.503 153.925 378.497 154.407C379.491 154.89 380.272 155.723 380.688 156.746C381.104 157.77 381.126 158.911 380.75 159.95C380.31 160.87 380.1 164.18 380.31 166.95C381.31 176.15 373.31 199.37 363.31 207.14C362.531 207.732 361.579 208.051 360.6 208.05V208.05Z" fill="#263238"/>
<path d="M148.82 183.82C139.618 183.709 130.541 181.668 122.177 177.83C113.812 173.993 106.346 168.443 100.26 161.54C99.5727 160.774 99.1713 159.794 99.1239 158.766C99.0765 157.738 99.3861 156.726 100 155.9C107.22 146.19 120 123.26 122 115.79C121.051 113.989 119.617 112.489 117.86 111.46C117.157 111.133 116.552 110.627 116.105 109.994C115.658 109.361 115.384 108.622 115.31 107.85L114.59 100.53C114.52 99.3762 114.9 98.2403 115.65 97.3606C116.4 96.4809 117.461 95.9259 118.612 95.812C119.762 95.6982 120.911 96.0343 121.819 96.7499C122.727 97.4655 123.322 98.5049 123.48 99.65L123.98 104.74C126.936 107.01 129.277 109.984 130.79 113.39C131.09 114.103 131.2 114.882 131.11 115.65C130.19 123.58 117.32 146.55 109.4 158.16C127.89 176.59 149.99 174.91 150.96 174.82C152.125 174.739 153.276 175.118 154.165 175.875C155.055 176.631 155.613 177.706 155.72 178.869C155.827 180.032 155.475 181.191 154.739 182.098C154.002 183.004 152.94 183.586 151.78 183.72C151.52 183.74 150.49 183.82 148.82 183.82Z" fill="#263238"/>
<path d="M292.87 361.09H280.87C280.181 361.09 279.502 360.931 278.885 360.626C278.268 360.32 277.73 359.876 277.312 359.328C276.895 358.78 276.61 358.143 276.48 357.467C276.349 356.791 276.377 356.094 276.56 355.43C279.69 344.19 281.23 335.04 282.38 320.72C278.14 300.72 274.15 282.51 274.11 282.33C273.893 281.187 274.131 280.004 274.773 279.033C275.414 278.062 276.409 277.379 277.546 277.131C278.683 276.882 279.872 277.086 280.861 277.701C281.85 278.315 282.56 279.29 282.84 280.42C282.84 280.6 286.96 299.28 291.25 319.5C291.342 319.92 291.369 320.352 291.33 320.78C290.33 333.64 289.02 342.53 286.66 352.16H292.84C293.988 352.214 295.07 352.708 295.863 353.54C296.656 354.371 297.099 355.476 297.099 356.625C297.099 357.774 296.656 358.879 295.863 359.71C295.07 360.542 293.988 361.036 292.84 361.09H292.87Z" fill="#263238"/>
<path d="M200.32 361.09H193.56C192.921 361.092 192.289 360.957 191.707 360.693C191.126 360.429 190.607 360.043 190.188 359.561C189.769 359.079 189.458 358.512 189.277 357.9C189.096 357.287 189.05 356.642 189.14 356.01C190.29 347.81 196.14 332.88 202.44 317.87C204.67 298.07 206.49 281.07 206.51 280.87C206.559 280.274 206.728 279.694 207.006 279.164C207.283 278.634 207.664 278.166 208.126 277.786C208.588 277.406 209.122 277.123 209.695 276.953C210.269 276.783 210.871 276.73 211.465 276.797C212.059 276.864 212.634 277.05 213.155 277.343C213.677 277.636 214.134 278.031 214.5 278.504C214.866 278.977 215.133 279.518 215.286 280.097C215.439 280.675 215.474 281.278 215.39 281.87C215.39 282.04 213.51 299.43 211.24 319.52C211.194 319.94 211.086 320.351 210.92 320.74C206.49 331.37 201.43 343.89 199.12 352.18H200.32C200.924 352.151 201.528 352.246 202.094 352.457C202.661 352.669 203.179 352.993 203.616 353.41C204.054 353.828 204.403 354.33 204.641 354.886C204.879 355.442 205.001 356.04 205.001 356.645C205.001 357.25 204.879 357.848 204.641 358.404C204.403 358.96 204.054 359.462 203.616 359.88C203.179 360.297 202.661 360.621 202.094 360.833C201.528 361.044 200.924 361.139 200.32 361.11V361.09Z" fill="#263238"/>
<path d="M204.21 56L152.15 108.07C149.53 165.78 149.74 226.4 152.15 289.25H324.31C320.9 208.15 320.58 130.08 324.31 56H204.21Z" fill="white"/>
<path d="M324.31 290.13H152.15C151.918 290.13 151.695 290.041 151.527 289.881C151.36 289.72 151.26 289.502 151.25 289.27C148.76 224 148.76 163 151.25 108C151.264 107.777 151.36 107.566 151.52 107.41L203.58 55.34C203.663 55.2574 203.761 55.1919 203.869 55.1473C203.977 55.1027 204.093 55.0798 204.21 55.08H324.31C324.432 55.0803 324.552 55.1053 324.664 55.1534C324.775 55.2016 324.876 55.2718 324.96 55.36C325.044 55.4473 325.108 55.5511 325.15 55.6647C325.191 55.7784 325.208 55.8994 325.2 56.02C321.61 127.36 321.61 203.63 325.2 289.19C325.204 289.31 325.184 289.429 325.141 289.54C325.098 289.652 325.033 289.754 324.95 289.84C324.87 289.931 324.771 290.003 324.661 290.053C324.551 290.103 324.431 290.129 324.31 290.13ZM153 288.34H323.38C319.84 203.48 319.83 127.75 323.38 56.87H204.58L153 108.43C150.55 163.07 150.55 223.59 153 288.34Z" fill="#263238"/>
<path d="M293.44 264.46H274.66C274.482 264.46 274.312 264.389 274.186 264.264C274.061 264.138 273.99 263.968 273.99 263.79C273.99 263.703 274.007 263.616 274.041 263.535C274.075 263.454 274.124 263.381 274.187 263.32C274.249 263.258 274.323 263.21 274.404 263.177C274.486 263.145 274.572 263.129 274.66 263.13H293.44C293.528 263.129 293.614 263.145 293.696 263.177C293.777 263.21 293.851 263.258 293.913 263.32C293.976 263.381 294.025 263.454 294.059 263.535C294.093 263.616 294.11 263.703 294.11 263.79C294.11 263.878 294.093 263.965 294.059 264.046C294.025 264.128 293.976 264.202 293.914 264.264C293.852 264.326 293.778 264.375 293.696 264.409C293.615 264.443 293.528 264.46 293.44 264.46V264.46Z" fill="#84160F"/>
<path d="M266.88 264.46H183C182.822 264.46 182.652 264.389 182.526 264.264C182.401 264.138 182.33 263.968 182.33 263.79C182.33 263.703 182.347 263.616 182.381 263.535C182.415 263.454 182.464 263.381 182.527 263.32C182.589 263.258 182.663 263.21 182.744 263.177C182.826 263.145 182.912 263.129 183 263.13H266.86C266.947 263.129 267.034 263.145 267.116 263.177C267.197 263.21 267.271 263.258 267.333 263.32C267.396 263.381 267.445 263.454 267.479 263.535C267.513 263.616 267.53 263.703 267.53 263.79C267.53 263.964 267.462 264.132 267.341 264.257C267.22 264.382 267.054 264.455 266.88 264.46V264.46Z" fill="#84160F"/>
<path d="M214.28 164.19C214.08 159.83 211.61 156.39 208.75 156.49C205.89 156.59 203.75 160.2 203.93 164.56C204.11 168.92 206.6 172.36 209.46 172.25C212.32 172.14 214.48 168.54 214.28 164.19Z" fill="#84160F"/>
<path d="M274.65 162.82C274.45 158.47 271.98 155.03 269.12 155.13C266.26 155.23 264.12 158.84 264.3 163.2C264.48 167.56 266.98 171 269.83 170.89C272.68 170.78 274.85 167.18 274.65 162.82Z" fill="#84160F"/>
<path d="M229.35 182C233.964 180.277 238.878 179.503 243.798 179.727C248.718 179.95 253.542 181.166 257.98 183.3C258.127 183.381 258.257 183.491 258.361 183.623C258.466 183.755 258.543 183.906 258.589 184.068C258.634 184.229 258.647 184.399 258.627 184.566C258.606 184.733 258.553 184.894 258.47 185.04C258.3 185.334 258.022 185.55 257.695 185.642C257.368 185.733 257.018 185.693 256.72 185.53C256.57 185.45 242.32 177.77 225.31 186.53C225.007 186.683 224.655 186.713 224.331 186.612C224.006 186.511 223.733 186.288 223.57 185.99C223.492 185.841 223.445 185.678 223.43 185.511C223.416 185.344 223.435 185.175 223.486 185.015C223.537 184.855 223.62 184.707 223.728 184.579C223.837 184.451 223.97 184.346 224.12 184.27C225.81 183.395 227.557 182.637 229.35 182V182Z" fill="#84160F"/>
<path d="M205.64 123.34C206.084 123.352 206.517 123.476 206.9 123.7C207.485 124.046 207.909 124.609 208.081 125.266C208.254 125.923 208.16 126.622 207.82 127.21C205.83 130.757 203.014 133.771 199.61 135.998C196.207 138.224 192.317 139.597 188.27 140C187.59 140.027 186.926 139.785 186.422 139.327C185.919 138.868 185.616 138.23 185.58 137.55C185.565 137.215 185.617 136.88 185.731 136.565C185.846 136.25 186.022 135.961 186.248 135.714C186.475 135.467 186.748 135.267 187.052 135.126C187.356 134.984 187.685 134.904 188.02 134.89V134.89C188.41 134.89 197.64 134.31 203.38 124.62C203.605 124.222 203.934 123.892 204.332 123.666C204.731 123.441 205.183 123.328 205.64 123.34V123.34Z" fill="#84160F"/>
<path d="M266.05 121.87C266.468 121.788 266.899 121.81 267.306 121.936C267.713 122.062 268.082 122.286 268.38 122.59C276.38 130.59 285.52 128.98 285.9 128.91C286.562 128.791 287.244 128.933 287.803 129.306C288.362 129.678 288.755 130.253 288.9 130.91C288.967 131.238 288.968 131.577 288.904 131.906C288.839 132.235 288.711 132.548 288.525 132.826C288.339 133.105 288.099 133.345 287.821 133.531C287.542 133.717 287.229 133.846 286.9 133.91C286.4 134 274.76 136.22 264.69 126.16C264.361 125.835 264.128 125.425 264.014 124.977C263.901 124.528 263.912 124.057 264.047 123.615C264.182 123.172 264.435 122.775 264.779 122.465C265.123 122.156 265.546 121.947 266 121.86L266.05 121.87Z" fill="#84160F"/>
<path opacity="0.2" d="M321.72 149.86L314.41 150.54C313.145 150.658 311.881 150.311 310.853 149.564C309.826 148.816 309.107 147.72 308.83 146.48L298.7 101.1C298.408 99.7824 298.637 98.4026 299.34 97.2504C300.043 96.0981 301.165 95.2629 302.47 94.92L322.06 89.78L321.72 149.86Z" fill="black"/>
<path opacity="0.2" d="M209 112.69C203.91 98.8 198.82 76.57 204.19 55.98L152.13 108.05C166.86 113 190.32 115.11 209 112.69Z" fill="black"/>
<path d="M204.21 108.05C198.5 91.19 200.83 68.27 204.21 55.98L152.15 108.05C167.91 110.92 185.52 110.46 204.21 108.05Z" fill="white"/>
<path d="M176 110.92C167.956 110.98 159.923 110.31 152 108.92C151.839 108.894 151.689 108.823 151.566 108.716C151.443 108.609 151.352 108.47 151.303 108.315C151.254 108.159 151.25 107.993 151.29 107.835C151.33 107.677 151.413 107.534 151.53 107.42L203.59 55.35C203.729 55.2088 203.911 55.118 204.107 55.0918C204.303 55.0656 204.503 55.1055 204.673 55.2053C204.844 55.3052 204.977 55.4591 205.051 55.6429C205.124 55.8267 205.135 56.0298 205.08 56.22C201.94 67.66 199.33 90.82 205.08 107.76C205.12 107.886 205.132 108.019 205.117 108.15C205.101 108.281 205.058 108.407 204.99 108.52C204.921 108.632 204.828 108.728 204.717 108.799C204.606 108.87 204.481 108.915 204.35 108.93C194.952 110.199 185.483 110.863 176 110.92V110.92ZM154 107.46C167.84 109.75 183.91 109.7 203 107.3C198.29 92.36 199.36 72.59 202.52 58.9L154 107.46Z" fill="#263238"/>
<path d="M383.1 184.11C382.771 184.11 382.452 184.001 382.191 183.8C381.931 183.599 381.744 183.318 381.66 183L363.32 113.12C363.219 112.737 363.275 112.329 363.475 111.987C363.674 111.645 364.002 111.396 364.385 111.295C364.768 111.194 365.176 111.25 365.518 111.45C365.86 111.649 366.109 111.977 366.21 112.36L384.55 182.24C384.6 182.43 384.611 182.627 384.584 182.822C384.557 183.016 384.492 183.203 384.393 183.372C384.294 183.541 384.162 183.689 384.005 183.807C383.848 183.925 383.67 184.011 383.48 184.06C383.357 184.097 383.229 184.114 383.1 184.11V184.11Z" fill="#263238"/>
<path d="M417.26 83.7285L416.29 83.9785L417.667 89.3232L418.637 89.0732L417.26 83.7285Z" fill="#84160F"/>
<path d="M414.11 76.09L410.26 61.42C409.736 59.4339 408.446 57.7366 406.673 56.7C404.9 55.6634 402.788 55.3721 400.8 55.89L390.73 58.53L390.48 57.53L400.55 54.88C402.792 54.298 405.174 54.6278 407.173 55.7972C409.173 56.9666 410.628 58.8805 411.22 61.12L415.08 75.8L414.11 76.09Z" fill="#84160F"/>
<path d="M401.443 58.3354L306.099 83.3483C303.3 84.0827 301.626 86.9472 302.36 89.7465L314.427 135.74C315.161 138.539 318.026 140.213 320.825 139.479L416.168 114.466C418.968 113.732 420.642 110.867 419.907 108.068L407.841 62.0741C407.107 59.2749 404.242 57.601 401.443 58.3354Z" fill="#84160F"/>
<path d="M396.694 111.913L336.54 127.694C333.741 128.429 332.067 131.293 332.801 134.093L336.572 148.466C337.306 151.266 340.171 152.939 342.97 152.205L403.125 136.424C405.924 135.689 407.598 132.825 406.863 130.026L403.093 115.652C402.358 112.853 399.494 111.179 396.694 111.913Z" fill="#84160F"/>
<path d="M315 103.726L329.228 100L330.179 103.692L321.276 106.025L321.985 108.776L330.3 106.617L331.217 110.1L322.953 112.276L323.834 115.672L332.997 113.286L334 117.204L319.53 121L315 103.726Z" fill="white"/>
<path d="M337.408 117L333 99.8475L341.713 97.5525C342.95 97.1781 344.234 96.992 345.525 97.0003C346.437 97.0491 347.306 97.4077 347.993 98.0184C348.671 98.6709 349.169 99.4919 349.438 100.4C349.707 101.308 349.736 102.272 349.524 103.195C349.307 104 348.884 104.732 348.299 105.318C347.798 105.795 347.223 106.185 346.597 106.474C347.07 106.452 347.543 106.527 347.987 106.693C348.431 106.858 348.838 107.113 349.184 107.44C349.546 107.7 349.887 107.989 350.205 108.303L354 112.6L348.095 114.17L343.994 109.649C343.647 109.205 343.212 108.84 342.717 108.579C342.263 108.432 341.776 108.432 341.322 108.579L340.862 108.7L342.649 115.602L337.408 117ZM340.028 105.404L342.241 104.835C342.7 104.674 343.144 104.472 343.568 104.231C343.889 104.079 344.139 103.807 344.266 103.471C344.44 103.071 344.458 102.618 344.316 102.205C344.174 101.792 343.882 101.449 343.5 101.245C342.83 101.03 342.111 101.03 341.441 101.245L339.143 101.849L340.028 105.404Z" fill="white"/>
<path d="M355.643 112L351 94.8473L360.143 92.5522C361.442 92.1859 362.789 92 364.143 92C365.094 92.05 366 92.4087 366.714 93.0181C367.51 93.6902 368.061 94.5916 368.286 95.5893C368.535 96.447 368.535 97.3545 368.286 98.2123C368.052 99.0057 367.616 99.7296 367.018 100.318C366.485 100.791 365.884 101.186 365.232 101.491C365.773 101.496 366.309 101.584 366.821 101.75C367.221 101.94 367.598 102.172 367.946 102.44C368.322 102.699 368.674 102.988 369 103.303L373 107.617L366.804 109.17L362.464 104.666C362.099 104.217 361.636 103.852 361.107 103.596C360.637 103.45 360.131 103.45 359.661 103.596L359.179 103.717L361.054 110.619L355.643 112ZM358.411 100.421L360.732 99.8343C361.206 99.6689 361.666 99.4669 362.107 99.2304C362.278 99.158 362.432 99.0536 362.561 98.9233C362.69 98.793 362.79 98.6393 362.857 98.4711C363.035 98.0727 363.051 97.6242 362.902 97.2148C362.753 96.8055 362.45 96.4654 362.054 96.2623C361.347 96.0296 360.581 96.0296 359.875 96.2623L357.482 96.8663L358.411 100.421Z" fill="white"/>
<path d="M371.526 98.8975C371.091 97.7102 370.922 96.4407 371.033 95.1802C371.144 93.9197 371.53 92.6994 372.166 91.6071C372.801 90.5148 373.669 89.5776 374.707 88.8627C375.746 88.1479 376.929 87.6732 378.171 87.4727C379.368 87.0786 380.632 86.9286 381.887 87.0315C383.143 87.1344 384.365 87.4882 385.483 88.0722C386.522 88.7405 387.416 89.6128 388.112 90.6367C388.808 91.6607 389.291 92.8152 389.533 94.0314C390.039 95.7477 390.136 97.5599 389.814 99.3206C389.481 100.793 388.718 102.132 387.622 103.164C386.327 104.329 384.758 105.142 383.063 105.527C381.403 106.022 379.652 106.13 377.943 105.844C376.454 105.54 375.091 104.79 374.033 103.693C372.792 102.344 371.928 100.69 371.526 98.8975V98.8975ZM376.909 97.5223C377.138 98.8908 377.832 100.137 378.873 101.048C379.311 101.325 379.801 101.509 380.313 101.59C380.824 101.671 381.347 101.646 381.849 101.517C382.35 101.389 382.821 101.159 383.232 100.842C383.642 100.525 383.985 100.127 384.238 99.6732C384.68 98.2614 384.643 96.7421 384.133 95.3537C383.91 94.0406 383.226 92.8518 382.204 92.0038C381.771 91.7123 381.279 91.5214 380.763 91.4452C380.248 91.3689 379.722 91.4092 379.223 91.5631C378.723 91.6741 378.254 91.8986 377.853 92.2194C377.452 92.5403 377.129 92.9489 376.909 93.4143C376.438 94.7427 376.438 96.1939 376.909 97.5223Z" fill="white"/>
<path d="M394.408 102L390 84.8508L398.713 82.5539C399.948 82.1694 401.234 81.983 402.525 82.0012C403.438 82.0461 404.308 82.4055 404.993 83.0202C405.674 83.6709 406.173 84.4932 406.439 85.4033C406.705 86.3134 406.729 87.2788 406.507 88.2012C406.286 89.0005 405.87 89.7308 405.299 90.3254C404.798 90.803 404.223 91.1939 403.597 91.4825C404.118 91.5007 404.634 91.5937 405.129 91.7588C405.506 91.9399 405.86 92.166 406.184 92.4324C406.546 92.6921 406.882 92.9871 407.188 93.3131L411 97.6134L405.095 99.185L400.959 94.6775C400.606 94.2288 400.166 93.8585 399.666 93.5895C399.217 93.4506 398.737 93.4506 398.288 93.5895L397.828 93.7103L399.615 100.618L394.408 102ZM397.028 90.4118L399.241 89.8418C399.697 89.673 400.14 89.471 400.568 89.2374C400.885 89.0802 401.134 88.8095 401.266 88.4775C401.44 88.0768 401.458 87.6238 401.316 87.2102C401.174 86.7965 400.882 86.4532 400.5 86.2497C399.831 86.0257 399.109 86.0257 398.441 86.2497L396.143 86.8541L397.028 90.4118Z" fill="white"/>
</svg>
