<svg width="446" height="435" viewBox="0 0 446 435" fill="none" xmlns="http://www.w3.org/2000/svg">
<path d="M95.9244 333.418C98.9244 332.418 104.244 327.527 104.244 327.517C104.244 327.507 99.9644 325.027 99.6744 324.907C96.3044 323.487 88.9544 322.727 86.2844 325.837C85.8621 326.367 85.555 326.978 85.3828 327.633C85.2106 328.288 85.177 328.971 85.2844 329.64C85.3917 330.308 85.6375 330.947 86.006 331.515C86.3745 332.082 86.8576 332.567 87.4244 332.937C89.7844 334.617 93.3244 334.258 95.9244 333.418Z" fill="#9C9C9C"/>
<path d="M151.334 286.277C151.404 286.277 149.134 281.847 148.954 281.577C146.954 278.577 141.214 273.847 137.274 274.967C136.625 275.172 136.025 275.51 135.515 275.961C135.005 276.412 134.595 276.965 134.312 277.585C134.029 278.204 133.88 278.876 133.873 279.557C133.867 280.238 134.003 280.913 134.274 281.537C135.344 284.217 138.494 285.877 141.134 286.607C144.234 287.467 151.324 286.287 151.334 286.277Z" fill="#9C9C9C"/>
<path d="M111.614 347.328C114.194 345.638 117.754 339.987 118.034 339.537C121.262 341.58 124.623 343.404 128.094 344.997C130.094 345.937 132.174 346.827 134.254 347.687C133.254 347.427 132.344 347.218 132.254 347.198C128.624 346.718 121.334 347.927 119.584 351.627C119.31 352.253 119.171 352.928 119.176 353.611C119.18 354.294 119.329 354.967 119.613 355.589C119.896 356.21 120.307 356.764 120.819 357.215C121.331 357.667 121.933 358.005 122.584 358.207C125.304 359.207 128.584 357.897 130.914 356.397C133.244 354.897 136.364 350.107 137.174 348.837L139.574 349.837C143.424 351.367 147.264 352.838 150.994 354.478C152.304 355.038 153.574 355.647 154.854 356.237C153.954 356.017 153.204 355.838 153.084 355.828C149.454 355.348 142.174 356.557 140.414 360.257C140.14 360.882 140.001 361.557 140.006 362.239C140.011 362.921 140.16 363.594 140.443 364.214C140.726 364.835 141.137 365.388 141.649 365.838C142.162 366.289 142.763 366.626 143.414 366.828C146.144 367.828 149.464 366.517 151.744 365.017C154.024 363.517 156.884 359.198 157.864 357.698C159.144 358.348 160.434 358.998 161.654 359.698C162.474 360.188 163.304 360.598 164.104 361.138L166.484 362.668C167.954 363.668 169.484 364.747 170.904 365.787C171.904 366.507 172.824 367.207 173.764 367.907C172.464 367.337 169.894 366.258 169.664 366.198C166.154 365.198 158.764 365.267 156.474 368.657C156.107 369.231 155.866 369.876 155.765 370.55C155.664 371.223 155.707 371.91 155.89 372.566C156.073 373.222 156.393 373.832 156.828 374.356C157.263 374.88 157.803 375.307 158.414 375.608C160.954 376.978 164.414 376.218 166.924 375.078C169.654 373.828 173.924 368.998 174.404 368.388C175.954 369.558 177.454 370.707 178.844 371.817C182.904 375.027 186.284 377.917 188.844 380.177L190.844 378.358C188.164 376.098 184.584 373.157 180.274 369.897C178.704 368.707 177.004 367.458 175.274 366.198C176.197 364.35 177.012 362.45 177.714 360.507C180.784 360.817 186.564 359.227 187.314 359.017C187.964 360.847 188.574 362.638 189.124 364.328C190.704 369.158 191.914 373.328 192.804 376.638L195.044 374.638C194.114 371.548 192.914 367.777 191.424 363.527C190.774 361.667 190.044 359.697 189.264 357.677C189.954 357.287 195.514 354.048 197.264 351.608C198.854 349.388 200.264 346.117 199.404 343.347C199.223 342.692 198.906 342.083 198.474 341.558C198.042 341.033 197.505 340.604 196.897 340.3C196.289 339.995 195.624 339.822 194.945 339.79C194.266 339.759 193.588 339.87 192.954 340.117C189.184 341.727 187.684 348.957 188.014 352.597C188.014 352.817 188.514 355.127 188.834 356.597C188.514 355.767 188.214 354.967 187.834 354.127C187.174 352.447 186.464 350.797 185.714 349.017C185.314 348.167 184.924 347.317 184.514 346.457C184.104 345.597 183.624 344.727 183.174 343.847C182.104 341.847 180.914 339.847 179.664 337.847C181.134 337.267 186.304 335.128 188.224 333.168C190.144 331.208 192.024 328.167 191.584 325.337C191.507 324.662 191.288 324.01 190.942 323.424C190.596 322.839 190.13 322.333 189.576 321.939C189.021 321.546 188.389 321.274 187.722 321.141C187.055 321.008 186.368 321.017 185.704 321.168C181.704 322.168 179.154 329.107 178.934 332.757C178.934 332.977 179.054 335.617 179.154 337.067C178.394 335.887 177.644 334.707 176.844 333.537C174.524 330.167 172.064 326.827 169.634 323.487C168.884 322.487 168.154 321.437 167.424 320.407C167.944 320.207 174.144 317.798 176.294 315.608C178.204 313.608 180.094 310.607 179.664 307.767C179.586 307.091 179.366 306.439 179.019 305.854C178.671 305.268 178.205 304.762 177.649 304.369C177.094 303.976 176.462 303.704 175.794 303.571C175.126 303.438 174.438 303.447 173.774 303.597C169.774 304.597 167.224 311.537 167.004 315.187C167.004 315.467 167.184 319.257 167.284 320.187C165.664 317.917 164.074 315.647 162.594 313.347C160.577 310.254 158.766 307.03 157.174 303.698C157.414 303.608 163.894 301.117 166.094 298.867C168.004 296.867 169.894 293.868 169.464 291.038C169.387 290.362 169.168 289.71 168.822 289.124C168.476 288.539 168.01 288.033 167.456 287.639C166.901 287.246 166.269 286.974 165.602 286.841C164.935 286.708 164.248 286.717 163.584 286.867C159.584 287.867 157.034 294.807 156.814 298.457C156.814 298.697 156.944 301.587 157.044 302.957L156.824 303.017C155.303 299.624 154.091 296.099 153.204 292.487C152.694 290.487 152.314 288.577 151.984 286.707C153.234 286.367 158.984 284.758 161.164 282.948C163.344 281.138 165.484 278.417 165.374 275.527C165.369 274.847 165.22 274.175 164.939 273.556C164.657 272.937 164.249 272.383 163.74 271.932C163.231 271.48 162.632 271.14 161.984 270.935C161.335 270.729 160.651 270.662 159.974 270.737C155.924 271.307 152.594 277.907 151.974 281.517C151.974 281.707 151.814 283.737 151.744 285.217C151.614 284.367 151.454 283.497 151.344 282.677C150.914 279.607 150.704 276.777 150.534 274.267C150.454 272.837 150.414 271.538 150.384 270.328C151.434 269.328 155.654 265.327 156.754 262.797C157.854 260.267 158.504 256.797 157.074 254.277C156.758 253.674 156.318 253.145 155.783 252.723C155.248 252.302 154.63 251.997 153.969 251.83C153.309 251.663 152.621 251.637 151.95 251.754C151.279 251.871 150.64 252.127 150.074 252.508C146.734 254.888 146.824 262.277 147.934 265.767C148.034 266.067 150.064 270.607 150.124 270.557L150.184 270.497C150.184 271.657 150.184 272.907 150.264 274.277C150.374 276.797 150.514 279.647 150.884 282.737C151.245 286.067 151.799 289.373 152.544 292.638C153.361 296.303 154.505 299.887 155.964 303.347L156.024 303.467C155.244 302.557 152.974 300.088 152.774 299.918C150.014 297.518 143.264 294.507 139.774 296.627C139.201 296.995 138.712 297.479 138.339 298.048C137.966 298.617 137.717 299.259 137.608 299.931C137.5 300.602 137.534 301.29 137.709 301.947C137.884 302.605 138.196 303.218 138.624 303.747C140.364 306.057 143.834 306.827 146.574 306.837C149.654 306.837 155.734 304.087 156.224 303.837C157.79 307.324 159.588 310.701 161.604 313.948C162.764 315.838 163.994 317.718 165.254 319.578C164.554 318.818 163.924 318.137 163.824 318.047C161.064 315.657 154.314 312.638 150.824 314.758C150.251 315.125 149.762 315.609 149.389 316.178C149.016 316.747 148.767 317.389 148.658 318.06C148.55 318.732 148.584 319.42 148.759 320.077C148.934 320.735 149.246 321.348 149.674 321.877C151.404 324.197 154.884 324.957 157.624 324.967C160.364 324.977 165.624 322.727 167.004 322.117C167.494 322.827 168.004 323.547 168.474 324.257C170.834 327.647 173.204 331.038 175.474 334.418C176.264 335.618 176.994 336.817 177.724 338.017C177.104 337.337 176.574 336.778 176.484 336.698C173.724 334.298 166.974 331.287 163.484 333.407C162.912 333.776 162.424 334.26 162.052 334.83C161.679 335.399 161.431 336.041 161.324 336.713C161.216 337.385 161.251 338.072 161.427 338.729C161.603 339.386 161.916 339.999 162.344 340.527C164.074 342.837 167.554 343.607 170.284 343.617C173.014 343.627 177.784 341.617 179.424 340.877C180.144 342.127 180.864 343.377 181.494 344.627C181.914 345.487 182.374 346.287 182.734 347.177C183.094 348.067 183.504 348.917 183.874 349.767C184.544 351.447 185.234 353.167 185.874 354.817C186.304 355.957 186.694 357.057 187.084 358.157C186.324 356.957 184.764 354.647 184.614 354.467C182.435 352.089 179.68 350.312 176.614 349.307C176.387 349.03 176.132 348.775 175.854 348.547C175.343 348.1 174.742 347.765 174.092 347.564C173.443 347.363 172.758 347.301 172.083 347.383C171.408 347.464 170.757 347.686 170.173 348.035C169.59 348.384 169.086 348.851 168.694 349.407C166.434 352.827 169.174 359.687 171.464 362.547C171.594 362.717 173.264 364.377 174.334 365.407L172.074 363.937C170.604 362.937 169.074 361.937 167.494 360.847L165.084 359.367C164.284 358.857 163.384 358.417 162.524 357.937C160.524 356.857 158.434 355.857 156.314 354.937C157.214 353.647 160.314 349.017 160.864 346.317C161.414 343.617 161.284 340.077 159.354 337.927C158.916 337.407 158.373 336.985 157.761 336.689C157.148 336.392 156.481 336.227 155.801 336.206C155.121 336.184 154.444 336.306 153.814 336.563C153.184 336.82 152.615 337.206 152.144 337.698C149.394 340.698 151.064 347.927 152.884 351.097C153.004 351.297 154.564 353.417 155.454 354.567C154.174 354.007 152.894 353.437 151.584 352.907C147.784 351.377 143.894 349.907 140.024 348.497C138.834 348.057 137.654 347.597 136.474 347.147C136.804 346.697 140.644 341.267 141.224 338.247C141.744 335.567 141.654 332.008 139.714 329.858C139.276 329.337 138.733 328.915 138.121 328.619C137.508 328.322 136.841 328.157 136.161 328.136C135.481 328.114 134.804 328.236 134.174 328.493C133.544 328.75 132.975 329.136 132.504 329.627C129.754 332.627 131.424 339.857 133.254 343.027C133.384 343.267 135.644 346.317 136.254 347.027C133.654 346.027 131.074 345.028 128.564 343.918C125.176 342.45 121.889 340.76 118.724 338.858C118.874 338.648 122.914 332.997 123.504 329.907C124.014 327.227 123.924 323.667 121.994 321.517C121.556 320.997 121.013 320.575 120.401 320.279C119.788 319.982 119.121 319.817 118.441 319.796C117.761 319.774 117.084 319.896 116.454 320.153C115.824 320.41 115.255 320.796 114.784 321.287C112.034 324.287 113.704 331.517 115.524 334.687C115.644 334.897 117.364 337.227 118.214 338.317L118.054 338.487C114.918 336.492 111.966 334.22 109.234 331.698C107.704 330.328 106.324 328.937 105.014 327.547C105.874 326.547 109.754 322.077 110.604 319.347C111.454 316.617 111.704 313.187 110.024 310.847C109.643 310.284 109.148 309.806 108.57 309.446C107.993 309.086 107.346 308.851 106.672 308.757C105.998 308.663 105.311 308.711 104.657 308.899C104.003 309.087 103.396 309.41 102.874 309.847C99.8144 312.567 100.684 319.907 102.144 323.257C102.224 323.437 103.244 325.197 104.004 326.467C103.424 325.837 102.814 325.198 102.264 324.578C100.264 322.258 98.4744 320.007 96.9544 317.997C96.0944 316.847 95.3444 315.797 94.6444 314.807C94.9944 313.407 96.3144 307.758 95.8144 305.008C95.3144 302.258 93.9544 299.008 91.3744 297.728C90.7788 297.4 90.121 297.202 89.4437 297.145C88.7664 297.089 88.0848 297.176 87.4434 297.4C86.8019 297.625 86.2149 297.982 85.7206 298.448C85.2263 298.915 84.8357 299.48 84.5744 300.108C83.1044 303.928 87.2544 310.037 90.0944 312.337C90.3444 312.537 94.5444 315.197 94.5644 315.127C94.5665 315.098 94.5665 315.067 94.5644 315.038C95.2144 316.038 95.9244 317.037 96.7144 318.157C98.1944 320.157 99.8944 322.497 101.904 324.867C104.045 327.447 106.332 329.901 108.754 332.217C111.46 334.804 114.388 337.146 117.504 339.217L117.624 339.287C116.474 338.957 113.214 338.147 112.954 338.117C109.324 337.637 102.044 338.847 100.284 342.547C100.01 343.173 99.8708 343.848 99.8756 344.531C99.8805 345.214 100.029 345.887 100.313 346.509C100.596 347.13 101.007 347.684 101.519 348.135C102.031 348.587 102.633 348.925 103.284 349.127C106.014 350.107 109.334 348.838 111.614 347.328Z" fill="#9C9C9C"/>
<path d="M298.704 93.6475C300.844 97.2275 308.554 102.477 308.564 102.477C308.574 102.477 310.484 96.3475 310.564 95.9375C311.384 91.2675 310.224 81.7475 305.564 79.2675C304.773 78.8768 303.907 78.6573 303.025 78.6231C302.143 78.589 301.263 78.741 300.443 79.0692C299.623 79.3975 298.882 79.8947 298.267 80.5284C297.652 81.1621 297.178 81.9182 296.874 82.7475C295.424 86.2275 296.884 90.6075 298.704 93.6475Z" fill="#9C9C9C"/>
<path d="M374.314 150.187C374.314 150.277 379.314 146.127 379.584 145.827C382.854 142.377 387.134 133.827 384.584 129.137C384.139 128.375 383.539 127.714 382.821 127.199C382.104 126.683 381.286 126.325 380.421 126.147C379.556 125.968 378.663 125.974 377.8 126.164C376.938 126.354 376.125 126.723 375.414 127.247C372.324 129.377 371.134 133.837 370.964 137.377C370.774 141.537 374.314 150.177 374.314 150.187Z" fill="#9C9C9C"/>
<path d="M285.614 117.517C288.504 120.287 296.684 123.167 297.334 123.387C295.684 128.063 294.348 132.844 293.334 137.697C292.724 140.517 292.194 143.387 291.704 146.267C291.704 144.917 291.704 143.707 291.704 143.537C291.264 138.817 287.634 129.937 282.444 128.787C281.577 128.619 280.684 128.634 279.823 128.834C278.962 129.033 278.153 129.412 277.448 129.945C276.743 130.478 276.159 131.154 275.733 131.928C275.306 132.702 275.048 133.557 274.974 134.437C274.534 138.167 277.114 142.007 279.674 144.437C282.234 146.867 289.194 149.527 291.034 150.187C290.854 151.287 290.664 152.397 290.494 153.497C289.664 158.807 288.864 164.107 287.914 169.287C287.584 171.107 287.184 172.897 286.794 174.687C286.794 173.487 286.794 172.477 286.794 172.327C286.354 167.597 282.724 158.727 277.534 157.567C276.667 157.4 275.774 157.417 274.914 157.618C274.053 157.819 273.245 158.199 272.541 158.733C271.838 159.267 271.254 159.943 270.829 160.717C270.404 161.492 270.147 162.347 270.074 163.227C269.634 166.947 272.204 170.787 274.764 173.227C277.324 175.667 283.614 178.047 285.764 178.847C285.314 180.667 284.864 182.487 284.344 184.227C283.954 185.407 283.674 186.567 283.224 187.737L281.964 191.187C281.094 193.347 280.204 195.587 279.294 197.687C278.674 199.137 278.054 200.517 277.434 201.907C277.784 200.097 278.434 196.537 278.434 196.237C278.714 191.497 276.434 182.177 271.514 180.237C270.682 179.939 269.796 179.82 268.915 179.887C268.033 179.954 267.176 180.206 266.398 180.627C265.621 181.048 264.941 181.628 264.402 182.329C263.864 183.031 263.48 183.838 263.274 184.697C262.274 188.307 264.274 192.497 266.394 195.307C268.774 198.407 276.104 202.367 277.024 202.857C276.024 205.147 274.964 207.377 273.964 209.457C271.064 215.527 268.384 220.627 266.264 224.537L269.154 226.597C271.254 222.597 273.934 217.187 276.814 210.787C277.874 208.457 278.964 205.947 280.054 203.357C282.656 204 285.294 204.484 287.954 204.807C288.454 208.807 292.124 215.647 292.604 216.527C290.474 217.877 288.394 219.167 286.404 220.347C280.754 223.747 275.784 226.487 271.894 228.557L275.044 230.807C278.694 228.747 283.114 226.147 288.044 223.037C290.214 221.677 292.504 220.177 294.834 218.617C295.524 219.377 301.224 225.477 304.834 226.997C308.104 228.367 312.644 229.217 315.894 227.327C316.674 226.912 317.357 226.337 317.899 225.64C318.442 224.943 318.831 224.139 319.041 223.281C319.252 222.423 319.279 221.53 319.121 220.661C318.963 219.792 318.623 218.966 318.124 218.237C315.004 213.927 305.424 214.117 300.904 215.587C300.644 215.677 297.854 216.937 296.114 217.767C297.064 217.127 297.994 216.507 298.964 215.837C300.894 214.517 302.784 213.147 304.814 211.687L307.714 209.437C308.714 208.697 309.644 207.807 310.624 206.987C312.854 205.047 315.024 202.987 317.154 200.827C318.314 202.507 322.514 208.437 325.544 210.297C328.574 212.157 332.934 213.677 336.424 212.297C337.258 212.005 338.021 211.54 338.663 210.933C339.305 210.325 339.811 209.59 340.15 208.774C340.489 207.958 340.652 207.079 340.628 206.196C340.605 205.313 340.396 204.445 340.014 203.647C337.584 198.917 328.074 197.647 323.394 198.417C323.104 198.467 319.804 199.417 318.004 199.937C319.274 198.647 320.554 197.357 321.794 195.997C325.394 192.097 328.914 187.997 332.434 183.997C333.514 182.757 334.614 181.537 335.694 180.317C336.104 180.917 340.934 188.067 344.334 190.157C347.334 192.007 351.724 193.537 355.224 192.157C356.057 191.864 356.819 191.398 357.46 190.79C358.1 190.183 358.606 189.447 358.944 188.631C359.282 187.815 359.444 186.937 359.42 186.054C359.396 185.172 359.186 184.304 358.804 183.507C356.374 178.777 346.864 177.507 342.184 178.277C341.834 178.327 337.084 179.677 335.894 180.077C338.294 177.377 340.704 174.707 343.194 172.167C346.532 168.728 350.09 165.507 353.844 162.527C354.034 162.807 359.044 170.297 362.524 172.437C365.524 174.287 369.914 175.807 373.414 174.437C374.247 174.144 375.009 173.678 375.65 173.07C376.29 172.463 376.796 171.727 377.134 170.911C377.472 170.095 377.634 169.217 377.61 168.334C377.586 167.452 377.376 166.584 376.994 165.787C374.564 161.057 365.054 159.787 360.374 160.567C360.064 160.567 356.454 161.637 354.744 162.157L354.604 161.887C358.467 158.991 362.58 156.445 366.894 154.277C369.254 153.057 371.574 152.027 373.894 151.067C374.684 152.557 378.374 159.327 381.294 161.597C384.214 163.867 388.294 165.767 391.894 164.787C392.754 164.587 393.562 164.208 394.265 163.675C394.969 163.142 395.552 162.466 395.978 161.693C396.403 160.92 396.661 160.065 396.734 159.186C396.808 158.306 396.695 157.421 396.404 156.587C394.504 151.587 385.204 149.307 380.464 149.587C380.204 149.587 377.594 150.037 375.704 150.367C376.704 149.957 377.804 149.507 378.804 149.127C382.564 147.697 386.084 146.617 389.224 145.687C391.004 145.167 392.634 144.687 394.154 144.347C395.694 145.407 401.944 149.597 405.524 150.247C409.104 150.897 413.634 150.737 416.394 148.197C417.065 147.623 417.608 146.914 417.987 146.116C418.365 145.318 418.572 144.45 418.593 143.567C418.613 142.684 418.448 141.806 418.107 140.991C417.766 140.177 417.258 139.443 416.614 138.837C412.614 135.307 403.324 137.547 399.234 139.947C398.874 140.157 393.724 144.047 393.804 144.107L393.894 144.167C392.424 144.507 390.844 144.897 389.124 145.347C385.974 146.217 382.404 147.227 378.604 148.577C374.491 150.01 370.465 151.68 366.544 153.577C362.145 155.67 357.939 158.146 353.974 160.977L353.844 161.087C354.764 159.837 357.244 156.257 357.404 155.957C359.644 151.767 361.514 142.367 357.824 138.537C357.192 137.921 356.437 137.444 355.609 137.138C354.781 136.832 353.897 136.703 353.016 136.759C352.135 136.816 351.275 137.057 350.493 137.466C349.71 137.876 349.023 138.445 348.474 139.137C346.054 142.007 346.084 146.627 346.864 150.087C347.744 153.987 352.974 160.897 353.394 161.447C349.436 164.434 345.681 167.681 342.154 171.167C340.084 173.167 338.074 175.287 336.074 177.417C336.844 176.307 337.514 175.307 337.594 175.157C339.834 170.977 341.704 161.567 338.014 157.747C337.384 157.128 336.631 156.649 335.803 156.341C334.975 156.033 334.092 155.903 333.21 155.96C332.329 156.016 331.469 156.258 330.688 156.67C329.906 157.081 329.22 157.653 328.674 158.347C326.244 161.207 326.274 165.827 327.054 169.287C327.834 172.747 332.194 178.787 333.364 180.347L331.084 182.817C327.464 186.817 323.874 190.767 320.224 194.557C318.944 195.897 317.624 197.167 316.314 198.447C316.994 197.447 317.564 196.627 317.634 196.447C319.874 192.267 321.744 182.857 318.054 179.037C317.423 178.419 316.669 177.94 315.841 177.632C315.013 177.324 314.13 177.194 313.248 177.249C312.366 177.305 311.506 177.546 310.723 177.955C309.94 178.365 309.253 178.935 308.704 179.627C306.284 182.497 306.314 187.117 307.094 190.577C307.874 194.037 311.804 199.487 313.194 201.357C311.814 202.617 310.434 203.887 309.034 205.057C308.034 205.827 307.184 206.637 306.164 207.367L303.214 209.547C301.294 210.877 299.314 212.247 297.404 213.497C296.074 214.367 294.804 215.177 293.514 215.997C294.814 214.677 297.294 212.047 297.514 211.807C299.893 208.373 301.352 204.386 301.754 200.227C302.037 199.858 302.285 199.463 302.494 199.047C302.914 198.27 303.165 197.412 303.231 196.531C303.297 195.65 303.178 194.765 302.88 193.933C302.582 193.102 302.112 192.342 301.501 191.703C300.89 191.065 300.152 190.562 299.334 190.227C294.334 188.357 286.464 193.797 283.514 197.517C283.334 197.737 281.714 200.327 280.714 201.977C281.154 200.917 281.594 199.897 282.034 198.797C282.914 196.637 283.734 194.457 284.614 192.107C285.004 190.957 285.404 189.797 285.794 188.627C286.184 187.457 286.504 186.207 286.874 184.987C287.664 182.127 288.324 179.207 288.924 176.237C290.814 177.007 297.584 179.637 301.144 179.517C304.704 179.397 309.144 178.257 311.334 175.187C311.867 174.483 312.245 173.674 312.444 172.813C312.643 171.953 312.659 171.06 312.49 170.193C312.321 169.326 311.971 168.505 311.464 167.782C310.956 167.059 310.302 166.451 309.544 165.997C304.914 163.387 296.284 167.577 292.804 170.797C292.584 171.007 290.344 173.597 289.144 175.047C289.484 173.267 289.844 171.487 290.144 169.667C290.984 164.417 291.674 159.087 292.394 153.767C292.604 152.137 292.844 150.517 293.074 148.897C293.744 149.177 301.724 152.477 305.714 152.337C309.254 152.217 313.714 151.077 315.894 148.007C316.427 147.303 316.806 146.495 317.006 145.635C317.206 144.775 317.222 143.882 317.054 143.015C316.886 142.149 316.538 141.327 316.031 140.604C315.525 139.88 314.872 139.272 314.114 138.817C309.474 136.217 300.844 140.397 297.364 143.627C297.104 143.867 293.884 147.627 293.114 148.627C293.624 145.057 294.114 141.497 294.834 138.007C295.731 133.292 296.93 128.639 298.424 124.077C298.734 124.207 307.044 127.697 311.134 127.557C314.674 127.427 319.134 126.297 321.314 123.227C321.847 122.523 322.226 121.713 322.426 120.853C322.626 119.992 322.643 119.098 322.475 118.231C322.307 117.363 321.958 116.54 321.452 115.816C320.945 115.092 320.292 114.483 319.534 114.027C314.894 111.427 306.274 115.607 302.784 118.837C302.554 119.047 300.104 121.897 298.964 123.277L298.704 123.127C300.309 118.584 302.317 114.193 304.704 110.007C306.004 107.687 307.364 105.537 308.704 103.477C310.184 104.287 316.994 107.897 320.704 108.187C324.244 108.447 328.814 107.807 331.304 104.997C331.911 104.356 332.375 103.593 332.668 102.76C332.96 101.926 333.073 101.041 333.001 100.161C332.928 99.2806 332.671 98.4256 332.246 97.6515C331.821 96.8773 331.238 96.2013 330.534 95.6675C326.214 92.5675 317.184 95.7775 313.364 98.6075C313.164 98.7575 311.224 100.547 309.834 101.877C310.464 100.957 311.104 99.9975 311.734 99.1275C314.074 95.8675 316.424 93.0175 318.514 90.5075C319.724 89.0975 320.844 87.8375 321.894 86.6775C323.764 86.6775 331.294 86.7575 334.634 85.3275C337.974 83.8975 341.634 81.2575 342.574 77.6175C342.817 76.7668 342.878 75.8744 342.753 74.9985C342.628 74.1227 342.319 73.2832 341.847 72.5348C341.375 71.7864 340.751 71.1459 340.014 70.6553C339.278 70.1647 338.447 69.8349 337.574 69.6875C332.314 68.9275 325.774 75.9475 323.684 80.2075C323.504 80.5775 321.354 86.6675 321.444 86.6675H321.564C320.564 87.7675 319.414 88.9575 318.234 90.2875C316.084 92.7475 313.664 95.5575 311.234 98.7775C308.584 102.229 306.137 105.832 303.904 109.567C301.39 113.74 299.252 118.127 297.514 122.677L297.454 122.847C297.544 121.287 297.624 116.937 297.594 116.597C297.154 111.867 293.524 102.997 288.334 101.847C287.468 101.68 286.576 101.697 285.716 101.897C284.856 102.098 284.048 102.476 283.345 103.009C282.641 103.542 282.057 104.217 281.632 104.99C281.206 105.764 280.948 106.618 280.874 107.497C280.484 111.227 283.054 115.067 285.614 117.517Z" fill="#9C9C9C"/>
<path d="M346.094 293.547V290.197C346.094 272.947 367.934 272.197 367.934 259.917C367.934 254.587 363.594 251.107 357.134 251.107C350.064 251.107 345.594 254.957 345.594 260.417V261.787C345.594 263.147 344.854 263.787 343.484 263.787L330.214 263.287C328.974 263.287 328.104 262.667 328.104 261.807V260.437C328.104 245.437 340.014 235.127 357.514 235.127C374.634 235.127 385.674 244.807 385.674 259.317C385.674 279.917 363.464 280.047 363.464 291.317V293.547C363.498 293.833 363.467 294.122 363.373 294.393C363.279 294.665 363.124 294.911 362.921 295.114C362.718 295.317 362.471 295.472 362.2 295.566C361.929 295.66 361.64 295.691 361.354 295.657H348.204C347.919 295.691 347.63 295.66 347.359 295.566C347.087 295.472 346.841 295.317 346.638 295.114C346.435 294.911 346.28 294.665 346.186 294.393C346.092 294.122 346.061 293.833 346.094 293.547V293.547ZM344.974 313.547C344.974 308.087 349.814 303.617 355.644 303.617C361.234 303.617 366.194 308.087 366.194 313.547C366.194 319.007 361.194 323.477 355.524 323.477C349.854 323.477 344.974 318.987 344.974 313.527V313.547Z" fill="#263238"/>
<path d="M83.8944 151.447V148.537C83.8944 133.537 102.894 132.907 102.894 122.237C102.894 117.597 99.1244 114.587 93.5244 114.587C87.3744 114.587 83.5244 117.927 83.5244 122.667V123.857C83.5244 125.037 82.8844 125.577 81.6944 125.577L70.1644 125.147C69.0844 125.147 68.3344 124.607 68.3344 123.857V122.667C68.3344 109.667 78.6744 100.667 93.8744 100.667C108.744 100.667 118.344 109.077 118.344 121.667C118.344 139.557 99.0444 139.667 99.0444 149.477V151.417C99.0732 151.665 99.0457 151.915 98.9639 152.151C98.8822 152.386 98.7482 152.599 98.5722 152.775C98.3962 152.951 98.1826 153.085 97.9474 153.167C97.7123 153.249 97.4617 153.276 97.2144 153.247H85.7244C85.4799 153.276 85.2322 153.248 84.9995 153.168C84.7668 153.088 84.5549 152.957 84.3795 152.785C84.204 152.612 84.0694 152.402 83.9855 152.171C83.9015 151.94 83.8704 151.692 83.8944 151.447V151.447ZM82.8944 168.797C82.8944 164.057 87.0944 160.177 92.1544 160.177C97.0044 160.177 101.324 164.057 101.324 168.797C101.324 173.537 97.0044 177.417 92.0544 177.417C89.7029 177.477 87.4233 176.604 85.713 174.989C84.0026 173.374 83.0002 171.149 82.9244 168.797H82.8944Z" fill="white"/>
<path d="M325.254 36.6975V35.2275C325.254 27.6575 334.834 27.3275 334.834 21.9375C334.834 19.5975 332.924 18.0675 330.094 18.0675C326.994 18.0675 325.034 19.7575 325.034 22.1575V22.7575C325.034 23.3575 324.704 23.6275 324.104 23.6275L318.284 23.4075C317.734 23.4075 317.354 23.1375 317.354 22.7575V22.1575C317.354 15.5675 322.584 11.0475 330.264 11.0475C337.774 11.0475 342.624 15.2975 342.624 21.6675C342.624 30.6675 332.874 30.7575 332.874 35.6675V36.6675C332.889 36.7927 332.875 36.9197 332.833 37.0387C332.792 37.1577 332.723 37.2656 332.634 37.3543C332.544 37.443 332.435 37.5101 332.316 37.5505C332.197 37.5909 332.069 37.6035 331.944 37.5875H326.174C326.052 37.603 325.929 37.5909 325.812 37.5521C325.695 37.5134 325.589 37.4489 325.501 37.3634C325.412 37.278 325.344 37.1738 325.302 37.0585C325.259 36.9432 325.243 36.8198 325.254 36.6975V36.6975ZM324.764 45.4675C324.7 44.5324 324.919 43.5997 325.392 42.7906C325.865 41.9815 326.57 41.3334 327.417 40.9307C328.263 40.5279 329.211 40.3891 330.137 40.5323C331.063 40.6756 331.925 41.0942 332.61 41.7337C333.295 42.3733 333.772 43.2041 333.979 44.1183C334.185 45.0325 334.112 45.9877 333.768 46.8597C333.425 47.7317 332.827 48.4801 332.052 49.0076C331.277 49.5351 330.362 49.8173 329.424 49.8175C328.833 49.8389 328.242 49.7432 327.687 49.536C327.133 49.3288 326.624 49.0141 326.191 48.6099C325.758 48.2058 325.409 47.7202 325.165 47.1809C324.92 46.6417 324.784 46.0594 324.764 45.4675Z" fill="white"/>
<path d="M44.4244 238.937V237.087C44.4244 227.547 56.5044 227.137 56.5044 220.337C56.5044 217.387 54.1044 215.467 50.5044 215.467C46.5944 215.467 44.1244 217.597 44.1244 220.617V221.367C44.1244 222.127 43.7144 222.467 42.9544 222.467L35.6144 222.197C34.9244 222.197 34.4444 221.847 34.4444 221.367V220.617C34.4444 212.317 41.0344 206.617 50.7144 206.617C60.1844 206.617 66.2844 211.967 66.2844 219.997C66.2844 231.387 54.0044 231.457 54.0044 237.707V238.937C54.0238 239.096 54.0069 239.256 53.955 239.407C53.903 239.558 53.8174 239.695 53.7046 239.808C53.5919 239.921 53.4549 240.006 53.3041 240.058C53.1533 240.11 52.9927 240.127 52.8344 240.107H45.5744C45.4176 240.124 45.2593 240.104 45.111 240.051C44.9628 239.997 44.8285 239.911 44.718 239.799C44.6076 239.687 44.5238 239.551 44.473 239.402C44.4222 239.253 44.4055 239.094 44.4244 238.937V238.937ZM43.8044 249.987C43.7261 248.809 44.0043 247.635 44.6028 246.617C45.2012 245.599 46.0923 244.785 47.1599 244.281C48.2275 243.777 49.4222 243.605 50.5885 243.79C51.7547 243.974 52.8386 244.505 53.6989 245.313C54.5591 246.122 55.156 247.171 55.4118 248.324C55.6676 249.476 55.5704 250.679 55.1329 251.776C54.6955 252.873 53.938 253.812 52.959 254.473C51.9801 255.133 50.8251 255.483 49.6444 255.477C48.1394 255.526 46.6768 254.975 45.5779 253.946C44.4791 252.916 43.834 251.492 43.7844 249.987H43.8044Z" stroke="#263238" stroke-miterlimit="10"/>
<path d="M136.424 66.3175V65.0475C136.424 58.4875 144.734 58.1975 144.734 53.5275C144.734 51.5275 143.084 50.1775 140.624 50.1775C137.934 50.1775 136.234 51.6375 136.234 53.7175V54.2375C136.234 54.7575 135.954 54.9875 135.434 54.9875L130.434 54.7975C129.964 54.7975 129.634 54.5675 129.634 54.2375V53.7175C129.634 48.0075 134.164 44.0875 140.814 44.0875C147.464 44.0875 151.424 47.7675 151.424 53.2875C151.424 61.1275 142.974 61.1775 142.974 65.4675V66.3175C142.987 66.4256 142.975 66.5353 142.94 66.6382C142.904 66.7411 142.846 66.8346 142.769 66.9117C142.692 66.9887 142.598 67.0472 142.495 67.0829C142.392 67.1185 142.283 67.1304 142.174 67.1175H137.174C137.07 67.1225 136.966 67.1048 136.87 67.0657C136.773 67.0265 136.686 66.9668 136.615 66.8908C136.543 66.8147 136.489 66.724 136.456 66.625C136.424 66.526 136.413 66.4211 136.424 66.3175V66.3175ZM136.004 73.9175C135.96 73.1185 136.157 72.3246 136.569 71.6385C136.981 70.9524 137.589 70.4057 138.315 70.0689C139.041 69.7322 139.851 69.6209 140.641 69.7495C141.431 69.8781 142.164 70.2406 142.746 70.7903C143.327 71.3399 143.731 72.0513 143.904 72.8327C144.077 73.614 144.011 74.4292 143.716 75.173C143.421 75.9168 142.91 76.555 142.248 77.005C141.586 77.4551 140.805 77.6963 140.004 77.6975C138.972 77.7326 137.967 77.3563 137.211 76.6513C136.456 75.9463 136.011 74.9703 135.974 73.9375L136.004 73.9175Z" fill="#263238"/>
<path d="M284.424 340.467V339.198C284.424 332.638 292.734 332.357 292.734 327.677C292.734 325.677 291.084 324.328 288.624 324.328C285.934 324.328 284.234 325.787 284.234 327.867V328.388C284.234 328.908 283.954 329.147 283.434 329.147L278.434 328.957C277.964 328.957 277.634 328.718 277.634 328.388V327.867C277.634 322.157 282.164 318.237 288.814 318.237C295.464 318.237 299.534 321.918 299.534 327.448C299.534 335.278 291.084 335.327 291.084 339.617V340.467C291.097 340.576 291.085 340.686 291.049 340.789C291.014 340.893 290.955 340.987 290.879 341.064C290.802 341.142 290.709 341.202 290.606 341.238C290.503 341.275 290.393 341.289 290.284 341.277H285.284C285.171 341.299 285.054 341.293 284.944 341.261C284.833 341.229 284.732 341.171 284.648 341.092C284.564 341.013 284.5 340.915 284.461 340.806C284.422 340.698 284.41 340.582 284.424 340.467V340.467ZM284.004 348.068C283.96 347.268 284.157 346.475 284.569 345.789C284.981 345.102 285.589 344.556 286.315 344.219C287.041 343.882 287.851 343.771 288.641 343.899C289.431 344.028 290.164 344.391 290.746 344.94C291.327 345.49 291.731 346.201 291.904 346.983C292.077 347.764 292.011 348.579 291.716 349.323C291.421 350.067 290.91 350.705 290.248 351.155C289.586 351.605 288.805 351.846 288.004 351.848C286.975 351.872 285.978 351.488 285.23 350.78C284.483 350.072 284.046 349.097 284.014 348.068H284.004Z" stroke="#263238" stroke-miterlimit="10"/>
<path d="M245.274 363.227C245.204 363.017 245.134 362.807 245.054 362.597C244.974 362.387 244.914 362.167 244.834 361.957C244.754 361.747 244.694 361.537 244.614 361.327C244.534 361.117 244.474 360.897 244.394 360.687C244.314 360.477 244.254 360.267 244.174 360.057C244.094 359.847 244.034 359.627 243.954 359.417L243.734 358.787C243.664 358.567 243.584 358.357 243.514 358.147L243.294 357.517C243.224 357.297 243.144 357.087 243.074 356.877L242.854 356.247C242.784 356.027 242.704 355.817 242.634 355.607L242.424 354.937C242.354 354.717 242.274 354.507 242.204 354.297L241.974 353.667C241.904 353.447 241.834 353.237 241.754 353.027C241.674 352.817 241.614 352.607 241.534 352.397C241.454 352.187 241.394 351.967 241.314 351.757C241.234 351.547 241.174 351.337 241.094 351.127C237.834 341.207 227.754 333.927 216.664 333.927C205.914 333.927 196.564 340.187 192.664 349.007C192.564 349.207 192.474 349.417 192.384 349.617L192.114 350.237C192.014 350.437 191.924 350.637 191.834 350.847C191.744 351.057 191.644 351.257 191.554 351.457L191.284 352.067C191.184 352.277 191.094 352.477 191.004 352.687C190.914 352.897 190.814 353.087 190.724 353.297C190.634 353.507 190.534 353.697 190.444 353.907L190.174 354.517C190.074 354.717 189.984 354.927 189.894 355.127C189.804 355.327 189.704 355.537 189.614 355.737L189.344 356.357C189.244 356.557 189.154 356.757 189.064 356.967C188.974 357.177 188.874 357.377 188.784 357.577L188.514 358.187C188.414 358.397 188.324 358.597 188.234 358.807C188.144 359.017 188.044 359.207 187.954 359.417L187.684 360.027C187.584 360.227 187.494 360.437 187.404 360.637C187.314 360.837 187.214 361.047 187.124 361.257C185.409 364.911 184.527 368.901 184.544 372.937C184.544 389.037 198.444 402.197 215.634 402.197C232.454 402.197 247.084 389.037 247.084 372.937C247.081 369.868 246.543 366.822 245.494 363.937C245.424 363.647 245.354 363.437 245.274 363.227Z" fill="#263238"/>
<path d="M221.484 141.737C169.914 141.737 134.804 172.087 134.804 216.347V220.347C134.814 221.008 134.993 221.656 135.326 222.227C135.659 222.798 136.134 223.274 136.704 223.607C136.92 223.815 137.154 224.003 137.404 224.167C137.621 224.378 137.859 224.566 138.114 224.727C138.331 224.938 138.569 225.126 138.824 225.287C139.039 225.5 139.277 225.688 139.534 225.847C139.748 226.058 139.982 226.246 140.234 226.407C140.451 226.621 140.689 226.812 140.944 226.977C141.164 227.185 141.401 227.373 141.654 227.537C141.872 227.748 142.11 227.935 142.364 228.097C142.578 228.307 142.813 228.495 143.064 228.657C143.299 228.884 143.557 229.085 143.834 229.257C144.038 229.443 144.256 229.614 144.484 229.767C144.704 229.975 144.941 230.163 145.194 230.327C145.41 230.535 145.644 230.723 145.894 230.887C146.114 231.095 146.351 231.283 146.604 231.447C146.822 231.658 147.06 231.845 147.314 232.007C147.528 232.217 147.763 232.405 148.014 232.567C148.232 232.778 148.47 232.965 148.724 233.127C148.938 233.337 149.173 233.525 149.424 233.687C149.644 233.895 149.881 234.083 150.134 234.247C150.348 234.457 150.583 234.645 150.834 234.807C151.99 235.824 153.497 236.348 155.034 236.267L187.194 237.467C190.504 237.467 192.304 235.967 192.304 232.657V229.357C192.304 216.127 203.124 206.817 220.304 206.817C235.934 206.817 246.454 215.227 246.454 228.157C246.455 229.631 246.314 231.101 246.034 232.547C229.894 253.707 187.884 263.037 187.884 304.107V313.987C187.884 317.987 190.074 320.197 194.104 320.197H232.824C236.824 320.197 239.044 318.007 239.044 313.987V307.397C239.044 274.117 304.514 273.747 304.514 213.037C304.514 170.257 271.954 141.737 221.484 141.737Z" fill="#263238"/>
<path d="M187.834 314.007V304.127C187.834 253.287 252.204 251.127 252.204 214.887C252.204 199.157 239.404 188.887 220.384 188.887C199.534 188.887 186.384 200.227 186.384 216.317V220.317C186.384 224.317 184.184 226.177 180.164 226.177L141.024 224.707C137.374 224.707 134.814 222.877 134.814 220.317V216.317C134.814 172.057 169.924 141.707 221.494 141.707C271.964 141.707 304.494 170.227 304.494 213.027C304.494 273.737 239.024 274.107 239.024 307.387V313.977C239.024 317.977 236.824 320.187 232.804 320.187H194.054C190.024 320.217 187.834 318.027 187.834 314.007ZM184.544 372.937C184.544 356.847 198.804 343.677 215.994 343.677C232.454 343.677 247.084 356.847 247.084 372.937C247.084 389.027 232.424 402.147 215.634 402.147C198.424 402.147 184.544 388.987 184.544 372.937Z" fill="white" stroke="white" stroke-miterlimit="10"/>
<path d="M214.034 434.937C244.195 434.937 268.644 429.471 268.644 422.727C268.644 415.984 244.195 410.517 214.034 410.517C183.874 410.517 159.424 415.984 159.424 422.727C159.424 429.471 183.874 434.937 214.034 434.937Z" fill="#263238"/>
</svg>
