<svg width="267" height="410" viewBox="0 0 267 410" fill="none" xmlns="http://www.w3.org/2000/svg">
<path d="M229.33 24.4064L233.33 24.4064C233.327 23.9527 233.415 23.5031 233.589 23.0842C233.763 22.6652 234.02 22.2855 234.344 21.9675C234.667 21.6495 235.051 21.3997 235.473 21.2329C235.895 21.0661 236.346 20.9857 236.8 20.9964C237.469 20.9724 238.13 21.1579 238.689 21.5272C239.249 21.8965 239.679 22.431 239.92 23.0564C240.13 23.5771 240.215 24.1403 240.166 24.7C240.117 25.2596 239.937 25.7998 239.64 26.2764C238.96 27.3964 237.48 28.4064 234.8 27.9364L234.8 36.9364L238.73 36.9364L238.73 31.6764C240.342 31.2016 241.755 30.2108 242.75 28.856C243.745 27.5012 244.269 25.8573 244.24 24.1764C244.24 18.3564 239.02 17.0064 236.78 17.0064C235.07 16.9664 229.25 17.3764 229.33 24.4064Z" fill="#1573FF"/>
<path d="M238.76 38.7564L234.77 38.7564L234.77 42.4864L238.76 42.4864L238.76 38.7564Z" fill="#1573FF"/>
<path d="M266.05 29.7641C266.063 29.5944 266.063 29.4238 266.05 29.2541C266.05 28.8941 266.05 28.4041 266.05 27.7741C266.05 27.4541 266.05 27.0841 266 26.6841C265.95 26.2841 265.89 25.8441 265.82 25.3841C265.75 24.9241 265.68 24.3841 265.6 23.8541L265.18 22.1541C264.437 19.2265 263.221 16.4398 261.58 13.9041C259.197 10.1489 255.984 6.99013 252.19 4.6706C248.395 2.35108 244.119 0.932564 239.69 0.524107C238.36 0.406645 237.024 0.379918 235.69 0.444109C235.02 0.444109 234.33 0.444106 233.69 0.574106L231.63 0.884108C228.803 1.40944 226.068 2.34251 223.51 3.65411C220.839 5.06739 218.384 6.8555 216.22 8.96411C214.004 11.2099 212.152 13.7876 210.73 16.6041C209.2 19.5078 208.198 22.6601 207.77 25.9141C207.645 26.7386 207.575 27.5704 207.56 28.4041C207.493 29.239 207.477 30.0772 207.51 30.9141C207.728 36.2786 209.404 41.482 212.36 45.9641V45.6541C210.97 49.1241 209.6 52.5341 208.26 55.8541L208.02 56.4641L208.65 56.2841L219.55 53.2841L219.29 53.2241C222.961 56.0032 227.237 57.8742 231.77 58.6841C233.873 59.076 236.015 59.207 238.15 59.0741C239.179 59.0588 240.206 58.9618 241.22 58.7841L242.71 58.5541C243.2 58.4641 243.71 58.3141 244.15 58.2041C250.867 56.502 256.759 52.4643 260.77 46.8141C262.266 44.7326 263.467 42.4544 264.34 40.0441C264.53 39.5141 264.71 39.0441 264.88 38.5241C265.05 38.0041 265.14 37.5241 265.25 37.0741C265.36 36.6241 265.48 36.1641 265.58 35.7441C265.68 35.3241 265.71 34.9141 265.77 34.5241C265.86 33.7541 266 33.0741 266.03 32.5241C266.06 31.9741 266.03 31.4441 266.03 31.0241C266.03 30.6041 266.03 30.3441 266.03 30.1141C266.03 29.8841 266.03 29.8041 266.03 29.8041C266.015 29.9069 266.015 30.0113 266.03 30.1141C266.03 30.3441 266.03 30.6441 265.96 31.0241C265.89 31.4041 265.9 31.9341 265.86 32.5141C265.82 33.0941 265.67 33.7741 265.55 34.5141C264.596 40.0487 262.056 45.1873 258.237 49.3057C254.419 53.4241 249.487 56.3452 244.04 57.7141C243.57 57.8241 243.1 57.9641 242.62 58.0541L241.15 58.2741C240.158 58.4397 239.155 58.5299 238.15 58.5441C236.054 58.6546 233.953 58.5169 231.89 58.1341C227.463 57.3195 223.289 55.4805 219.7 52.7641L219.58 52.6641H219.43L208.52 55.6641L208.9 56.0941L213.01 45.9041L213.07 45.7441L212.98 45.5941C211.011 42.6149 209.614 39.2949 208.86 35.8041C208.515 34.1846 208.307 32.5387 208.24 30.8841C208.207 30.0672 208.223 29.249 208.29 28.4341C208.296 27.6203 208.363 26.808 208.49 26.0041C208.874 22.8263 209.819 19.7419 211.28 16.8941C212.67 14.1415 214.474 11.6188 216.63 9.41411C218.748 7.34405 221.152 5.58941 223.77 4.20411C226.271 2.90314 228.95 1.97659 231.72 1.45411L233.72 1.14411C234.39 1.04411 235.06 1.05411 235.72 1.00411C237.023 0.942092 238.33 0.965475 239.63 1.07411C243.986 1.45543 248.198 2.82434 251.946 5.07689C255.694 7.32945 258.879 10.4064 261.26 14.0741C262.91 16.5655 264.146 19.3077 264.92 22.1941L265.37 23.8741C265.46 24.4041 265.54 24.8741 265.62 25.3741C265.7 25.8741 265.76 26.2741 265.83 26.6741C265.9 27.0741 265.88 27.4341 265.91 27.7541C265.91 28.3741 265.99 28.8641 266.02 29.2241C266.001 29.4046 266.011 29.5869 266.05 29.7641V29.7641Z" fill="#263238"/>
<path d="M19.0103 162.467H65.7308C65.7308 162.467 65.7308 123.305 106.497 122.611C127.669 122.239 138.647 136.09 143.113 146.694C148.291 159.01 146.721 173.046 139.78 184.474C131.86 197.517 114.789 210.625 83.3026 205.084L83.0033 309H129.206V247.395C129.206 247.395 194 230.678 194 159.365C194 91.1624 138.752 76.4316 109.054 75.4786C92.5335 74.9536 86.5468 74.2429 66.1111 77.1423C40.0689 80.8573 18.4601 111.046 19.0103 162.467Z" fill="#1573FF"/>
<path d="M130 331H83V375H130V331Z" fill="#1573FF"/>
<path opacity="0.1" d="M130 331H83V375H130V331Z" fill="black"/>
<path opacity="0.1" d="M19.0103 162.467H65.7308C65.7308 162.467 65.7308 123.305 106.497 122.611C127.669 122.239 138.647 136.09 143.113 146.694C148.291 159.01 146.721 173.046 139.78 184.474C131.86 197.517 114.789 210.625 83.3026 205.084L83.0033 309H129.206V247.395C129.206 247.395 194 230.678 194 159.365C194 91.1624 138.752 76.4316 109.054 75.4786C92.5335 74.9536 86.5468 74.2429 66.1111 77.1423C40.0689 80.8573 18.4601 111.046 19.0103 162.467Z" fill="black"/>
<path d="M0.00845688 162.263H46.7354C46.7354 162.263 46.7354 123.047 87.5002 122.352C108.671 121.98 119.649 135.849 124.107 146.468C129.292 158.801 127.723 172.857 120.782 184.301C112.862 197.362 95.4929 209.234 64.0073 203.711V309H110.208V247.31C110.208 247.31 175 230.569 175 159.157C175 90.8593 113.727 75 87.5083 75C67.4535 75.0243 -0.873337 79.8686 0.00845688 162.263Z" fill="#1573FF"/>
<path opacity="0.3" d="M0.00845688 162.263H46.7354C46.7354 162.263 46.7354 123.047 87.5002 122.352C108.671 121.98 119.649 135.849 124.107 146.468C129.292 158.801 127.723 172.857 120.782 184.301C112.862 197.362 95.4929 209.234 64.0073 203.711V309H110.208V247.31C110.208 247.31 175 230.569 175 159.157C175 90.8593 113.727 75 87.5083 75C67.4535 75.0243 -0.873337 79.8686 0.00845688 162.263Z" fill="black"/>
<path d="M111 331H64V375H111V331Z" fill="#1573FF"/>
<path opacity="0.3" d="M111 331H64V375H111V331Z" fill="black"/>
<path d="M93 122.517C92.7651 122.537 92.5289 122.537 92.294 122.517C91.826 122.517 91.1528 122.362 90.2744 122.354C87.7907 122.232 85.3011 122.336 82.8364 122.664C79.1814 123.124 75.5851 123.963 72.1063 125.169C70.0556 125.882 68.0584 126.738 66.1297 127.732C64.0449 128.767 62.0817 130.029 60.2761 131.494C58.483 132.972 56.8759 134.66 55.4899 136.521C54.1761 138.242 52.9777 140.047 51.9023 141.924C50.1068 145.121 48.6829 148.51 47.6578 152.027C46.9629 154.401 46.4848 156.832 46.2294 159.291C46.1308 160.156 46.1062 160.841 46.0816 161.298C46.0821 161.534 46.0601 161.769 46.0159 162C45.9947 161.767 45.9947 161.532 46.0159 161.298C46.0159 160.833 46.0159 160.147 46.0898 159.274C46.2786 156.789 46.7158 154.328 47.3951 151.929C48.3825 148.372 49.7878 144.942 51.5821 141.712C52.6597 139.814 53.8637 137.99 55.1861 136.252C56.5838 134.36 58.2106 132.647 60.0299 131.151C61.8573 129.666 63.8454 128.388 65.9573 127.34C67.898 126.328 69.909 125.455 71.975 124.729C75.4853 123.527 79.1159 122.707 82.8036 122.28C85.2847 121.977 87.79 121.92 90.2826 122.109C90.96 122.152 91.6343 122.234 92.3022 122.354C92.5384 122.392 92.7715 122.446 93 122.517Z" fill="#263238"/>
<path d="M163 114C163 114 162.943 113.944 162.846 113.823C162.749 113.702 162.603 113.492 162.441 113.258L160.894 111.08C160.562 110.612 160.206 110.072 159.785 109.515L158.327 107.749L156.659 105.708C156.052 104.998 155.339 104.313 154.626 103.563C153.914 102.812 153.185 102.014 152.359 101.248C151.533 100.481 150.65 99.699 149.743 98.8924C149.289 98.4891 148.844 98.0858 148.358 97.6583L146.852 96.4726C145.823 95.666 144.803 94.8594 143.693 94.0528C138.858 90.6068 133.728 87.5893 128.363 85.0351L124.095 83.1154L119.86 81.5022C118.475 80.9295 117.066 80.5262 115.705 80.0745C114.345 79.6228 113.017 79.163 111.656 78.8485L107.785 77.8402C106.53 77.5095 105.283 77.3079 104.092 77.0336C102.902 76.7594 101.752 76.5174 100.626 76.3803L97.3867 75.9125C95.3378 75.5656 93.4589 75.493 91.8231 75.3317C91.0132 75.2672 90.2034 75.1785 89.5312 75.1462L87.6038 75.0978L84.9313 75.0091H84.2349H84C84.0778 74.997 84.157 74.997 84.2349 75.0091H84.9313H87.6038H89.5393C90.2439 75.0091 91.0132 75.1059 91.8393 75.1623C93.459 75.2994 95.3702 75.3559 97.4191 75.6866L100.658 76.1222C101.784 76.2512 102.934 76.5416 104.133 76.7594C105.331 76.9772 106.562 77.203 107.85 77.566L111.737 78.5662C113.081 78.8727 114.41 79.3728 115.786 79.7841C117.163 80.1955 118.564 80.5907 119.949 81.2037L124.209 82.8169L128.501 84.7447C133.894 87.3047 139.044 90.3445 143.888 93.827C145.005 94.6336 146.026 95.4967 147.054 96.2952L148.561 97.3841C149.046 97.7874 149.492 98.1907 149.945 98.6263L152.553 101.046C153.363 101.853 154.092 102.659 154.813 103.393C155.533 104.127 156.222 104.845 156.829 105.563L158.449 107.62L159.89 109.41C160.303 109.975 160.651 110.524 160.975 111.024C161.607 111.967 162.101 112.709 162.449 113.242L162.83 113.831C162.894 113.88 162.951 113.936 163 114V114Z" fill="#263238"/>
<path d="M158 215C157.904 215.175 157.787 215.338 157.652 215.485L156.533 216.803C156.072 217.394 155.488 218.097 154.767 218.881C154.046 219.666 153.276 220.588 152.336 221.542C151.396 222.496 150.392 223.563 149.249 224.639C148.107 225.714 146.867 226.846 145.546 228.027C139.753 233.073 133.403 237.443 126.618 241.054C125.047 241.863 123.564 242.671 122.13 243.294C120.695 243.916 119.359 244.555 118.127 245.073C116.895 245.59 115.761 246.019 114.772 246.399C113.784 246.779 112.917 247.086 112.204 247.313L110.583 247.838C110.395 247.913 110.2 247.967 110 248C110.175 247.9 110.359 247.819 110.551 247.757L112.172 247.159C112.876 246.908 113.727 246.585 114.708 246.181C115.688 245.776 116.822 245.372 118.038 244.798C119.253 244.224 120.598 243.682 122 242.978C123.402 242.275 124.901 241.531 126.465 240.714C129.552 239.016 132.882 237.027 136.244 234.73C139.607 232.434 142.629 230.016 145.319 227.736C146.64 226.571 147.904 225.48 149.03 224.38C150.157 223.28 151.21 222.286 152.142 221.332C153.074 220.377 153.892 219.496 154.621 218.72C155.35 217.943 155.95 217.264 156.436 216.698L157.571 215.412C157.702 215.264 157.846 215.126 158 215V215Z" fill="#263238"/>
<path d="M138.17 140.024C137.17 142.024 140.9 143.664 143.05 144.314C145.244 144.853 147.514 145.008 149.76 144.774C152.76 144.614 155.83 144.334 158.42 142.854C160.688 141.449 162.501 139.417 163.64 137.004C164.763 134.599 165.65 132.09 166.29 129.514C166.29 129.514 142.66 131.054 138.17 140.024Z" fill="#1573FF"/>
<g opacity="0.4">
<path opacity="0.4" d="M138.17 140.024C137.17 142.024 140.9 143.664 143.05 144.314C145.244 144.853 147.514 145.008 149.76 144.774C152.76 144.614 155.83 144.334 158.42 142.854C160.688 141.449 162.501 139.417 163.64 137.004C164.763 134.599 165.65 132.09 166.29 129.514C166.29 129.514 142.66 131.054 138.17 140.024Z" fill="black"/>
</g>
<path d="M204.91 133.624C208.806 136.387 213.474 137.85 218.25 137.804C220.539 137.932 222.797 137.221 224.6 135.804C225.37 135.094 225.95 134.194 226.74 133.514C227.28 133.054 227.91 132.704 228.42 132.214C228.689 131.982 228.897 131.688 229.024 131.356C229.151 131.024 229.195 130.666 229.15 130.314C228.953 129.446 228.466 128.67 227.77 128.114C225.06 126.574 221.82 126.634 218.7 126.704C215.578 126.839 212.493 127.443 209.55 128.494C207.13 129.314 204.6 130.494 203.37 132.694" fill="#1573FF"/>
<g opacity="0.4">
<path opacity="0.4" d="M229.15 130.314C228.796 129.471 228.174 128.768 227.38 128.314C224.67 126.774 221.82 126.634 218.7 126.704C215.578 126.839 212.493 127.443 209.55 128.494C207.13 129.314 204.6 130.494 203.37 132.694L204.91 133.624C208.806 136.387 213.474 137.85 218.25 137.804C220.539 137.932 222.797 137.221 224.6 135.804C225.37 135.094 225.95 134.194 226.74 133.514C227.28 133.054 227.91 132.704 228.42 132.214C228.689 131.982 228.897 131.688 229.024 131.356C229.151 131.024 229.195 130.666 229.15 130.314V130.314Z" fill="black"/>
</g>
<path d="M158.77 169.514L208.62 170.174C208.721 170.174 208.821 170.15 208.912 170.104C209.003 170.058 209.081 169.992 209.141 169.91C209.202 169.828 209.242 169.734 209.259 169.634C209.276 169.534 209.27 169.431 209.24 169.334L203.39 151.094C203.39 151.094 204.25 141.974 205.44 131.014C207.25 114.364 209.66 93.4341 209.69 93.4941C206.28 83.9341 186.16 82.3141 186.16 82.3141L163.23 83.6741L162.43 82.3241L155.83 85.3941C154.39 86.0638 153.006 86.8463 151.69 87.7341C147.33 90.6441 136.83 97.3341 134.91 104.784C130.48 122.034 137.98 141.284 137.98 141.284L142.8 137.514C144.014 136.579 145.29 135.727 146.62 134.964L156.28 160.854C155.705 161.217 155.218 161.703 154.855 162.277C154.492 162.851 154.261 163.499 154.18 164.174C154.1 166.274 155.18 168.794 158.77 169.514" fill="#1573FF"/>
<g opacity="0.3">
<path opacity="0.3" d="M180.16 138.994C181.74 130.494 180.91 121.754 180.06 113.154C177.3 120.154 177.4 128.154 174.47 135.094C174.111 135.827 173.849 136.604 173.69 137.404C173.614 137.806 173.634 138.221 173.748 138.613C173.863 139.006 174.069 139.366 174.35 139.664C175.15 140.394 176.35 139.994 177.41 139.874C178.359 139.693 179.282 139.398 180.16 138.994" fill="black"/>
</g>
<g opacity="0.4">
<path opacity="0.4" d="M161.77 158.674C165.77 160.064 170.03 157.474 174.26 157.014C177.06 156.714 179.86 157.354 182.64 157.804C188.261 158.714 193.98 158.855 199.64 158.224C200.508 158.176 201.358 157.955 202.14 157.574C202.544 157.299 202.874 156.929 203.103 156.497C203.331 156.064 203.45 155.583 203.45 155.094C194.03 154.094 184.62 153.554 175.2 152.584C172.855 152.184 170.454 152.262 168.14 152.814C165.3 153.694 163.14 155.924 161.14 158.134" fill="black"/>
</g>
<path d="M227.71 127.034C223.64 117.864 209.29 92.5041 209.29 92.5041L198.18 106.434L200.77 133.784C200.77 133.784 206.64 127.234 223.05 127.104C224.243 127.152 225.409 127.466 226.465 128.023C227.52 128.58 228.438 129.366 229.15 130.324L227.71 127.034Z" fill="#1573FF"/>
<path d="M161 122.184C160.207 120.24 159.579 118.233 159.12 116.184C158.499 114.188 158.044 112.145 157.76 110.074C158.541 112.022 159.166 114.028 159.63 116.074C160.251 118.07 160.709 120.114 161 122.184V122.184Z" fill="#263238"/>
<path d="M197.34 104.584C197.702 104.84 198.037 105.131 198.34 105.454C199.223 106.307 200.052 107.216 200.82 108.174C203.406 111.335 205.223 115.052 206.13 119.034C206.601 121.235 206.705 123.499 206.44 125.734C206.19 127.784 205.8 129.584 205.54 131.104C205.28 132.624 205.12 133.864 205.04 134.724C205.038 135.171 204.991 135.617 204.9 136.054C204.829 135.608 204.809 135.155 204.84 134.704C204.884 133.479 204.998 132.257 205.18 131.044C205.39 129.514 205.74 127.694 205.97 125.684C206.201 123.499 206.083 121.292 205.62 119.144C204.724 115.237 202.987 111.571 200.53 108.404C198.7 105.944 197.26 104.664 197.34 104.584Z" fill="#263238"/>
<path d="M187.16 167.314C186.813 167.469 186.446 167.577 186.07 167.634C185.643 167.747 185.208 167.83 184.77 167.884C184.26 167.954 183.68 168.064 183.03 168.094C181.507 168.234 179.973 168.234 178.45 168.094C176.586 167.903 174.744 167.534 172.95 166.994C171.165 166.42 169.437 165.68 167.79 164.784C166.455 164.039 165.186 163.179 164 162.214C163.48 161.814 163.06 161.394 162.68 161.044C162.352 160.749 162.042 160.435 161.75 160.104C161.472 159.847 161.233 159.55 161.04 159.224C161.11 159.154 162.18 160.354 164.23 161.924C165.428 162.835 166.695 163.651 168.02 164.364C169.649 165.22 171.348 165.932 173.1 166.494C174.864 167.025 176.671 167.4 178.5 167.614C179.994 167.775 181.499 167.822 183 167.754C185.57 167.614 187.14 167.234 187.16 167.314Z" fill="#263238"/>
<path d="M202.55 161.634C202.785 162.086 202.919 162.585 202.94 163.094C203.1 164.313 203.008 165.552 202.67 166.734C202.326 167.943 201.63 169.023 200.67 169.834C199.94 170.444 199.38 170.634 199.35 170.584C199.32 170.534 199.79 170.204 200.42 169.584C201.229 168.741 201.816 167.71 202.13 166.584C202.93 163.944 202.36 161.644 202.55 161.634Z" fill="#263238"/>
<path d="M199.84 165.154C200.057 166.183 199.97 167.252 199.59 168.232C199.21 169.212 198.554 170.061 197.7 170.674C197.59 170.564 198.52 169.574 199.1 168.044C199.68 166.514 199.69 165.164 199.84 165.154Z" fill="#263238"/>
<path d="M190.92 132.254C190.39 133.15 189.795 134.006 189.14 134.814C188.623 135.717 188.038 136.58 187.39 137.394C187.582 136.339 188.036 135.349 188.71 134.514C189.243 133.585 190.004 132.808 190.92 132.254V132.254Z" fill="#263238"/>
<path d="M156.7 108.034C155.938 107.587 155.2 107.099 154.49 106.574C150.934 104.238 146.897 102.73 142.68 102.164C141.797 102.1 140.919 101.983 140.05 101.814C140.936 101.692 141.834 101.692 142.72 101.814C147.052 102.184 151.202 103.729 154.72 106.284C155.458 106.773 156.124 107.362 156.7 108.034Z" fill="#263238"/>
<path d="M209.29 92.1741C207.5 93.6154 205.828 95.1971 204.29 96.9041C202.874 98.726 201.606 100.659 200.5 102.684C200.618 102.003 200.852 101.347 201.19 100.744C201.914 99.2447 202.821 97.8407 203.89 96.5641C204.962 95.2902 206.192 94.1578 207.55 93.1941C208.067 92.7564 208.656 92.4114 209.29 92.1741Z" fill="#263238"/>
<path d="M188.71 83.9341C188.801 84.0783 188.875 84.2327 188.93 84.3941C189.125 84.847 189.282 85.3152 189.4 85.7941C189.822 87.5762 189.822 89.432 189.4 91.2141C188.778 93.8744 187.353 96.2794 185.32 98.1041C182.753 100.278 179.483 101.444 176.12 101.384C172.754 101.396 169.474 100.319 166.77 98.3141C164.615 96.6691 162.867 94.5513 161.66 92.1241C160.847 90.4989 160.274 88.7641 159.96 86.9741C159.868 86.4919 159.808 86.0042 159.78 85.5141C159.752 85.3419 159.752 85.1663 159.78 84.9941C159.78 84.9941 159.89 85.6941 160.17 86.9341C160.559 88.6736 161.174 90.3546 162 91.9341C163.22 94.2882 164.952 96.3386 167.07 97.9341C169.676 99.8637 172.828 100.914 176.07 100.934C179.312 100.994 182.467 99.8864 184.96 97.8141C186.924 96.0563 188.318 93.7507 188.96 91.1941C189.405 89.4684 189.466 87.6661 189.14 85.9141C188.95 84.5941 188.65 83.9541 188.71 83.9341Z" fill="#263238"/>
<g opacity="0.3">
<path opacity="0.3" d="M192.21 134.024C192.21 133.524 192.13 132.934 191.69 132.684C191.55 132.614 191.396 132.577 191.24 132.577C191.084 132.577 190.93 132.614 190.79 132.684C190.51 132.835 190.262 133.039 190.06 133.284C188.884 134.508 187.975 135.961 187.39 137.554L192.29 137.124C192.26 136.114 192.24 135.054 192.21 134.024Z" fill="black"/>
</g>
<g opacity="0.3">
<path opacity="0.3" d="M208.48 123.714C207.987 120.91 206.759 118.287 204.92 116.114C207.04 123.034 206.33 126.944 205.14 131.684L205.4 131.024C206.77 128.254 208.85 126.514 208.48 123.714Z" fill="black"/>
</g>
<path d="M198.69 356.174L195.7 401.024L176.2 400.794L173.13 354.164L198.69 356.174Z" fill="#FFBE9D"/>
<path d="M196.25 395.124V396.424C196.25 396.424 218.25 405.264 218.46 409.424L174.77 409.184L175.45 394.654C181.96 397.704 188.77 398.084 196.25 395.124Z" fill="#1573FF"/>
<path d="M179.88 399.314C179.465 399.439 179.111 399.712 178.882 400.08C178.654 400.448 178.568 400.887 178.64 401.314C178.747 401.741 179.015 402.109 179.388 402.342C179.761 402.575 180.21 402.655 180.64 402.564C181.085 402.431 181.465 402.137 181.705 401.74C181.945 401.343 182.029 400.87 181.94 400.414C181.782 399.982 181.461 399.629 181.047 399.429C180.632 399.23 180.157 399.199 179.72 399.344" fill="white"/>
<path d="M174.77 409.184L174.93 405.694L216.77 407.214C216.77 407.214 218.71 408.074 218.48 409.434L174.77 409.184Z" fill="#263238"/>
<path d="M196.41 396.544C196.41 396.754 195.33 396.844 194.28 397.544C193.23 398.244 192.66 399.114 192.47 399.034C192.28 398.954 192.6 397.714 193.89 396.914C195.18 396.114 196.46 396.314 196.41 396.544Z" fill="#263238"/>
<path d="M200.98 398.464C201.03 398.674 200.1 399.024 199.37 399.924C198.64 400.824 198.43 401.774 198.21 401.764C197.99 401.754 197.87 400.544 198.8 399.454C199.73 398.364 200.97 398.314 200.98 398.464Z" fill="#263238"/>
<path d="M203.55 403.964C203.35 403.964 203.06 402.964 203.62 401.774C204.18 400.584 205.17 400.154 205.26 400.324C205.35 400.494 204.73 401.124 204.26 402.094C203.79 403.064 203.77 403.944 203.55 403.964Z" fill="#263238"/>
<path d="M195.13 28.1641C196.26 25.3641 194.89 21.9741 192.46 20.1641C189.899 18.4782 186.776 17.8709 183.77 18.4741C180.804 19.096 177.933 20.1046 175.23 21.4741C173.973 20.2065 172.389 19.3131 170.653 18.8939C168.918 18.4746 167.101 18.5459 165.403 19.0999C163.706 19.6538 162.197 20.6685 161.043 22.0307C159.889 23.3929 159.137 25.0491 158.87 26.8141C157.789 26.542 156.654 26.5694 155.587 26.8933C154.52 27.2173 153.562 27.8257 152.814 28.6531C152.067 29.4806 151.559 30.4959 151.345 31.5901C151.131 32.6843 151.219 33.8161 151.6 34.8641L165.12 39.6141L179.88 65.6141C182.061 67.4752 184.845 68.479 187.712 68.4384C190.58 68.3978 193.334 67.3154 195.462 65.3933C197.589 63.4712 198.945 60.8406 199.276 57.9924C199.607 55.1442 198.89 52.2728 197.26 49.9141C198.087 49.1787 198.789 48.3141 199.34 47.3541C200.519 46.6566 201.549 45.7316 202.367 44.6329C203.186 43.5342 203.779 42.2837 204.11 40.9541C205.42 35.1641 200.94 28.8441 195.13 28.1641Z" fill="#263238"/>
<path d="M186.18 82.3141C185.34 78.0841 184.76 75.1841 184.77 75.2141C184.78 75.2441 192.77 72.1141 192.19 60.9841C191.91 55.4441 189.8 46.7141 187.84 39.6341C186.08 33.2541 180.13 26.2241 173.84 28.2541L154.77 37.5541C152.86 38.1741 152.53 39.9741 152.98 41.9241V42.9241L160.39 73.5841L163.52 87.2841C164.187 90.0972 165.883 92.5586 168.275 94.1836C170.666 95.8086 173.579 96.4795 176.44 96.0641C178.003 95.8443 179.504 95.3076 180.851 94.4867C182.199 93.6658 183.365 92.5782 184.277 91.2906C185.189 90.003 185.828 88.5425 186.155 86.9989C186.483 85.4553 186.491 83.8611 186.18 82.3141V82.3141Z" fill="#FFBE9D"/>
<path d="M187.77 47.0341C187.85 47.3889 187.791 47.761 187.605 48.0736C187.419 48.3862 187.12 48.6155 186.77 48.7141C186.593 48.7635 186.408 48.7765 186.227 48.7526C186.045 48.7286 185.87 48.6681 185.712 48.5747C185.554 48.4812 185.416 48.3568 185.308 48.209C185.199 48.0611 185.122 47.8927 185.08 47.7141C185 47.3606 185.059 46.9898 185.246 46.6789C185.432 46.3679 185.731 46.1406 186.08 46.0441C186.256 45.9932 186.441 45.9786 186.622 46.0013C186.804 46.024 186.98 46.0834 187.138 46.176C187.296 46.2687 187.433 46.3925 187.542 46.54C187.651 46.6876 187.728 46.8557 187.77 47.0341V47.0341Z" fill="#263238"/>
<path d="M186.9 44.9041C186.76 45.1241 185.55 44.5741 184.07 44.9041C182.59 45.2341 181.65 46.1941 181.45 46.0441C181.25 45.8941 181.45 45.6141 181.86 45.1741C182.41 44.5927 183.126 44.1947 183.91 44.0341C184.684 43.8673 185.49 43.955 186.21 44.2841C186.77 44.5141 186.96 44.8141 186.9 44.9041Z" fill="#263238"/>
<path d="M173.25 50.3141C173.33 50.6677 173.271 51.0384 173.084 51.3494C172.898 51.6603 172.599 51.8876 172.25 51.9841C172.077 52.0344 171.896 52.0499 171.718 52.0298C171.539 52.0096 171.366 51.9543 171.209 51.8668C171.052 51.7794 170.913 51.6617 170.802 51.5205C170.691 51.3792 170.608 51.2173 170.56 51.0441C170.48 50.6893 170.539 50.3172 170.725 50.0046C170.911 49.692 171.21 49.4628 171.56 49.3641C171.733 49.314 171.915 49.2989 172.094 49.3197C172.273 49.3405 172.447 49.3967 172.604 49.4851C172.761 49.5735 172.899 49.6924 173.01 49.8347C173.121 49.977 173.203 50.14 173.25 50.3141Z" fill="#263238"/>
<path d="M172.52 48.4341C172.39 48.6541 171.17 48.0941 169.69 48.4341C168.21 48.7741 167.27 49.7141 167.07 49.5741C166.87 49.4341 167.07 49.1441 167.48 48.6941C168.033 48.118 168.748 47.7238 169.53 47.5641C170.303 47.3998 171.108 47.4838 171.83 47.8041C172.36 48.0441 172.59 48.3141 172.52 48.4341Z" fill="#263238"/>
<path d="M180.05 57.8341C180.783 57.4296 181.562 57.1141 182.37 56.8941C182.74 56.7741 183.09 56.6241 183.1 56.3541C183.048 55.9564 182.877 55.5836 182.61 55.2841L180.88 52.6241C178.46 48.8341 176.62 45.6941 176.77 45.6241C176.92 45.5541 179.01 48.5241 181.43 52.3141L183.12 54.9941C183.452 55.4043 183.632 55.9165 183.63 56.4441C183.6 56.588 183.539 56.7235 183.451 56.841C183.363 56.9585 183.25 57.0552 183.12 57.1241C182.924 57.2277 182.716 57.305 182.5 57.3541C181.709 57.6249 180.885 57.7864 180.05 57.8341Z" fill="#263238"/>
<path d="M184.77 75.2141C179.712 76.3572 174.436 76.0734 169.53 74.3941C169.53 74.3941 174.77 81.2341 185.34 77.9641L184.77 75.2141Z" fill="#EB996E"/>
<path d="M172.77 46.3141C172.67 46.7441 171.14 46.7341 169.4 47.1641C167.66 47.5941 166.28 48.2441 166 47.9041C165.88 47.7441 166.08 47.3241 166.61 46.9041C167.314 46.3109 168.151 45.8958 169.05 45.6941C169.941 45.4827 170.869 45.4827 171.76 45.6941C172.47 45.8241 172.84 46.1141 172.77 46.3141Z" fill="#263238"/>
<path d="M186.33 40.1841C186.09 40.5841 184.81 40.4841 183.33 40.7741C181.85 41.0641 180.68 41.5641 180.33 41.2741C180.17 41.1241 180.33 40.7441 180.76 40.2741C181.42 39.7188 182.218 39.3525 183.07 39.2141C183.907 39.0454 184.775 39.1076 185.58 39.3941C186.19 39.6741 186.43 39.9841 186.33 40.1841Z" fill="#263238"/>
<path d="M159.48 30.3941C159.701 31.4774 160.158 32.4987 160.819 33.3854C161.479 34.272 162.327 35.0024 163.302 35.5245C164.276 36.0467 165.354 36.3478 166.458 36.4065C167.562 36.4652 168.666 36.28 169.69 35.8641C171.27 35.2241 172.91 34.0241 174.51 34.6041C176.11 35.1841 176.77 37.4641 178.3 38.3141C180.55 39.5741 183.3 37.3941 185.81 37.6141C187.81 37.7841 189.32 39.3141 190.87 40.6141C192.42 41.9141 194.56 42.8941 196.31 41.9541C195.909 40.2841 195.315 38.6665 194.54 37.1341C193.758 35.5914 192.464 34.3683 190.88 33.6741C190 33.3241 189.05 33.2041 188.21 32.7741C186.4 31.8541 185.59 29.7741 184.28 28.2041C183.42 27.2147 182.336 26.4447 181.119 25.9577C179.901 25.4708 178.585 25.281 177.28 25.4041C175.12 25.6241 173.07 26.7141 170.89 26.6241C169.28 26.5541 167.74 25.8341 166.13 25.8641C163 25.8641 160.65 28.6641 158.91 31.2741" fill="#263238"/>
<path d="M170.02 32.6841C168.58 32.5741 165.64 32.2741 164.67 31.2541C163.685 30.1519 162.427 29.3279 161.023 28.8646C159.619 28.4013 158.118 28.3149 156.67 28.6141C155.233 29.0424 153.972 29.9207 153.072 31.1197C152.172 32.3186 151.68 33.7749 151.67 35.2741C149.92 35.7011 148.318 36.5927 147.033 37.8547C145.749 39.1168 144.828 40.7024 144.37 42.4441C143.905 44.2675 143.889 46.1766 144.324 48.0073C144.76 49.8381 145.633 51.5356 146.87 52.9541C147.471 53.7053 148.019 54.4972 148.51 55.3241C147.832 56.1653 147.236 57.0694 146.73 58.0241C144.44 63.0841 150.65 65.0241 150.65 65.0241C150.65 68.4241 153.8 68.4041 155.81 68.3941C157.82 68.3841 158.93 73.7541 160.5 73.5441L158.91 56.9741C159.143 57.0647 159.39 57.1121 159.64 57.1141C163.43 57.1841 162.44 50.0041 161.22 48.1141C162.349 46.7084 163.303 45.1705 164.06 43.5341C164.746 41.0327 164.795 38.399 164.2 35.8741C165.47 35.7141 170.64 32.7241 170.02 32.6841Z" fill="#263238"/>
<path d="M159.41 57.8541C159.281 57.3276 159.02 56.8424 158.653 56.4437C158.286 56.045 157.823 55.7458 157.309 55.5741C156.795 55.4023 156.246 55.3636 155.713 55.4616C155.179 55.5595 154.68 55.7909 154.26 56.1341C153.26 56.9941 152.73 58.4341 153.33 60.8441C154.95 67.2841 161.08 64.3341 161.04 64.1541C161 63.9741 160.11 60.5141 159.41 57.8541Z" fill="#FFBE9D"/>
<path d="M158.46 62.2041C158.46 62.2041 158.37 62.3141 158.2 62.4441C157.964 62.6254 157.666 62.7079 157.37 62.6741C156.63 62.5941 155.78 61.6741 155.46 60.5041C155.307 59.9574 155.277 59.384 155.37 58.8241C155.38 58.6066 155.443 58.3948 155.552 58.2068C155.662 58.0187 155.816 57.86 156 57.7441C156.121 57.6787 156.262 57.6578 156.397 57.6852C156.532 57.7126 156.654 57.7865 156.74 57.8941C156.87 58.0441 156.86 58.1841 156.9 58.1941C156.94 58.2041 157.01 58.0441 156.9 57.7941C156.823 57.6458 156.7 57.5265 156.55 57.4541C156.338 57.3685 156.102 57.3685 155.89 57.4541C155.639 57.5734 155.422 57.7542 155.259 57.9797C155.097 58.2052 154.994 58.4682 154.96 58.7441C154.83 59.3739 154.854 60.0256 155.03 60.6441C155.142 61.2248 155.422 61.7596 155.837 62.1812C156.251 62.6029 156.781 62.8927 157.36 63.0141C157.548 63.0217 157.736 62.9871 157.909 62.9127C158.082 62.8383 158.236 62.726 158.36 62.5841C158.49 62.3641 158.49 62.2141 158.46 62.2041Z" fill="#EB996E"/>
<path d="M193.94 48.8641C193.94 48.8641 194.53 48.4141 195.35 47.4141C196.481 45.9732 197.176 44.2379 197.35 42.4141C197.482 41.1691 197.36 39.9102 196.99 38.7141C196.563 37.3421 195.771 36.1117 194.7 35.1541C193.463 34.0738 191.965 33.3356 190.355 33.0129C188.744 32.6901 187.078 32.794 185.52 33.3141C185.22 33.4141 184.94 33.5641 184.66 33.6841C184.38 33.8041 184.13 33.9841 183.87 34.1341L183.47 34.3541V33.9141C183.461 33.1395 183.174 32.3939 182.66 31.8141C182.134 31.2514 181.488 30.814 180.77 30.5341C179.412 29.9681 177.907 29.8559 176.48 30.2141C173.72 30.8441 171.38 32.1041 169.17 32.3641C167.437 32.6653 165.654 32.3087 164.17 31.3641C163.778 31.0947 163.439 30.7557 163.17 30.3641C163.01 30.0941 162.93 29.9441 162.95 29.9341C163.312 30.4279 163.755 30.8572 164.26 31.2041C165.72 32.0469 167.435 32.3345 169.09 32.0141C170.241 31.7975 171.367 31.4623 172.45 31.0141C173.721 30.5061 175.024 30.0818 176.35 29.7441C177.089 29.5652 177.85 29.4878 178.61 29.5141C179.412 29.5565 180.201 29.7393 180.94 30.0541C181.705 30.3808 182.388 30.8725 182.94 31.4941C183.531 32.1711 183.864 33.0354 183.88 33.9341L183.48 33.7141L184.31 33.2341C184.62 33.1141 184.91 32.9541 185.23 32.8441C186.872 32.2818 188.633 32.1642 190.335 32.5032C192.037 32.8422 193.619 33.6257 194.92 34.7741C196.045 35.7923 196.868 37.0999 197.3 38.5541C197.749 40.0954 197.809 41.7238 197.476 43.2941C197.143 44.8645 196.426 46.3279 195.39 47.5541C195.061 47.93 194.688 48.2656 194.28 48.5541C194.18 48.6708 194.065 48.7749 193.94 48.8641Z" fill="#455A64"/>
<path d="M192.64 26.2541C191.983 25.9208 191.283 25.6818 190.56 25.5441C189.733 25.4311 188.891 25.5098 188.1 25.7741C187.075 26.0877 186.184 26.7355 185.57 27.6141L185.32 27.9641L185.17 27.5641C184.648 26.3348 183.807 25.267 182.735 24.4708C181.663 23.6745 180.398 23.1786 179.07 23.0341C176.985 22.9557 174.93 23.5518 173.21 24.7341C171.745 25.6891 170.187 26.4932 168.56 27.1341C167.438 27.5584 166.23 27.7026 165.04 27.5541C164.723 27.4955 164.412 27.4085 164.11 27.2941C163.91 27.2041 163.8 27.1541 163.81 27.1341C163.82 27.1141 164.26 27.2641 165.07 27.3441C166.22 27.416 167.372 27.228 168.44 26.7941C170.021 26.1046 171.537 25.2746 172.97 24.3141C173.855 23.7646 174.793 23.3056 175.77 22.9441C176.844 22.5525 177.992 22.4056 179.13 22.5141C180.548 22.669 181.898 23.2055 183.036 24.0666C184.173 24.9277 185.056 26.0811 185.59 27.4041H185.2C185.888 26.4644 186.87 25.7815 187.99 25.4641C188.841 25.2173 189.738 25.1728 190.61 25.3341C191.162 25.4389 191.69 25.6421 192.17 25.9341C192.341 26.0178 192.499 26.1256 192.64 26.2541V26.2541Z" fill="#455A64"/>
<path d="M179.47 60.7941C179.236 60.5988 178.964 60.4551 178.671 60.3724C178.378 60.2897 178.071 60.2698 177.77 60.3141C177.418 60.3893 177.085 60.5376 176.794 60.7495C176.503 60.9614 176.26 61.2321 176.08 61.5441C176.08 61.5441 176.03 61.5941 176.02 61.6241C175.882 61.8525 175.819 62.1182 175.84 62.3841C175.883 62.6738 175.997 62.9483 176.172 63.1837C176.346 63.4191 176.576 63.6081 176.84 63.7341C177.263 63.9484 177.741 64.0269 178.21 63.9589C178.679 63.8908 179.116 63.6796 179.46 63.3541C179.787 63.0087 179.97 62.5517 179.972 62.0761C179.974 61.6005 179.794 61.1421 179.47 60.7941V60.7941Z" fill="#EB996E"/>
<path d="M179.97 63.9041C179.89 63.9041 179.8 63.6041 179.53 63.1941C179.205 62.6445 178.719 62.2078 178.138 61.9431C177.556 61.6785 176.908 61.5985 176.28 61.7141C175.79 61.7841 175.49 61.9241 175.46 61.8541C175.43 61.7841 175.66 61.5441 176.2 61.3541C176.907 61.1267 177.673 61.1694 178.35 61.4741C179.033 61.7783 179.574 62.3331 179.86 63.0241C180.07 63.5441 180.04 63.8941 179.97 63.9041Z" fill="#263238"/>
<path d="M159.56 65.1441C159.56 65.1441 159.85 65.6441 159.47 66.4041C159.255 66.8589 158.877 67.2159 158.41 67.4041C158.119 67.5083 157.807 67.5436 157.5 67.5072C157.193 67.4707 156.899 67.3636 156.64 67.1941C156.377 67.0341 156.154 66.8155 155.989 66.5553C155.825 66.2951 155.722 66.0004 155.69 65.6941C155.66 65.2002 155.805 64.7114 156.1 64.3141C156.62 63.6541 157.2 63.6341 157.2 63.6941C157.2 63.7541 156.76 63.9241 156.41 64.5241C156.207 64.8602 156.123 65.2545 156.17 65.6441C156.207 65.8723 156.294 66.0898 156.423 66.2814C156.553 66.473 156.722 66.6343 156.92 66.7541C157.115 66.879 157.335 66.9613 157.564 66.9958C157.793 67.0302 158.027 67.016 158.25 66.9541C158.619 66.822 158.938 66.5771 159.16 66.2541C159.55 65.6341 159.48 65.1441 159.56 65.1441Z" fill="#1573FF"/>
<path d="M156.19 64.7541C156.24 64.7541 156.19 65.0941 155.72 65.3141C155.489 65.4101 155.236 65.4379 154.989 65.3944C154.743 65.3508 154.514 65.2378 154.33 65.0685C154.146 64.8992 154.015 64.6807 153.951 64.439C153.887 64.1972 153.894 63.9422 153.97 63.7041C154.068 63.4337 154.255 63.2045 154.5 63.0541C154.91 62.8041 155.22 62.9041 155.21 62.9641C155.2 63.0241 154.97 63.0941 154.72 63.3441C154.597 63.4978 154.522 63.6844 154.505 63.8804C154.487 64.0765 154.528 64.2734 154.622 64.4464C154.716 64.6194 154.859 64.7608 155.033 64.8529C155.207 64.945 155.404 64.9837 155.6 64.9641C155.94 64.8941 156.12 64.7141 156.19 64.7541Z" fill="#1573FF"/>
<path d="M167.18 153.564C167.18 153.564 191.94 155.004 206.58 155.134C217.91 155.244 222.97 152.234 225.23 144.944C227.13 138.834 223.05 127.104 223.05 127.104C215.38 127.104 210.65 128.204 205.72 130.514L207.03 135.874L167.11 139.314L167.18 153.564Z" fill="#FFBE9D"/>
<path d="M215.35 141.594C214.276 140.198 213.022 138.95 211.62 137.884C210.116 136.964 208.495 136.251 206.8 135.764C207.334 135.687 207.878 135.735 208.39 135.904C209.648 136.201 210.841 136.727 211.91 137.454C212.981 138.184 213.906 139.106 214.64 140.174C215.2 140.994 215.41 141.564 215.35 141.594Z" fill="#EB996E"/>
<path d="M158.12 130.474C158.12 130.474 150.46 132.314 144.83 136.074L150.83 152.334C152.83 157.674 158.94 160.334 163.83 157.534C171.36 153.224 174.02 140.664 174.02 140.664L182.29 104.784L168.58 96.1941L158.17 130.474" fill="#FFBE9D"/>
<path d="M168.53 96.1941L169.09 84.3941L166.02 72.3941C165.85 71.7341 165.77 70.9041 166.31 70.5041C166.578 70.2988 166.908 70.1925 167.246 70.2035C167.583 70.2144 167.906 70.3418 168.16 70.5641C168.99 71.4241 172.99 81.9141 172.99 81.9141C172.99 81.9141 179.06 78.2741 180.14 78.0941C181.22 77.9141 182.57 81.1841 182.66 81.4341C182.7 82.1669 182.7 82.9013 182.66 83.6341C182.66 83.6341 186.41 83.7441 186.75 84.2541C187.023 85.296 187.167 86.3672 187.18 87.4441C187.18 87.4441 188.77 87.9541 189.02 89.1541C189.27 90.3541 189.79 92.3341 189.02 92.7741C188.25 93.2141 186.69 94.0741 186.69 94.0741C186.69 94.0741 186.06 100.194 185.89 100.754C185.72 101.314 182.21 104.754 182.21 104.754L168.53 96.1941Z" fill="#FFBE9D"/>
<path d="M155.77 157.774C155.77 157.774 156.14 157.994 156.92 158.244C158.061 158.602 159.267 158.698 160.45 158.524C162.35 158.253 164.13 157.433 165.57 156.164C167.473 154.437 169.081 152.41 170.33 150.164C171.065 148.844 171.684 147.462 172.18 146.034C172.7 144.463 173.131 142.864 173.47 141.244C174.25 137.874 175.1 134.244 176 130.384C177.8 122.674 179.82 114.054 182 104.764V104.694H182.05C182.74 104.014 183.43 103.324 184.12 102.604C184.46 102.244 184.8 101.884 185.12 101.514C185.28 101.324 185.45 101.134 185.58 100.944C185.681 100.756 185.739 100.548 185.75 100.334C186.02 98.3341 186.23 96.2641 186.45 94.1741V94.0441L186.57 93.9841L188.48 92.9141C188.62 92.8241 188.84 92.7241 188.93 92.6441C189.026 92.5576 189.089 92.4413 189.11 92.3141C189.157 91.9824 189.157 91.6458 189.11 91.3141C189.013 90.5808 188.863 89.8555 188.66 89.1441C188.32 88.522 187.749 88.0587 187.07 87.8541L186.9 87.7941V87.6241C186.9 87.0441 186.84 86.4441 186.77 85.8541C186.743 85.5586 186.699 85.2648 186.64 84.9741C186.617 84.846 186.576 84.7215 186.52 84.6041C186.52 84.5341 186.52 84.6041 186.46 84.5441C186.406 84.5156 186.349 84.4922 186.29 84.4741C185.087 84.212 183.861 84.0746 182.63 84.0641H182.37V83.8041C182.37 83.1841 182.37 82.4941 182.37 81.8041C182.329 81.5688 182.248 81.3422 182.13 81.1341C182.03 80.8941 181.91 80.6641 181.79 80.4241C181.556 79.9609 181.282 79.5192 180.97 79.1041C180.829 78.9106 180.656 78.7417 180.46 78.6041C180.387 78.5428 180.298 78.5044 180.204 78.4937C180.11 78.483 180.014 78.5006 179.93 78.5441C179.446 78.7294 178.975 78.9466 178.52 79.1941C176.66 80.1941 174.84 81.1941 173.06 82.2741L172.8 82.4341L172.69 82.1541C171.75 79.7841 170.81 77.4441 169.89 75.1541C169.43 74.0041 168.98 72.8541 168.52 71.7241C168.449 71.471 168.308 71.2429 168.114 71.066C167.919 70.8892 167.679 70.7707 167.42 70.7241C167.181 70.6448 166.922 70.6491 166.686 70.7363C166.45 70.8235 166.25 70.9885 166.12 71.2041C165.995 71.4186 165.943 71.6675 165.97 71.9141C165.97 72.1341 166.11 72.4741 166.17 72.7441C166.33 73.3241 166.48 73.8941 166.63 74.4641C166.93 75.6141 167.22 76.7441 167.52 77.8641C168.107 80.1174 168.683 82.3174 169.25 84.4641V84.5341C169.05 88.6408 168.86 92.5741 168.68 96.3341V96.3141L159.57 125.954L157 134.204C156.7 135.134 156.47 135.864 156.31 136.374C156.15 136.884 156.05 137.104 156.05 137.104C156.05 137.104 156.1 136.844 156.24 136.354L156.87 134.164C157.45 132.234 158.28 129.444 159.33 125.884C161.49 118.724 164.56 108.504 168.27 96.1841V96.2341C168.443 92.4874 168.62 88.5541 168.8 84.4341V84.5041C168.23 82.3541 167.64 80.1541 167.05 77.9141L166.15 74.5141C166 73.9441 165.85 73.3641 165.69 72.7941C165.604 72.4947 165.534 72.1909 165.48 71.8841C165.443 71.537 165.517 71.1871 165.69 70.8841C165.875 70.5722 166.161 70.3324 166.5 70.2041C166.836 70.1059 167.191 70.0947 167.532 70.1717C167.873 70.2487 168.189 70.4113 168.45 70.6441C168.701 70.8795 168.887 71.1758 168.99 71.5041L170.36 74.9341C171.29 77.2341 172.22 79.5741 173.17 81.9341L172.8 81.8041C174.59 80.7441 176.39 79.6841 178.29 78.6941C178.77 78.4431 179.264 78.2194 179.77 78.0241C179.928 77.9584 180.1 77.9343 180.27 77.9541C180.441 77.9788 180.605 78.0402 180.75 78.1341C180.991 78.3069 181.203 78.516 181.38 78.7541C181.714 79.1917 182.006 79.6605 182.25 80.1541C182.38 80.4041 182.5 80.6441 182.61 80.8941C182.752 81.1589 182.847 81.4466 182.89 81.7441C182.89 82.4541 182.89 83.1141 182.89 83.7441L182.64 83.4741C183.925 83.4827 185.206 83.6302 186.46 83.9141C186.546 83.9442 186.63 83.981 186.71 84.0241C186.82 84.084 186.91 84.1742 186.97 84.2841C187.048 84.4464 187.105 84.6177 187.14 84.7941C187.2 85.1141 187.24 85.4141 187.28 85.7241C187.34 86.3341 187.38 86.9341 187.41 87.5341L187.23 87.2941C187.639 87.4141 188.019 87.616 188.348 87.8877C188.676 88.1593 188.945 88.4949 189.14 88.8741C189.359 89.634 189.52 90.4096 189.62 91.1941C189.689 91.5945 189.689 92.0038 189.62 92.4041C189.576 92.6466 189.449 92.8661 189.26 93.0241C189.096 93.1339 188.926 93.2341 188.75 93.3241L186.85 94.3141L186.98 94.1241C186.75 96.2141 186.54 98.2641 186.26 100.294L186.2 100.684C186.177 100.842 186.111 100.991 186.01 101.114C185.863 101.333 185.699 101.54 185.52 101.734C185.18 102.114 184.84 102.484 184.52 102.844C183.83 103.564 183.14 104.254 182.44 104.934L182.51 104.814C180.31 114.094 178.27 122.714 176.44 130.424C175.53 134.274 174.66 137.904 173.86 141.264C173.518 142.896 173.077 144.506 172.54 146.084C172.025 147.525 171.39 148.92 170.64 150.254C169.363 152.529 167.717 154.577 165.77 156.314C164.287 157.591 162.461 158.405 160.52 158.654C159.312 158.816 158.082 158.693 156.93 158.294C156.637 158.186 156.353 158.056 156.08 157.904L155.77 157.774Z" fill="#EB996E"/>
<path d="M182.67 83.6641C182.67 83.7341 182.33 83.7741 181.8 83.7941C181.127 83.8069 180.457 83.8873 179.8 84.0341C179.166 84.19 178.581 84.5029 178.1 84.9441C177.74 85.2841 177.58 85.5741 177.5 85.5441C177.42 85.5141 177.5 85.1541 177.83 84.6941C178.296 84.1118 178.944 83.7032 179.67 83.5341C180.37 83.3616 181.097 83.3276 181.81 83.4341C182.35 83.5041 182.67 83.5941 182.67 83.6641Z" fill="#EB996E"/>
<path d="M179.77 83.7741C179.64 83.7241 179.63 83.4141 179.77 83.0841C179.91 82.7541 180.11 82.5241 180.24 82.5741C180.37 82.6241 180.39 82.9341 180.24 83.2641C180.09 83.5941 179.87 83.8241 179.77 83.7741Z" fill="#EB996E"/>
<path d="M187.35 87.4041C186.379 87.7044 185.366 87.843 184.35 87.8141C184.03 87.8034 183.713 87.8696 183.424 88.0071C183.135 88.1445 182.883 88.3493 182.69 88.6041C182.43 89.0141 182.52 89.3541 182.44 89.3741C182.36 89.3941 182.12 89.0441 182.37 88.4441C182.508 88.1063 182.759 87.827 183.08 87.6541C183.45 87.451 183.859 87.3283 184.28 87.2941C185.301 87.1378 186.343 87.1751 187.35 87.4041V87.4041Z" fill="#EB996E"/>
<path d="M186.69 91.0041C186.83 91.0041 186.91 91.7441 186.87 92.6541C186.83 93.5641 186.68 94.2841 186.54 94.2841C186.4 94.2841 186.31 93.5341 186.35 92.6241C186.39 91.7141 186.54 90.9941 186.69 91.0041Z" fill="#EB996E"/>
<path d="M190.84 117.934L191.73 114.874C191.771 114.734 191.847 114.607 191.952 114.505C192.057 114.404 192.186 114.331 192.327 114.295C192.469 114.259 192.617 114.26 192.758 114.298C192.898 114.337 193.027 114.411 193.13 114.514L194.3 115.704L195.02 112.814C195.062 112.647 195.155 112.497 195.285 112.385C195.416 112.272 195.578 112.202 195.749 112.185C195.92 112.168 196.093 112.203 196.243 112.287C196.394 112.371 196.515 112.499 196.59 112.654L198.22 116.074L190.84 117.934Z" fill="white"/>
<path d="M198.24 117.384C197.121 117.925 195.934 118.308 194.71 118.524C193.527 118.911 192.294 119.126 191.05 119.164C193.352 118.239 195.772 117.64 198.24 117.384V117.384Z" fill="white"/>
<path d="M138.77 100.314C138.77 100.314 138.4 100.694 137.88 101.504C137.182 102.658 136.723 103.94 136.53 105.274C136.245 107.261 136.185 109.274 136.35 111.274C136.46 113.544 136.64 116.024 136.92 118.624C137.394 123.064 138.098 127.477 139.03 131.844C139.38 133.524 139.7 134.844 139.92 135.844C140.02 136.264 140.11 136.614 140.18 136.914C140.25 137.214 140.26 137.294 140.26 137.294C140.26 137.294 140.21 137.174 140.14 136.934C140.07 136.694 139.96 136.274 139.85 135.864C139.6 134.934 139.26 133.594 138.85 131.914C137.878 127.549 137.153 123.131 136.68 118.684C136.4 116.084 136.23 113.594 136.13 111.324C135.978 109.322 136.052 107.31 136.35 105.324C136.565 103.972 137.055 102.679 137.79 101.524C138.061 101.079 138.39 100.672 138.77 100.314V100.314Z" fill="white"/>
<path d="M159.82 86.6941L159.59 86.8141L158.93 87.1341C158.36 87.4041 157.53 87.8041 156.54 88.3541C153.959 89.7934 151.453 91.3621 149.03 93.0541C146.17 95.0541 143.64 96.8741 141.79 98.1941L139.6 99.7441L138.99 100.154C138.922 100.208 138.848 100.255 138.77 100.294C138.827 100.227 138.895 100.17 138.97 100.124L139.55 99.6841L141.7 98.0741C143.53 96.7241 146.05 94.8441 148.91 92.8841C151.337 91.1849 153.861 89.6289 156.47 88.2241C157.47 87.6941 158.31 87.3141 158.9 87.0641L159.57 86.7841C159.77 86.7141 159.77 86.6841 159.82 86.6941Z" fill="white"/>
<path d="M207.51 93.2041C207.447 93.1694 207.39 93.1256 207.34 93.0741L206.89 92.6841C206.333 92.2137 205.748 91.7762 205.14 91.3741C203.11 90.0798 200.956 88.991 198.71 88.1241C196.471 87.2372 194.184 86.476 191.86 85.8441C190.96 85.5941 190.24 85.4141 189.73 85.2941L189.16 85.1441C189.091 85.1297 189.023 85.1062 188.96 85.0741H189.17L189.75 85.1841C190.26 85.2841 190.99 85.4441 191.89 85.6741C194.236 86.2664 196.541 87.0113 198.79 87.9041C201.049 88.7708 203.205 89.8842 205.22 91.2241C206.059 91.7918 206.827 92.4564 207.51 93.2041V93.2041Z" fill="white"/>
<path d="M160.1 169.534C159.964 169.51 159.833 169.466 159.71 169.404C159.363 169.251 159.028 169.071 158.71 168.864C158.171 168.541 157.702 168.115 157.327 167.611C156.953 167.107 156.682 166.533 156.53 165.924C156.255 164.694 156.392 163.408 156.92 162.264C157.072 161.909 157.267 161.573 157.5 161.264C157.66 161.054 157.77 160.954 157.78 160.964C157.507 161.391 157.263 161.835 157.05 162.294C156.585 163.418 156.477 164.657 156.74 165.844C157.026 167.016 157.74 168.04 158.74 168.714C159.57 169.314 160.12 169.494 160.1 169.534Z" fill="white"/>
<path d="M156.92 158.704C157.133 159.101 157.291 159.525 157.39 159.964C157.546 160.385 157.641 160.826 157.67 161.274C157.443 160.886 157.281 160.464 157.19 160.024C157.026 159.603 156.935 159.156 156.92 158.704Z" fill="white"/>
<path d="M170.44 382.914L200.94 382.764L200.39 277.314L200.1 170.044L158.77 169.514L151.34 183.514C148.3 189.142 146.362 195.299 145.63 201.654C145.13 206.514 148.77 222.314 150.03 226.314L161.4 262.374L170.44 382.914Z" fill="#263238"/>
<path d="M209.05 170.174L242.57 261.544C244.556 267.431 245.215 273.685 244.501 279.856C243.787 286.028 241.718 291.966 238.44 297.244L199.52 373.244L177.64 345.864L210.2 277.864L181.5 231.314L186.33 170.314L199.85 170.094L209.05 170.174Z" fill="#263238"/>
<path d="M197.32 200.784C197.32 200.784 197.32 200.944 197.32 201.254C197.32 201.564 197.37 202.044 197.41 202.634C197.48 203.864 197.57 205.634 197.69 207.924C197.92 212.554 198.24 219.204 198.69 227.414C199.14 235.624 199.52 245.414 200.02 256.314C200.26 261.754 200.52 267.464 200.78 273.384C200.97 276.384 200.89 279.384 200.92 282.384C200.95 285.384 200.92 288.544 200.92 291.684C200.92 316.814 201 339.564 201.03 356.054C201.03 364.274 201.03 370.934 201.03 375.564C201.03 377.854 201.03 379.634 201.03 380.874C201.03 381.454 201.03 381.874 201.03 382.254C201.03 382.634 201.03 382.724 201.03 382.724C201.03 382.724 201.03 382.564 201.03 382.254V380.874C201.03 379.634 201.03 377.874 200.97 375.564C200.97 370.934 200.89 364.284 200.83 356.064C200.76 339.574 200.67 316.824 200.57 291.694C200.57 288.554 200.57 285.454 200.57 282.394C200.57 279.334 200.63 276.314 200.44 273.394C200.19 267.484 199.94 261.774 199.71 256.334C199.25 245.454 198.83 235.664 198.49 227.424C198.15 219.184 197.9 212.564 197.71 207.934C197.63 205.654 197.57 203.874 197.53 202.634C197.53 202.044 197.53 201.634 197.53 201.254C197.53 200.874 197.32 200.784 197.32 200.784Z" fill="#455A64"/>
<path d="M196.55 171.974C196.667 172.296 196.738 172.633 196.76 172.974C196.87 173.614 196.99 174.544 197.13 175.704C197.39 178.014 197.67 181.224 197.83 184.774C197.99 188.324 198 191.544 197.95 193.874C197.95 195.034 197.88 195.984 197.83 196.634C197.84 196.972 197.8 197.309 197.71 197.634C197.584 196.385 197.541 195.129 197.58 193.874C197.58 191.544 197.47 188.344 197.31 184.794C197.15 181.244 196.93 178.054 196.76 175.794C196.618 174.526 196.548 173.25 196.55 171.974V171.974Z" fill="#455A64"/>
<path d="M189.83 174.034C189.88 174.104 189.31 174.364 189.15 175.174C189.105 175.394 189.117 175.621 189.186 175.835C189.254 176.049 189.376 176.241 189.54 176.394C189.738 176.578 189.984 176.701 190.25 176.749C190.516 176.797 190.79 176.768 191.04 176.664C191.28 176.541 191.48 176.352 191.618 176.121C191.755 175.889 191.826 175.624 191.82 175.354C191.811 175.13 191.744 174.913 191.627 174.722C191.51 174.531 191.346 174.373 191.15 174.264C190.743 174.067 190.29 173.987 189.84 174.034C189.84 174.034 189.94 173.904 190.2 173.824C190.575 173.733 190.97 173.771 191.32 173.934C191.599 174.05 191.841 174.242 192.017 174.487C192.194 174.733 192.299 175.022 192.32 175.324C192.36 175.696 192.282 176.072 192.097 176.397C191.912 176.723 191.63 176.982 191.289 177.139C190.949 177.296 190.569 177.342 190.201 177.271C189.834 177.2 189.497 177.016 189.24 176.744C189.027 176.533 188.877 176.267 188.804 175.976C188.732 175.685 188.741 175.38 188.83 175.094C188.93 174.72 189.156 174.392 189.47 174.164C189.67 174.024 189.82 174.004 189.83 174.034Z" fill="#455A64"/>
<path d="M173.83 172.224C173.977 172.539 174.069 172.878 174.1 173.224C174.261 174.122 174.291 175.038 174.19 175.944C174.046 177.294 173.656 178.605 173.04 179.814C172.295 181.318 171.193 182.616 169.829 183.594C168.466 184.572 166.883 185.201 165.22 185.424C163.889 185.623 162.532 185.572 161.22 185.274C160.332 185.081 159.477 184.761 158.68 184.324C158.379 184.182 158.102 183.993 157.86 183.764C158.965 184.261 160.118 184.647 161.3 184.914C162.722 185.21 164.19 185.207 165.612 184.907C167.033 184.607 168.377 184.015 169.558 183.17C170.739 182.324 171.732 181.243 172.474 179.994C173.216 178.745 173.692 177.356 173.87 175.914C173.987 174.686 173.974 173.449 173.83 172.224Z" fill="#455A64"/>
<path d="M213.07 180.984C212.418 181.059 211.756 180.981 211.14 180.754C209.629 180.278 208.273 179.408 207.21 178.234C206.138 177.065 205.402 175.628 205.08 174.074C204.922 173.44 204.922 172.778 205.08 172.144C205.17 172.144 205.18 172.874 205.48 173.994C205.885 175.441 206.622 176.774 207.633 177.887C208.643 179 209.899 179.861 211.3 180.404C212.34 180.814 213.08 180.884 213.07 180.984Z" fill="#455A64"/>
<path d="M224.98 279.484C224.479 280.056 223.879 280.533 223.21 280.894C222.508 281.34 221.743 281.677 220.94 281.894C219.93 282.162 218.865 282.134 217.87 281.814C216.123 281.155 214.627 279.966 213.59 278.414C213.114 277.831 212.72 277.185 212.42 276.494C212.96 277.009 213.449 277.575 213.88 278.184C214.942 279.592 216.376 280.676 218.02 281.314C218.859 281.538 219.735 281.589 220.595 281.463C221.455 281.338 222.28 281.039 223.02 280.584C223.652 280.18 224.306 279.813 224.98 279.484V279.484Z" fill="#455A64"/>
<path d="M217.34 285.314C216.158 284.09 215.103 282.75 214.19 281.314C213.139 279.977 212.221 278.54 211.45 277.024C212.64 278.244 213.699 279.584 214.61 281.024C215.67 282.353 216.585 283.791 217.34 285.314V285.314Z" fill="#455A64"/>
<path d="M166.1 204.314C165.96 204.364 165.61 203.794 165.3 203.024C164.99 202.254 164.86 201.604 164.99 201.544C165.12 201.484 165.48 202.064 165.78 202.834C166.08 203.604 166.23 204.314 166.1 204.314Z" fill="#FAFAFA"/>
<path d="M185.46 207.094C185.31 207.094 185.2 206.604 185.2 205.994C185.2 205.384 185.31 204.884 185.46 204.884C185.61 204.884 185.72 205.384 185.72 205.994C185.72 206.604 185.6 207.094 185.46 207.094Z" fill="#FAFAFA"/>
<path d="M177.5 217.614C177.36 217.614 177.2 217.014 177.15 216.244C177.1 215.474 177.15 214.854 177.31 214.844C177.47 214.834 177.62 215.444 177.67 216.214C177.72 216.984 177.64 217.604 177.5 217.614Z" fill="#FAFAFA"/>
<path d="M162.96 225.314C162.84 225.404 162.43 225.034 161.89 224.654C161.35 224.274 160.89 223.984 160.89 223.844C160.89 223.704 161.55 223.784 162.16 224.224C162.77 224.664 163.08 225.314 162.96 225.314Z" fill="#FAFAFA"/>
<path d="M188.59 235.124C188.47 235.044 188.59 234.614 188.93 234.124C189.27 233.634 189.58 233.354 189.7 233.434C189.82 233.514 189.7 233.954 189.36 234.434C189.02 234.914 188.71 235.204 188.59 235.124Z" fill="#FAFAFA"/>
<path d="M172.77 237.894C172.63 237.894 172.51 237.064 172.51 236.054C172.51 235.044 172.63 234.204 172.77 234.204C172.91 234.204 173.03 235.034 173.03 236.054C173.03 237.074 172.88 237.894 172.77 237.894Z" fill="#FAFAFA"/>
<path d="M167.59 249.114C167.51 249.224 166.99 248.994 166.43 248.584C165.87 248.174 165.43 247.754 165.56 247.634C165.69 247.514 166.17 247.754 166.73 248.164C167.29 248.574 167.68 248.994 167.59 249.114Z" fill="#FAFAFA"/>
<path d="M183.61 253.014C183.67 253.144 183.35 253.414 182.89 253.624C182.43 253.834 182.01 253.884 181.95 253.754C181.89 253.624 182.22 253.354 182.68 253.144C183.14 252.934 183.56 252.884 183.61 253.014Z" fill="#FAFAFA"/>
<path d="M172.77 271.314C172.65 271.374 172.13 270.604 171.62 269.584C171.11 268.564 170.8 267.684 170.93 267.584C171.06 267.484 171.58 268.294 172.08 269.314C172.58 270.334 172.86 271.204 172.77 271.314Z" fill="#FAFAFA"/>
<path d="M190.44 269.614C190.31 269.544 190.54 268.874 190.94 268.104C191.34 267.334 191.79 266.774 191.94 266.844C192.09 266.914 191.84 267.584 191.43 268.354C191.02 269.124 190.56 269.684 190.44 269.614Z" fill="#FAFAFA"/>
<path d="M182.69 285.104C182.54 285.104 182.56 284.294 182.4 283.354C182.24 282.414 182 281.664 182.14 281.594C182.28 281.524 182.76 282.234 182.92 283.274C183.08 284.314 182.83 285.134 182.69 285.104Z" fill="#FAFAFA"/>
<path d="M174.39 293.954C174.29 294.054 173.79 293.674 173.28 293.114C172.77 292.554 172.44 292.024 172.55 291.924C172.66 291.824 173.15 292.204 173.66 292.764C174.17 293.324 174.5 293.854 174.39 293.954Z" fill="#FAFAFA"/>
<path d="M194.53 297.314C194.43 297.214 194.8 296.674 195.36 296.104C195.92 295.534 196.44 295.164 196.55 295.264C196.66 295.364 196.28 295.914 195.73 296.474C195.18 297.034 194.64 297.414 194.53 297.314Z" fill="#FAFAFA"/>
<path d="M182.95 310.564C182.81 310.564 182.81 309.774 182.95 308.854C183.09 307.934 183.31 307.214 183.46 307.234C183.61 307.254 183.6 308.014 183.46 308.934C183.32 309.854 183.09 310.584 182.95 310.564Z" fill="#FAFAFA"/>
<path d="M175.16 316.994C175.03 317.064 174.59 316.544 174.16 315.834C173.73 315.124 173.51 314.494 173.63 314.424C173.75 314.354 174.19 314.864 174.63 315.574C175.07 316.284 175.28 316.914 175.16 316.994Z" fill="#FAFAFA"/>
<path d="M193.93 325.104C194.02 325.224 193.51 325.734 192.79 326.244C192.07 326.754 191.44 327.074 191.35 326.954C191.26 326.834 191.78 326.324 192.49 325.814C193.2 325.304 193.85 324.994 193.93 325.104Z" fill="#FAFAFA"/>
<path d="M178.29 335.634C178.15 335.584 178.29 334.784 178.42 333.784C178.55 332.784 178.47 331.964 178.62 331.944C178.77 331.924 179.03 332.764 178.93 333.834C178.83 334.904 178.42 335.694 178.29 335.634Z" fill="#FAFAFA"/>
<path d="M184.54 350.754C184.42 350.844 184 350.504 183.59 349.994C183.18 349.484 182.95 348.994 183.06 348.904C183.17 348.814 183.59 349.154 184 349.664C184.41 350.174 184.65 350.664 184.54 350.754Z" fill="#FAFAFA"/>
<path d="M177.71 360.894C177.59 360.974 177.04 360.384 176.48 359.564C175.92 358.744 175.57 358.024 175.68 357.944C175.79 357.864 176.35 358.454 176.91 359.274C177.47 360.094 177.83 360.814 177.71 360.894Z" fill="#FAFAFA"/>
<path d="M196.52 348.164C196.39 348.114 196.4 347.744 196.52 347.344C196.64 346.944 196.91 346.644 197.05 346.694C197.19 346.744 197.17 347.114 197.05 347.524C196.93 347.934 196.66 348.224 196.52 348.164Z" fill="#FAFAFA"/>
<path d="M188.22 372.314C188.09 372.244 188.34 371.534 188.54 370.644C188.74 369.754 188.81 369.004 188.96 368.994C189.11 368.984 189.26 369.794 189.05 370.754C188.84 371.714 188.34 372.394 188.22 372.314Z" fill="#FAFAFA"/>
<path d="M193.62 217.774C193.49 217.834 193.17 217.434 192.91 216.874C192.65 216.314 192.54 215.814 192.67 215.754C192.8 215.694 193.12 216.094 193.38 216.654C193.64 217.214 193.77 217.714 193.62 217.774Z" fill="#FAFAFA"/>
<path d="M179.77 186.634C179.85 186.754 179.15 187.314 178.4 188.114C177.65 188.914 177.14 189.654 177.01 189.584C176.88 189.514 177.22 188.584 178.01 187.764C178.8 186.944 179.67 186.504 179.77 186.634Z" fill="#FAFAFA"/>
<path d="M192.1 186.314C191.95 186.314 191.72 185.744 191.37 185.064C191.02 184.384 190.7 183.824 190.81 183.724C190.92 183.624 191.46 184.064 191.81 184.824C192.16 185.584 192.23 186.234 192.1 186.314Z" fill="#FAFAFA"/>
<path d="M153.6 196.424C153.47 196.364 153.6 195.704 153.91 194.944C154.22 194.184 154.56 193.594 154.7 193.654C154.84 193.714 154.7 194.364 154.39 195.134C154.08 195.904 153.77 196.474 153.6 196.424Z" fill="#FAFAFA"/>
<path d="M154.85 211.524C154.75 211.634 154.18 211.314 153.57 210.804C152.96 210.294 152.57 209.804 152.63 209.684C152.69 209.564 153.3 209.894 153.91 210.404C154.52 210.914 154.94 211.414 154.85 211.524Z" fill="#FAFAFA"/>
<path d="M180.11 174.644C179.98 174.644 179.7 174.324 179.5 173.814C179.3 173.304 179.24 172.814 179.37 172.814C179.5 172.814 179.78 173.134 179.98 173.644C180.18 174.154 180.24 174.594 180.11 174.644Z" fill="#FAFAFA"/>
<path d="M204.3 182.024C204.16 182.024 204.17 181.394 204.3 180.684C204.43 179.974 204.69 179.414 204.83 179.444C204.97 179.474 204.96 180.084 204.83 180.794C204.7 181.504 204.44 182.054 204.3 182.024Z" fill="#FAFAFA"/>
<path d="M209.98 193.454C209.85 193.394 210.03 192.654 210.39 191.784C210.75 190.914 211.14 190.264 211.27 190.314C211.4 190.364 211.27 191.114 210.87 191.984C210.47 192.854 210.12 193.504 209.98 193.454Z" fill="#FAFAFA"/>
<path d="M205.93 202.674C205.8 202.734 205.32 202.044 204.86 201.134C204.4 200.224 204.14 199.414 204.27 199.354C204.4 199.294 204.87 199.984 205.33 200.894C205.79 201.804 206.06 202.604 205.93 202.674Z" fill="#FAFAFA"/>
<path d="M214.59 211.894C214.46 211.844 214.59 211.264 214.81 210.604C215.03 209.944 215.38 209.444 215.52 209.494C215.66 209.544 215.52 210.124 215.3 210.784C215.08 211.444 214.77 211.944 214.59 211.894Z" fill="#FAFAFA"/>
<path d="M206.85 220.924C206.73 221.004 206.42 220.734 206.17 220.334C205.92 219.934 205.8 219.534 205.93 219.454C206.06 219.374 206.35 219.644 206.61 220.054C206.87 220.464 206.97 220.854 206.85 220.924Z" fill="#FAFAFA"/>
<path d="M208.5 239.564C208.4 239.654 207.77 239.164 207.11 238.444C206.45 237.724 206 237.074 206.11 236.974C206.22 236.874 206.84 237.374 207.5 238.094C208.16 238.814 208.61 239.464 208.5 239.564Z" fill="#FAFAFA"/>
<path d="M218.65 228.854C218.54 228.944 217.99 228.444 217.43 227.724C216.87 227.004 216.51 226.364 216.62 226.274C216.73 226.184 217.28 226.694 217.84 227.404C218.4 228.114 218.77 228.774 218.65 228.854Z" fill="#FAFAFA"/>
<path d="M224.22 243.624C224.09 243.564 224.32 242.814 224.73 241.954C225.14 241.094 225.57 240.434 225.73 240.494C225.89 240.554 225.64 241.314 225.23 242.174C224.82 243.034 224.35 243.694 224.22 243.624Z" fill="#FAFAFA"/>
<path d="M212.38 255.784C212.25 255.854 211.79 255.304 211.15 254.714C210.51 254.124 209.92 253.714 209.98 253.564C210.04 253.414 210.8 253.684 211.5 254.334C212.2 254.984 212.5 255.714 212.38 255.784Z" fill="#FAFAFA"/>
<path d="M213.12 268.314C213.12 268.454 212.62 268.574 212.01 268.574C211.4 268.574 210.91 268.454 210.91 268.314C210.91 268.174 211.4 268.054 212.01 268.054C212.62 268.054 213.12 268.174 213.12 268.314Z" fill="#FAFAFA"/>
<path d="M225.29 264.814C225.16 264.744 225.42 264.114 225.61 263.334C225.8 262.554 225.88 261.874 226.03 261.864C226.18 261.854 226.34 262.584 226.12 263.454C225.9 264.324 225.4 264.894 225.29 264.814Z" fill="#FAFAFA"/>
<path d="M237.38 269.024C237.25 269.074 236.88 268.364 236.56 267.454C236.24 266.544 236.09 265.764 236.22 265.724C236.35 265.684 236.73 266.374 237.05 267.284C237.37 268.194 237.52 268.974 237.38 269.024Z" fill="#FAFAFA"/>
<path d="M235.45 286.224C235.33 286.154 235.64 285.314 236.14 284.344C236.64 283.374 237.14 282.644 237.29 282.714C237.44 282.784 237.11 283.624 236.6 284.584C236.09 285.544 235.58 286.314 235.45 286.224Z" fill="#FAFAFA"/>
<path d="M224.42 296.314C224.29 296.364 223.88 295.674 223.5 294.764C223.12 293.854 222.93 293.074 223.07 293.014C223.21 292.954 223.61 293.654 223.98 294.564C224.35 295.474 224.55 296.314 224.42 296.314Z" fill="#FAFAFA"/>
<path d="M212.2 300.224C212.2 300.364 211.78 300.484 211.27 300.484C210.76 300.484 210.35 300.364 210.35 300.224C210.35 300.084 210.77 299.964 211.27 299.964C211.77 299.964 212.2 300.084 212.2 300.224Z" fill="#FAFAFA"/>
<path d="M219.2 316.314C219.07 316.314 218.79 315.764 218.58 315.004C218.37 314.244 218.33 313.584 218.47 313.554C218.61 313.524 218.88 314.104 219.09 314.864C219.3 315.624 219.34 316.234 219.2 316.314Z" fill="#FAFAFA"/>
<path d="M210.35 310.914C210.23 310.844 210.35 310.374 210.68 309.864C211.01 309.354 211.34 309.004 211.46 309.074C211.58 309.144 211.46 309.624 211.13 310.134C210.8 310.644 210.48 310.994 210.35 310.914Z" fill="#FAFAFA"/>
<path d="M210.17 328.624C210.03 328.624 209.83 327.954 209.73 327.084C209.63 326.214 209.66 325.504 209.8 325.484C209.94 325.464 210.14 326.154 210.24 327.024C210.34 327.894 210.31 328.604 210.17 328.624Z" fill="#FAFAFA"/>
</svg>
