<svg width="1098" height="812" viewBox="0 0 1098 812" fill="none" xmlns="http://www.w3.org/2000/svg">
<g clip-path="url(#clip0)">
<g opacity="0.1">
<path opacity="0.1" d="M878.46 575.15C878.46 575.15 800.14 564.98 858.55 691.74C858.55 691.74 911.78 668.93 913.9 617.48C914.331 607.467 911.074 597.644 904.747 589.872C898.42 582.1 889.462 576.919 879.57 575.31L878.46 575.15Z" fill="#FF3F15"/>
<path opacity="0.1" d="M879.61 574.96C879.61 574.96 897.34 645.64 858.61 691.75" stroke="#535461" stroke-miterlimit="10"/>
<path opacity="0.1" d="M857.55 698.28C857.55 698.28 885.75 628.78 938.41 603C960.584 592.328 978.694 574.747 990.02 552.9C995.313 542.494 999.641 531.626 1002.95 520.43" stroke="#535461" stroke-width="2" stroke-miterlimit="10"/>
<path opacity="0.1" d="M1036.04 504C1030.55 510.9 1002.14 521 1002.14 521C1002.14 521 1005.56 491 1011.05 484.15C1012.3 482.362 1013.91 480.849 1015.77 479.704C1017.63 478.56 1019.7 477.807 1021.86 477.494C1024.02 477.181 1026.22 477.313 1028.33 477.882C1030.44 478.452 1032.41 479.447 1034.11 480.805C1035.82 482.164 1037.24 483.858 1038.26 485.783C1039.29 487.708 1039.92 489.824 1040.1 491.999C1040.28 494.175 1040.02 496.364 1039.32 498.433C1038.62 500.502 1037.51 502.407 1036.05 504.03L1036.04 504Z" fill="#FF3F15"/>
<path opacity="0.1" d="M1026.29 558.65C1017.93 561.46 988.61 554.47 988.61 554.47C988.61 554.47 1007.76 531.19 1016.12 528.38C1018.14 527.55 1020.32 527.144 1022.51 527.188C1024.69 527.232 1026.85 527.724 1028.84 528.634C1030.83 529.544 1032.61 530.852 1034.08 532.479C1035.54 534.105 1036.66 536.015 1037.35 538.089C1038.05 540.164 1038.32 542.359 1038.13 544.54C1037.94 546.72 1037.31 548.84 1036.28 550.767C1035.24 552.694 1033.82 554.388 1032.1 555.744C1030.38 557.1 1028.41 558.089 1026.29 558.65Z" fill="#FF3F15"/>
<path opacity="0.1" d="M973.43 623.26C964.8 621.47 943.01 600.63 943.01 600.63C943.01 600.63 971.29 590.2 979.93 591.99C983.84 593.08 987.189 595.614 989.3 599.081C991.411 602.547 992.125 606.686 991.299 610.66C990.473 614.633 988.168 618.145 984.85 620.482C981.532 622.82 977.45 623.809 973.43 623.25V623.26Z" fill="#FF3F15"/>
<path opacity="0.1" d="M922.43 663.14C913.62 662.83 888.62 645.98 888.62 645.98C888.62 645.98 914.74 630.9 923.55 631.22C927.589 631.631 931.321 633.562 933.989 636.622C936.657 639.682 938.063 643.642 937.92 647.699C937.778 651.756 936.099 655.608 933.222 658.473C930.346 661.339 926.488 663.003 922.43 663.13V663.14Z" fill="#FF3F15"/>
<path opacity="0.1" d="M961.31 534.9C962.44 543.65 981.53 566.97 981.53 566.97C981.53 566.97 994.1 539.57 992.98 530.82C992.843 528.635 992.258 526.502 991.263 524.552C990.268 522.602 988.884 520.877 987.195 519.483C985.507 518.09 983.551 517.058 981.447 516.451C979.344 515.844 977.138 515.675 974.967 515.955C972.796 516.235 970.705 516.957 968.824 518.077C966.944 519.197 965.313 520.692 964.032 522.468C962.752 524.243 961.85 526.263 961.382 528.401C960.914 530.54 960.889 532.752 961.31 534.9V534.9Z" fill="#FF3F15"/>
<path opacity="0.1" d="M902.25 582.34C905.94 590.34 931.14 606.89 931.14 606.89C931.14 606.89 934.94 576.98 931.25 568.98C930.464 566.938 929.267 565.079 927.734 563.519C926.201 561.958 924.364 560.728 922.337 559.905C920.31 559.082 918.135 558.683 915.948 558.734C913.76 558.785 911.607 559.284 909.62 560.2C907.633 561.116 905.855 562.429 904.396 564.06C902.937 565.69 901.828 567.602 901.137 569.678C900.446 571.755 900.189 573.95 900.38 576.13C900.572 578.309 901.208 580.426 902.25 582.35V582.34Z" fill="#FF3F15"/>
<path opacity="0.1" d="M851.17 636.28C853.45 644.8 875.5 665.36 875.5 665.36C875.5 665.36 884.3 636.53 882.01 628.01C881.584 625.861 880.722 623.823 879.476 622.021C878.23 620.219 876.628 618.693 874.768 617.535C872.908 616.378 870.83 615.615 868.663 615.294C866.497 614.972 864.287 615.099 862.171 615.666C860.055 616.234 858.079 617.229 856.363 618.592C854.648 619.954 853.231 621.655 852.2 623.587C851.168 625.52 850.545 627.643 850.368 629.827C850.191 632.01 850.464 634.207 851.17 636.28Z" fill="#FF3F15"/>
<path opacity="0.25" d="M1036.04 504C1030.55 510.9 1002.14 521 1002.14 521C1002.14 521 1005.56 491 1011.05 484.15C1012.3 482.362 1013.91 480.849 1015.77 479.704C1017.63 478.56 1019.7 477.807 1021.86 477.494C1024.02 477.181 1026.22 477.313 1028.33 477.882C1030.44 478.452 1032.41 479.447 1034.11 480.805C1035.82 482.164 1037.24 483.858 1038.26 485.783C1039.29 487.708 1039.92 489.824 1040.1 491.999C1040.28 494.175 1040.02 496.364 1039.32 498.433C1038.62 500.502 1037.51 502.407 1036.05 504.03L1036.04 504Z" fill="black"/>
<path opacity="0.25" d="M1026.29 558.65C1017.93 561.46 988.61 554.47 988.61 554.47C988.61 554.47 1007.76 531.19 1016.12 528.38C1018.14 527.55 1020.32 527.144 1022.51 527.188C1024.69 527.232 1026.85 527.724 1028.84 528.634C1030.83 529.544 1032.61 530.852 1034.08 532.479C1035.54 534.105 1036.66 536.015 1037.35 538.089C1038.05 540.164 1038.32 542.359 1038.13 544.54C1037.94 546.72 1037.31 548.84 1036.28 550.767C1035.24 552.694 1033.82 554.388 1032.1 555.744C1030.38 557.1 1028.41 558.089 1026.29 558.65Z" fill="black"/>
<path opacity="0.25" d="M973.43 623.26C964.8 621.47 943.01 600.63 943.01 600.63C943.01 600.63 971.29 590.2 979.93 591.99C983.84 593.08 987.189 595.614 989.3 599.081C991.411 602.547 992.125 606.686 991.299 610.66C990.473 614.633 988.168 618.145 984.85 620.482C981.532 622.82 977.45 623.809 973.43 623.25V623.26Z" fill="black"/>
<path opacity="0.25" d="M922.43 663.14C913.62 662.83 888.62 645.98 888.62 645.98C888.62 645.98 914.74 630.9 923.55 631.22C927.589 631.631 931.321 633.562 933.989 636.622C936.657 639.682 938.063 643.642 937.92 647.699C937.778 651.756 936.099 655.608 933.222 658.473C930.346 661.339 926.488 663.003 922.43 663.13V663.14Z" fill="black"/>
<path opacity="0.25" d="M961.31 534.9C962.44 543.65 981.53 566.97 981.53 566.97C981.53 566.97 994.1 539.57 992.98 530.82C992.843 528.635 992.258 526.502 991.263 524.552C990.268 522.602 988.884 520.877 987.195 519.483C985.507 518.09 983.551 517.058 981.447 516.451C979.344 515.844 977.138 515.675 974.967 515.955C972.796 516.235 970.705 516.957 968.824 518.077C966.944 519.197 965.313 520.692 964.032 522.468C962.752 524.243 961.85 526.263 961.382 528.401C960.914 530.54 960.889 532.752 961.31 534.9V534.9Z" fill="black"/>
<path opacity="0.25" d="M902.25 582.34C905.94 590.34 931.14 606.89 931.14 606.89C931.14 606.89 934.94 576.98 931.25 568.98C930.464 566.938 929.267 565.079 927.734 563.519C926.201 561.958 924.364 560.728 922.337 559.905C920.31 559.082 918.135 558.683 915.948 558.734C913.76 558.785 911.607 559.284 909.62 560.2C907.633 561.116 905.855 562.429 904.396 564.06C902.937 565.69 901.828 567.602 901.137 569.678C900.446 571.755 900.189 573.95 900.38 576.13C900.572 578.309 901.208 580.426 902.25 582.35V582.34Z" fill="black"/>
<path opacity="0.25" d="M851.17 636.28C853.45 644.8 875.5 665.36 875.5 665.36C875.5 665.36 884.3 636.53 882.01 628.01C881.584 625.861 880.722 623.823 879.476 622.021C878.23 620.219 876.628 618.693 874.768 617.535C872.908 616.378 870.83 615.615 868.663 615.294C866.497 614.972 864.287 615.099 862.171 615.666C860.055 616.234 858.079 617.229 856.363 618.592C854.648 619.954 853.231 621.655 852.2 623.587C851.168 625.52 850.545 627.643 850.368 629.827C850.191 632.01 850.464 634.207 851.17 636.28Z" fill="black"/>
<path opacity="0.1" d="M895.11 729.9C895.11 729.9 923.31 660.4 975.97 634.62C998.134 623.94 1016.23 606.356 1027.55 584.51C1032.84 574.104 1037.17 563.236 1040.48 552.04" stroke="#535461" stroke-width="2" stroke-miterlimit="10"/>
<path opacity="0.1" d="M1073.55 535.6C1068.06 542.5 1039.65 552.6 1039.65 552.6C1039.65 552.6 1043.07 522.6 1048.56 515.75C1051.29 512.721 1055.06 510.845 1059.13 510.507C1063.19 510.168 1067.22 511.392 1070.41 513.928C1073.6 516.465 1075.7 520.122 1076.29 524.155C1076.87 528.188 1075.9 532.292 1073.56 535.63L1073.55 535.6Z" fill="#FF3F15"/>
<path opacity="0.1" d="M1063.82 590.25C1055.46 593.06 1026.14 586.07 1026.14 586.07C1026.14 586.07 1045.29 562.79 1053.65 559.98C1057.58 558.938 1061.76 559.43 1065.33 561.356C1068.91 563.282 1071.62 566.497 1072.92 570.349C1074.21 574.202 1073.99 578.402 1072.3 582.098C1070.61 585.794 1067.58 588.709 1063.82 590.25V590.25Z" fill="#FF3F15"/>
<path opacity="0.1" d="M1010.96 654.9C1002.33 653.11 980.54 632.27 980.54 632.27C980.54 632.27 1008.82 621.84 1017.46 623.63C1021.37 624.72 1024.72 627.254 1026.83 630.721C1028.94 634.187 1029.66 638.326 1028.83 642.3C1028 646.273 1025.7 649.785 1022.38 652.122C1019.06 654.46 1014.98 655.449 1010.96 654.89V654.9Z" fill="#FF3F15"/>
<path opacity="0.1" d="M959.95 694.73C951.14 694.42 926.14 677.57 926.14 677.57C926.14 677.57 952.26 662.51 961.07 662.82C965.109 663.231 968.841 665.162 971.509 668.222C974.177 671.282 975.583 675.242 975.44 679.299C975.298 683.357 973.618 687.208 970.742 690.073C967.866 692.939 964.008 694.603 959.95 694.73V694.73Z" fill="#FF3F15"/>
<path opacity="0.1" d="M998.83 566.54C999.96 575.29 1019.05 598.61 1019.05 598.61C1019.05 598.61 1031.62 571.21 1030.5 562.46C1030.36 560.275 1029.78 558.142 1028.78 556.192C1027.79 554.242 1026.4 552.517 1024.72 551.123C1023.03 549.73 1021.07 548.698 1018.97 548.091C1016.86 547.484 1014.66 547.315 1012.49 547.595C1010.32 547.875 1008.23 548.597 1006.34 549.717C1004.46 550.837 1002.83 552.332 1001.55 554.108C1000.27 555.883 999.37 557.903 998.902 560.041C998.434 562.18 998.409 564.392 998.83 566.54V566.54Z" fill="#FF3F15"/>
<path opacity="0.1" d="M939.78 613.9C943.47 621.9 968.67 638.45 968.67 638.45C968.67 638.45 972.47 608.54 968.78 600.54C966.844 596.966 963.62 594.262 959.762 592.979C955.905 591.695 951.704 591.928 948.012 593.63C944.321 595.332 941.415 598.376 939.886 602.142C938.357 605.909 938.319 610.116 939.78 613.91V613.9Z" fill="#FF3F15"/>
<path opacity="0.1" d="M888.7 667.9C890.98 676.42 913.03 696.98 913.03 696.98C913.03 696.98 921.83 668.15 919.54 659.63C918.231 655.787 915.51 652.586 911.928 650.674C908.346 648.763 904.172 648.284 900.251 649.336C896.329 650.387 892.954 652.89 890.81 656.337C888.665 659.784 887.911 663.918 888.7 667.9Z" fill="#FF3F15"/>
</g>
<path opacity="0.1" d="M11.85 429.97C29.21 504.17 65.96 568.31 124.04 599.4C244.74 664.01 516.95 630.69 720.11 592.4C822.76 573.124 915.936 519.866 984.64 441.2L11.85 429.97Z" fill="#FF3F15"/>
<path opacity="0.1" d="M1077.2 80.71H965.73C963.175 80.71 960.724 79.6949 958.917 77.888C957.11 76.081 956.095 73.6304 956.095 71.075C956.095 68.5196 957.11 66.0689 958.917 64.262C960.724 62.4551 963.175 61.44 965.73 61.44H985C982.445 61.44 979.994 60.4249 978.187 58.618C976.38 56.811 975.365 54.3603 975.365 51.805C975.365 49.2496 976.38 46.7989 978.187 44.992C979.994 43.1851 982.445 42.17 985 42.17H971.24C968.685 42.17 966.234 41.1549 964.427 39.348C962.62 37.541 961.605 35.0903 961.605 32.535C961.605 29.9796 962.62 27.5289 964.427 25.722C966.234 23.9151 968.685 22.9 971.24 22.9H1029.42C1016.51 16.9 1001.42 12.63 984.04 10.39C825.4 -9.99001 768.76 3.48999 748.78 17.39C724.13 34.49 696.63 47.07 667.24 53.13C569.35 73.3 386.3 97.6 220.39 45.33C137.93 19.33 76.64 63.25 39.91 136.61H1096.55C1095.17 115.29 1091.04 95.61 1083.46 78.37C1081.72 79.8761 1079.5 80.7067 1077.2 80.71Z" fill="#FF3F15"/>
<path opacity="0.1" d="M2.39003 275.1C-1.88946 318.255 -0.43346 361.787 6.72003 404.56L985.4 440.35C1012.64 409.011 1035.52 374.127 1053.4 336.65L2.39003 275.1ZM389.47 367.45H370.2C372.755 367.45 375.206 368.465 377.013 370.272C378.82 372.079 379.835 374.53 379.835 377.085C379.835 379.64 378.82 382.091 377.013 383.898C375.206 385.705 372.755 386.72 370.2 386.72H258.73C256.175 386.72 253.724 385.705 251.917 383.898C250.11 382.091 249.095 379.64 249.095 377.085C249.095 374.53 250.11 372.079 251.917 370.272C253.724 368.465 256.175 367.45 258.73 367.45H278C275.445 367.45 272.994 366.435 271.187 364.628C269.38 362.821 268.365 360.37 268.365 357.815C268.365 355.26 269.38 352.809 271.187 351.002C272.994 349.195 275.445 348.18 278 348.18H264.24C261.685 348.18 259.234 347.165 257.427 345.358C255.62 343.551 254.605 341.1 254.605 338.545C254.605 335.99 255.62 333.539 257.427 331.732C259.234 329.925 261.685 328.91 264.24 328.91H375.71C378.265 328.91 380.716 329.925 382.523 331.732C384.33 333.539 385.345 335.99 385.345 338.545C385.345 341.1 384.33 343.551 382.523 345.358C380.716 347.165 378.265 348.18 375.71 348.18H389.47C392.025 348.18 394.476 349.195 396.283 351.002C398.09 352.809 399.105 355.26 399.105 357.815C399.105 360.37 398.09 362.821 396.283 364.628C394.476 366.435 392.025 367.45 389.47 367.45Z" fill="#FF3F15"/>
<path opacity="0.1" d="M1096.6 137.28L28.11 163.28C15.12 196.69 6.54999 234.46 2.54999 273.61H1077.88C1084.9 250.612 1090.09 227.096 1093.41 203.28C1096.61 180.27 1097.89 158.01 1096.6 137.28ZM219.47 222.45H200.2C202.755 222.45 205.206 223.465 207.013 225.272C208.82 227.079 209.835 229.53 209.835 232.085C209.835 234.64 208.82 237.091 207.013 238.898C205.206 240.705 202.755 241.72 200.2 241.72H88.73C86.1746 241.72 83.7239 240.705 81.917 238.898C80.1101 237.091 79.095 234.64 79.095 232.085C79.095 229.53 80.1101 227.079 81.917 225.272C83.7239 223.465 86.1746 222.45 88.73 222.45H108C105.445 222.45 102.994 221.435 101.187 219.628C99.3801 217.821 98.365 215.37 98.365 212.815C98.365 210.26 99.3801 207.809 101.187 206.002C102.994 204.195 105.445 203.18 108 203.18H94.24C91.6846 203.18 89.2339 202.165 87.427 200.358C85.6201 198.551 84.605 196.1 84.605 193.545C84.605 190.99 85.6201 188.539 87.427 186.732C89.2339 184.925 91.6846 183.91 94.24 183.91H205.71C208.265 183.91 210.716 184.925 212.523 186.732C214.33 188.539 215.345 190.99 215.345 193.545C215.345 196.1 214.33 198.551 212.523 200.358C210.716 202.165 208.265 203.18 205.71 203.18H219.47C222.025 203.18 224.476 204.195 226.283 206.002C228.09 207.809 229.105 210.26 229.105 212.815C229.105 215.37 228.09 217.821 226.283 219.628C224.476 221.435 222.025 222.45 219.47 222.45V222.45Z" fill="#FF3F15"/>
<path d="M938.68 811.3C938.68 811.3 894.12 566.9 809.15 527.24C737.15 493.61 659.29 470.94 637.15 464.79C633.844 459.465 630.022 454.477 625.74 449.9C595.48 418.31 577.3 418.9 574.36 419.29C572.965 413.025 571.963 406.68 571.36 400.29C571.27 399.29 571.18 398.36 571.1 397.37L571.36 397.24C571.18 395.35 571.02 393.4 570.88 391.39C583.233 384.797 594.605 376.514 604.67 366.78C604.8 367.21 604.91 367.64 605.05 368.08C626.857 349.647 648.213 330.713 669.12 311.28C675.12 305.67 681.42 299.58 683.46 291.67C684.113 288.948 684.366 286.145 684.21 283.35C684.48 277.35 683.06 271.22 682.82 265.14C682.82 264.14 682.93 263.21 683.06 262.26C684.46 252.31 691.38 244.14 697.06 235.79C711.251 214.689 718.658 189.756 718.29 164.33C718.445 152.147 716.76 140.01 713.29 128.33C708.86 113.51 699.64 97.94 684.29 94.7C678.35 93.45 672.18 94.23 666.12 93.84C641.03 92.24 622.25 71.84 602.24 56.89C577.818 38.7321 548.937 27.5225 518.66 24.45C509.21 23.45 499.45 23.38 490.46 26.38C470.27 33.1 458.01 53.85 438.56 62.38C424.18 68.72 407.56 67.69 392.56 72.45C370.23 79.55 351.28 102.45 350.78 125.98C350.78 126.85 350.78 127.72 350.78 128.59C350.78 128.74 350.78 128.89 350.78 129.03C350.53 140.92 354.78 153.03 355.12 165.2C355.12 166.3 355.137 167.403 355.17 168.51C355.06 181.65 353.49 194.83 348.7 207.18C346.12 213.83 342.8 221.53 343.34 228.18C343.04 232.25 343.83 236.07 346.66 239.18L351.49 234.92C349.87 243.687 349.057 252.584 349.06 261.5C349.06 306.44 369.5 346.68 401.74 373.76C401.927 376.753 402.107 379.96 402.28 383.38C403.04 398.2 403.64 416.79 403.47 437.05L356.31 480.4L235.07 535.4C235.07 535.4 124.19 558.82 148.07 714.59L159.47 811.31H260.7L260.47 811.82H410.72L410.81 811.31H768.29L768.22 811.82H782.22V811.31L938.68 811.3ZM575.25 421.77C578.315 428.109 580.727 434.743 582.45 441.57C578.912 435.001 576.297 427.974 574.68 420.69L574.83 420.96L575.25 421.77ZM403.43 441.77C403.43 443.677 403.397 445.6 403.33 447.54L403.09 447.88C403.074 445.822 403.187 443.764 403.43 441.72V441.77Z" fill="#FBFBFB"/>
<path d="M614.8 466.3L594.8 657.3L487.8 691.3C487.8 691.3 348.8 665.3 384.8 590.3C410.41 536.95 409.7 441.61 407.16 391.01C406.16 370.47 404.8 357.3 404.8 357.3C404.8 357.3 586.8 198.3 571.8 341.3C568.9 368.99 568.73 390.64 570.34 407.56C577.09 478 614.8 466.3 614.8 466.3Z" fill="#FDC2CC"/>
<path opacity="0.03" d="M614.8 466.3L594.8 657.3L487.8 691.3C487.8 691.3 348.8 665.3 384.8 590.3C410.41 536.95 409.7 441.61 407.16 391.01C406.16 370.47 404.8 357.3 404.8 357.3C404.8 357.3 586.8 198.3 571.8 341.3C568.9 368.99 568.73 390.64 570.34 407.56C577.09 478 614.8 466.3 614.8 466.3Z" fill="black"/>
<path opacity="0.1" d="M571.8 338.3C568.9 365.99 568.73 387.64 570.34 404.56C544.646 418.587 515.31 424.513 486.187 421.56C457.063 418.606 429.514 406.91 407.16 388.01C406.16 367.47 404.8 354.3 404.8 354.3C404.8 354.3 586.8 195.3 571.8 338.3Z" fill="black"/>
<path d="M500.8 416.31C580.881 416.31 645.8 351.391 645.8 271.31C645.8 191.229 580.881 126.31 500.8 126.31C420.719 126.31 355.8 191.229 355.8 271.31C355.8 351.391 420.719 416.31 500.8 416.31Z" fill="#FDC2CC"/>
<path opacity="0.03" d="M500.8 406.31C580.881 406.31 645.8 341.391 645.8 261.31C645.8 181.229 580.881 116.31 500.8 116.31C420.719 116.31 355.8 181.229 355.8 261.31C355.8 341.391 420.719 406.31 500.8 406.31Z" fill="black"/>
<path opacity="0.1" d="M261.8 659.3C261.8 659.3 308.8 755.3 311.3 811.8Z" fill="black"/>
<path opacity="0.1" d="M773.8 714.31L760.3 811.81H773.8V714.31Z" fill="black"/>
<path opacity="0.1" d="M272.3 811.8L346.8 642.3C346.8 642.3 367.8 602.3 372.8 562.3C377.8 522.3 404.8 459.3 404.8 459.3C404.8 459.3 471.8 374.3 502.8 386.3C533.8 398.3 475.8 443.3 475.8 443.3C475.8 443.3 560.8 476.3 502.8 574.3C444.8 672.3 443.8 654.3 443.8 654.3L415.3 811.8H272.3Z" fill="black"/>
<path d="M270.3 811.8L344.8 642.3C344.8 642.3 365.8 602.3 370.8 562.3C373.98 536.87 386.05 502.14 394.42 480.21C399.883 465.873 407.922 452.656 418.14 441.21C439.8 416.97 479.14 377.88 500.8 386.28C531.8 398.28 473.8 443.28 473.8 443.28C473.8 443.28 558.8 476.28 500.8 574.28C442.8 672.28 441.8 654.28 441.8 654.28L413.3 811.78L270.3 811.8Z" fill="#FDC2CC"/>
<path opacity="0.15" d="M545.3 192.81C546.957 192.81 548.3 191.467 548.3 189.81C548.3 188.153 546.957 186.81 545.3 186.81C543.643 186.81 542.3 188.153 542.3 189.81C542.3 191.467 543.643 192.81 545.3 192.81Z" fill="white"/>
<path opacity="0.15" d="M531.3 198.81C532.957 198.81 534.3 197.467 534.3 195.81C534.3 194.153 532.957 192.81 531.3 192.81C529.643 192.81 528.3 194.153 528.3 195.81C528.3 197.467 529.643 198.81 531.3 198.81Z" fill="white"/>
<path opacity="0.1" d="M397.79 88.58C412.26 83.9 428.32 84.91 442.2 78.69C460.97 70.27 472.8 49.89 492.28 43.29C500.96 40.35 510.38 40.46 519.49 41.4C548.785 44.4488 576.683 55.4718 600.15 73.27C619.46 87.96 637.58 107.99 661.79 109.56C667.64 109.94 673.59 109.17 679.32 110.4C694.16 113.58 703.05 128.87 707.32 143.4C712.26 160.62 713.418 178.704 710.715 196.413C708.012 214.123 701.512 231.038 691.66 246C686.18 254.2 679.5 262.23 678.15 272C676.83 281.58 680.91 291.51 678.53 300.89C676.53 308.66 670.53 314.64 664.69 320.15C644.523 339.223 623.913 357.807 602.86 375.9C591.92 341.14 607.97 303.71 605.47 267.36C604.47 253.2 599.47 237.74 586.98 231.06C575.29 224.82 560.35 228.06 548.52 222.06C535.32 215.41 529.9 199.66 519.92 188.76C502.92 170.16 473.41 167.76 449.64 176.16C425.87 184.56 406.44 201.84 387.64 218.69L353.47 249.34C346.8 241.82 351.86 230.28 355.47 220.88C360.85 206.79 362.03 191.6 361.67 176.64C361.38 164.64 357.24 152.79 357.48 141.11C357.96 118.07 376.24 95.55 397.79 88.58Z" fill="black"/>
<path d="M397.79 75.58C412.26 70.9 428.32 71.91 442.2 65.69C460.97 57.27 472.8 36.89 492.28 30.29C500.96 27.35 510.38 27.46 519.49 28.4C548.785 31.4488 576.683 42.4718 600.15 60.27C619.46 74.96 637.58 94.99 661.79 96.56C667.64 96.94 673.59 96.17 679.32 97.4C694.16 100.58 703.05 115.87 707.32 130.4C712.26 147.62 713.418 165.704 710.715 183.413C708.012 201.123 701.512 218.038 691.66 233C686.18 241.2 679.5 249.23 678.15 259C676.83 268.58 680.91 278.51 678.53 287.89C676.53 295.66 670.53 301.64 664.69 307.15C644.523 326.223 623.913 344.807 602.86 362.9C591.92 328.14 607.97 290.71 605.47 254.36C604.47 240.2 599.47 224.74 586.98 218.06C575.29 211.82 560.35 215.06 548.52 209.06C535.32 202.41 529.9 186.66 519.92 175.76C502.92 157.16 473.41 154.76 449.64 163.16C425.87 171.56 406.44 188.84 387.64 205.69L353.47 236.34C346.8 228.82 351.86 217.28 355.47 207.88C360.85 193.79 362.03 178.6 361.67 163.64C361.38 151.64 357.24 139.79 357.48 128.11C357.96 105.07 376.24 82.55 397.79 75.58Z" fill="#865A61"/>
</g>
<defs>
<clipPath id="clip0">
<rect width="1097.1" height="811.81" fill="white"/>
</clipPath>
</defs>
</svg>
