<svg width="412" height="315" viewBox="0 0 412 315" fill="none" xmlns="http://www.w3.org/2000/svg">
<path d="M212.792 314.483C322.431 314.483 411.312 309.635 411.312 303.653C411.312 297.672 322.431 292.823 212.792 292.823C103.152 292.823 14.2718 297.672 14.2718 303.653C14.2718 309.635 103.152 314.483 212.792 314.483Z" fill="#1573FF"/>
<path opacity="0.3" d="M212.792 314.483C322.431 314.483 411.312 309.635 411.312 303.653C411.312 297.672 322.431 292.823 212.792 292.823C103.152 292.823 14.2718 297.672 14.2718 303.653C14.2718 309.635 103.152 314.483 212.792 314.483Z" fill="white"/>
<path d="M330.112 140.413C330.052 140.413 330.802 136.683 330.882 136.413C331.742 133.753 334.982 129.113 338.112 129.123C338.632 129.138 339.144 129.262 339.613 129.488C340.082 129.714 340.499 130.035 340.835 130.432C341.172 130.829 341.422 131.293 341.567 131.793C341.713 132.293 341.752 132.817 341.682 133.333C341.452 135.543 339.472 137.413 337.682 138.503C335.582 139.813 330.112 140.413 330.112 140.413Z" fill="#1573FF"/>
<path d="M324.042 115.303C326.992 116.363 328.462 121.823 328.362 124.623C328.362 124.863 327.802 128.623 327.752 128.623H327.692C327.922 129.483 328.172 130.413 328.422 131.423C328.862 133.303 329.342 135.423 329.712 137.783C330.141 140.315 330.421 142.869 330.552 145.433C330.711 148.303 330.614 151.181 330.262 154.033C330.256 154.066 330.256 154.1 330.262 154.133C330.652 153.303 331.802 151.003 331.912 150.833C333.452 148.493 337.792 144.833 340.822 145.713C341.318 145.866 341.777 146.122 342.169 146.464C342.56 146.806 342.875 147.226 343.094 147.697C343.313 148.169 343.43 148.681 343.438 149.2C343.447 149.72 343.346 150.235 343.142 150.713C342.342 152.773 339.942 154.063 337.932 154.633C335.662 155.283 330.602 154.513 330.202 154.453C329.775 157.345 329.154 160.205 328.342 163.013C327.875 164.653 327.368 166.293 326.822 167.933C327.172 167.223 327.502 166.593 327.552 166.503C329.092 164.163 333.432 160.503 336.462 161.373C336.959 161.525 337.419 161.78 337.812 162.121C338.204 162.463 338.52 162.883 338.739 163.355C338.958 163.827 339.075 164.34 339.082 164.86C339.089 165.38 338.987 165.895 338.782 166.373C337.982 168.443 335.582 169.723 333.572 170.303C331.562 170.883 327.202 170.303 326.062 170.153C325.852 170.773 325.642 171.403 325.422 172.023C324.422 175.023 323.342 178.023 322.422 180.963C322.092 181.963 321.802 183.043 321.512 184.083C321.832 183.453 322.102 182.923 322.152 182.853C323.682 180.513 328.032 176.853 331.052 177.723C331.548 177.877 332.007 178.132 332.399 178.474C332.791 178.816 333.106 179.235 333.326 179.706C333.546 180.178 333.664 180.689 333.674 181.209C333.683 181.729 333.584 182.244 333.382 182.723C332.582 184.783 330.172 186.073 328.162 186.643C326.152 187.213 322.222 186.713 320.862 186.523C320.592 187.603 320.332 188.673 320.122 189.723C319.992 190.443 319.822 191.133 319.732 191.863C319.642 192.593 319.532 193.303 319.432 194.003C319.292 195.373 319.132 196.793 319.032 198.133C318.952 199.063 318.892 199.953 318.832 200.843C319.142 199.843 319.832 197.783 319.882 197.613C320.992 195.415 322.644 193.536 324.682 192.153C324.793 191.903 324.93 191.665 325.092 191.443C325.375 191.007 325.747 190.635 326.184 190.352C326.62 190.068 327.111 189.88 327.625 189.799C328.139 189.718 328.664 189.746 329.167 189.881C329.669 190.016 330.138 190.255 330.542 190.583C332.922 192.583 332.322 198.263 331.232 200.843C331.172 200.993 330.282 202.563 329.712 203.543C330.142 203.023 330.542 202.543 330.992 201.963C331.862 200.903 332.762 199.863 333.722 198.743L335.192 197.153C335.672 196.603 336.252 196.093 336.782 195.563C338.032 194.353 339.362 193.183 340.732 192.033C339.792 191.273 336.522 188.503 335.582 186.623C334.642 184.743 333.972 182.113 334.952 180.133C335.166 179.658 335.478 179.233 335.868 178.886C336.258 178.539 336.716 178.278 337.214 178.121C337.711 177.963 338.236 177.912 338.754 177.971C339.273 178.03 339.773 178.198 340.222 178.463C342.872 180.123 343.142 185.773 342.452 188.463C342.452 188.633 341.692 190.523 341.282 191.553C342.112 190.873 342.932 190.183 343.792 189.553C346.272 187.633 348.842 185.773 351.392 183.903L353.722 182.173C353.392 181.903 349.432 178.703 348.372 176.603C347.442 174.733 346.762 172.093 347.742 170.103C347.957 169.629 348.27 169.205 348.66 168.859C349.05 168.513 349.508 168.253 350.005 168.095C350.502 167.938 351.026 167.887 351.544 167.945C352.062 168.003 352.562 168.17 353.012 168.433C355.662 170.103 355.932 175.753 355.242 178.433C355.192 178.643 354.162 181.363 353.862 182.043C355.572 180.763 357.262 179.483 358.862 178.153C361.053 176.364 363.124 174.433 365.062 172.373C364.912 172.253 360.762 168.933 359.682 166.773C358.742 164.903 358.072 162.263 359.052 160.283C359.265 159.808 359.576 159.383 359.965 159.036C360.354 158.69 360.811 158.429 361.308 158.271C361.805 158.114 362.329 158.063 362.846 158.121C363.364 158.18 363.863 158.348 364.312 158.613C366.972 160.273 367.242 165.923 366.552 168.613C366.502 168.783 365.722 170.863 365.322 171.843L365.482 171.933C367.378 169.809 369.082 167.52 370.572 165.093C371.402 163.773 372.132 162.463 372.812 161.163C371.972 160.623 368.182 158.163 366.992 156.283C365.802 154.403 364.902 151.983 365.652 149.903C365.813 149.414 366.075 148.963 366.421 148.581C366.766 148.198 367.187 147.892 367.658 147.681C368.128 147.47 368.638 147.36 369.153 147.357C369.668 147.354 370.179 147.458 370.652 147.663C373.482 149.023 374.362 154.613 373.972 157.383C373.972 157.533 373.572 159.043 373.282 160.143C373.572 159.553 373.892 158.953 374.162 158.383C375.162 156.243 376.012 154.223 376.712 152.383C377.112 151.383 377.442 150.383 377.712 149.553C377.162 148.553 375.022 144.703 374.812 142.553C374.602 140.403 374.942 137.763 376.572 136.263C376.944 135.899 377.388 135.616 377.876 135.435C378.364 135.253 378.885 135.176 379.405 135.209C379.925 135.242 380.432 135.385 380.893 135.626C381.354 135.868 381.759 136.205 382.082 136.613C383.962 139.123 382.172 144.483 380.552 146.773C380.412 146.963 377.862 149.773 377.832 149.773V149.713C377.552 150.563 377.252 151.473 376.892 152.453C376.232 154.263 375.452 156.313 374.472 158.453C373.427 160.799 372.249 163.083 370.942 165.293C369.486 167.77 367.812 170.113 365.942 172.293L365.872 172.373C366.652 171.883 368.872 170.613 369.062 170.533C371.642 169.433 377.262 168.803 379.322 171.173C379.652 171.576 379.894 172.043 380.032 172.544C380.17 173.046 380.202 173.571 380.125 174.086C380.047 174.6 379.863 175.093 379.583 175.532C379.304 175.97 378.935 176.346 378.502 176.633C376.692 177.913 373.972 177.633 371.982 177.023C369.732 176.313 365.982 172.883 365.632 172.613C363.682 174.789 361.587 176.83 359.362 178.723C358.062 179.843 356.732 180.923 355.362 181.983C356.052 181.593 356.672 181.243 356.762 181.203C359.332 180.103 364.952 179.473 367.012 181.843C367.343 182.245 367.587 182.712 367.726 183.214C367.865 183.716 367.897 184.241 367.82 184.756C367.742 185.271 367.557 185.764 367.277 186.203C366.996 186.642 366.627 187.017 366.192 187.303C364.392 188.583 361.672 188.303 359.682 187.693C357.692 187.083 354.362 184.203 353.502 183.433L351.932 184.643C349.412 186.573 346.932 188.483 344.482 190.433C343.632 191.123 342.822 191.833 342.002 192.533C342.622 192.183 343.132 191.893 343.222 191.863C345.792 190.753 351.412 190.133 353.472 192.493C353.805 192.894 354.049 193.361 354.19 193.863C354.33 194.365 354.362 194.891 354.285 195.407C354.207 195.922 354.022 196.416 353.74 196.855C353.459 197.293 353.088 197.668 352.652 197.953C350.842 199.233 348.132 198.953 346.142 198.353C344.152 197.753 341.142 195.133 340.142 194.223C339.332 194.973 338.512 195.713 337.762 196.483C337.252 197.013 336.762 197.483 336.262 198.053C335.762 198.623 335.262 199.133 334.822 199.673C333.952 200.733 333.042 201.833 332.212 202.893C331.632 203.623 331.092 204.333 330.552 205.043C331.382 204.353 333.062 203.043 333.212 202.933C335.582 201.453 341.042 199.983 343.442 202.003C343.829 202.352 344.139 202.779 344.351 203.255C344.564 203.731 344.673 204.247 344.673 204.768C344.673 205.29 344.564 205.805 344.351 206.282C344.139 206.758 343.829 207.185 343.442 207.533C341.852 209.063 339.132 209.233 337.072 208.913C334.792 208.553 330.672 205.913 330.162 205.533C329.262 206.713 328.402 207.873 327.602 208.983C324.832 212.813 322.672 216.103 321.192 218.433L321.042 218.663L319.122 217.733C319.222 217.583 319.322 217.443 319.422 217.283C320.972 214.963 323.232 211.683 326.112 207.873C327.022 206.673 328.012 205.403 329.042 204.103C327.97 202.937 326.968 201.708 326.042 200.423C323.832 201.283 319.242 201.323 318.652 201.323C318.562 202.803 318.482 204.243 318.422 205.603C318.222 210.333 318.242 214.273 318.292 217.023V217.353L316.182 216.353C316.182 213.623 316.292 209.913 316.572 205.543C316.662 204.033 316.792 202.423 316.942 200.783C316.352 200.633 311.582 199.403 309.782 197.963C308.152 196.663 306.432 194.543 306.492 192.333C306.486 191.812 306.591 191.296 306.799 190.818C307.007 190.339 307.313 189.911 307.699 189.56C308.084 189.208 308.539 188.943 309.034 188.779C309.529 188.616 310.053 188.56 310.572 188.613C313.682 189.013 316.282 194.033 316.802 196.783C316.802 196.943 316.962 198.783 317.022 199.883C317.092 199.203 317.142 198.553 317.212 197.883C317.352 196.513 317.532 195.143 317.722 193.673C317.832 192.973 317.952 192.263 318.062 191.543C318.172 190.823 318.362 190.083 318.512 189.343C318.892 187.643 319.352 185.933 319.862 184.223C318.662 184.093 314.412 183.593 312.582 182.553C310.752 181.513 308.752 179.673 308.482 177.483C308.397 176.969 308.421 176.442 308.554 175.937C308.687 175.432 308.925 174.961 309.253 174.555C309.58 174.149 309.99 173.817 310.455 173.581C310.921 173.344 311.431 173.209 311.952 173.183C315.082 173.103 318.422 177.673 319.342 180.313C319.402 180.483 319.852 182.453 320.072 183.543C320.392 182.543 320.692 181.483 321.072 180.463C322.072 177.463 323.202 174.523 324.302 171.553C324.642 170.643 324.962 169.733 325.302 168.833C324.872 168.833 319.802 168.303 317.762 167.133C315.952 166.133 313.932 164.253 313.652 162.063C313.57 161.549 313.597 161.023 313.731 160.52C313.865 160.016 314.103 159.547 314.43 159.142C314.758 158.736 315.166 158.404 315.63 158.167C316.093 157.929 316.602 157.792 317.122 157.763C320.262 157.683 323.602 162.253 324.522 164.893C324.592 165.093 325.232 167.893 325.362 168.663C326.082 166.663 326.792 164.663 327.362 162.663C328.207 159.963 328.876 157.211 329.362 154.423C329.162 154.423 323.862 153.923 321.782 152.723C319.962 151.723 317.942 149.843 317.672 147.653C317.59 147.139 317.617 146.613 317.751 146.11C317.885 145.606 318.123 145.137 318.45 144.732C318.778 144.326 319.186 143.994 319.65 143.757C320.113 143.519 320.622 143.382 321.142 143.353C324.272 143.283 327.612 147.843 328.532 150.483C328.592 150.663 329.082 152.823 329.292 153.853H329.472C329.885 151.037 330.045 148.189 329.952 145.343C329.952 143.773 329.802 142.283 329.652 140.823C328.652 140.823 324.112 140.823 322.112 139.963C320.112 139.103 317.982 137.523 317.462 135.373C317.323 134.87 317.292 134.342 317.371 133.826C317.451 133.31 317.638 132.816 317.921 132.377C318.204 131.938 318.577 131.564 319.015 131.279C319.453 130.994 319.946 130.805 320.462 130.723C323.572 130.303 327.392 134.473 328.602 137.003C328.662 137.143 329.182 138.613 329.532 139.683C329.462 139.033 329.392 138.353 329.302 137.733C328.992 135.383 328.552 133.243 328.152 131.363C327.912 130.293 327.682 129.363 327.452 128.433C326.452 127.933 322.532 125.873 321.182 124.203C319.832 122.533 318.652 120.143 319.182 117.993C319.296 117.481 319.518 116.998 319.832 116.578C320.147 116.158 320.547 115.809 321.006 115.554C321.466 115.3 321.974 115.146 322.497 115.103C323.02 115.06 323.547 115.128 324.042 115.303Z" fill="#1573FF"/>
<path d="M380.722 163.633C378.272 163.533 373.372 161.023 373.372 161.013C373.372 161.003 376.002 158.293 376.192 158.143C378.382 156.393 383.642 154.313 386.252 156.043C386.677 156.344 387.035 156.731 387.302 157.179C387.568 157.627 387.737 158.126 387.799 158.644C387.86 159.161 387.812 159.686 387.657 160.184C387.503 160.682 387.245 161.141 386.902 161.533C385.502 163.213 382.812 163.713 380.722 163.633Z" fill="#1573FF"/>
<g opacity="0.5">
<path opacity="0.5" d="M330.112 140.413C330.052 140.413 330.802 136.683 330.882 136.413C331.742 133.753 334.982 129.113 338.112 129.123C338.632 129.138 339.144 129.262 339.613 129.488C340.082 129.714 340.499 130.035 340.835 130.432C341.172 130.829 341.422 131.293 341.567 131.793C341.713 132.293 341.752 132.817 341.682 133.333C341.452 135.543 339.472 137.413 337.682 138.503C335.582 139.813 330.112 140.413 330.112 140.413Z" fill="white"/>
<path opacity="0.5" d="M324.042 115.303C326.992 116.363 328.462 121.823 328.362 124.623C328.362 124.863 327.802 128.623 327.752 128.623H327.692C327.922 129.483 328.172 130.413 328.422 131.423C328.862 133.303 329.342 135.423 329.712 137.783C330.141 140.315 330.421 142.869 330.552 145.433C330.711 148.303 330.614 151.181 330.262 154.033C330.256 154.066 330.256 154.1 330.262 154.133C330.652 153.303 331.802 151.003 331.912 150.833C333.452 148.493 337.792 144.833 340.822 145.713C341.318 145.866 341.777 146.122 342.169 146.464C342.56 146.806 342.875 147.226 343.094 147.697C343.313 148.169 343.43 148.681 343.438 149.2C343.447 149.72 343.346 150.235 343.142 150.713C342.342 152.773 339.942 154.063 337.932 154.633C335.662 155.283 330.602 154.513 330.202 154.453C329.775 157.345 329.154 160.205 328.342 163.013C327.875 164.653 327.368 166.293 326.822 167.933C327.172 167.223 327.502 166.593 327.552 166.503C329.092 164.163 333.432 160.503 336.462 161.373C336.959 161.525 337.419 161.78 337.812 162.121C338.204 162.463 338.52 162.883 338.739 163.355C338.958 163.827 339.075 164.34 339.082 164.86C339.089 165.38 338.987 165.895 338.782 166.373C337.982 168.443 335.582 169.723 333.572 170.303C331.562 170.883 327.202 170.303 326.062 170.153C325.852 170.773 325.642 171.403 325.422 172.023C324.422 175.023 323.342 178.023 322.422 180.963C322.092 181.963 321.802 183.043 321.512 184.083C321.832 183.453 322.102 182.923 322.152 182.853C323.682 180.513 328.032 176.853 331.052 177.723C331.548 177.877 332.007 178.132 332.399 178.474C332.791 178.816 333.106 179.235 333.326 179.706C333.546 180.178 333.664 180.689 333.674 181.209C333.683 181.729 333.584 182.244 333.382 182.723C332.582 184.783 330.172 186.073 328.162 186.643C326.152 187.213 322.222 186.713 320.862 186.523C320.592 187.603 320.332 188.673 320.122 189.723C319.992 190.443 319.822 191.133 319.732 191.863C319.642 192.593 319.532 193.303 319.432 194.003C319.292 195.373 319.132 196.793 319.032 198.133C318.952 199.063 318.892 199.953 318.832 200.843C319.142 199.843 319.832 197.783 319.882 197.613C320.992 195.415 322.644 193.536 324.682 192.153C324.793 191.903 324.93 191.665 325.092 191.443C325.375 191.007 325.747 190.635 326.184 190.352C326.62 190.068 327.111 189.88 327.625 189.799C328.139 189.718 328.664 189.746 329.167 189.881C329.669 190.016 330.138 190.255 330.542 190.583C332.922 192.583 332.322 198.263 331.232 200.843C331.172 200.993 330.282 202.563 329.712 203.543C330.142 203.023 330.542 202.543 330.992 201.963C331.862 200.903 332.762 199.863 333.722 198.743L335.192 197.153C335.672 196.603 336.252 196.093 336.782 195.563C338.032 194.353 339.362 193.183 340.732 192.033C339.792 191.273 336.522 188.503 335.582 186.623C334.642 184.743 333.972 182.113 334.952 180.133C335.166 179.658 335.478 179.233 335.868 178.886C336.258 178.539 336.716 178.278 337.214 178.121C337.711 177.963 338.236 177.912 338.754 177.971C339.273 178.03 339.773 178.198 340.222 178.463C342.872 180.123 343.142 185.773 342.452 188.463C342.452 188.633 341.692 190.523 341.282 191.553C342.112 190.873 342.932 190.183 343.792 189.553C346.272 187.633 348.842 185.773 351.392 183.903L353.722 182.173C353.392 181.903 349.432 178.703 348.372 176.603C347.442 174.733 346.762 172.093 347.742 170.103C347.957 169.629 348.27 169.205 348.66 168.859C349.05 168.513 349.508 168.253 350.005 168.095C350.502 167.938 351.026 167.887 351.544 167.945C352.062 168.003 352.562 168.17 353.012 168.433C355.662 170.103 355.932 175.753 355.242 178.433C355.192 178.643 354.162 181.363 353.862 182.043C355.572 180.763 357.262 179.483 358.862 178.153C361.053 176.364 363.124 174.433 365.062 172.373C364.912 172.253 360.762 168.933 359.682 166.773C358.742 164.903 358.072 162.263 359.052 160.283C359.265 159.808 359.576 159.383 359.965 159.036C360.354 158.69 360.811 158.429 361.308 158.271C361.805 158.114 362.329 158.063 362.846 158.121C363.364 158.18 363.863 158.348 364.312 158.613C366.972 160.273 367.242 165.923 366.552 168.613C366.502 168.783 365.722 170.863 365.322 171.843L365.482 171.933C367.378 169.809 369.082 167.52 370.572 165.093C371.402 163.773 372.132 162.463 372.812 161.163C371.972 160.623 368.182 158.163 366.992 156.283C365.802 154.403 364.902 151.983 365.652 149.903C365.813 149.414 366.075 148.963 366.421 148.581C366.766 148.198 367.187 147.892 367.658 147.681C368.128 147.47 368.638 147.36 369.153 147.357C369.668 147.354 370.179 147.458 370.652 147.663C373.482 149.023 374.362 154.613 373.972 157.383C373.972 157.533 373.572 159.043 373.282 160.143C373.572 159.553 373.892 158.953 374.162 158.383C375.162 156.243 376.012 154.223 376.712 152.383C377.112 151.383 377.442 150.383 377.712 149.553C377.162 148.553 375.022 144.703 374.812 142.553C374.602 140.403 374.942 137.763 376.572 136.263C376.944 135.899 377.388 135.616 377.876 135.435C378.364 135.253 378.885 135.176 379.405 135.209C379.925 135.242 380.432 135.385 380.893 135.626C381.354 135.868 381.759 136.205 382.082 136.613C383.962 139.123 382.172 144.483 380.552 146.773C380.412 146.963 377.862 149.773 377.832 149.773V149.713C377.552 150.563 377.252 151.473 376.892 152.453C376.232 154.263 375.452 156.313 374.472 158.453C373.427 160.799 372.249 163.083 370.942 165.293C369.486 167.77 367.812 170.113 365.942 172.293L365.872 172.373C366.652 171.883 368.872 170.613 369.062 170.533C371.642 169.433 377.262 168.803 379.322 171.173C379.652 171.576 379.894 172.043 380.032 172.544C380.17 173.046 380.202 173.571 380.125 174.086C380.047 174.6 379.863 175.093 379.583 175.532C379.304 175.97 378.935 176.346 378.502 176.633C376.692 177.913 373.972 177.633 371.982 177.023C369.732 176.313 365.982 172.883 365.632 172.613C363.682 174.789 361.587 176.83 359.362 178.723C358.062 179.843 356.732 180.923 355.362 181.983C356.052 181.593 356.672 181.243 356.762 181.203C359.332 180.103 364.952 179.473 367.012 181.843C367.343 182.245 367.587 182.712 367.726 183.214C367.865 183.716 367.897 184.241 367.82 184.756C367.742 185.271 367.557 185.764 367.277 186.203C366.996 186.642 366.627 187.017 366.192 187.303C364.392 188.583 361.672 188.303 359.682 187.693C357.692 187.083 354.362 184.203 353.502 183.433L351.932 184.643C349.412 186.573 346.932 188.483 344.482 190.433C343.632 191.123 342.822 191.833 342.002 192.533C342.622 192.183 343.132 191.893 343.222 191.863C345.792 190.753 351.412 190.133 353.472 192.493C353.805 192.894 354.049 193.361 354.19 193.863C354.33 194.365 354.362 194.891 354.285 195.407C354.207 195.922 354.022 196.416 353.74 196.855C353.459 197.293 353.088 197.668 352.652 197.953C350.842 199.233 348.132 198.953 346.142 198.353C344.152 197.753 341.142 195.133 340.142 194.223C339.332 194.973 338.512 195.713 337.762 196.483C337.252 197.013 336.762 197.483 336.262 198.053C335.762 198.623 335.262 199.133 334.822 199.673C333.952 200.733 333.042 201.833 332.212 202.893C331.632 203.623 331.092 204.333 330.552 205.043C331.382 204.353 333.062 203.043 333.212 202.933C335.582 201.453 341.042 199.983 343.442 202.003C343.829 202.352 344.139 202.779 344.351 203.255C344.564 203.731 344.673 204.247 344.673 204.768C344.673 205.29 344.564 205.805 344.351 206.282C344.139 206.758 343.829 207.185 343.442 207.533C341.852 209.063 339.132 209.233 337.072 208.913C334.792 208.553 330.672 205.913 330.162 205.533C329.262 206.713 328.402 207.873 327.602 208.983C324.832 212.813 322.672 216.103 321.192 218.433L321.042 218.663L319.122 217.733C319.222 217.583 319.322 217.443 319.422 217.283C320.972 214.963 323.232 211.683 326.112 207.873C327.022 206.673 328.012 205.403 329.042 204.103C327.97 202.937 326.968 201.708 326.042 200.423C323.832 201.283 319.242 201.323 318.652 201.323C318.562 202.803 318.482 204.243 318.422 205.603C318.222 210.333 318.242 214.273 318.292 217.023V217.353L316.182 216.353C316.182 213.623 316.292 209.913 316.572 205.543C316.662 204.033 316.792 202.423 316.942 200.783C316.352 200.633 311.582 199.403 309.782 197.963C308.152 196.663 306.432 194.543 306.492 192.333C306.486 191.812 306.591 191.296 306.799 190.818C307.007 190.339 307.313 189.911 307.699 189.56C308.084 189.208 308.539 188.943 309.034 188.779C309.529 188.616 310.053 188.56 310.572 188.613C313.682 189.013 316.282 194.033 316.802 196.783C316.802 196.943 316.962 198.783 317.022 199.883C317.092 199.203 317.142 198.553 317.212 197.883C317.352 196.513 317.532 195.143 317.722 193.673C317.832 192.973 317.952 192.263 318.062 191.543C318.172 190.823 318.362 190.083 318.512 189.343C318.892 187.643 319.352 185.933 319.862 184.223C318.662 184.093 314.412 183.593 312.582 182.553C310.752 181.513 308.752 179.673 308.482 177.483C308.397 176.969 308.421 176.442 308.554 175.937C308.687 175.432 308.925 174.961 309.253 174.555C309.58 174.149 309.99 173.817 310.455 173.581C310.921 173.344 311.431 173.209 311.952 173.183C315.082 173.103 318.422 177.673 319.342 180.313C319.402 180.483 319.852 182.453 320.072 183.543C320.392 182.543 320.692 181.483 321.072 180.463C322.072 177.463 323.202 174.523 324.302 171.553C324.642 170.643 324.962 169.733 325.302 168.833C324.872 168.833 319.802 168.303 317.762 167.133C315.952 166.133 313.932 164.253 313.652 162.063C313.57 161.549 313.597 161.023 313.731 160.52C313.865 160.016 314.103 159.547 314.43 159.142C314.758 158.736 315.166 158.404 315.63 158.167C316.093 157.929 316.602 157.792 317.122 157.763C320.262 157.683 323.602 162.253 324.522 164.893C324.592 165.093 325.232 167.893 325.362 168.663C326.082 166.663 326.792 164.663 327.362 162.663C328.207 159.963 328.876 157.211 329.362 154.423C329.162 154.423 323.862 153.923 321.782 152.723C319.962 151.723 317.942 149.843 317.672 147.653C317.59 147.139 317.617 146.613 317.751 146.11C317.885 145.606 318.123 145.137 318.45 144.732C318.778 144.326 319.186 143.994 319.65 143.757C320.113 143.519 320.622 143.382 321.142 143.353C324.272 143.283 327.612 147.843 328.532 150.483C328.592 150.663 329.082 152.823 329.292 153.853H329.472C329.885 151.037 330.045 148.189 329.952 145.343C329.952 143.773 329.802 142.283 329.652 140.823C328.652 140.823 324.112 140.823 322.112 139.963C320.112 139.103 317.982 137.523 317.462 135.373C317.323 134.87 317.292 134.342 317.371 133.826C317.451 133.31 317.638 132.816 317.921 132.377C318.204 131.938 318.577 131.564 319.015 131.279C319.453 130.994 319.946 130.805 320.462 130.723C323.572 130.303 327.392 134.473 328.602 137.003C328.662 137.143 329.182 138.613 329.532 139.683C329.462 139.033 329.392 138.353 329.302 137.733C328.992 135.383 328.552 133.243 328.152 131.363C327.912 130.293 327.682 129.363 327.452 128.433C326.452 127.933 322.532 125.873 321.182 124.203C319.832 122.533 318.652 120.143 319.182 117.993C319.296 117.481 319.518 116.998 319.832 116.578C320.147 116.158 320.547 115.809 321.006 115.554C321.466 115.3 321.974 115.146 322.497 115.103C323.02 115.06 323.547 115.128 324.042 115.303Z" fill="white"/>
<path opacity="0.5" d="M380.722 163.633C378.272 163.533 373.372 161.023 373.372 161.013C373.372 161.003 376.002 158.293 376.192 158.143C378.382 156.393 383.642 154.313 386.252 156.043C386.677 156.344 387.035 156.731 387.302 157.179C387.568 157.627 387.737 158.126 387.799 158.644C387.86 159.161 387.812 159.686 387.657 160.184C387.503 160.682 387.245 161.141 386.902 161.533C385.502 163.213 382.812 163.713 380.722 163.633Z" fill="white"/>
</g>
<path d="M352.112 224.993C352.112 224.993 337.242 189.143 328.922 190.703C320.602 192.263 343.172 247.843 343.172 247.843C343.172 247.843 317.012 198.493 299.172 198.493C281.332 198.493 305.712 253.043 328.302 271.223C328.302 271.223 292.632 232.783 271.822 241.093C251.012 249.403 313.442 288.363 313.442 288.363C313.442 288.363 277.172 276.933 281.332 285.763C285.492 294.593 296.792 296.153 296.792 296.153L255.792 298.233H398.492L366.382 295.113C366.382 295.113 399.682 278.493 390.762 271.743C381.842 264.993 362.222 279.533 362.222 279.533C362.222 279.533 396.112 242.133 389.572 228.103C383.032 214.073 353.892 253.563 353.892 253.563C353.892 253.563 377.682 203.173 372.892 194.343C368.102 185.513 352.112 224.993 352.112 224.993Z" fill="#1573FF"/>
<path opacity="0.4" d="M352.112 224.993C352.112 224.993 337.242 189.143 328.922 190.703C320.602 192.263 343.172 247.843 343.172 247.843C343.172 247.843 317.012 198.493 299.172 198.493C281.332 198.493 305.712 253.043 328.302 271.223C328.302 271.223 292.632 232.783 271.822 241.093C251.012 249.403 313.442 288.363 313.442 288.363C313.442 288.363 277.172 276.933 281.332 285.763C285.492 294.593 296.792 296.153 296.792 296.153L255.792 298.233H398.492L366.382 295.113C366.382 295.113 399.682 278.493 390.762 271.743C381.842 264.993 362.222 279.533 362.222 279.533C362.222 279.533 396.112 242.133 389.572 228.103C383.032 214.073 353.892 253.563 353.892 253.563C353.892 253.563 377.682 203.173 372.892 194.343C368.102 185.513 352.112 224.993 352.112 224.993Z" fill="white"/>
<path d="M356.872 226.873C343.782 265.523 343.782 292.873 343.782 292.873C343.782 292.873 359.242 293.463 375.302 281.573" stroke="#263238" stroke-linecap="round" stroke-linejoin="round"/>
<path d="M350.332 247.693C347.632 236.137 344.052 224.803 339.622 213.793" stroke="#263238" stroke-linecap="round" stroke-linejoin="round"/>
<path d="M311.682 225.093L344.972 274.443C344.972 274.443 367.572 255.443 375.302 244.713" stroke="#263238" stroke-linecap="round" stroke-linejoin="round"/>
<path d="M344.382 286.343C344.382 286.343 309.302 269.693 295.032 260.213" stroke="#263238" stroke-linecap="round" stroke-linejoin="round"/>
<path d="M312.892 20.2133H206.052C201.678 20.2133 198.132 23.7593 198.132 28.1333V290.313C198.132 294.687 201.678 298.233 206.052 298.233H312.892C317.266 298.233 320.812 294.687 320.812 290.313V28.1333C320.812 23.7593 317.266 20.2133 312.892 20.2133Z" fill="white" stroke="#263238" stroke-linecap="round" stroke-linejoin="round"/>
<path d="M316.712 68.8833C316.279 68.8833 315.865 68.7116 315.559 68.4059C315.254 68.1002 315.082 67.6856 315.082 67.2533V45.4034C315.114 44.9918 315.3 44.6075 315.603 44.3273C315.906 44.047 316.304 43.8913 316.717 43.8913C317.13 43.8913 317.527 44.047 317.83 44.3273C318.133 44.6075 318.32 44.9918 318.352 45.4034V67.2133C318.356 67.4312 318.316 67.6477 318.236 67.8502C318.155 68.0526 318.035 68.237 317.882 68.3924C317.729 68.5479 317.547 68.6714 317.346 68.7557C317.145 68.84 316.93 68.8834 316.712 68.8833Z" fill="#263238"/>
<path d="M316.712 89.1234C316.279 89.1234 315.865 88.9516 315.559 88.6459C315.254 88.3403 315.082 87.9257 315.082 87.4933V75.2834C315.114 74.8718 315.3 74.4875 315.603 74.2073C315.906 73.927 316.304 73.7713 316.717 73.7713C317.13 73.7713 317.527 73.927 317.83 74.2073C318.133 74.4875 318.32 74.8718 318.352 75.2834V87.4933C318.349 87.9266 318.175 88.3411 317.868 88.6465C317.561 88.9519 317.145 89.1234 316.712 89.1234V89.1234Z" fill="#263238"/>
<path d="M303.642 20.2133H196.802C192.428 20.2133 188.882 23.7593 188.882 28.1333V290.313C188.882 294.687 192.428 298.233 196.802 298.233H303.642C308.016 298.233 311.562 294.687 311.562 290.313V28.1333C311.562 23.7593 308.016 20.2133 303.642 20.2133Z" fill="#263238" stroke="#263238" stroke-linecap="round" stroke-linejoin="round"/>
<path d="M303.392 38.7234H197.052V277.183H303.392V38.7234Z" fill="#1573FF"/>
<path d="M234.432 31.1033H262.742" stroke="white" stroke-width="3" stroke-linecap="round" stroke-linejoin="round"/>
<path d="M246.412 285.623C246.412 287.573 245.192 289.153 243.682 289.153C242.172 289.153 240.962 287.573 240.962 285.623C240.962 283.673 242.182 282.083 243.682 282.083C245.182 282.083 246.412 283.663 246.412 285.623Z" fill="white"/>
<path d="M250.222 98.0634C260.406 98.0634 268.662 88.4375 268.662 76.5634C268.662 64.6892 260.406 55.0634 250.222 55.0634C240.038 55.0634 231.782 64.6892 231.782 76.5634C231.782 88.4375 240.038 98.0634 250.222 98.0634Z" fill="white"/>
<path d="M250.222 76.2934C254.088 76.2934 257.222 72.6355 257.222 68.1234C257.222 63.6112 254.088 59.9534 250.222 59.9534C246.356 59.9534 243.222 63.6112 243.222 68.1234C243.222 72.6355 246.356 76.2934 250.222 76.2934Z" fill="#263238" stroke="#263238" stroke-linecap="round" stroke-linejoin="round"/>
<path d="M250.222 78.4633C243.222 78.4633 237.492 83.8333 237.492 90.4633C237.497 91.0803 237.554 91.6958 237.662 92.3033C239.215 94.1155 241.141 95.5703 243.309 96.5677C245.477 97.5651 247.835 98.0815 250.222 98.0815C252.608 98.0815 254.966 97.5651 257.134 96.5677C259.302 95.5703 261.229 94.1155 262.782 92.3033C262.881 91.6949 262.934 91.0798 262.942 90.4633C262.942 83.8333 257.242 78.4633 250.222 78.4633Z" fill="#263238" stroke="#263238" stroke-linecap="round" stroke-linejoin="round"/>
<path d="M272.642 170.213H227.802C226.615 170.167 225.496 169.65 224.689 168.778C223.883 167.907 223.456 166.75 223.502 165.563V137.883C223.502 121.933 235.502 108.953 250.222 108.953C264.942 108.953 276.932 121.953 276.932 137.883V165.543C276.957 166.132 276.866 166.72 276.665 167.273C276.463 167.826 276.154 168.334 275.755 168.768C275.357 169.202 274.877 169.553 274.342 169.801C273.808 170.049 273.23 170.189 272.642 170.213V170.213ZM232.092 160.913H268.342V137.913C268.342 127.093 260.212 118.283 250.222 118.283C240.232 118.283 232.092 127.093 232.092 137.913V160.913Z" fill="#263238"/>
<path d="M281.352 151.323H219.092V210.223H281.352V151.323Z" fill="white"/>
<path d="M259.292 191.873L254.672 180.763C255.693 179.991 256.52 178.99 257.084 177.84C257.649 176.69 257.935 175.424 257.922 174.143C257.922 169.713 254.612 166.143 250.522 166.143C246.432 166.143 243.132 169.723 243.132 174.143C243.116 175.423 243.401 176.689 243.964 177.839C244.527 178.989 245.351 179.99 246.372 180.763L241.762 191.873H259.292Z" fill="#263238" stroke="#263238" stroke-linecap="round" stroke-linejoin="round"/>
<path d="M231.252 263.153C231.348 263.224 231.463 263.262 231.582 263.263C231.667 263.263 231.75 263.242 231.825 263.202C231.9 263.162 231.964 263.104 232.012 263.033L303.392 165.943V164.103L231.172 262.393C231.127 262.448 231.094 262.512 231.074 262.58C231.053 262.648 231.047 262.719 231.054 262.79C231.062 262.861 231.083 262.929 231.117 262.991C231.151 263.054 231.197 263.109 231.252 263.153V263.153Z" fill="white"/>
<path d="M289.032 73.7034C288.989 73.7609 288.959 73.8264 288.942 73.896C288.925 73.9655 288.922 74.0377 288.933 74.1085C288.944 74.1792 288.969 74.247 289.007 74.3079C289.044 74.3688 289.094 74.4217 289.152 74.4633C289.269 74.5467 289.414 74.5808 289.556 74.5584C289.698 74.5359 289.826 74.4588 289.912 74.3434L303.392 56.0134V54.2133L289.032 73.7034Z" fill="white"/>
<path d="M197.052 200.673L285.172 80.8434C285.257 80.7267 285.292 80.581 285.269 80.4385C285.247 80.296 285.168 80.1682 285.052 80.0834C284.935 79.9985 284.789 79.9634 284.647 79.986C284.504 80.0085 284.377 80.0867 284.292 80.2034L197.092 198.833L197.052 200.673Z" fill="white"/>
<path d="M222.972 274.973C223.057 274.972 223.141 274.951 223.217 274.913C223.293 274.875 223.36 274.821 223.412 274.753L228.412 267.993C228.454 267.936 228.485 267.87 228.502 267.801C228.519 267.731 228.522 267.659 228.511 267.588C228.5 267.517 228.475 267.45 228.437 267.389C228.399 267.328 228.35 267.275 228.292 267.233C228.175 267.15 228.029 267.116 227.887 267.138C227.745 267.161 227.618 267.238 227.532 267.353L222.532 274.103C222.489 274.16 222.457 274.225 222.44 274.294C222.422 274.364 222.418 274.436 222.428 274.506C222.438 274.577 222.463 274.645 222.499 274.706C222.536 274.768 222.584 274.821 222.642 274.863C222.736 274.938 222.852 274.976 222.972 274.973V274.973Z" fill="white"/>
<path d="M303.392 185.383L244.792 265.093C244.732 265.174 244.697 265.27 244.688 265.37C244.68 265.47 244.7 265.57 244.746 265.659C244.792 265.749 244.861 265.823 244.947 265.875C245.033 265.927 245.131 265.954 245.232 265.953C245.317 265.955 245.402 265.936 245.479 265.897C245.555 265.859 245.622 265.803 245.672 265.733L303.392 187.213V185.383Z" fill="white"/>
<path d="M97.5818 73.3533C98.5733 71.1564 99.0521 68.7627 98.9818 66.3533C98.9818 61.8833 93.5718 59.2933 87.2118 58.5833C80.8518 57.8733 78.0318 60.4633 78.9718 62.1133C79.9486 63.4742 81.141 64.6665 82.5018 65.6433C82.5018 65.6433 76.1418 62.1133 71.9018 64.9433C67.6618 67.7733 73.7918 66.5933 72.6118 69.4133C71.4318 72.2333 64.8418 71.0634 63.1918 78.5934C61.5418 86.1234 66.2518 93.6633 62.0118 96.9633C57.7718 100.263 45.0118 95.7833 41.2918 104.023C37.5718 112.263 42.8518 115.923 33.9118 121.103C24.9718 126.283 18.4518 131.343 21.0418 144.053C23.6318 156.763 32.1118 161.213 48.8318 156.723C65.5518 152.233 64.3718 142.123 69.8318 131.723C75.2918 121.323 83.7318 123.483 86.3218 117.593C88.9118 111.703 85.6118 104.643 85.8518 99.2233C86.0918 93.8033 91.5018 92.6333 93.6218 86.2233C95.7418 79.8133 97.5818 73.3533 97.5818 73.3533Z" fill="#263238" stroke="#263238" stroke-linecap="round" stroke-linejoin="round"/>
<path d="M22.9918 143.813C22.5532 144.699 22.3305 145.675 22.3418 146.663" stroke="white" stroke-width="0.5" stroke-linecap="round" stroke-linejoin="round"/>
<path d="M88.5418 68.6834C88.5418 68.6834 85.6018 65.2833 91.2618 66.8633C98.3918 68.8633 90.0218 77.1133 86.8018 78.7733C80.3418 82.0833 71.8018 81.0234 66.8018 87.0434C62.2618 92.4834 68.3918 98.1534 65.6718 102.463C62.9518 106.773 52.0618 104.273 48.4418 109.463C44.8218 114.653 55.0118 125.793 44.5818 131.913C37.0418 136.343 28.7818 138.043 24.7918 141.553" stroke="white" stroke-width="0.5" stroke-linecap="round" stroke-linejoin="round"/>
<path d="M71.6318 88.8033C71.0138 90.2495 70.8263 91.8433 71.0918 93.3933C71.9918 97.2433 77.2118 104.503 72.4518 108.583C67.6918 112.663 59.5218 112.433 58.1718 117.213C56.8218 121.993 59.5318 135.123 55.0018 141.213C50.4718 147.303 41.6218 146.883 36.8618 150.963C32.1018 155.043 32.7818 157.313 32.7818 157.313" stroke="white" stroke-width="0.5" stroke-linecap="round" stroke-linejoin="round"/>
<path d="M74.0318 84.3233C73.6197 84.9058 73.2391 85.51 72.8918 86.1333" stroke="white" stroke-width="0.5" stroke-linecap="round" stroke-linejoin="round"/>
<path d="M100.632 143.453L101.782 152.453C101.782 152.453 107.782 158.453 112.192 162.163C116.602 165.873 127.902 173.723 127.902 173.723L122.172 175.353C122.172 175.353 103.442 164.253 99.7418 163.353C96.0418 162.453 93.2718 157.113 92.1218 155.493C90.9718 153.873 97.6218 141.833 100.632 143.453Z" fill="white" stroke="#263238" stroke-linecap="round" stroke-linejoin="round"/>
<path d="M112.072 289.883C112.072 289.883 117.732 294.663 120.072 296.263C122.412 297.863 125.142 298.583 124.712 299.453C124.282 300.323 123.112 301.193 117.602 300.453C112.092 299.713 110.502 297.843 109.482 297.553C108.462 297.263 106.002 297.993 104.122 296.833C102.242 295.673 105.222 288.763 105.222 288.763C106.048 289.729 107.188 290.371 108.442 290.576C109.696 290.781 110.982 290.535 112.072 289.883Z" fill="white" stroke="#263238" stroke-linecap="round" stroke-linejoin="round"/>
<path d="M124.692 299.453C124.696 299.407 124.696 299.36 124.692 299.313C121.511 299.606 118.303 299.304 115.232 298.423C111.672 297.583 110.622 295.693 107.232 295.693C105.901 295.705 104.579 295.489 103.322 295.053C103.285 295.387 103.331 295.724 103.455 296.036C103.579 296.348 103.777 296.625 104.032 296.843C105.912 298.003 108.382 297.273 109.392 297.563C110.402 297.853 112.002 299.743 117.512 300.463C123.022 301.183 124.252 300.323 124.692 299.453Z" fill="white" stroke="#263238" stroke-linecap="round" stroke-linejoin="round"/>
<path d="M82.4418 96.6133C82.4418 96.6133 83.5318 103.953 82.1318 106.913C80.7318 109.873 76.3518 110.193 72.6118 110.823C68.8718 111.453 60.2818 114.723 61.2118 123.153C62.1418 131.583 72.9218 149.843 72.9218 154.993C72.9218 160.143 69.6418 162.793 66.0518 172.783C62.4618 182.773 62.9318 201.353 64.0518 213.373C64.8727 221.306 66.4396 229.144 68.7318 236.783C68.7318 236.783 59.7318 251.303 55.7318 257.543C51.7318 263.783 37.7318 290.953 37.7318 290.953C37.7318 290.953 37.7318 291.883 39.9118 292.513C41.4455 292.886 43.0323 292.991 44.6018 292.823C44.6018 292.823 71.4418 260.513 76.4418 255.053C81.4418 249.593 86.1218 240.053 86.7418 235.693C87.3618 231.333 86.5918 204.633 86.5918 204.633C86.5918 204.633 92.2018 218.053 96.5918 224.923C99.2544 229.127 101.698 233.467 103.912 237.923C103.297 243.573 103.297 249.273 103.912 254.923C105.002 262.723 104.082 287.783 105.172 289.813C106.262 291.843 110.492 290.993 111.432 290.063C112.372 289.133 112.812 283.063 112.812 283.063C112.812 283.063 114.682 264.063 115.812 255.123C116.942 246.183 118.812 238.573 118.162 236.543C117.512 234.513 113.632 212.813 110.662 202.543C107.692 192.273 98.6618 173.043 96.6618 168.053C94.6618 163.063 93.5318 158.523 93.8518 156.963C94.1718 155.403 100.252 146.043 101.852 143.543C102.764 141.849 103.267 139.964 103.321 138.04C103.375 136.116 102.978 134.206 102.162 132.463C100.292 128.403 102.162 122.933 101.852 119.663C101.542 116.393 96.7018 114.973 94.2018 113.733C91.7018 112.493 90.7618 109.673 90.7618 107.333C90.9145 105.362 91.3908 103.43 92.1718 101.613C92.1718 101.613 84.4718 96.6133 82.4418 96.6133Z" fill="white" stroke="#263238" stroke-linecap="round" stroke-linejoin="round"/>
<path d="M101.362 130.003C100.539 127.914 99.8547 125.772 99.3118 123.593" stroke="#263238" stroke-linecap="round" stroke-linejoin="round"/>
<path d="M81.0918 147.383C81.0918 147.383 83.9118 148.003 89.5618 145.183" stroke="#263238" stroke-linecap="round" stroke-linejoin="round"/>
<path d="M110.692 202.443C107.862 192.603 99.4718 174.633 96.9618 168.703C84.9618 173.203 73.7418 169.363 68.4718 166.883C67.7118 168.543 66.8918 170.463 66.0518 172.783C62.4618 182.783 62.9318 201.353 64.0518 213.373C64.8727 221.306 66.4396 229.144 68.7318 236.783C68.7318 236.783 59.7318 251.303 55.7318 257.543C51.7318 263.783 37.7318 290.953 37.7318 290.953C37.7318 290.953 37.7318 291.883 39.9118 292.513C41.4455 292.886 43.0323 292.991 44.6018 292.823C44.6018 292.823 71.4418 260.513 76.4418 255.053C81.4418 249.593 86.1218 240.053 86.7418 235.693C87.3618 231.333 86.5918 204.633 86.5918 204.633C86.5918 204.633 92.2018 218.053 96.5918 224.923C99.2544 229.127 101.698 233.467 103.912 237.923C103.297 243.573 103.297 249.273 103.912 254.923C105.002 262.723 104.082 287.783 105.172 289.813C106.262 291.843 110.492 290.993 111.432 290.063C112.372 289.133 112.812 283.063 112.812 283.063C112.812 283.063 114.682 264.063 115.812 255.123C116.942 246.183 118.812 238.573 118.162 236.543C117.512 234.513 113.662 212.743 110.692 202.443Z" fill="#263238" stroke="#263238" stroke-linecap="round" stroke-linejoin="round"/>
<path d="M171.832 192.533V190.493H173.542V174.473H171.832H154.952H153.242V190.493H154.952V192.533H153.232V196.253H159.822V195.003H166.962V196.253H173.552V192.533H171.832Z" fill="#1573FF" stroke="#263238" stroke-linecap="round" stroke-linejoin="round"/>
<path d="M62.7318 169.683H180.492C180.964 169.683 181.417 169.871 181.75 170.205C182.084 170.539 182.272 170.991 182.272 171.463V175.043C182.272 175.515 182.084 175.968 181.75 176.302C181.417 176.636 180.964 176.823 180.492 176.823H62.7318V169.673V169.683Z" fill="#1573FF" stroke="#263238" stroke-linecap="round" stroke-linejoin="round"/>
<path d="M147.252 168.613H140.082C139.535 168.613 139.092 169.057 139.092 169.603V176.913C139.092 177.46 139.535 177.903 140.082 177.903H147.252C147.799 177.903 148.242 177.46 148.242 176.913V169.603C148.242 169.057 147.799 168.613 147.252 168.613Z" fill="#1573FF" stroke="#263238" stroke-linecap="round" stroke-linejoin="round"/>
<path d="M66.4161 176.265C68.0753 166.133 61.2067 156.575 51.0747 154.915C40.9426 153.256 31.384 160.125 29.7248 170.257C28.0656 180.389 34.9342 189.948 45.0662 191.607C55.1983 193.266 64.7569 186.397 66.4161 176.265Z" fill="#1573FF" stroke="#263238" stroke-linecap="round" stroke-linejoin="round"/>
<path d="M51.8918 173.213C52.9695 172.697 53.8841 171.894 54.5351 170.892C55.1861 169.89 55.5482 168.728 55.5818 167.533C55.5818 163.883 52.2218 160.923 48.0718 160.923C43.9218 160.923 40.5618 163.923 40.5618 167.533C40.5931 168.728 40.9543 169.891 41.6056 170.894C42.2568 171.896 43.1727 172.699 44.2518 173.213C43.1733 173.731 42.2583 174.536 41.6073 175.54C40.9564 176.544 40.5946 177.707 40.5618 178.903C40.5618 182.553 43.9218 185.513 48.0718 185.513C52.2218 185.513 55.5818 182.513 55.5818 178.903C55.5467 177.708 55.1841 176.545 54.5334 175.542C53.8827 174.538 52.9689 173.733 51.8918 173.213V173.213Z" fill="white" stroke="#263238" stroke-linecap="round" stroke-linejoin="round"/>
<path d="M124.232 176.983C124.232 176.983 130.052 179.443 131.852 179.443C133.652 179.443 135.732 177.633 136.762 175.443C137.792 173.253 137.762 172.213 137.152 172.733L135.862 173.733C135.862 173.733 136.862 171.543 135.732 171.803C134.949 172.064 134.3 172.62 133.922 173.353C133.922 173.353 133.792 171.413 132.762 172.353C132.08 172.971 131.473 173.665 130.952 174.423C130.952 174.423 130.822 171.973 130.172 172.613C129.522 173.253 127.082 176.743 127.082 176.743L124.232 176.983Z" fill="white" stroke="#263238" stroke-linecap="round" stroke-linejoin="round"/>
<path d="M130.952 174.403C130.952 174.403 130.562 177.503 128.632 178.023Z" fill="white"/>
<path d="M130.952 174.403C130.952 174.403 130.562 177.503 128.632 178.023" stroke="#263238" stroke-linecap="round" stroke-linejoin="round"/>
<path d="M133.922 173.373C133.922 173.373 132.922 178.273 131.342 179.053Z" fill="white"/>
<path d="M133.922 173.373C133.922 173.373 132.922 178.273 131.342 179.053" stroke="#263238" stroke-linecap="round" stroke-linejoin="round"/>
<path d="M135.862 173.753C135.346 175.541 134.653 177.273 133.792 178.923Z" fill="white"/>
<path d="M135.862 173.753C135.346 175.541 134.653 177.273 133.792 178.923" stroke="#263238" stroke-linecap="round" stroke-linejoin="round"/>
<path d="M93.8318 113.433C92.8246 112.753 92.0088 111.826 91.4625 110.741C90.9163 109.655 90.6578 108.447 90.7118 107.233C90.8911 105.293 91.3842 103.395 92.1718 101.613C92.1718 101.613 84.5218 96.6133 82.4918 96.6133C82.4918 96.6133 83.5818 103.953 82.1818 106.913C81.7229 107.834 80.9747 108.579 80.0518 109.033C81.9006 114.011 84.4061 118.719 87.5018 123.033C90.3118 126.563 91.6818 119.123 93.8318 113.433Z" fill="white" stroke="#263238" stroke-linecap="round" stroke-linejoin="round"/>
<path d="M70.2218 111.833C68.3135 112.159 66.5072 112.924 64.9452 114.068C63.3833 115.211 62.1086 116.703 61.2218 118.423C58.1418 124.363 44.6818 151.323 45.8318 152.933C52.3718 162.133 76.1618 168.753 78.5818 171.173C81.0011 173.704 83.6565 175.998 86.5118 178.023C88.9318 179.563 93.7618 178.903 94.6418 178.463C95.5218 178.023 96.1818 176.043 94.6418 176.043C94.0534 176.051 93.4802 175.857 93.0179 175.493C92.5556 175.129 92.2322 174.617 92.1018 174.043C91.8818 173.163 94.5218 174.923 95.8418 174.263C97.1618 173.603 92.8918 171.193 91.5718 170.093C90.2518 168.993 89.1518 167.463 87.3918 167.463C85.6318 167.463 82.3218 167.463 82.3218 167.463C82.3218 167.463 74.2218 161.593 69.3218 157.223C65.509 153.783 61.3502 150.747 56.9118 148.163L71.7618 123.733" fill="white"/>
<path d="M70.2218 111.833C68.3135 112.159 66.5072 112.924 64.9452 114.068C63.3833 115.211 62.1086 116.703 61.2218 118.423C58.1418 124.363 44.6818 151.323 45.8318 152.933C52.3718 162.133 76.1618 168.753 78.5818 171.173C81.0011 173.704 83.6565 175.998 86.5118 178.023C88.9318 179.563 93.7618 178.903 94.6418 178.463C95.5218 178.023 96.1818 176.043 94.6418 176.043C94.0534 176.051 93.4802 175.857 93.0179 175.493C92.5556 175.129 92.2322 174.617 92.1018 174.043C91.8818 173.163 94.5218 174.923 95.8418 174.263C97.1618 173.603 92.8918 171.193 91.5718 170.093C90.2518 168.993 89.1518 167.463 87.3918 167.463C85.6318 167.463 82.3218 167.463 82.3218 167.463C82.3218 167.463 74.2218 161.593 69.3218 157.223C65.509 153.783 61.3502 150.747 56.9118 148.163L71.7618 123.733" stroke="#263238" stroke-linecap="round" stroke-linejoin="round"/>
<path d="M91.5618 170.103C90.2418 169.003 89.1418 167.473 87.3818 167.473C85.6218 167.473 82.3118 167.473 82.3118 167.473C82.3118 167.473 74.2118 161.603 69.3118 157.233C65.499 153.793 61.3402 150.757 56.9018 148.173L62.8418 138.393C59.805 136.555 56.3313 135.564 52.7818 135.523C48.7818 143.863 45.1918 152.103 45.7818 152.973C52.3218 162.173 76.1118 168.793 78.5318 171.213C80.9511 173.744 83.6064 176.038 86.4618 178.063C88.8818 179.603 93.7118 178.943 94.5918 178.503C95.4718 178.063 96.1318 176.083 94.5918 176.083C94.0034 176.091 93.4302 175.897 92.9679 175.533C92.5056 175.169 92.1822 174.657 92.0518 174.083C91.8318 173.203 94.4718 174.963 95.7918 174.303C97.1118 173.643 92.8818 171.213 91.5618 170.103Z" fill="white" stroke="#263238" stroke-linecap="round" stroke-linejoin="round"/>
<path d="M99.6118 85.8434C98.8318 84.2834 98.8318 83.0334 99.1418 80.8434C99.4518 78.6534 97.5818 73.3434 97.5818 73.3434C95.6718 76.6434 90.1518 78.6034 87.7118 79.3434C85.0218 80.1634 88.9518 82.0234 88.5318 84.5134C88.1118 87.0034 82.7418 88.4433 82.7418 88.4433C82.7418 88.4433 81.1718 85.2133 78.9918 85.2133C76.8118 85.2133 75.2618 90.2133 76.5018 92.8633C76.8249 93.5975 77.3877 94.2001 78.0981 94.5725C78.8084 94.945 79.6242 95.0651 80.4118 94.9133C80.4118 94.9133 80.2618 99.6033 83.2218 101.003C86.3801 102.51 89.6751 103.712 93.0618 104.593C94.9318 104.903 96.8018 103.973 97.5818 101.163C98.1918 98.3315 98.6094 95.4616 98.8318 92.5733C100.141 91.7166 101.346 90.7097 102.422 89.5733C103.172 88.4933 100.392 87.4034 99.6118 85.8434Z" fill="white" stroke="#263238" stroke-linecap="round" stroke-linejoin="round"/>
<path d="M96.5718 85.9133C96.5718 86.7733 96.2918 87.4633 95.9518 87.4633C95.6118 87.4633 95.3318 86.7733 95.3318 85.9133C95.3318 85.0533 95.6118 84.3633 95.9518 84.3633C96.2918 84.3633 96.5718 85.0533 96.5718 85.9133Z" fill="#263238"/>
<path d="M93.8818 83.3333C93.8818 83.3333 95.5418 81.4633 96.7818 81.8833" stroke="#263238" stroke-linecap="round" stroke-linejoin="round"/>
<path d="M96.7818 96.1534C96.0324 96.3794 95.2369 96.4061 94.4741 96.2307C93.7112 96.0553 93.0072 95.684 92.4318 95.1534" stroke="#263238" stroke-linecap="round" stroke-linejoin="round"/>
<path d="M37.8018 290.953C37.8018 290.953 34.0718 298.433 34.2118 299.453C34.3518 300.473 41.7518 305.833 45.2118 307.713C48.6718 309.593 54.9318 309.893 54.4918 307.283C54.0518 304.673 48.1118 302.933 46.6618 299.013C45.8896 296.986 45.2221 294.92 44.6618 292.823C42.2445 292.859 39.8664 292.211 37.8018 290.953V290.953Z" fill="white" stroke="#263238" stroke-linecap="round" stroke-linejoin="round"/>
<path d="M54.5118 307.323C51.8494 307.68 49.1401 307.296 46.6818 306.213C41.3118 303.883 36.1118 299.123 34.6818 297.773C34.4278 298.313 34.2656 298.891 34.2018 299.483C34.3518 300.483 41.7418 305.863 45.2018 307.743C48.6618 309.623 54.8718 309.883 54.5118 307.323Z" fill="white" stroke="#263238" stroke-linecap="round" stroke-linejoin="round"/>
</svg>
