<svg width="403" height="296" viewBox="0 0 403 296" fill="none"
	xmlns="http://www.w3.org/2000/svg">
	<style>
		#character {
			animation: translate 4s infinite ease;
		}

		@keyframes translate {
			0% {
				transform: translateX(0);
			}

			10% {
				transform: translateX(0);
			}

			50% {
				transform: translateX(10%);
			}

			90% {
				transform: translateX(0);
			}

			100% {
				transform: translateX(0);
			}
		}
	</style>
	<g id="Group 1">
		<g id="Floor">
			<path id="Vector"
				d="M203.792 295.483C313.431 295.483 402.312 290.635 402.312 284.653C402.312 278.672 313.431 273.823 203.792 273.823C94.1522 273.823 5.27179 278.672 5.27179 284.653C5.27179 290.635 94.1522 295.483 203.792 295.483Z"
				fill="#1573FF" />
			<path id="Vector_2" opacity="0.3"
				d="M203.792 295.483C313.431 295.483 402.312 290.635 402.312 284.653C402.312 278.672 313.431 273.823 203.792 273.823C94.1522 273.823 5.27179 278.672 5.27179 284.653C5.27179 290.635 94.1522 295.483 203.792 295.483Z"
				fill="white" />
		</g>
		<g id="Plants">
			<path id="Vector_3"
				d="M321.112 121.413C321.052 121.413 321.802 117.683 321.882 117.413C322.742 114.753 325.982 110.113 329.112 110.123C329.632 110.138 330.144 110.262 330.613 110.488C331.082 110.714 331.499 111.035 331.835 111.432C332.172 111.829 332.422 112.293 332.567 112.793C332.713 113.293 332.752 113.817 332.682 114.333C332.452 116.543 330.472 118.413 328.682 119.503C326.582 120.813 321.112 121.413 321.112 121.413Z"
				fill="#1573FF" />
			<path id="Vector_4"
				d="M315.042 96.3033C317.992 97.3633 319.462 102.823 319.362 105.623C319.362 105.863 318.802 109.623 318.752 109.623H318.692C318.922 110.483 319.172 111.413 319.422 112.423C319.862 114.303 320.342 116.423 320.712 118.783C321.141 121.315 321.421 123.869 321.552 126.433C321.711 129.303 321.614 132.181 321.262 135.033C321.256 135.066 321.256 135.1 321.262 135.133C321.652 134.303 322.802 132.003 322.912 131.833C324.452 129.493 328.792 125.833 331.822 126.713C332.318 126.866 332.777 127.122 333.169 127.464C333.56 127.806 333.875 128.226 334.094 128.697C334.313 129.169 334.43 129.681 334.438 130.2C334.447 130.72 334.346 131.235 334.142 131.713C333.342 133.773 330.942 135.063 328.932 135.633C326.662 136.283 321.602 135.513 321.202 135.453C320.775 138.345 320.154 141.205 319.342 144.013C318.875 145.653 318.368 147.293 317.822 148.933C318.172 148.223 318.502 147.593 318.552 147.503C320.092 145.163 324.432 141.503 327.462 142.373C327.959 142.525 328.419 142.78 328.812 143.121C329.204 143.463 329.52 143.883 329.739 144.355C329.958 144.827 330.075 145.34 330.082 145.86C330.089 146.38 329.987 146.895 329.782 147.373C328.982 149.443 326.582 150.723 324.572 151.303C322.562 151.883 318.202 151.303 317.062 151.153C316.852 151.773 316.642 152.403 316.422 153.023C315.422 156.023 314.342 159.023 313.422 161.963C313.092 162.963 312.802 164.043 312.512 165.083C312.832 164.453 313.102 163.923 313.152 163.853C314.682 161.513 319.032 157.853 322.052 158.723C322.548 158.877 323.007 159.132 323.399 159.474C323.791 159.816 324.106 160.235 324.326 160.706C324.546 161.178 324.664 161.689 324.674 162.209C324.683 162.729 324.584 163.244 324.382 163.723C323.582 165.783 321.172 167.073 319.162 167.643C317.152 168.213 313.222 167.713 311.862 167.523C311.592 168.603 311.332 169.673 311.122 170.723C310.992 171.443 310.822 172.133 310.732 172.863C310.642 173.593 310.532 174.303 310.432 175.003C310.292 176.373 310.132 177.793 310.032 179.133C309.952 180.063 309.892 180.953 309.832 181.843C310.142 180.843 310.832 178.783 310.882 178.613C311.992 176.415 313.644 174.536 315.682 173.153C315.793 172.903 315.93 172.665 316.092 172.443C316.375 172.007 316.747 171.635 317.184 171.352C317.62 171.068 318.111 170.88 318.625 170.799C319.139 170.718 319.664 170.746 320.167 170.881C320.669 171.016 321.138 171.255 321.542 171.583C323.922 173.583 323.322 179.263 322.232 181.843C322.172 181.993 321.282 183.563 320.712 184.543C321.142 184.023 321.542 183.543 321.992 182.963C322.862 181.903 323.762 180.863 324.722 179.743L326.192 178.153C326.672 177.603 327.252 177.093 327.782 176.563C329.032 175.353 330.362 174.183 331.732 173.033C330.792 172.273 327.522 169.503 326.582 167.623C325.642 165.743 324.972 163.113 325.952 161.133C326.166 160.658 326.478 160.233 326.868 159.886C327.258 159.539 327.716 159.278 328.214 159.121C328.711 158.963 329.236 158.912 329.754 158.971C330.273 159.03 330.773 159.198 331.222 159.463C333.872 161.123 334.142 166.773 333.452 169.463C333.452 169.633 332.692 171.523 332.282 172.553C333.112 171.873 333.932 171.183 334.792 170.553C337.272 168.633 339.842 166.773 342.392 164.903L344.722 163.173C344.392 162.903 340.432 159.703 339.372 157.603C338.442 155.733 337.762 153.093 338.742 151.103C338.957 150.629 339.27 150.205 339.66 149.859C340.05 149.513 340.508 149.253 341.005 149.095C341.502 148.938 342.026 148.887 342.544 148.945C343.062 149.003 343.562 149.17 344.012 149.433C346.662 151.103 346.932 156.753 346.242 159.433C346.192 159.643 345.162 162.363 344.862 163.043C346.572 161.763 348.262 160.483 349.862 159.153C352.053 157.364 354.124 155.433 356.062 153.373C355.912 153.253 351.762 149.933 350.682 147.773C349.742 145.903 349.072 143.263 350.052 141.283C350.265 140.808 350.576 140.383 350.965 140.036C351.354 139.69 351.811 139.429 352.308 139.271C352.805 139.114 353.329 139.063 353.846 139.121C354.364 139.18 354.863 139.348 355.312 139.613C357.972 141.273 358.242 146.923 357.552 149.613C357.502 149.783 356.722 151.863 356.322 152.843L356.482 152.933C358.378 150.809 360.082 148.52 361.572 146.093C362.402 144.773 363.132 143.463 363.812 142.163C362.972 141.623 359.182 139.163 357.992 137.283C356.802 135.403 355.902 132.983 356.652 130.903C356.813 130.414 357.075 129.963 357.421 129.581C357.766 129.198 358.187 128.892 358.658 128.681C359.128 128.47 359.638 128.36 360.153 128.357C360.668 128.354 361.179 128.458 361.652 128.663C364.482 130.023 365.362 135.613 364.972 138.383C364.972 138.533 364.572 140.043 364.282 141.143C364.572 140.553 364.892 139.953 365.162 139.383C366.162 137.243 367.012 135.223 367.712 133.383C368.112 132.383 368.442 131.383 368.712 130.553C368.162 129.553 366.022 125.703 365.812 123.553C365.602 121.403 365.942 118.763 367.572 117.263C367.944 116.899 368.388 116.616 368.876 116.435C369.364 116.253 369.885 116.176 370.405 116.209C370.925 116.242 371.432 116.385 371.893 116.626C372.354 116.868 372.759 117.205 373.082 117.613C374.962 120.123 373.172 125.483 371.552 127.773C371.412 127.963 368.862 130.773 368.832 130.773V130.713C368.552 131.563 368.252 132.473 367.892 133.453C367.232 135.263 366.452 137.313 365.472 139.453C364.427 141.799 363.249 144.083 361.942 146.293C360.486 148.77 358.812 151.113 356.942 153.293L356.872 153.373C357.652 152.883 359.872 151.613 360.062 151.533C362.642 150.433 368.262 149.803 370.322 152.173C370.652 152.576 370.894 153.043 371.032 153.544C371.17 154.046 371.202 154.571 371.125 155.086C371.047 155.6 370.863 156.093 370.583 156.532C370.304 156.97 369.935 157.346 369.502 157.633C367.692 158.913 364.972 158.633 362.982 158.023C360.732 157.313 356.982 153.883 356.632 153.613C354.682 155.789 352.587 157.83 350.362 159.723C349.062 160.843 347.732 161.923 346.362 162.983C347.052 162.593 347.672 162.243 347.762 162.203C350.332 161.103 355.952 160.473 358.012 162.843C358.343 163.245 358.587 163.712 358.726 164.214C358.865 164.716 358.897 165.241 358.82 165.756C358.742 166.271 358.557 166.764 358.277 167.203C357.996 167.642 357.627 168.017 357.192 168.303C355.392 169.583 352.672 169.303 350.682 168.693C348.692 168.083 345.362 165.203 344.502 164.433L342.932 165.643C340.412 167.573 337.932 169.483 335.482 171.433C334.632 172.123 333.822 172.833 333.002 173.533C333.622 173.183 334.132 172.893 334.222 172.863C336.792 171.753 342.412 171.133 344.472 173.493C344.805 173.894 345.049 174.361 345.19 174.863C345.33 175.365 345.362 175.891 345.285 176.407C345.207 176.922 345.022 177.416 344.74 177.855C344.459 178.293 344.088 178.668 343.652 178.953C341.842 180.233 339.132 179.953 337.142 179.353C335.152 178.753 332.142 176.133 331.142 175.223C330.332 175.973 329.512 176.713 328.762 177.483C328.252 178.013 327.762 178.483 327.262 179.053C326.762 179.623 326.262 180.133 325.822 180.673C324.952 181.733 324.042 182.833 323.212 183.893C322.632 184.623 322.092 185.333 321.552 186.043C322.382 185.353 324.062 184.043 324.212 183.933C326.582 182.453 332.042 180.983 334.442 183.003C334.829 183.352 335.139 183.779 335.351 184.255C335.564 184.731 335.673 185.247 335.673 185.768C335.673 186.29 335.564 186.805 335.351 187.282C335.139 187.758 334.829 188.185 334.442 188.533C332.852 190.063 330.132 190.233 328.072 189.913C325.792 189.553 321.672 186.913 321.162 186.533C320.262 187.713 319.402 188.873 318.602 189.983C315.832 193.813 313.672 197.103 312.192 199.433L312.042 199.663L310.122 198.733C310.222 198.583 310.322 198.443 310.422 198.283C311.972 195.963 314.232 192.683 317.112 188.873C318.022 187.673 319.012 186.403 320.042 185.103C318.97 183.937 317.968 182.708 317.042 181.423C314.832 182.283 310.242 182.323 309.652 182.323C309.562 183.803 309.482 185.243 309.422 186.603C309.222 191.333 309.242 195.273 309.292 198.023V198.353L307.182 197.353C307.182 194.623 307.292 190.913 307.572 186.543C307.662 185.033 307.792 183.423 307.942 181.783C307.352 181.633 302.582 180.403 300.782 178.963C299.152 177.663 297.432 175.543 297.492 173.333C297.486 172.812 297.591 172.296 297.799 171.818C298.007 171.34 298.313 170.911 298.699 170.56C299.084 170.208 299.539 169.943 300.034 169.779C300.529 169.616 301.053 169.56 301.572 169.613C304.682 170.013 307.282 175.033 307.802 177.783C307.802 177.943 307.962 179.783 308.022 180.883C308.092 180.203 308.142 179.553 308.212 178.883C308.352 177.513 308.532 176.143 308.722 174.673C308.832 173.973 308.952 173.263 309.062 172.543C309.172 171.823 309.362 171.083 309.512 170.343C309.892 168.643 310.352 166.933 310.862 165.223C309.662 165.093 305.412 164.593 303.582 163.553C301.752 162.513 299.752 160.673 299.482 158.483C299.397 157.969 299.421 157.442 299.554 156.937C299.687 156.432 299.925 155.961 300.253 155.555C300.58 155.149 300.99 154.817 301.455 154.581C301.921 154.344 302.431 154.209 302.952 154.183C306.082 154.103 309.422 158.673 310.342 161.313C310.402 161.483 310.852 163.453 311.072 164.543C311.392 163.543 311.692 162.483 312.072 161.463C313.072 158.463 314.202 155.523 315.302 152.553C315.642 151.643 315.962 150.733 316.302 149.833C315.872 149.833 310.802 149.303 308.762 148.133C306.952 147.133 304.932 145.253 304.652 143.063C304.57 142.549 304.597 142.023 304.731 141.52C304.865 141.016 305.103 140.547 305.43 140.142C305.758 139.736 306.166 139.404 306.63 139.167C307.093 138.929 307.602 138.792 308.122 138.763C311.262 138.683 314.602 143.253 315.522 145.893C315.592 146.093 316.232 148.893 316.362 149.663C317.082 147.663 317.792 145.663 318.362 143.663C319.207 140.963 319.876 138.211 320.362 135.423C320.162 135.423 314.862 134.923 312.782 133.723C310.962 132.723 308.942 130.843 308.672 128.653C308.59 128.139 308.617 127.613 308.751 127.11C308.885 126.606 309.123 126.137 309.45 125.732C309.778 125.326 310.186 124.994 310.65 124.757C311.113 124.519 311.622 124.382 312.142 124.353C315.272 124.283 318.612 128.843 319.532 131.483C319.592 131.663 320.082 133.823 320.292 134.853H320.472C320.885 132.037 321.045 129.189 320.952 126.343C320.952 124.773 320.802 123.283 320.652 121.823C319.652 121.823 315.112 121.823 313.112 120.963C311.112 120.103 308.982 118.523 308.462 116.373C308.323 115.87 308.292 115.342 308.371 114.826C308.451 114.31 308.638 113.816 308.921 113.377C309.204 112.938 309.577 112.564 310.015 112.279C310.453 111.994 310.946 111.805 311.462 111.723C314.572 111.303 318.392 115.473 319.602 118.003C319.662 118.143 320.182 119.613 320.532 120.683C320.462 120.033 320.392 119.353 320.302 118.733C319.992 116.383 319.552 114.243 319.152 112.363C318.912 111.293 318.682 110.363 318.452 109.433C317.452 108.933 313.532 106.873 312.182 105.203C310.832 103.533 309.652 101.143 310.182 98.9933C310.296 98.4809 310.518 97.9985 310.832 97.578C311.147 97.1576 311.547 96.8087 312.006 96.5544C312.466 96.3002 312.974 96.1463 313.497 96.103C314.02 96.0597 314.547 96.128 315.042 96.3033Z"
				fill="#1573FF" />
			<path id="Vector_5"
				d="M371.722 144.633C369.272 144.533 364.372 142.023 364.372 142.013C364.372 142.003 367.002 139.293 367.192 139.143C369.382 137.393 374.642 135.313 377.252 137.043C377.677 137.344 378.035 137.731 378.302 138.179C378.568 138.627 378.737 139.126 378.799 139.644C378.86 140.161 378.812 140.686 378.657 141.184C378.503 141.682 378.245 142.141 377.902 142.533C376.502 144.213 373.812 144.713 371.722 144.633Z"
				fill="#1573FF" />
			<g id="Group" opacity="0.5">
				<path id="Vector_6" opacity="0.5"
					d="M321.112 121.413C321.052 121.413 321.802 117.683 321.882 117.413C322.742 114.753 325.982 110.113 329.112 110.123C329.632 110.138 330.144 110.262 330.613 110.488C331.082 110.714 331.499 111.035 331.835 111.432C332.172 111.829 332.422 112.293 332.567 112.793C332.713 113.293 332.752 113.817 332.682 114.333C332.452 116.543 330.472 118.413 328.682 119.503C326.582 120.813 321.112 121.413 321.112 121.413Z"
					fill="white" />
				<path id="Vector_7" opacity="0.5"
					d="M315.042 96.3033C317.992 97.3633 319.462 102.823 319.362 105.623C319.362 105.863 318.802 109.623 318.752 109.623H318.692C318.922 110.483 319.172 111.413 319.422 112.423C319.862 114.303 320.342 116.423 320.712 118.783C321.141 121.315 321.421 123.869 321.552 126.433C321.711 129.303 321.614 132.181 321.262 135.033C321.256 135.066 321.256 135.1 321.262 135.133C321.652 134.303 322.802 132.003 322.912 131.833C324.452 129.493 328.792 125.833 331.822 126.713C332.318 126.866 332.777 127.122 333.169 127.464C333.56 127.806 333.875 128.226 334.094 128.697C334.313 129.169 334.43 129.681 334.438 130.2C334.447 130.72 334.346 131.235 334.142 131.713C333.342 133.773 330.942 135.063 328.932 135.633C326.662 136.283 321.602 135.513 321.202 135.453C320.775 138.345 320.154 141.205 319.342 144.013C318.875 145.653 318.368 147.293 317.822 148.933C318.172 148.223 318.502 147.593 318.552 147.503C320.092 145.163 324.432 141.503 327.462 142.373C327.959 142.525 328.419 142.78 328.812 143.121C329.204 143.463 329.52 143.883 329.739 144.355C329.958 144.827 330.075 145.34 330.082 145.86C330.089 146.38 329.987 146.895 329.782 147.373C328.982 149.443 326.582 150.723 324.572 151.303C322.562 151.883 318.202 151.303 317.062 151.153C316.852 151.773 316.642 152.403 316.422 153.023C315.422 156.023 314.342 159.023 313.422 161.963C313.092 162.963 312.802 164.043 312.512 165.083C312.832 164.453 313.102 163.923 313.152 163.853C314.682 161.513 319.032 157.853 322.052 158.723C322.548 158.877 323.007 159.132 323.399 159.474C323.791 159.816 324.106 160.235 324.326 160.706C324.546 161.178 324.664 161.689 324.674 162.209C324.683 162.729 324.584 163.244 324.382 163.723C323.582 165.783 321.172 167.073 319.162 167.643C317.152 168.213 313.222 167.713 311.862 167.523C311.592 168.603 311.332 169.673 311.122 170.723C310.992 171.443 310.822 172.133 310.732 172.863C310.642 173.593 310.532 174.303 310.432 175.003C310.292 176.373 310.132 177.793 310.032 179.133C309.952 180.063 309.892 180.953 309.832 181.843C310.142 180.843 310.832 178.783 310.882 178.613C311.992 176.415 313.644 174.536 315.682 173.153C315.793 172.903 315.93 172.665 316.092 172.443C316.375 172.007 316.747 171.635 317.184 171.352C317.62 171.068 318.111 170.88 318.625 170.799C319.139 170.718 319.664 170.746 320.167 170.881C320.669 171.016 321.138 171.255 321.542 171.583C323.922 173.583 323.322 179.263 322.232 181.843C322.172 181.993 321.282 183.563 320.712 184.543C321.142 184.023 321.542 183.543 321.992 182.963C322.862 181.903 323.762 180.863 324.722 179.743L326.192 178.153C326.672 177.603 327.252 177.093 327.782 176.563C329.032 175.353 330.362 174.183 331.732 173.033C330.792 172.273 327.522 169.503 326.582 167.623C325.642 165.743 324.972 163.113 325.952 161.133C326.166 160.658 326.478 160.233 326.868 159.886C327.258 159.539 327.716 159.278 328.214 159.121C328.711 158.963 329.236 158.912 329.754 158.971C330.273 159.03 330.773 159.198 331.222 159.463C333.872 161.123 334.142 166.773 333.452 169.463C333.452 169.633 332.692 171.523 332.282 172.553C333.112 171.873 333.932 171.183 334.792 170.553C337.272 168.633 339.842 166.773 342.392 164.903L344.722 163.173C344.392 162.903 340.432 159.703 339.372 157.603C338.442 155.733 337.762 153.093 338.742 151.103C338.957 150.629 339.27 150.205 339.66 149.859C340.05 149.513 340.508 149.253 341.005 149.095C341.502 148.938 342.026 148.887 342.544 148.945C343.062 149.003 343.562 149.17 344.012 149.433C346.662 151.103 346.932 156.753 346.242 159.433C346.192 159.643 345.162 162.363 344.862 163.043C346.572 161.763 348.262 160.483 349.862 159.153C352.053 157.364 354.124 155.433 356.062 153.373C355.912 153.253 351.762 149.933 350.682 147.773C349.742 145.903 349.072 143.263 350.052 141.283C350.265 140.808 350.576 140.383 350.965 140.036C351.354 139.69 351.811 139.429 352.308 139.271C352.805 139.114 353.329 139.063 353.846 139.121C354.364 139.18 354.863 139.348 355.312 139.613C357.972 141.273 358.242 146.923 357.552 149.613C357.502 149.783 356.722 151.863 356.322 152.843L356.482 152.933C358.378 150.809 360.082 148.52 361.572 146.093C362.402 144.773 363.132 143.463 363.812 142.163C362.972 141.623 359.182 139.163 357.992 137.283C356.802 135.403 355.902 132.983 356.652 130.903C356.813 130.414 357.075 129.963 357.421 129.581C357.766 129.198 358.187 128.892 358.658 128.681C359.128 128.47 359.638 128.36 360.153 128.357C360.668 128.354 361.179 128.458 361.652 128.663C364.482 130.023 365.362 135.613 364.972 138.383C364.972 138.533 364.572 140.043 364.282 141.143C364.572 140.553 364.892 139.953 365.162 139.383C366.162 137.243 367.012 135.223 367.712 133.383C368.112 132.383 368.442 131.383 368.712 130.553C368.162 129.553 366.022 125.703 365.812 123.553C365.602 121.403 365.942 118.763 367.572 117.263C367.944 116.899 368.388 116.616 368.876 116.435C369.364 116.253 369.885 116.176 370.405 116.209C370.925 116.242 371.432 116.385 371.893 116.626C372.354 116.868 372.759 117.205 373.082 117.613C374.962 120.123 373.172 125.483 371.552 127.773C371.412 127.963 368.862 130.773 368.832 130.773V130.713C368.552 131.563 368.252 132.473 367.892 133.453C367.232 135.263 366.452 137.313 365.472 139.453C364.427 141.799 363.249 144.083 361.942 146.293C360.486 148.77 358.812 151.113 356.942 153.293L356.872 153.373C357.652 152.883 359.872 151.613 360.062 151.533C362.642 150.433 368.262 149.803 370.322 152.173C370.652 152.576 370.894 153.043 371.032 153.544C371.17 154.046 371.202 154.571 371.125 155.086C371.047 155.6 370.863 156.093 370.583 156.532C370.304 156.97 369.935 157.346 369.502 157.633C367.692 158.913 364.972 158.633 362.982 158.023C360.732 157.313 356.982 153.883 356.632 153.613C354.682 155.789 352.587 157.83 350.362 159.723C349.062 160.843 347.732 161.923 346.362 162.983C347.052 162.593 347.672 162.243 347.762 162.203C350.332 161.103 355.952 160.473 358.012 162.843C358.343 163.245 358.587 163.712 358.726 164.214C358.865 164.716 358.897 165.241 358.82 165.756C358.742 166.271 358.557 166.764 358.277 167.203C357.996 167.642 357.627 168.017 357.192 168.303C355.392 169.583 352.672 169.303 350.682 168.693C348.692 168.083 345.362 165.203 344.502 164.433L342.932 165.643C340.412 167.573 337.932 169.483 335.482 171.433C334.632 172.123 333.822 172.833 333.002 173.533C333.622 173.183 334.132 172.893 334.222 172.863C336.792 171.753 342.412 171.133 344.472 173.493C344.805 173.894 345.049 174.361 345.19 174.863C345.33 175.365 345.362 175.891 345.285 176.407C345.207 176.922 345.022 177.416 344.74 177.855C344.459 178.293 344.088 178.668 343.652 178.953C341.842 180.233 339.132 179.953 337.142 179.353C335.152 178.753 332.142 176.133 331.142 175.223C330.332 175.973 329.512 176.713 328.762 177.483C328.252 178.013 327.762 178.483 327.262 179.053C326.762 179.623 326.262 180.133 325.822 180.673C324.952 181.733 324.042 182.833 323.212 183.893C322.632 184.623 322.092 185.333 321.552 186.043C322.382 185.353 324.062 184.043 324.212 183.933C326.582 182.453 332.042 180.983 334.442 183.003C334.829 183.352 335.139 183.779 335.351 184.255C335.564 184.731 335.673 185.247 335.673 185.768C335.673 186.29 335.564 186.805 335.351 187.282C335.139 187.758 334.829 188.185 334.442 188.533C332.852 190.063 330.132 190.233 328.072 189.913C325.792 189.553 321.672 186.913 321.162 186.533C320.262 187.713 319.402 188.873 318.602 189.983C315.832 193.813 313.672 197.103 312.192 199.433L312.042 199.663L310.122 198.733C310.222 198.583 310.322 198.443 310.422 198.283C311.972 195.963 314.232 192.683 317.112 188.873C318.022 187.673 319.012 186.403 320.042 185.103C318.97 183.937 317.968 182.708 317.042 181.423C314.832 182.283 310.242 182.323 309.652 182.323C309.562 183.803 309.482 185.243 309.422 186.603C309.222 191.333 309.242 195.273 309.292 198.023V198.353L307.182 197.353C307.182 194.623 307.292 190.913 307.572 186.543C307.662 185.033 307.792 183.423 307.942 181.783C307.352 181.633 302.582 180.403 300.782 178.963C299.152 177.663 297.432 175.543 297.492 173.333C297.486 172.812 297.591 172.296 297.799 171.818C298.007 171.34 298.313 170.911 298.699 170.56C299.084 170.208 299.539 169.943 300.034 169.779C300.529 169.616 301.053 169.56 301.572 169.613C304.682 170.013 307.282 175.033 307.802 177.783C307.802 177.943 307.962 179.783 308.022 180.883C308.092 180.203 308.142 179.553 308.212 178.883C308.352 177.513 308.532 176.143 308.722 174.673C308.832 173.973 308.952 173.263 309.062 172.543C309.172 171.823 309.362 171.083 309.512 170.343C309.892 168.643 310.352 166.933 310.862 165.223C309.662 165.093 305.412 164.593 303.582 163.553C301.752 162.513 299.752 160.673 299.482 158.483C299.397 157.969 299.421 157.442 299.554 156.937C299.687 156.432 299.925 155.961 300.253 155.555C300.58 155.149 300.99 154.817 301.455 154.581C301.921 154.344 302.431 154.209 302.952 154.183C306.082 154.103 309.422 158.673 310.342 161.313C310.402 161.483 310.852 163.453 311.072 164.543C311.392 163.543 311.692 162.483 312.072 161.463C313.072 158.463 314.202 155.523 315.302 152.553C315.642 151.643 315.962 150.733 316.302 149.833C315.872 149.833 310.802 149.303 308.762 148.133C306.952 147.133 304.932 145.253 304.652 143.063C304.57 142.549 304.597 142.023 304.731 141.52C304.865 141.016 305.103 140.547 305.43 140.142C305.758 139.736 306.166 139.404 306.63 139.167C307.093 138.929 307.602 138.792 308.122 138.763C311.262 138.683 314.602 143.253 315.522 145.893C315.592 146.093 316.232 148.893 316.362 149.663C317.082 147.663 317.792 145.663 318.362 143.663C319.207 140.963 319.876 138.211 320.362 135.423C320.162 135.423 314.862 134.923 312.782 133.723C310.962 132.723 308.942 130.843 308.672 128.653C308.59 128.139 308.617 127.613 308.751 127.11C308.885 126.606 309.123 126.137 309.45 125.732C309.778 125.326 310.186 124.994 310.65 124.757C311.113 124.519 311.622 124.382 312.142 124.353C315.272 124.283 318.612 128.843 319.532 131.483C319.592 131.663 320.082 133.823 320.292 134.853H320.472C320.885 132.037 321.045 129.189 320.952 126.343C320.952 124.773 320.802 123.283 320.652 121.823C319.652 121.823 315.112 121.823 313.112 120.963C311.112 120.103 308.982 118.523 308.462 116.373C308.323 115.87 308.292 115.342 308.371 114.826C308.451 114.31 308.638 113.816 308.921 113.377C309.204 112.938 309.577 112.564 310.015 112.279C310.453 111.994 310.946 111.805 311.462 111.723C314.572 111.303 318.392 115.473 319.602 118.003C319.662 118.143 320.182 119.613 320.532 120.683C320.462 120.033 320.392 119.353 320.302 118.733C319.992 116.383 319.552 114.243 319.152 112.363C318.912 111.293 318.682 110.363 318.452 109.433C317.452 108.933 313.532 106.873 312.182 105.203C310.832 103.533 309.652 101.143 310.182 98.9933C310.296 98.4809 310.518 97.9985 310.832 97.578C311.147 97.1576 311.547 96.8087 312.006 96.5544C312.466 96.3002 312.974 96.1463 313.497 96.103C314.02 96.0597 314.547 96.128 315.042 96.3033Z"
					fill="white" />
				<path id="Vector_8" opacity="0.5"
					d="M371.722 144.633C369.272 144.533 364.372 142.023 364.372 142.013C364.372 142.003 367.002 139.293 367.192 139.143C369.382 137.393 374.642 135.313 377.252 137.043C377.677 137.344 378.035 137.731 378.302 138.179C378.568 138.627 378.737 139.126 378.799 139.644C378.86 140.161 378.812 140.686 378.657 141.184C378.503 141.682 378.245 142.141 377.902 142.533C376.502 144.213 373.812 144.713 371.722 144.633Z"
					fill="white" />
			</g>
			<path id="Vector_9"
				d="M343.112 205.993C343.112 205.993 328.242 170.143 319.922 171.703C311.602 173.263 334.172 228.843 334.172 228.843C334.172 228.843 308.012 179.493 290.172 179.493C272.332 179.493 296.712 234.043 319.302 252.223C319.302 252.223 283.632 213.783 262.822 222.093C242.012 230.403 304.442 269.363 304.442 269.363C304.442 269.363 268.172 257.933 272.332 266.763C276.492 275.593 287.792 277.153 287.792 277.153L246.792 279.233H389.492L357.382 276.113C357.382 276.113 390.682 259.493 381.762 252.743C372.842 245.993 353.222 260.533 353.222 260.533C353.222 260.533 387.112 223.133 380.572 209.103C374.032 195.073 344.892 234.563 344.892 234.563C344.892 234.563 368.682 184.173 363.892 175.343C359.102 166.513 343.112 205.993 343.112 205.993Z"
				fill="#1573FF" />
			<path id="Vector_10" opacity="0.4"
				d="M343.112 205.993C343.112 205.993 328.242 170.143 319.922 171.703C311.602 173.263 334.172 228.843 334.172 228.843C334.172 228.843 308.012 179.493 290.172 179.493C272.332 179.493 296.712 234.043 319.302 252.223C319.302 252.223 283.632 213.783 262.822 222.093C242.012 230.403 304.442 269.363 304.442 269.363C304.442 269.363 268.172 257.933 272.332 266.763C276.492 275.593 287.792 277.153 287.792 277.153L246.792 279.233H389.492L357.382 276.113C357.382 276.113 390.682 259.493 381.762 252.743C372.842 245.993 353.222 260.533 353.222 260.533C353.222 260.533 387.112 223.133 380.572 209.103C374.032 195.073 344.892 234.563 344.892 234.563C344.892 234.563 368.682 184.173 363.892 175.343C359.102 166.513 343.112 205.993 343.112 205.993Z"
				fill="white" />
			<path id="Vector_11"
				d="M347.872 207.873C334.782 246.523 334.782 273.873 334.782 273.873C334.782 273.873 350.242 274.463 366.302 262.573"
				stroke="#263238" stroke-linecap="round"
				stroke-linejoin="round" />
			<path id="Vector_12"
				d="M341.332 228.693C338.632 217.137 335.052 205.803 330.622 194.793"
				stroke="#263238" stroke-linecap="round"
				stroke-linejoin="round" />
			<path id="Vector_13"
				d="M302.682 206.093L335.972 255.443C335.972 255.443 358.572 236.443 366.302 225.713"
				stroke="#263238" stroke-linecap="round"
				stroke-linejoin="round" />
			<path id="Vector_14"
				d="M335.382 267.343C335.382 267.343 300.302 250.693 286.032 241.213"
				stroke="#263238" stroke-linecap="round"
				stroke-linejoin="round" />
		</g>
		<g id="Device">
			<path id="Vector_15"
				d="M303.892 1.21335H197.052C192.678 1.21335 189.132 4.75925 189.132 9.13335V271.313C189.132 275.687 192.678 279.233 197.052 279.233H303.892C308.266 279.233 311.812 275.687 311.812 271.313V9.13335C311.812 4.75925 308.266 1.21335 303.892 1.21335Z"
				fill="white" stroke="#263238" stroke-linecap="round"
				stroke-linejoin="round" />
			<path id="Vector_16"
				d="M307.712 49.8833C307.279 49.8833 306.865 49.7116 306.559 49.4059C306.254 49.1002 306.082 48.6856 306.082 48.2533V26.4034C306.114 25.9918 306.3 25.6075 306.603 25.3273C306.906 25.047 307.304 24.8913 307.717 24.8913C308.13 24.8913 308.527 25.047 308.83 25.3273C309.133 25.6075 309.32 25.9918 309.352 26.4034V48.2133C309.356 48.4312 309.316 48.6477 309.236 48.8502C309.155 49.0526 309.035 49.237 308.882 49.3924C308.729 49.5479 308.547 49.6714 308.346 49.7557C308.145 49.84 307.93 49.8834 307.712 49.8833Z"
				fill="#263238" />
			<path id="Vector_17"
				d="M307.712 70.1234C307.279 70.1234 306.865 69.9516 306.559 69.6459C306.254 69.3403 306.082 68.9256 306.082 68.4933V56.2834C306.114 55.8718 306.3 55.4875 306.603 55.2073C306.906 54.927 307.304 54.7713 307.717 54.7713C308.13 54.7713 308.527 54.927 308.83 55.2073C309.133 55.4875 309.32 55.8718 309.352 56.2834V68.4933C309.349 68.9266 309.175 69.3411 308.868 69.6465C308.561 69.9519 308.145 70.1234 307.712 70.1234Z"
				fill="#263238" />
			<path id="Vector_18"
				d="M294.642 1.21335H187.802C183.428 1.21335 179.882 4.75925 179.882 9.13335V271.313C179.882 275.687 183.428 279.233 187.802 279.233H294.642C299.016 279.233 302.562 275.687 302.562 271.313V9.13335C302.562 4.75925 299.016 1.21335 294.642 1.21335Z"
				fill="#263238" stroke="#263238" stroke-linecap="round"
				stroke-linejoin="round" />
			<path id="Vector_19"
				d="M294.392 19.7234H188.052V258.183H294.392V19.7234Z"
				fill="#1573FF" />
			<path id="Vector_20" d="M225.432 12.1033H253.742" stroke="white"
				stroke-width="3" stroke-linecap="round"
				stroke-linejoin="round" />
			<path id="Vector_21"
				d="M237.412 266.623C237.412 268.573 236.192 270.153 234.682 270.153C233.172 270.153 231.962 268.573 231.962 266.623C231.962 264.673 233.182 263.083 234.682 263.083C236.182 263.083 237.412 264.663 237.412 266.623Z"
				fill="white" />
			<path id="Vector_22"
				d="M241.222 79.0634C251.406 79.0634 259.662 69.4375 259.662 57.5634C259.662 45.6892 251.406 36.0634 241.222 36.0634C231.038 36.0634 222.782 45.6892 222.782 57.5634C222.782 69.4375 231.038 79.0634 241.222 79.0634Z"
				fill="white" />
			<path id="Vector_23"
				d="M241.222 57.2934C245.088 57.2934 248.222 53.6355 248.222 49.1234C248.222 44.6112 245.088 40.9534 241.222 40.9534C237.356 40.9534 234.222 44.6112 234.222 49.1234C234.222 53.6355 237.356 57.2934 241.222 57.2934Z"
				fill="#263238" stroke="#263238" stroke-linecap="round"
				stroke-linejoin="round" />
			<path id="Vector_24"
				d="M241.222 59.4633C234.222 59.4633 228.492 64.8333 228.492 71.4633C228.497 72.0803 228.554 72.6958 228.662 73.3033C230.215 75.1155 232.141 76.5703 234.309 77.5677C236.477 78.5651 238.835 79.0815 241.222 79.0815C243.608 79.0815 245.966 78.5651 248.134 77.5677C250.302 76.5703 252.229 75.1155 253.782 73.3033C253.881 72.6949 253.934 72.0798 253.942 71.4633C253.942 64.8333 248.242 59.4633 241.222 59.4633Z"
				fill="#263238" stroke="#263238" stroke-linecap="round"
				stroke-linejoin="round" />
			<path id="Vector_25"
				d="M263.642 151.213H218.802C217.615 151.167 216.496 150.65 215.689 149.778C214.883 148.907 214.456 147.75 214.502 146.563V118.883C214.502 102.933 226.502 89.9534 241.222 89.9534C255.942 89.9534 267.932 102.953 267.932 118.883V146.543C267.957 147.132 267.866 147.72 267.665 148.273C267.463 148.826 267.154 149.334 266.755 149.768C266.357 150.202 265.877 150.553 265.342 150.801C264.808 151.049 264.23 151.189 263.642 151.213ZM223.092 141.913H259.342V118.913C259.342 108.093 251.212 99.2834 241.222 99.2834C231.232 99.2834 223.092 108.093 223.092 118.913V141.913Z"
				fill="#263238" />
			<path id="Vector_26"
				d="M272.352 132.323H210.092V191.223H272.352V132.323Z"
				fill="white" />
			<path id="Vector_27"
				d="M250.292 172.873L245.672 161.763C246.693 160.991 247.52 159.99 248.084 158.84C248.649 157.69 248.935 156.424 248.922 155.143C248.922 150.713 245.612 147.143 241.522 147.143C237.432 147.143 234.132 150.723 234.132 155.143C234.116 156.423 234.401 157.689 234.964 158.839C235.527 159.989 236.351 160.99 237.372 161.763L232.762 172.873H250.292Z"
				fill="#263238" stroke="#263238" stroke-linecap="round"
				stroke-linejoin="round" />
			<path id="Vector_28"
				d="M222.252 244.153C222.348 244.224 222.463 244.262 222.582 244.263C222.667 244.263 222.75 244.242 222.825 244.202C222.9 244.162 222.964 244.104 223.012 244.033L294.392 146.943V145.103L222.172 243.393C222.127 243.448 222.094 243.512 222.074 243.58C222.053 243.648 222.047 243.719 222.054 243.79C222.062 243.861 222.083 243.929 222.117 243.991C222.151 244.054 222.197 244.109 222.252 244.153Z"
				fill="white" />
			<path id="Vector_29"
				d="M280.032 54.7034C279.989 54.7609 279.959 54.8264 279.942 54.896C279.925 54.9655 279.922 55.0377 279.933 55.1085C279.944 55.1792 279.969 55.247 280.007 55.3079C280.044 55.3688 280.094 55.4217 280.152 55.4633C280.269 55.5467 280.414 55.5808 280.556 55.5584C280.698 55.5359 280.826 55.4588 280.912 55.3434L294.392 37.0134V35.2133L280.032 54.7034Z"
				fill="white" />
			<path id="Vector_30"
				d="M188.052 181.673L276.172 61.8434C276.257 61.7267 276.292 61.581 276.269 61.4385C276.247 61.296 276.168 61.1682 276.052 61.0834C275.935 60.9985 275.789 60.9634 275.647 60.986C275.504 61.0085 275.377 61.0867 275.292 61.2034L188.092 179.833L188.052 181.673Z"
				fill="white" />
			<path id="Vector_31"
				d="M213.972 255.973C214.057 255.972 214.141 255.951 214.217 255.913C214.293 255.875 214.36 255.821 214.412 255.753L219.412 248.993C219.454 248.936 219.485 248.87 219.502 248.801C219.519 248.731 219.522 248.659 219.511 248.588C219.5 248.517 219.475 248.45 219.437 248.389C219.399 248.328 219.35 248.275 219.292 248.233C219.175 248.15 219.029 248.116 218.887 248.138C218.745 248.161 218.618 248.238 218.532 248.353L213.532 255.103C213.489 255.16 213.457 255.225 213.44 255.294C213.422 255.364 213.418 255.436 213.428 255.506C213.438 255.577 213.463 255.645 213.499 255.706C213.536 255.768 213.584 255.821 213.642 255.863C213.736 255.938 213.852 255.976 213.972 255.973Z"
				fill="white" />
			<path id="Vector_32"
				d="M294.392 166.383L235.792 246.093C235.732 246.174 235.697 246.27 235.688 246.37C235.68 246.47 235.7 246.57 235.746 246.659C235.792 246.749 235.861 246.823 235.947 246.875C236.033 246.927 236.131 246.954 236.232 246.953C236.317 246.955 236.402 246.936 236.479 246.897C236.555 246.859 236.622 246.803 236.672 246.733L294.392 168.213V166.383Z"
				fill="white" />
		</g>
		<g id="character">
			<path id="Vector_33"
				d="M78.5818 54.3533C79.5733 52.1564 80.0521 49.7627 79.9818 47.3533C79.9818 42.8833 74.5718 40.2933 68.2118 39.5833C61.8518 38.8733 59.0318 41.4633 59.9718 43.1133C60.9486 44.4742 62.141 45.6665 63.5018 46.6433C63.5018 46.6433 57.1418 43.1133 52.9018 45.9433C48.6618 48.7733 54.7918 47.5933 53.6118 50.4133C52.4318 53.2333 45.8418 52.0634 44.1918 59.5934C42.5418 67.1234 47.2518 74.6633 43.0118 77.9633C38.7718 81.2633 26.0118 76.7833 22.2918 85.0233C18.5718 93.2633 23.8518 96.9233 14.9118 102.103C5.97178 107.283 -0.548213 112.343 2.04179 125.053C4.63179 137.763 13.1118 142.213 29.8318 137.723C46.5518 133.233 45.3718 123.123 50.8318 112.723C56.2918 102.323 64.7318 104.483 67.3218 98.5934C69.9118 92.7034 66.6118 85.6433 66.8518 80.2233C67.0918 74.8033 72.5018 73.6333 74.6218 67.2233C76.7418 60.8133 78.5818 54.3533 78.5818 54.3533Z"
				fill="#263238" stroke="#263238" stroke-linecap="round"
				stroke-linejoin="round" />
			<path id="Vector_34"
				d="M3.99178 124.813C3.55323 125.699 3.33049 126.675 3.34178 127.663"
				stroke="white" stroke-width="0.5" stroke-linecap="round"
				stroke-linejoin="round" />
			<path id="Vector_35"
				d="M69.5418 49.6834C69.5418 49.6834 66.6018 46.2833 72.2618 47.8633C79.3918 49.8633 71.0218 58.1133 67.8018 59.7733C61.3418 63.0833 52.8018 62.0234 47.8018 68.0434C43.2618 73.4834 49.3918 79.1534 46.6718 83.4634C43.9518 87.7734 33.0618 85.2734 29.4418 90.4634C25.8218 95.6534 36.0118 106.793 25.5818 112.913C18.0418 117.343 9.78178 119.043 5.79178 122.553"
				stroke="white" stroke-width="0.5" stroke-linecap="round"
				stroke-linejoin="round" />
			<path id="Vector_36"
				d="M52.6318 69.8033C52.0138 71.2495 51.8263 72.8433 52.0918 74.3933C52.9918 78.2433 58.2118 85.5033 53.4518 89.5833C48.6918 93.6633 40.5218 93.4333 39.1718 98.2133C37.8218 102.993 40.5318 116.123 36.0018 122.213C31.4718 128.303 22.6218 127.883 17.8618 131.963C13.1018 136.043 13.7818 138.313 13.7818 138.313"
				stroke="white" stroke-width="0.5" stroke-linecap="round"
				stroke-linejoin="round" />
			<path id="Vector_37"
				d="M55.0318 65.3233C54.6197 65.9058 54.2391 66.51 53.8918 67.1333"
				stroke="white" stroke-width="0.5" stroke-linecap="round"
				stroke-linejoin="round" />
			<path id="Vector_38"
				d="M81.6318 124.453L82.7818 133.453C82.7818 133.453 88.7818 139.453 93.1918 143.163C97.6018 146.873 108.902 154.723 108.902 154.723L103.172 156.353C103.172 156.353 84.4418 145.253 80.7418 144.353C77.0418 143.453 74.2718 138.113 73.1218 136.493C71.9718 134.873 78.6218 122.833 81.6318 124.453Z"
				fill="white" stroke="#263238" stroke-linecap="round"
				stroke-linejoin="round" />
			<path id="Vector_39"
				d="M93.0718 270.883C93.0718 270.883 98.7318 275.663 101.072 277.263C103.412 278.863 106.142 279.583 105.712 280.453C105.282 281.323 104.112 282.193 98.6018 281.453C93.0918 280.713 91.5018 278.843 90.4818 278.553C89.4618 278.263 87.0018 278.993 85.1218 277.833C83.2418 276.673 86.2218 269.763 86.2218 269.763C87.0475 270.729 88.1883 271.371 89.442 271.576C90.6957 271.781 91.9815 271.535 93.0718 270.883Z"
				fill="white" stroke="#263238" stroke-linecap="round"
				stroke-linejoin="round" />
			<path id="Vector_40"
				d="M105.692 280.453C105.696 280.407 105.696 280.36 105.692 280.313C102.511 280.606 99.3027 280.304 96.2318 279.423C92.6718 278.583 91.6218 276.693 88.2318 276.693C86.9014 276.705 85.5789 276.489 84.3218 276.053C84.2854 276.387 84.331 276.724 84.4548 277.036C84.5785 277.348 84.7766 277.625 85.0318 277.843C86.9118 279.003 89.3818 278.273 90.3918 278.563C91.4018 278.853 93.0018 280.743 98.5118 281.463C104.022 282.183 105.252 281.323 105.692 280.453Z"
				fill="white" stroke="#263238" stroke-linecap="round"
				stroke-linejoin="round" />
			<path id="Vector_41"
				d="M63.4418 77.6133C63.4418 77.6133 64.5318 84.9533 63.1318 87.9133C61.7318 90.8733 57.3518 91.1933 53.6118 91.8233C49.8718 92.4533 41.2818 95.7234 42.2118 104.153C43.1418 112.583 53.9218 130.843 53.9218 135.993C53.9218 141.143 50.6418 143.793 47.0518 153.783C43.4618 163.773 43.9318 182.353 45.0518 194.373C45.8727 202.306 47.4396 210.144 49.7318 217.783C49.7318 217.783 40.7318 232.303 36.7318 238.543C32.7318 244.783 18.7318 271.953 18.7318 271.953C18.7318 271.953 18.7318 272.883 20.9118 273.513C22.4455 273.886 24.0323 273.991 25.6018 273.823C25.6018 273.823 52.4418 241.513 57.4418 236.053C62.4418 230.593 67.1218 221.053 67.7418 216.693C68.3618 212.333 67.5918 185.633 67.5918 185.633C67.5918 185.633 73.2018 199.053 77.5918 205.923C80.2544 210.127 82.6977 214.467 84.9118 218.923C84.297 224.573 84.297 230.273 84.9118 235.923C86.0018 243.723 85.0818 268.783 86.1718 270.813C87.2618 272.843 91.4918 271.993 92.4318 271.063C93.3718 270.133 93.8118 264.063 93.8118 264.063C93.8118 264.063 95.6818 245.063 96.8118 236.123C97.9418 227.183 99.8118 219.573 99.1618 217.543C98.5118 215.513 94.6318 193.813 91.6618 183.543C88.6918 173.273 79.6618 154.043 77.6618 149.053C75.6618 144.063 74.5318 139.523 74.8518 137.963C75.1718 136.403 81.2518 127.043 82.8518 124.543C83.7639 122.849 84.267 120.964 84.3208 119.04C84.3747 117.116 83.9778 115.206 83.1618 113.463C81.2918 109.403 83.1618 103.933 82.8518 100.663C82.5418 97.3933 77.7018 95.9734 75.2018 94.7334C72.7018 93.4934 71.7618 90.6733 71.7618 88.3333C71.9145 86.3622 72.3908 84.4296 73.1718 82.6133C73.1718 82.6133 65.4718 77.6133 63.4418 77.6133Z"
				fill="white" stroke="#263238" stroke-linecap="round"
				stroke-linejoin="round" />
			<path id="Vector_42"
				d="M82.3618 111.003C81.5395 108.914 80.8547 106.772 80.3118 104.593"
				stroke="#263238" stroke-linecap="round"
				stroke-linejoin="round" />
			<path id="Vector_43"
				d="M62.0918 128.383C62.0918 128.383 64.9118 129.003 70.5618 126.183"
				stroke="#263238" stroke-linecap="round"
				stroke-linejoin="round" />
			<path id="Vector_44"
				d="M91.6918 183.443C88.8618 173.603 80.4718 155.633 77.9618 149.703C65.9618 154.203 54.7418 150.363 49.4718 147.883C48.7118 149.543 47.8918 151.463 47.0518 153.783C43.4618 163.783 43.9318 182.353 45.0518 194.373C45.8727 202.306 47.4396 210.144 49.7318 217.783C49.7318 217.783 40.7318 232.303 36.7318 238.543C32.7318 244.783 18.7318 271.953 18.7318 271.953C18.7318 271.953 18.7318 272.883 20.9118 273.513C22.4455 273.886 24.0323 273.991 25.6018 273.823C25.6018 273.823 52.4418 241.513 57.4418 236.053C62.4418 230.593 67.1218 221.053 67.7418 216.693C68.3618 212.333 67.5918 185.633 67.5918 185.633C67.5918 185.633 73.2018 199.053 77.5918 205.923C80.2544 210.127 82.6977 214.467 84.9118 218.923C84.297 224.573 84.297 230.273 84.9118 235.923C86.0018 243.723 85.0818 268.783 86.1718 270.813C87.2618 272.843 91.4918 271.993 92.4318 271.063C93.3718 270.133 93.8118 264.063 93.8118 264.063C93.8118 264.063 95.6818 245.063 96.8118 236.123C97.9418 227.183 99.8118 219.573 99.1618 217.543C98.5118 215.513 94.6618 193.743 91.6918 183.443Z"
				fill="#263238" stroke="#263238" stroke-linecap="round"
				stroke-linejoin="round" />
			<path id="Vector_45"
				d="M152.832 173.533V171.493H154.542V155.473H152.832H135.952H134.242V171.493H135.952V173.533H134.232V177.253H140.822V176.003H147.962V177.253H154.552V173.533H152.832Z"
				fill="#1573FF" stroke="#263238" stroke-linecap="round"
				stroke-linejoin="round" />
			<path id="Vector_46"
				d="M43.7318 150.683H161.492C161.964 150.683 162.417 150.871 162.75 151.205C163.084 151.539 163.272 151.991 163.272 152.463V156.043C163.272 156.515 163.084 156.968 162.75 157.302C162.417 157.636 161.964 157.823 161.492 157.823H43.7318V150.673V150.683Z"
				fill="#1573FF" stroke="#263238" stroke-linecap="round"
				stroke-linejoin="round" />
			<path id="Vector_47"
				d="M128.252 149.613H121.082C120.535 149.613 120.092 150.057 120.092 150.603V157.913C120.092 158.46 120.535 158.903 121.082 158.903H128.252C128.799 158.903 129.242 158.46 129.242 157.913V150.603C129.242 150.057 128.799 149.613 128.252 149.613Z"
				fill="#1573FF" stroke="#263238" stroke-linecap="round"
				stroke-linejoin="round" />
			<path id="Vector_48"
				d="M47.4161 157.265C49.0753 147.133 42.2067 137.575 32.0747 135.915C21.9426 134.256 12.384 141.125 10.7248 151.257C9.06561 161.389 15.9342 170.948 26.0662 172.607C36.1983 174.266 45.7569 167.397 47.4161 157.265Z"
				fill="#1573FF" stroke="#263238" stroke-linecap="round"
				stroke-linejoin="round" />
			<path id="Vector_49"
				d="M32.8918 154.213C33.9695 153.697 34.8841 152.894 35.5351 151.892C36.1861 150.89 36.5482 149.728 36.5818 148.533C36.5818 144.883 33.2218 141.923 29.0718 141.923C24.9218 141.923 21.5618 144.923 21.5618 148.533C21.5931 149.728 21.9543 150.891 22.6056 151.894C23.2568 152.896 24.1727 153.699 25.2518 154.213C24.1733 154.731 23.2583 155.536 22.6073 156.54C21.9564 157.544 21.5946 158.707 21.5618 159.903C21.5618 163.553 24.9218 166.513 29.0718 166.513C33.2218 166.513 36.5818 163.513 36.5818 159.903C36.5467 158.708 36.1841 157.545 35.5334 156.542C34.8827 155.538 33.9689 154.733 32.8918 154.213Z"
				fill="white" stroke="#263238" stroke-linecap="round"
				stroke-linejoin="round" />
			<path id="Vector_50"
				d="M105.232 157.983C105.232 157.983 111.052 160.443 112.852 160.443C114.652 160.443 116.732 158.633 117.762 156.443C118.792 154.253 118.762 153.213 118.152 153.733L116.862 154.733C116.862 154.733 117.862 152.543 116.732 152.803C115.949 153.064 115.3 153.62 114.922 154.353C114.922 154.353 114.792 152.413 113.762 153.353C113.08 153.971 112.473 154.665 111.952 155.423C111.952 155.423 111.822 152.973 111.172 153.613C110.522 154.253 108.082 157.743 108.082 157.743L105.232 157.983Z"
				fill="white" stroke="#263238" stroke-linecap="round"
				stroke-linejoin="round" />
			<g id="Vector_51">
				<path
					d="M111.952 155.403C111.952 155.403 111.562 158.503 109.632 159.023L111.952 155.403Z"
					fill="white" />
				<path
					d="M111.952 155.403C111.952 155.403 111.562 158.503 109.632 159.023"
					stroke="#263238" stroke-linecap="round"
					stroke-linejoin="round" />
			</g>
			<g id="Vector_52">
				<path
					d="M114.922 154.373C114.922 154.373 113.922 159.273 112.342 160.053L114.922 154.373Z"
					fill="white" />
				<path
					d="M114.922 154.373C114.922 154.373 113.922 159.273 112.342 160.053"
					stroke="#263238" stroke-linecap="round"
					stroke-linejoin="round" />
			</g>
			<g id="Vector_53">
				<path
					d="M116.862 154.753C116.346 156.541 115.653 158.273 114.792 159.923L116.862 154.753Z"
					fill="white" />
				<path
					d="M116.862 154.753C116.346 156.541 115.653 158.273 114.792 159.923"
					stroke="#263238" stroke-linecap="round"
					stroke-linejoin="round" />
			</g>
			<path id="Vector_54"
				d="M74.8318 94.4333C73.8246 93.7533 73.0088 92.8261 72.4625 91.7406C71.9163 90.655 71.6578 89.4474 71.7118 88.2334C71.8911 86.2934 72.3842 84.3953 73.1718 82.6133C73.1718 82.6133 65.5218 77.6133 63.4918 77.6133C63.4918 77.6133 64.5818 84.9533 63.1818 87.9133C62.7229 88.8341 61.9747 89.5788 61.0518 90.0334C62.9006 95.011 65.4061 99.7193 68.5018 104.033C71.3118 107.563 72.6818 100.123 74.8318 94.4333Z"
				fill="white" stroke="#263238" stroke-linecap="round"
				stroke-linejoin="round" />
			<g id="Vector_55">
				<path
					d="M51.2218 92.8333C49.3135 93.1592 47.5072 93.9241 45.9452 95.0678C44.3833 96.2115 43.1086 97.7026 42.2218 99.4234C39.1418 105.363 25.6818 132.323 26.8318 133.933C33.3718 143.133 57.1618 149.753 59.5818 152.173C62.0011 154.704 64.6565 156.998 67.5118 159.023C69.9318 160.563 74.7618 159.903 75.6418 159.463C76.5218 159.023 77.1818 157.043 75.6418 157.043C75.0534 157.051 74.4802 156.857 74.0179 156.493C73.5556 156.129 73.2322 155.617 73.1018 155.043C72.8818 154.163 75.5218 155.923 76.8418 155.263C78.1618 154.603 73.8918 152.193 72.5718 151.093C71.2518 149.993 70.1518 148.463 68.3918 148.463C66.6318 148.463 63.3218 148.463 63.3218 148.463C63.3218 148.463 55.2218 142.593 50.3218 138.223C46.509 134.783 42.3502 131.747 37.9118 129.163L52.7618 104.733"
					fill="white" />
				<path
					d="M51.2218 92.8333C49.3135 93.1592 47.5072 93.9241 45.9452 95.0678C44.3833 96.2115 43.1086 97.7026 42.2218 99.4234C39.1418 105.363 25.6818 132.323 26.8318 133.933C33.3718 143.133 57.1618 149.753 59.5818 152.173C62.0011 154.704 64.6565 156.998 67.5118 159.023C69.9318 160.563 74.7618 159.903 75.6418 159.463C76.5218 159.023 77.1818 157.043 75.6418 157.043C75.0534 157.051 74.4802 156.857 74.0179 156.493C73.5556 156.129 73.2322 155.617 73.1018 155.043C72.8818 154.163 75.5218 155.923 76.8418 155.263C78.1618 154.603 73.8918 152.193 72.5718 151.093C71.2518 149.993 70.1518 148.463 68.3918 148.463C66.6318 148.463 63.3218 148.463 63.3218 148.463C63.3218 148.463 55.2218 142.593 50.3218 138.223C46.509 134.783 42.3502 131.747 37.9118 129.163L52.7618 104.733"
					stroke="#263238" stroke-linecap="round"
					stroke-linejoin="round" />
			</g>
			<path id="Vector_56"
				d="M72.5618 151.103C71.2418 150.003 70.1418 148.473 68.3818 148.473C66.6218 148.473 63.3118 148.473 63.3118 148.473C63.3118 148.473 55.2118 142.603 50.3118 138.233C46.499 134.793 42.3402 131.757 37.9018 129.173L43.8418 119.393C40.805 117.555 37.3313 116.564 33.7818 116.523C29.7818 124.863 26.1918 133.103 26.7818 133.973C33.3218 143.173 57.1118 149.793 59.5318 152.213C61.9511 154.744 64.6064 157.038 67.4618 159.063C69.8818 160.603 74.7118 159.943 75.5918 159.503C76.4718 159.063 77.1318 157.083 75.5918 157.083C75.0034 157.091 74.4302 156.897 73.9679 156.533C73.5056 156.169 73.1822 155.657 73.0518 155.083C72.8318 154.203 75.4718 155.963 76.7918 155.303C78.1118 154.643 73.8818 152.213 72.5618 151.103Z"
				fill="white" stroke="#263238" stroke-linecap="round"
				stroke-linejoin="round" />
			<path id="Vector_57"
				d="M80.6118 66.8434C79.8318 65.2834 79.8318 64.0334 80.1418 61.8434C80.4518 59.6534 78.5818 54.3434 78.5818 54.3434C76.6718 57.6434 71.1518 59.6034 68.7118 60.3434C66.0218 61.1634 69.9518 63.0234 69.5318 65.5134C69.1118 68.0034 63.7418 69.4433 63.7418 69.4433C63.7418 69.4433 62.1718 66.2133 59.9918 66.2133C57.8118 66.2133 56.2618 71.2133 57.5018 73.8633C57.8249 74.5975 58.3877 75.2001 59.0981 75.5725C59.8084 75.945 60.6242 76.0651 61.4118 75.9133C61.4118 75.9133 61.2618 80.6033 64.2218 82.0033C67.3801 83.5103 70.6751 84.7125 74.0618 85.5934C75.9318 85.9034 77.8018 84.9733 78.5818 82.1633C79.1918 79.3315 79.6094 76.4616 79.8318 73.5733C81.1412 72.7166 82.346 71.7097 83.4218 70.5733C84.1718 69.4933 81.3918 68.4034 80.6118 66.8434Z"
				fill="white" stroke="#263238" stroke-linecap="round"
				stroke-linejoin="round" />
			<path id="Vector_58"
				d="M77.5718 66.9133C77.5718 67.7733 77.2918 68.4633 76.9518 68.4633C76.6118 68.4633 76.3318 67.7733 76.3318 66.9133C76.3318 66.0533 76.6118 65.3633 76.9518 65.3633C77.2918 65.3633 77.5718 66.0533 77.5718 66.9133Z"
				fill="#263238" />
			<path id="Vector_59"
				d="M74.8818 64.3333C74.8818 64.3333 76.5418 62.4633 77.7818 62.8833"
				stroke="#263238" stroke-linecap="round"
				stroke-linejoin="round" />
			<path id="Vector_60"
				d="M77.7818 77.1534C77.0324 77.3794 76.2369 77.4061 75.4741 77.2307C74.7112 77.0553 74.0072 76.684 73.4318 76.1534"
				stroke="#263238" stroke-linecap="round"
				stroke-linejoin="round" />
			<path id="Vector_61"
				d="M18.8018 271.953C18.8018 271.953 15.0718 279.433 15.2118 280.453C15.3518 281.473 22.7518 286.833 26.2118 288.713C29.6718 290.593 35.9318 290.893 35.4918 288.283C35.0518 285.673 29.1118 283.933 27.6618 280.013C26.8896 277.986 26.2221 275.92 25.6618 273.823C23.2445 273.859 20.8664 273.211 18.8018 271.953Z"
				fill="white" stroke="#263238" stroke-linecap="round"
				stroke-linejoin="round" />
			<path id="Vector_62"
				d="M35.5118 288.323C32.8494 288.68 30.1401 288.296 27.6818 287.213C22.3118 284.883 17.1118 280.123 15.6818 278.773C15.4278 279.313 15.2656 279.891 15.2018 280.483C15.3518 281.483 22.7418 286.863 26.2018 288.743C29.6618 290.623 35.8718 290.883 35.5118 288.323Z"
				fill="white" stroke="#263238" stroke-linecap="round"
				stroke-linejoin="round" />
		</g>
	</g>
</svg>