<svg width="252" height="219" viewBox="0 0 252 219" fill="none" xmlns="http://www.w3.org/2000/svg">
<path d="M193.41 25.46L125.41 0.410004L58.06 25.13C49.46 29.29 41.92 31.79 41.92 40V80.94C41.7798 109.592 49.4513 137.741 64.11 162.36C76.67 183.27 96.11 204.8 126.11 218.49C153.64 209.32 174.19 184.87 186.75 163.95C201.41 139.335 209.081 111.189 208.94 82.54V45.72C208.89 34 202.84 28.28 193.41 25.46Z" fill="white"/>
<path d="M166.93 129.02H154.43V61.02C154.43 53.3194 151.371 45.9343 145.926 40.4892C140.481 35.044 133.096 31.985 125.395 31.985C117.694 31.985 110.309 35.044 104.864 40.4892C99.419 45.9343 96.36 53.3194 96.36 61.02V129.02H83.86V61.02C83.7745 55.5113 84.7857 50.0407 86.8347 44.9265C88.8836 39.8123 91.9295 35.1568 95.7948 31.231C99.6602 27.3052 104.268 24.1876 109.35 22.0595C114.431 19.9314 119.886 18.8355 125.395 18.8355C130.904 18.8355 136.359 19.9314 141.44 22.0595C146.522 24.1876 151.13 27.3052 154.995 31.231C158.861 35.1568 161.906 39.8123 163.955 44.9265C166.004 50.0407 167.015 55.5113 166.93 61.02V129.02Z" fill="#CFCFCF"/>
<g opacity="0.4">
<path opacity="0.4" d="M166.93 129.02H154.43V61.02C154.43 53.3194 151.371 45.9343 145.926 40.4892C140.481 35.044 133.096 31.985 125.395 31.985C117.694 31.985 110.309 35.044 104.864 40.4892C99.419 45.9343 96.36 53.3194 96.36 61.02V129.02H83.86V61.02C83.7745 55.5113 84.7857 50.0407 86.8347 44.9265C88.8836 39.8123 91.9295 35.1568 95.7948 31.231C99.6602 27.3052 104.268 24.1876 109.35 22.0595C114.431 19.9314 119.886 18.8355 125.395 18.8355C130.904 18.8355 136.359 19.9314 141.44 22.0595C146.522 24.1876 151.13 27.3052 154.995 31.231C158.861 35.1568 161.906 39.8123 163.955 44.9265C166.004 50.0407 167.015 55.5113 166.93 61.02V129.02Z" fill="black"/>
</g>
<path d="M175.56 98.76H75.23C72.0212 98.76 69.42 101.361 69.42 104.57V164.77C69.42 167.979 72.0212 170.58 75.23 170.58H175.56C178.769 170.58 181.37 167.979 181.37 164.77V104.57C181.37 101.361 178.769 98.76 175.56 98.76Z" fill="#CFCFCF"/>
<g opacity="0.5">
<path opacity="0.5" d="M134.75 125.32C134.751 123.578 134.266 121.871 133.35 120.39C132.434 118.909 131.122 117.713 129.563 116.936C128.005 116.159 126.26 115.833 124.526 115.994C122.791 116.155 121.137 116.796 119.747 117.846C118.357 118.896 117.288 120.313 116.66 121.938C116.032 123.562 115.869 125.33 116.191 127.041C116.512 128.753 117.305 130.341 118.479 131.627C119.654 132.913 121.164 133.846 122.84 134.32V148.32H127.95V134.32C129.91 133.768 131.636 132.589 132.864 130.964C134.092 129.339 134.754 127.357 134.75 125.32Z" fill="black"/>
</g>
<path d="M75.39 163.77C75.13 163.77 74.93 151.77 74.93 137.02C74.93 122.27 75.13 110.27 75.39 110.27C75.65 110.27 75.86 122.27 75.86 137.02C75.86 151.77 75.65 163.77 75.39 163.77Z" fill="#FAFAFA"/>
<path d="M118.07 137.31C118.07 137.31 117.63 137.17 116.97 136.69C116.045 135.999 115.232 135.169 114.56 134.23C113.393 132.69 112.581 130.91 112.182 129.019C111.783 127.128 111.807 125.172 112.252 123.292C112.697 121.411 113.553 119.652 114.758 118.141C115.962 116.63 117.486 115.403 119.22 114.55C120.257 114.015 121.37 113.64 122.52 113.44C122.93 113.328 123.36 113.304 123.78 113.37C123.78 113.55 122.01 113.72 119.58 115.13C117.994 116.007 116.609 117.206 115.513 118.65C114.418 120.094 113.637 121.751 113.22 123.515C112.802 125.278 112.759 127.11 113.091 128.891C113.424 130.673 114.125 132.365 115.15 133.86C116.028 135.088 117.004 136.242 118.07 137.31Z" fill="#FAFAFA"/>
<path d="M209.52 202.6C209.52 202.6 209.79 202.22 210.33 201.51L210.78 200.91C210.94 200.68 211.08 200.41 211.24 200.12C211.639 199.47 211.973 198.784 212.24 198.07C212.4 197.66 212.59 197.24 212.75 196.78C212.91 196.32 213.02 195.78 213.16 195.3C213.323 194.761 213.437 194.209 213.5 193.65C213.619 193.048 213.706 192.441 213.76 191.83C213.996 188.902 213.862 185.955 213.36 183.06C212.36 176.49 209.56 168.77 205.3 160.37C200.358 150.899 194.568 141.896 188 133.47C180.093 123.209 171.471 113.518 162.2 104.47C151.609 94.0471 140.294 84.3863 128.34 75.56C122.01 70.92 115.34 66.41 108.34 62.16C101.185 57.7993 93.7563 53.9045 86.1 50.5C78.2089 46.8949 69.8976 44.2913 61.36 42.75C57.0018 41.9753 52.5515 41.864 48.16 42.42C45.9637 42.7497 43.8213 43.3719 41.79 44.27C39.745 45.1798 37.9154 46.5116 36.4212 48.1781C34.9271 49.8446 33.8021 51.8082 33.12 53.94C32.4567 56.0599 32.0833 58.2599 32.01 60.48C31.9479 64.9065 32.5582 69.3167 33.82 73.56C36.3218 81.8688 39.8561 89.831 44.34 97.26C48.5932 104.484 53.3097 111.425 58.46 118.04C63.46 124.54 68.72 130.65 74.05 136.4C84.1803 147.279 95.0674 157.428 106.63 166.77C116.671 174.946 127.274 182.408 138.36 189.1C147.477 194.663 157.08 199.389 167.05 203.22C175.88 206.5 183.87 208.38 190.51 208.64C193.444 208.818 196.388 208.617 199.27 208.04C199.867 207.921 200.458 207.771 201.04 207.59C201.589 207.453 202.127 207.275 202.65 207.06L204.07 206.48C204.51 206.27 204.91 206.03 205.29 205.83C205.97 205.468 206.616 205.047 207.22 204.57C207.48 204.37 207.74 204.21 207.95 204.03L208.49 203.51L209.49 202.58L208.54 203.58L208 204.12C207.79 204.3 207.54 204.47 207.27 204.68C206.669 205.163 206.027 205.591 205.35 205.96C204.97 206.17 204.57 206.41 204.13 206.63L202.7 207.22C202.179 207.445 201.641 207.625 201.09 207.76C200.505 207.951 199.911 208.111 199.31 208.24C196.416 208.831 193.459 209.049 190.51 208.89C183.84 208.66 175.82 206.79 166.96 203.54C156.959 199.727 147.326 195.011 138.18 189.45C127.059 182.78 116.429 175.324 106.37 167.14C94.7786 157.802 83.8646 147.653 73.71 136.77C68.36 131.01 63.11 124.89 58.08 118.38C52.9143 111.752 48.1811 104.797 43.91 97.56C39.4047 90.0918 35.8505 82.0898 33.33 73.74C32.0588 69.4371 31.4485 64.9661 31.52 60.48C31.5912 58.2082 31.9748 55.9571 32.66 53.79C33.3545 51.5883 34.5075 49.5588 36.0433 47.8351C37.5791 46.1115 39.4627 44.7328 41.57 43.79C43.6437 42.8662 45.834 42.2303 48.08 41.9C52.5242 41.3291 57.0295 41.4404 61.44 42.23C70.0212 43.7765 78.3735 46.3971 86.3 50.03C93.9551 53.4501 101.378 57.3685 108.52 61.76C115.52 66.02 122.24 70.54 128.52 75.19C140.485 84.0466 151.81 93.7374 162.41 104.19C171.676 113.258 180.291 122.969 188.19 133.25C194.753 141.708 200.533 150.745 205.46 160.25C209.7 168.68 212.46 176.44 213.46 183.03C213.953 185.943 214.07 188.907 213.81 191.85C213.757 192.464 213.67 193.075 213.55 193.68C213.471 194.241 213.351 194.796 213.19 195.34C213.04 195.86 212.9 196.34 212.77 196.83C212.64 197.32 212.4 197.71 212.24 198.12C211.957 198.837 211.602 199.524 211.18 200.17C211.01 200.46 210.87 200.73 210.71 200.96L210.24 201.55C209.77 202.25 209.52 202.6 209.52 202.6Z" fill="#CFCFCF"/>
<path d="M241.52 125.33C241.52 125.33 241.47 124.87 241.4 123.98C241.4 123.753 241.38 123.503 241.34 123.23C241.34 122.95 241.22 122.66 241.16 122.33C241.029 121.573 240.828 120.83 240.56 120.11C240.41 119.7 240.27 119.26 240.09 118.81C239.91 118.36 239.64 117.92 239.4 117.43C239.148 116.91 238.854 116.412 238.52 115.94C238.19 115.46 237.91 114.94 237.52 114.42C235.749 112.074 233.685 109.964 231.38 108.14C226.25 103.92 219.03 100 210.27 96.57C200.276 92.7937 189.96 89.9288 179.45 88.01C166.724 85.6225 153.845 84.1355 140.91 83.56C126.065 82.846 111.188 83.1801 96.39 84.56C88.58 85.3 80.6 86.38 72.53 87.89C64.2869 89.3954 56.1498 91.433 48.17 93.99C39.8724 96.5505 31.9275 100.138 24.52 104.67C20.7777 107 17.4067 109.878 14.52 113.21C13.097 114.915 11.9128 116.806 11 118.83C10.0823 120.874 9.6078 123.089 9.6078 125.33C9.6078 127.571 10.0823 129.786 11 131.83C11.9165 133.852 13.1004 135.743 14.52 137.45C17.4075 140.767 20.7788 143.629 24.52 145.94C31.9229 150.476 39.8647 154.067 48.16 156.63C56.1392 159.189 64.2763 161.227 72.52 162.73C80.59 164.25 88.57 165.32 96.38 166.06C111.178 167.445 126.055 167.779 140.9 167.06C153.835 166.485 166.714 164.998 179.44 162.61C189.951 160.694 200.266 157.829 210.26 154.05C219.03 150.62 226.26 146.7 231.37 142.48C233.678 140.659 235.741 138.548 237.51 136.2C237.871 135.712 238.204 135.204 238.51 134.68C238.831 134.218 239.112 133.73 239.35 133.22L240.04 131.84C240.22 131.39 240.36 130.95 240.51 130.54C240.778 129.82 240.979 129.077 241.11 128.32C241.17 128 241.25 127.7 241.29 127.43C241.33 127.16 241.29 126.9 241.35 126.68C241.42 125.78 241.47 125.33 241.47 125.33C241.47 125.33 241.47 125.79 241.4 126.68C241.4 126.91 241.4 127.16 241.4 127.44C241.4 127.72 241.29 128.01 241.23 128.34C241.106 129.1 240.912 129.846 240.65 130.57C240.5 130.99 240.37 131.43 240.18 131.89L239.51 133.28C239.27 133.792 238.989 134.284 238.67 134.75C238.34 135.24 238.06 135.8 237.67 136.3C235.902 138.669 233.835 140.8 231.52 142.64C226.39 146.9 219.16 150.86 210.39 154.32C200.382 158.12 190.049 161.005 179.52 162.94C166.779 165.356 153.884 166.87 140.93 167.47C126.063 168.213 111.163 167.902 96.34 166.54C88.52 165.8 80.53 164.73 72.43 163.22C64.1671 161.715 56.0101 159.677 48.01 157.12C39.6726 154.546 31.6905 150.938 24.25 146.38C20.4421 144.023 17.0104 141.108 14.07 137.73C12.6135 135.983 11.4024 134.045 10.47 131.97C9.53039 129.867 9.04472 127.589 9.04472 125.285C9.04472 122.981 9.53039 120.703 10.47 118.6C11.4062 116.53 12.6171 114.596 14.07 112.85C17.0092 109.47 20.4451 106.557 24.26 104.21C31.6954 99.6516 39.6747 96.0467 48.01 93.48C56.0086 90.9149 64.1659 88.8739 72.43 87.37C80.52 85.86 88.51 84.79 96.33 84.05C111.153 82.6908 126.054 82.3834 140.92 83.13C153.878 83.731 166.777 85.2515 179.52 87.68C190.044 89.6238 200.37 92.519 210.37 96.33C219.15 99.8 226.37 103.75 231.51 108.01C233.816 109.857 235.876 111.991 237.64 114.36C238.001 114.855 238.335 115.369 238.64 115.9C238.955 116.369 239.236 116.86 239.48 117.37L240.15 118.77C240.34 119.22 240.47 119.67 240.62 120.08C240.883 120.807 241.077 121.557 241.2 122.32C241.26 122.64 241.33 122.94 241.37 123.22C241.41 123.5 241.37 123.75 241.37 123.97C241.52 124.87 241.52 125.33 241.52 125.33Z" fill="#CFCFCF"/>
<path d="M199.08 29.14C199.08 29.14 198.68 28.9 197.94 28.41L197.31 28C197.07 27.86 196.78 27.74 196.49 27.59C195.811 27.2332 195.102 26.9386 194.37 26.71C193.95 26.58 193.52 26.41 193.05 26.28L191.52 25.94C190.97 25.8194 190.412 25.7425 189.85 25.71C189.26 25.71 188.66 25.56 188.02 25.58C185.08 25.5453 182.146 25.8812 179.29 26.58C172.82 28.04 165.29 31.35 157.22 36.18C148.109 41.7605 139.524 48.1568 131.57 55.29C121.885 63.8834 112.82 73.1498 104.44 83.02C94.7724 94.308 85.9137 106.264 77.93 118.8C73.73 125.43 69.69 132.39 65.93 139.7C62.073 147.142 58.6994 154.824 55.83 162.7C52.7849 170.823 50.7692 179.296 49.83 187.92C49.3563 192.321 49.5552 196.769 50.42 201.11C50.8928 203.281 51.6599 205.377 52.7 207.34C53.7501 209.312 55.2053 211.04 56.97 212.41C58.7348 213.78 60.7693 214.761 62.94 215.29C65.0998 215.809 67.3202 216.031 69.54 215.95C73.959 215.706 78.3153 214.792 82.46 213.24C90.5796 210.169 98.2829 206.094 105.39 201.11C112.302 196.37 118.9 191.185 125.14 185.59C131.28 180.14 137.02 174.49 142.39 168.77C152.528 157.915 161.884 146.356 170.39 134.18C177.872 123.614 184.598 112.533 190.52 101.02C195.44 91.5381 199.493 81.6312 202.63 71.42C205.29 62.42 206.63 54.29 206.42 47.65C206.395 44.7105 205.992 41.7864 205.22 38.95C205.058 38.3599 204.865 37.7791 204.64 37.21C204.472 36.6741 204.261 36.1524 204.01 35.65C203.77 35.17 203.55 34.65 203.34 34.27C203.13 33.89 202.83 33.46 202.6 33.1C202.195 32.4448 201.73 31.8288 201.21 31.26C201 31.01 200.81 30.77 200.62 30.57L200.06 30.06C199.4 29.46 199.06 29.14 199.06 29.14L200.06 30.02L200.62 30.52C200.82 30.72 201.01 30.96 201.23 31.21C201.762 31.7697 202.234 32.383 202.64 33.04C202.88 33.41 203.15 33.79 203.4 34.21L204.08 35.59C204.344 36.0939 204.564 36.6191 204.74 37.16C204.92 37.72 205.19 38.28 205.33 38.91C206.119 41.7546 206.543 44.6883 206.59 47.64C206.82 54.31 205.51 62.44 202.87 71.5C199.758 81.7415 195.721 91.679 190.81 101.19C184.912 112.739 178.205 123.856 170.74 134.46C162.236 146.663 152.879 158.248 142.74 169.13C137.36 174.87 131.62 180.53 125.47 186C119.214 191.61 112.6 196.808 105.67 201.56C98.545 206.572 90.8176 210.667 82.67 213.75C78.4539 215.337 74.0185 216.264 69.52 216.5C67.2496 216.578 64.9791 216.35 62.77 215.82C60.5301 215.275 58.4307 214.262 56.6091 212.849C54.7876 211.436 53.2851 209.654 52.2 207.62C51.1362 205.613 50.3522 203.47 49.87 201.25C48.9977 196.859 48.7954 192.361 49.27 187.91C50.2265 179.24 52.2657 170.723 55.34 162.56C58.2214 154.683 61.6084 147 65.48 139.56C69.24 132.24 73.29 125.27 77.48 118.63C85.4845 106.085 94.3667 94.1215 104.06 82.83C112.469 72.9575 121.565 63.6911 131.28 55.1C139.281 47.9394 147.92 41.526 157.09 35.94C165.21 31.12 172.76 27.83 179.27 26.39C182.138 25.678 185.086 25.3419 188.04 25.39C188.655 25.4045 189.27 25.4512 189.88 25.53C190.445 25.5657 191.007 25.646 191.56 25.77L193.08 26.09C193.55 26.23 193.98 26.39 194.4 26.53C195.134 26.764 195.844 27.0688 196.52 27.44C196.82 27.59 197.1 27.72 197.34 27.86L197.96 28.28C198.71 28.87 199.08 29.14 199.08 29.14Z" fill="#CFCFCF"/>
<path d="M4.99001 180.6C7.37035 180.6 9.3 178.67 9.3 176.29C9.3 173.91 7.37035 171.98 4.99001 171.98C2.60966 171.98 0.680008 173.91 0.680008 176.29C0.680008 178.67 2.60966 180.6 4.99001 180.6Z" fill="#CFCFCF"/>
<path d="M251.3 39.64C251.298 40.492 251.044 41.3243 250.569 42.0318C250.094 42.7392 249.42 43.2901 248.632 43.6148C247.845 43.9395 246.978 44.0234 246.143 43.856C245.308 43.6885 244.541 43.2773 243.939 42.6741C243.337 42.0709 242.928 41.3029 242.762 40.4672C242.597 39.6314 242.683 38.7653 243.009 37.9783C243.336 37.1914 243.888 36.5188 244.597 36.0457C245.305 35.5725 246.138 35.32 246.99 35.32C247.557 35.32 248.118 35.4318 248.642 35.649C249.165 35.8663 249.641 36.1846 250.041 36.5859C250.442 36.9872 250.759 37.4635 250.975 37.9876C251.191 38.5116 251.301 39.0732 251.3 39.64Z" fill="#CFCFCF"/>
<path d="M35.26 187.42C35.26 187.638 35.1952 187.851 35.0739 188.032C34.9526 188.213 34.7802 188.354 34.5786 188.437C34.3771 188.52 34.1554 188.541 33.9417 188.498C33.7281 188.455 33.5321 188.349 33.3787 188.194C33.2252 188.039 33.1213 187.842 33.0799 187.628C33.0386 187.414 33.0618 187.193 33.1466 186.992C33.2314 186.791 33.374 186.62 33.5562 186.501C33.7384 186.381 33.952 186.318 34.17 186.32C34.46 186.323 34.7372 186.44 34.9414 186.646C35.1455 186.852 35.26 187.13 35.26 187.42Z" fill="#CFCFCF"/>
<path d="M58.65 66.6C58.65 66.8176 58.5855 67.0302 58.4646 67.2111C58.3437 67.392 58.172 67.533 57.971 67.6163C57.77 67.6995 57.5488 67.7213 57.3354 67.6789C57.122 67.6364 56.926 67.5317 56.7722 67.3778C56.6184 67.224 56.5136 67.028 56.4711 66.8146C56.4287 66.6012 56.4505 66.38 56.5337 66.179C56.617 65.978 56.758 65.8062 56.9389 65.6854C57.1198 65.5645 57.3324 65.5 57.55 65.5C57.8417 65.5 58.1215 65.6159 58.3278 65.8222C58.5341 66.0285 58.65 66.3083 58.65 66.6Z" fill="#CFCFCF"/>
<path d="M229.64 125.33C229.64 125.548 229.575 125.761 229.454 125.942C229.333 126.123 229.16 126.264 228.959 126.347C228.757 126.43 228.535 126.451 228.322 126.408C228.108 126.365 227.912 126.259 227.759 126.104C227.605 125.949 227.501 125.752 227.46 125.538C227.419 125.324 227.442 125.103 227.527 124.902C227.611 124.701 227.754 124.53 227.936 124.411C228.118 124.291 228.332 124.228 228.55 124.23C228.694 124.23 228.837 124.259 228.969 124.314C229.102 124.369 229.223 124.451 229.324 124.553C229.426 124.655 229.506 124.776 229.56 124.91C229.614 125.043 229.641 125.186 229.64 125.33Z" fill="#CFCFCF"/>
<path d="M244.87 74.24C244.872 74.4584 244.809 74.6724 244.689 74.8549C244.569 75.0373 244.397 75.1798 244.196 75.2643C243.994 75.3488 243.772 75.3714 243.558 75.3293C243.344 75.2872 243.147 75.1822 242.992 75.0278C242.838 74.8733 242.733 74.6764 242.691 74.4621C242.649 74.2478 242.671 74.0258 242.756 73.8244C242.84 73.623 242.983 73.4513 243.165 73.3312C243.348 73.2111 243.562 73.148 243.78 73.15C244.069 73.15 244.346 73.2648 244.551 73.4693C244.755 73.6737 244.87 73.9509 244.87 74.24Z" fill="#CFCFCF"/>
</svg>
